<svg width="720" height="400" viewBox="0 0 720 400" fill="none" xmlns="http://www.w3.org/2000/svg">
<path d="M294.341 135.688C294.294 135.716 294.243 135.737 294.189 135.75C294.258 135.819 294.331 135.882 294.409 135.94C294.454 135.851 294.5 135.762 294.539 135.675C294.472 135.68 294.403 135.682 294.341 135.688Z" fill="#B89FF6"/>
<path d="M377.486 148.752C377.326 148.52 377.205 148.264 377.125 147.994C377.246 148.594 376.097 148.808 377.486 148.752Z" fill="#B89FF6"/>
<path d="M0 0H720V400H80C58.7827 400 38.4344 391.571 23.4315 376.569C8.42855 361.566 0 341.217 0 320L0 0Z" fill="#D1B4F8"/>
<path d="M566.129 125.008L566.279 124.965C566.295 124.805 566.311 124.648 566.311 124.492L566.129 125.008Z" fill="#B89FF6"/>
<path d="M74.75 183.03H53.645V159.9H74.75V183.03ZM68.135 177.405V165.615H60.215V177.405H68.135ZM80.105 159.45H86.945V170.115H92.66V176.01H86.945V188.61H80.105V159.45ZM55.805 186.36H62.69V195.495H87.62V201.21H55.805V186.36ZM104.403 159.675H111.243V164.535C111.243 171.735 114.528 174.885 119.703 176.37V182.265C114.843 181.545 110.253 179.16 107.868 176.1C105.573 179.34 100.983 181.86 95.9432 182.76V176.865C101.253 175.29 104.403 171.51 104.403 164.535V159.675ZM131.223 159.45V183.12H124.383V171.825H116.373V166.065H124.383V159.45H131.223ZM99.1832 192.795C99.1832 189.915 100.623 187.845 102.873 186.405C106.023 184.335 110.838 183.615 115.698 183.615C120.513 183.615 125.373 184.335 128.523 186.405C130.728 187.845 132.168 189.915 132.168 192.795C132.168 195.675 130.728 197.745 128.523 199.23C125.373 201.3 120.513 201.975 115.698 201.975C110.838 201.975 106.023 201.3 102.873 199.23C100.623 197.745 99.1832 195.675 99.1832 192.795ZM106.023 192.795C106.023 193.74 106.518 194.325 107.373 194.865C109.128 195.945 112.278 196.26 115.698 196.26C119.073 196.26 122.268 195.945 123.978 194.865C124.878 194.325 125.328 193.74 125.328 192.795C125.328 191.895 124.878 191.265 123.978 190.725C122.268 189.69 119.073 189.33 115.698 189.33C112.278 189.33 109.128 189.69 107.373 190.725C106.518 191.265 106.023 191.895 106.023 192.795ZM140.536 165.525V159.9H162.406V165.525H154.891C155.206 170.97 158.266 173.22 163.216 174.075V179.835C158.311 179.295 153.901 177.405 151.606 174.48C149.221 177.45 144.631 179.79 139.726 180.285V174.57C144.631 173.67 147.736 171.06 148.096 165.525H140.536ZM174.421 159.45V179.79H167.581V159.45H174.421ZM174.421 194.055H149.716V196.26H174.916V201.435H142.876V188.97H167.581V186.63H142.876V181.455H174.421V194.055ZM191.565 161.79V158.235H198.405V161.79H207.09V166.92H182.835V161.79H191.565ZM190.17 174.345C190.17 174.75 190.395 175.155 190.845 175.38C191.61 175.875 193.05 176.1 194.94 176.1C196.83 176.1 198.27 175.875 199.035 175.38C199.44 175.155 199.71 174.75 199.71 174.345C199.71 173.985 199.44 173.58 199.035 173.355C198.27 172.86 196.83 172.635 194.94 172.635C193.05 172.635 191.61 172.86 190.845 173.355C190.395 173.58 190.17 173.985 190.17 174.345ZM183.78 174.345C183.78 172.41 184.725 170.88 186.255 169.845C188.325 168.45 191.43 167.82 194.94 167.82C198.45 167.82 201.51 168.45 203.625 169.845C205.155 170.88 206.1 172.41 206.1 174.345C206.1 176.325 205.155 177.81 203.625 178.89C202.23 179.79 200.475 180.375 198.405 180.69V183.075H202.86C206.28 183.075 208.305 182.625 209.7 181.635V159.45H216.54V172.23H222.3V178.035H216.54V191.895H209.7V186.72C208.26 187.935 205.83 188.43 201.42 188.43H182.385V183.075H191.61V180.69C189.495 180.42 187.65 179.835 186.255 178.89C184.725 177.81 183.78 176.325 183.78 174.345ZM217.215 196.035V201.435H185.4V190.455H192.285V196.035H217.215ZM260.098 163.95H232.243V179.61H260.458V182.805H246.283V195.405H262.303V198.555H226.483V195.405H242.638V182.805H228.643V160.8H260.098V163.95ZM283.902 160.53H304.332V163.68H295.917V165.705C295.917 172.545 300.192 176.055 305.052 177.225V180.42C300.192 179.43 296.052 176.55 294.207 172.77C292.407 176.64 288.222 179.97 283.227 180.96V177.72C288.222 176.64 292.317 172.635 292.317 165.705V163.68H283.902V160.53ZM316.347 181.005H312.747V160.08H316.347V181.005ZM312.747 189.105V183.885H316.347V200.805H286.422V183.885H290.067V189.105H312.747ZM312.747 192.21H290.067V197.7H312.747V192.21ZM326.605 179.115C326.605 169.665 327.505 164.4 329.98 161.835C331.105 160.71 332.635 160.08 334.57 160.08C336.55 160.08 338.125 160.71 339.205 161.835C341.5 164.175 342.4 168.72 342.535 176.595H347.98V160.305H351.49V199.905H347.98V179.745H342.58C342.535 188.79 341.68 193.875 339.205 196.35C338.125 197.52 336.55 198.06 334.57 198.06C332.635 198.06 331.105 197.52 329.98 196.35C327.505 193.83 326.605 188.565 326.605 179.115ZM330.115 179.115C330.115 187.53 330.61 192.03 332.23 193.965C332.86 194.64 333.625 195 334.57 195C335.56 195 336.37 194.64 336.955 193.965C338.575 192.03 339.115 187.53 339.115 179.115C339.115 170.745 338.575 166.2 336.955 164.31C336.37 163.59 335.56 163.23 334.57 163.23C333.625 163.23 332.86 163.59 332.23 164.31C330.61 166.2 330.115 170.745 330.115 179.115ZM359.995 200.31H356.485V160.08H359.995V200.31ZM380.378 185.955C378.893 191.265 374.168 195.585 368.723 197.565V194.235C373.808 191.94 378.578 187.395 378.578 176.28V160.53H382.178V176.28C382.178 187.395 386.993 191.805 391.988 194.235V197.565C386.633 195.495 381.953 191.22 380.378 185.955ZM402.608 160.08V200.355H398.963V178.17H388.973V174.975H398.963V160.08H402.608ZM69.71 217.725H54.275V214.53H73.355V216.825C73.355 229.92 65.66 236.58 53.24 238.11V234.96C63.5 233.655 69.71 227.625 69.71 217.725ZM86.135 214.08V225.465H92.3V228.66H86.135V242.115H82.535V214.08H86.135ZM60.215 241.35V251.43H86.9V254.535H56.615V241.35H60.215ZM115.743 235.905H97.4732V214.53H116.778V217.725H101.073V232.8H116.598C120.603 232.8 123.663 232.17 125.733 230.595V214.08H129.333V225.465H135.498V228.66H129.333V242.115H125.733V233.61C123.708 235.23 120.378 235.905 115.743 235.905ZM103.413 241.35V251.43H130.098V254.535H99.8132V241.35H103.413ZM149.176 212.82H152.776V219.03H162.586V222.18H139.456V219.03H149.176V212.82ZM144.811 239.28C144.811 243.24 145.576 246.12 147.196 247.74C148.231 248.685 149.536 249.225 151.111 249.225C152.686 249.225 153.991 248.685 155.026 247.74C156.646 246.12 157.411 243.24 157.411 239.28C157.411 235.365 156.646 232.44 155.026 230.865C153.991 229.92 152.686 229.38 151.111 229.38C149.536 229.38 148.231 229.92 147.196 230.865C145.576 232.44 144.811 235.365 144.811 239.28ZM141.211 239.28C141.211 234.195 142.561 230.46 144.946 228.345C146.521 226.95 148.636 226.23 151.111 226.23C153.586 226.23 155.701 226.95 157.276 228.345C159.661 230.46 161.011 234.195 161.011 239.28C161.011 244.41 159.661 248.1 157.276 250.215C155.701 251.61 153.586 252.285 151.111 252.285C148.636 252.285 146.521 251.61 144.946 250.215C142.561 248.1 141.211 244.41 141.211 239.28ZM172.531 214.08V231H179.101V234.15H172.531V254.355H168.931V214.08H172.531ZM195.255 226.86V217.95H184.545V214.8H198.855V226.68C198.855 227.985 198.81 229.2 198.72 230.415H204.93V214.305H208.485V253.905H204.93V233.61H198.36C196.92 243.06 192.285 249.36 184.005 251.835V248.325C191.07 245.895 195.255 238.605 195.255 226.86ZM217.305 254.31H213.795V214.08H217.305V254.31ZM240.029 219.66V213.9H261.989V219.66H254.339V221.505C254.339 228.615 257.399 231.495 262.754 232.575V238.425C257.894 237.75 253.484 235.635 251.099 232.485C248.579 235.68 243.989 238.335 239.219 238.875V233.025C244.529 231.945 247.589 228.75 247.589 221.505V219.66H240.029ZM273.914 213.45V242.61H267.074V213.45H273.914ZM274.589 249.495V255.21H242.369V240.405H249.209V249.495H274.589ZM317.157 230.46H291.057V235.41H317.652V241.215H311.667V247.47H319.227V253.275H282.147V247.47H289.932V241.215H284.172V224.7H310.317V219.93H284.172V214.17H317.157V230.46ZM304.872 241.215H296.727V247.47H304.872V241.215ZM334.255 214.17V221.685H353.515V214.17H360.355V239.775H347.35V247.47H362.425V253.275H325.345V247.47H340.51V239.775H327.37V214.17H334.255ZM334.255 233.97H353.515V227.49H334.255V233.97ZM370.838 213.675H377.678V223.17H403.508V228.885H370.838V213.675ZM405.848 238.56H368.318V232.8H405.848V238.56ZM370.838 241.44H377.723V249.495H404.003V255.21H370.838V241.44ZM432.619 213.9V219.345H440.494V213.9H447.019V221.82H453.094V213.45H459.934V236.31H453.094V227.535H447.019V235.095H426.049V213.9H432.619ZM432.619 229.515H440.494V224.925H432.619V229.515ZM435.229 241.44H453.139V237.705H459.934V255.435H428.389V237.705H435.229V241.44ZM453.139 249.9V247.065H435.229V249.9H453.139Z" fill="white"/>
<path d="M64.364 100.691H69.46V91.5633H71.868V117.127H69.46V102.791H64.42C64.224 108.391 61.452 111.331 57.924 111.331C54.284 111.331 51.4 108.167 51.4 102.175C51.4 96.1833 54.284 93.0473 57.924 93.0473C61.284 93.0473 63.916 95.6793 64.364 100.691ZM61.984 102.175C61.984 98.0033 60.528 95.1753 57.924 95.1753C55.32 95.1753 53.864 98.0033 53.864 102.175C53.864 106.347 55.32 109.203 57.924 109.203C60.528 109.203 61.984 106.347 61.984 102.175ZM94.4248 91.5633H96.8328V117.127H94.4248V91.5633ZM77.3168 93.7473H89.0208V95.7913H79.7808V108.307H83.5888C87.3408 108.307 90.6448 107.691 92.6048 107.271V109.315C90.4768 109.903 86.5848 110.435 83.2528 110.435H77.3168V93.7473ZM114.07 102.175C114.07 108.167 111.242 111.331 107.574 111.331C103.934 111.331 101.05 108.167 101.05 102.175C101.05 96.1833 103.934 93.0473 107.574 93.0473C111.242 93.0473 114.07 96.1833 114.07 102.175ZM124.85 103.211H120.454V117.127H118.046V91.5633H120.454V101.083H124.85V103.211ZM111.634 102.175C111.634 98.0033 110.178 95.1753 107.574 95.1753C104.97 95.1753 103.514 98.0033 103.514 102.175C103.514 106.347 104.97 109.203 107.574 109.203C110.178 109.203 111.634 106.347 111.634 102.175ZM125.623 95.7633V93.7473H140.015V95.7633H125.623ZM128.283 108.055L128.059 96.7993H130.383L130.607 108.055H133.435C134.107 108.055 134.807 108.055 135.507 108.027L135.675 96.7993H137.999L137.831 107.887C139.259 107.747 140.631 107.551 141.863 107.271V109.287C139.595 109.903 136.459 110.127 133.463 110.127H125.203V108.055H128.283ZM149.815 102.931H145.419V117.127H143.011V91.5633H145.419V100.803H149.815V102.931ZM175.581 91.5633H177.989V117.127H175.581V91.5633ZM158.277 110.155V93.4953H160.741V99.8233H167.825V93.4953H170.205V110.155H158.277ZM167.853 101.867H160.713V108.111H167.853V101.867ZM182.878 110.463V93.7753H191.838V95.8473H185.314V108.391H186.238C189.374 108.391 192.118 107.831 193.77 107.467V109.455C191.95 109.959 188.702 110.463 185.93 110.463H182.878ZM203.374 117.127H200.966V103.155H197.466V116.483H195.114V91.8433H197.466V101.083H200.966V91.5633H203.374V117.127ZM219.967 95.4833H225.511V91.5633H227.919V109.987H225.511V102.791H219.967V105.591H208.179V92.9073H219.967V95.4833ZM219.967 100.747H225.539V97.4993H219.967V100.747ZM217.671 103.519V94.9513H210.615V103.519H217.671ZM228.479 116.623H211.959V109.007H214.395V114.523H228.479V116.623ZM256.737 91.5633H259.145V110.603H256.737V91.5633ZM259.705 116.623H243.465V109.511H245.901V114.523H259.705V116.623ZM248.645 100.047C250.129 101.839 252.481 103.463 254.413 104.443L252.873 106.235C250.913 105.143 248.869 103.547 247.273 101.727C245.117 104.023 242.345 105.787 239.405 107.131L237.865 105.339C243.913 102.847 247.525 98.8153 248.309 95.1473C246.237 95.2313 244.193 95.2313 242.149 95.2313H239.741V93.1593H243.941C246.321 93.1593 248.729 93.1593 251.361 93.1033C251.025 95.7913 250.045 98.0873 248.645 100.047ZM266.75 106.711V99.0113H280.33V95.3433H266.722V93.2433H282.738V100.999H269.158V104.667H283.578V106.711H279.938V111.331H286.63V113.375H262.83V111.331H270.25V106.711H266.75ZM277.586 106.711H272.602V111.331H277.586V106.711ZM318.389 103.771H313.993V117.127H311.585V91.5633H313.993V101.643H318.389V103.771ZM294.869 111.527L293.133 109.987C297.697 106.711 301.113 101.587 300.525 93.1313H303.073C303.129 95.5673 302.905 97.7793 302.485 99.7953C303.829 103.631 306.349 106.907 309.737 109.175L308.169 110.967C305.369 109.007 303.101 106.263 301.561 102.875C300.133 106.515 297.837 109.371 294.869 111.527ZM339.378 96.3793C339.378 98.0033 338.426 99.3753 336.55 100.243V104.387H343.102V106.431H318.742V104.387H325.266V100.215C323.39 99.3753 322.466 98.0033 322.466 96.3793C322.466 93.6353 325.322 91.3953 330.922 91.3953C336.522 91.3953 339.378 93.6073 339.378 96.3793ZM334.114 100.971C333.162 101.139 332.098 101.223 330.922 101.223C329.718 101.223 328.654 101.139 327.702 100.943V104.415H334.114V100.971ZM339.714 112.619C339.714 115.307 336.774 117.351 331.062 117.351C325.322 117.351 322.354 115.307 322.354 112.619C322.354 109.959 325.322 108.055 331.062 108.055C336.774 108.055 339.714 109.959 339.714 112.619ZM337.082 112.647C337.082 111.359 335.626 109.987 331.034 109.987C326.414 109.987 324.958 111.359 324.958 112.647C324.958 113.907 326.414 115.307 331.034 115.307C335.626 115.307 337.082 113.907 337.082 112.647ZM336.83 96.4913C336.83 94.8673 334.982 93.3553 330.922 93.3553C326.834 93.3553 325.042 94.8673 325.042 96.4913C325.042 97.9753 326.834 99.3193 330.922 99.3193C334.982 99.3193 336.83 97.9753 336.83 96.4913ZM345.554 104.219V92.3193H347.99V96.0713H355.102V92.3193H357.51V97.0793H362.858V91.5633H365.266V105.227H362.858V99.2073H357.51V104.219H345.554ZM355.102 98.0873H347.99V102.147H355.102V98.0873ZM365.266 116.735H349.25V106.823H351.63V109.399H362.886V106.683H365.266V116.735ZM362.886 114.635V111.387H351.63V114.635H362.886Z" fill="white" fill-opacity="0.85"/>
<g clip-path="url(#clip0_332:4900)">
<path d="M581.41 143.508C581.41 143.508 582.051 160.314 582.69 164.316C582.69 164.316 585.09 183.19 601.578 185.11C601.578 185.11 614.703 188.486 623.346 165.117C623.346 165.117 628.308 168.798 631.989 155.353C631.989 155.353 632.95 144.469 624.466 150.553C624.466 150.553 620.705 144.631 616.703 139.669C616.703 139.669 618.464 129.585 614.462 128.785C614.462 128.785 607.019 119.822 591.653 126.544C591.654 126.541 581.89 129.582 581.41 143.508Z" fill="#FFD7D5"/>
<path d="M583.577 154.998C586.737 154.729 589.455 156.335 589.646 158.586C589.837 160.837 587.431 162.88 584.271 163.149C583.66 163.202 583.045 163.182 582.438 163.091C582.087 160.496 581.907 157.88 581.898 155.261C582.446 155.107 583.009 155.019 583.577 154.998Z" fill="#F7CAC7"/>
<path d="M620.612 165.279L621.252 189.324L605.26 226.611C605.26 226.611 590.919 191.289 591.398 191.611C591.877 191.933 591.254 178.085 591.254 178.085C591.254 178.085 617.09 161.115 620.612 165.279Z" fill="#FFD7D5"/>
<path d="M613.817 158.585C614.008 160.836 611.602 162.879 608.441 163.148C605.28 163.417 602.563 161.811 602.372 159.56C602.181 157.309 604.587 155.267 607.747 154.997C610.907 154.727 613.625 156.335 613.817 158.585Z" fill="#F7CAC7"/>
<path d="M597.414 165.446C597.533 165.446 597.647 165.401 597.734 165.321C597.822 165.241 597.876 165.131 597.887 165.013C597.897 164.895 597.864 164.777 597.792 164.683C597.72 164.588 597.616 164.524 597.499 164.502C596.328 164.126 595.282 163.437 594.474 162.508C595.587 160.363 596.924 153.537 597.081 152.722C597.105 152.598 597.079 152.47 597.008 152.365C596.937 152.261 596.828 152.189 596.704 152.165C596.58 152.141 596.452 152.167 596.347 152.238C596.242 152.309 596.17 152.418 596.146 152.542C595.704 154.833 594.367 161.052 593.496 162.296C593.436 162.382 593.406 162.486 593.411 162.591C593.416 162.697 593.455 162.797 593.523 162.877C593.6 162.968 595.423 165.092 597.33 165.44C597.358 165.444 597.386 165.446 597.414 165.446Z" fill="#B96E6A"/>
<path d="M591.931 151.815C591.925 152.794 591.374 153.585 590.699 153.581C590.024 153.577 589.482 152.781 589.488 151.801C589.494 150.821 590.046 150.031 590.72 150.035C591.394 150.039 591.931 150.835 591.931 151.815Z" fill="#47455A"/>
<path d="M605.425 151.703C605.419 152.682 604.867 153.473 604.193 153.468C603.519 153.463 602.976 152.668 602.982 151.688C602.988 150.708 603.54 149.919 604.214 149.923C604.888 149.927 605.43 150.721 605.425 151.703Z" fill="#47455A"/>
<path d="M608.941 146.549C608.941 146.549 604.941 140.949 601.258 146.228C601.258 146.228 603.499 144.468 608.941 146.549Z" fill="#47455A"/>
<path d="M586.133 146.549C586.133 146.549 590.133 140.949 593.816 146.228C593.816 146.228 591.575 144.468 586.133 146.549Z" fill="#47455A"/>
<path d="M608.477 160.545C609.379 160.593 610.281 160.445 611.12 160.111C611.959 159.776 612.716 159.263 613.336 158.607C616.244 155.358 614.905 149.263 614.847 149.007L614.798 148.879C613.239 146.107 604.135 147.513 603.098 147.679C599.271 148.202 598.877 151.012 598.862 151.132L598.855 151.186V151.239C599.855 160.871 607.138 160.471 607.205 160.469C607.628 160.519 608.052 160.544 608.477 160.545ZM613.932 149.288C614.07 149.968 615.05 155.267 612.624 157.974C611.46 159.274 609.646 159.797 607.231 159.522C606.886 159.544 600.738 159.832 599.815 151.205C599.878 150.882 600.362 149.015 603.241 148.622C606.856 148.03 612.895 147.698 613.932 149.287V149.288Z" fill="white"/>
<path d="M586.306 160.836C586.569 160.839 586.833 160.821 587.095 160.783C588.051 160.849 589.01 160.704 589.904 160.359C590.798 160.013 591.605 159.475 592.269 158.783C594.841 155.99 594.392 151.338 594.369 151.141C594.186 148.575 591.223 148.023 591.097 148.001H591.076C580.082 146.545 578.957 150.044 578.866 150.448L578.854 150.502V150.559C578.914 154.674 579.979 157.621 582.02 159.319C583.228 160.309 584.744 160.845 586.306 160.836ZM587.026 159.836C586.244 159.929 585.452 159.866 584.695 159.649C583.939 159.432 583.233 159.066 582.62 158.573C580.82 157.073 579.878 154.394 579.811 150.62C579.953 150.291 581.4 147.676 590.943 148.938C591.127 148.972 593.296 149.424 593.425 151.222C593.431 151.281 593.849 155.666 591.567 158.14C590.977 158.735 590.265 159.195 589.481 159.488C588.696 159.781 587.857 159.9 587.022 159.836H587.026Z" fill="white"/>
<path d="M599.07 151.584L599.607 150.798C598.451 150.007 595.707 148.998 593.584 150.831L594.208 151.551C596.295 149.739 598.958 151.509 599.07 151.584Z" fill="white"/>
<path d="M614.359 148.634L614.408 149.585L626.733 148.945L626.683 147.994L614.359 148.634Z" fill="white"/>
<path d="M579.317 150.075L579.34 151.026L581.722 150.97L581.7 150.018L579.317 150.075Z" fill="white"/>
<path d="M626.568 149.652C626.568 149.652 624.468 152.152 624.146 153.591C623.852 154.683 623.364 155.713 622.706 156.632L621.425 156.952L621.746 146.552C621.746 146.552 617.424 143.352 616.704 139.669C616.704 139.669 616.464 130.869 614.463 128.785C614.463 128.785 603.663 127.665 602.058 126.064C602.058 126.064 590.534 131.826 586.692 131.025C584.049 135.255 579.851 141.225 581.831 146.357C580.982 145.748 579.482 146.057 578.497 145.812C577.293 145.482 576.155 144.945 575.134 144.226C573.249 142.945 571.802 141.117 570.988 138.989C569.795 135.798 570.146 132.236 570.919 128.919C570.667 129.804 571.78 130.613 572.668 130.369C573.098 130.201 573.478 129.927 573.773 129.573C574.067 129.218 574.267 128.794 574.353 128.341C576.266 121.04 580.475 114.547 586.359 109.821C587.608 108.785 588.959 107.88 590.392 107.121C596.34 104.07 603.522 104.733 609.978 106.47C616.936 108.341 623.76 111.504 628.621 116.823C633.482 122.142 636.065 129.897 633.933 136.78C633.62 137.792 633.21 138.78 632.959 139.805C632.652 141.579 632.446 143.369 632.34 145.167C632.14 146.737 631.735 148.274 631.134 149.738C629.622 148.656 628.372 148.264 626.568 149.652Z" fill="#47455A"/>
<path d="M621.712 188.812L604.512 215.149L591.397 191.607L553.236 207.517L561.303 322.323H658.48L667.725 206.011L621.712 188.812Z" fill="#5CBAA9"/>
<path d="M630.311 190.64L604.834 270.94L580.862 194.402L551.945 206.227L560.652 323.827L670.084 325.117L667.719 206.01L630.311 190.64Z" fill="white"/>
<g opacity="0.54">
<path style="mix-blend-mode:multiply" opacity="0.46" d="M551.947 206.227L568.322 199.527C567.135 220.951 567.367 242.501 574.077 262.727C582.369 287.727 599.642 307.99 620.491 324.527L560.654 323.822L551.947 206.227Z" fill="url(#paint0_linear_332:4900)"/>
</g>
<path d="M591.396 181.073C591.396 181.073 600.856 190.533 621.065 170.973C621.065 170.973 611.821 190.538 591.611 187.313L591.396 181.073Z" fill="#F1A6A1"/>
<path d="M604.835 271.739C604.92 271.738 605.003 271.715 605.076 271.672C605.149 271.628 605.209 271.567 605.25 271.493L628.792 228.923C628.85 228.818 628.867 228.696 628.838 228.58L625.695 215.694L638.946 207.494C639.026 207.445 639.09 207.373 639.129 207.288C639.168 207.202 639.181 207.107 639.166 207.015L636.909 192.826C636.886 192.704 636.817 192.596 636.716 192.525C636.614 192.453 636.49 192.424 636.367 192.443C636.245 192.463 636.135 192.529 636.061 192.628C635.986 192.727 635.953 192.851 635.969 192.974L638.176 206.851L624.902 215.07C624.817 215.122 624.75 215.201 624.712 215.294C624.674 215.386 624.666 215.489 624.69 215.587L627.87 228.628L604.832 270.288L582.132 229.926L585.303 218.826C585.33 218.731 585.327 218.63 585.295 218.537C585.263 218.444 585.202 218.364 585.122 218.307L574.074 210.416L576.252 196.638C576.264 196.575 576.263 196.511 576.249 196.448C576.236 196.386 576.21 196.327 576.173 196.275C576.137 196.223 576.09 196.179 576.036 196.145C575.982 196.112 575.921 196.089 575.858 196.079C575.795 196.069 575.731 196.072 575.669 196.088C575.607 196.103 575.549 196.131 575.498 196.169C575.447 196.207 575.405 196.255 575.373 196.31C575.341 196.365 575.32 196.426 575.312 196.49L573.088 210.558C573.074 210.645 573.085 210.734 573.119 210.816C573.153 210.898 573.209 210.968 573.281 211.02L584.295 218.888L581.154 229.853C581.137 229.913 581.131 229.976 581.139 230.039C581.146 230.101 581.166 230.162 581.197 230.217L604.417 271.497C604.459 271.571 604.52 271.632 604.593 271.674C604.667 271.717 604.75 271.739 604.835 271.739Z" fill="#99F2EE"/>
<path d="M605.157 324.304C605.22 324.304 605.282 324.291 605.34 324.267C605.397 324.243 605.449 324.207 605.493 324.163C605.537 324.118 605.572 324.066 605.596 324.008C605.619 323.95 605.631 323.888 605.63 323.825L605.307 271.26C605.307 271.134 605.256 271.014 605.167 270.925C605.078 270.836 604.957 270.787 604.831 270.787C604.769 270.787 604.707 270.8 604.649 270.824C604.592 270.848 604.539 270.884 604.495 270.928C604.451 270.972 604.417 271.025 604.393 271.083C604.369 271.141 604.357 271.203 604.357 271.265L604.68 323.831C604.681 323.957 604.732 324.077 604.821 324.166C604.911 324.255 605.032 324.304 605.157 324.304Z" fill="#99F2EE"/>
<path d="M629.599 313.152L619.457 314.226L598.099 309.353L585.299 310.684L580.042 312.458L575.831 313.879C574.814 314.222 572.345 314.555 572.519 316.121C572.666 317.45 574.374 318.021 575.519 317.893C574.38 317.967 572.655 319.128 571.706 319.742C571.203 320.026 570.787 320.44 570.5 320.942C570.363 321.196 570.309 321.486 570.343 321.772C570.378 322.058 570.5 322.327 570.693 322.542C571.148 322.968 571.402 323.476 571.993 323.671C570.979 323.964 570.023 324.428 569.164 325.041C569.164 325.041 568.625 330.413 574.89 327.522C574.89 327.522 572.747 332.14 582.853 329.348C582.853 329.348 594.332 327.032 594.526 327.148C594.72 327.264 610.315 329.503 610.315 329.503C610.315 329.503 616.089 329.914 619.715 326.543L629.108 327.669L629.599 313.152Z" fill="#FFD7D5"/>
<path d="M571.835 324.119C571.883 324.119 571.93 324.11 571.974 324.091L582.652 319.564L593.715 316.764C593.807 316.741 593.885 316.683 593.934 316.601C593.982 316.52 593.996 316.423 593.973 316.331C593.95 316.24 593.891 316.161 593.81 316.113C593.729 316.064 593.632 316.05 593.54 316.073L582.425 318.887L571.695 323.428C571.62 323.461 571.558 323.519 571.521 323.592C571.483 323.664 571.471 323.748 571.488 323.828C571.504 323.908 571.548 323.981 571.611 324.033C571.674 324.085 571.753 324.114 571.835 324.114V324.119Z" fill="#F1A6A1"/>
<path d="M575.239 318.316C575.286 318.316 575.332 318.307 575.375 318.289L586.092 313.846L593.711 312.734C593.76 312.73 593.807 312.716 593.849 312.693C593.892 312.67 593.929 312.638 593.959 312.6C593.989 312.562 594.012 312.519 594.024 312.472C594.037 312.425 594.04 312.376 594.033 312.328C594.026 312.28 594.01 312.234 593.985 312.193C593.96 312.152 593.926 312.116 593.887 312.088C593.847 312.06 593.803 312.04 593.755 312.03C593.708 312.019 593.659 312.019 593.611 312.028L585.911 313.163L575.111 317.628C575.035 317.66 574.972 317.717 574.933 317.79C574.894 317.863 574.881 317.947 574.898 318.028C574.914 318.109 574.958 318.182 575.022 318.234C575.086 318.287 575.166 318.315 575.248 318.315L575.239 318.316Z" fill="#F1A6A1"/>
<path d="M574.885 327.883C574.926 327.883 574.966 327.876 575.005 327.862L586.063 323.885L594.041 321.792C594.088 321.782 594.132 321.762 594.172 321.734C594.211 321.706 594.244 321.671 594.269 321.63C594.294 321.589 594.311 321.543 594.318 321.495C594.325 321.448 594.323 321.399 594.31 321.352C594.298 321.306 594.277 321.262 594.247 321.224C594.217 321.186 594.181 321.154 594.138 321.131C594.096 321.108 594.05 321.093 594.002 321.088C593.954 321.083 593.906 321.088 593.86 321.102L585.852 323.202L574.764 327.188C574.685 327.216 574.618 327.272 574.576 327.344C574.533 327.417 574.518 327.502 574.533 327.585C574.547 327.668 574.59 327.743 574.655 327.797C574.719 327.851 574.801 327.881 574.885 327.881V327.883Z" fill="#F1A6A1"/>
<path d="M667.721 206.012C667.721 206.012 680.835 217.623 683.845 264.921L685.345 322.539C685.345 322.539 655.3 338.394 629.93 334.739C628.64 329.256 626.894 323.839 625.253 320.872C621.076 313.32 615.524 305.439 615.675 305.338C615.675 305.338 615.684 305.338 615.686 305.338C617.406 306.199 655.245 293.728 655.245 293.728L653.096 235.679C653.096 235.679 657.831 202.788 667.721 206.012Z" fill="white"/>
<path d="M619.618 311.836C619.706 311.836 619.793 311.812 619.869 311.765C619.944 311.718 620.005 311.651 620.044 311.572C620.084 311.492 620.1 311.404 620.092 311.315C620.083 311.227 620.05 311.143 619.997 311.072L616.491 306.462L655.391 295.047C655.492 295.017 655.581 294.955 655.643 294.869C655.704 294.784 655.736 294.68 655.733 294.574L653.583 233.946C653.575 233.822 653.519 233.705 653.428 233.619C653.336 233.534 653.216 233.487 653.091 233.487C652.965 233.492 652.846 233.546 652.759 233.638C652.673 233.731 652.627 233.853 652.632 233.979L654.769 294.238L615.569 305.744C615.495 305.766 615.427 305.805 615.372 305.859C615.316 305.912 615.275 305.979 615.25 306.052C615.226 306.125 615.22 306.203 615.233 306.279C615.246 306.355 615.277 306.427 615.324 306.488L619.248 311.648C619.291 311.706 619.347 311.752 619.411 311.785C619.475 311.817 619.546 311.835 619.618 311.836Z" fill="#99F2EE"/>
<path style="mix-blend-mode:multiply" opacity="0.46" d="M615.692 305.339C617.412 306.2 655.251 293.729 655.251 293.729L653.102 235.68C653.102 235.68 657.831 202.787 667.721 206.011C668.437 206.716 669.082 207.49 669.645 208.321C659.757 233.57 657.855 261.949 662.369 288.831C664.663 302.172 668.304 315.245 673.236 327.851C662.149 332.075 645.201 336.938 629.936 334.739C628.646 329.256 626.9 323.839 625.259 320.872C621.082 313.32 615.53 305.439 615.681 305.338C615.685 305.335 615.691 305.338 615.692 305.339Z" fill="url(#paint1_linear_332:4900)"/>
<path d="M530.663 255.733L519.243 235.225C519.243 235.225 512.951 220.076 506.192 217.979L497.57 213.317C497.57 213.317 489.646 206.326 487.548 210.288C487.548 210.288 485.917 211.453 493.375 216.58L499.201 219.842C499.201 219.842 494.074 221.942 482.888 221.007C482.888 221.007 477.295 216.346 475.896 218.207C475.896 218.207 471.934 215.407 471.002 218.907L477.761 226.598C477.761 226.598 480.325 229.162 483.121 228.698C483.121 228.698 485.451 231.262 488.015 230.798C488.015 230.798 495.239 235.925 498.735 236.391L507.124 240.12L515.048 261.095C515.048 261.095 526.001 265.055 530.663 255.733Z" fill="#FFD7D5"/>
<path d="M488.015 231.153C488.079 231.153 488.143 231.136 488.198 231.103C488.279 231.054 488.337 230.975 488.361 230.884C488.384 230.792 488.371 230.695 488.323 230.614L483.97 223.285C484.017 223.111 484.1 222.95 484.214 222.811C484.328 222.673 484.47 222.559 484.631 222.48C485.151 222.267 485.931 222.508 486.88 223.167L491.72 228.246C491.765 228.294 491.823 228.329 491.887 228.346L495.387 229.279C495.478 229.303 495.576 229.29 495.658 229.243C495.74 229.195 495.8 229.117 495.824 229.026C495.848 228.934 495.835 228.837 495.788 228.755C495.74 228.673 495.662 228.613 495.571 228.589L492.171 227.683L487.346 222.629C486.108 221.763 485.12 221.51 484.357 221.824C484.071 221.963 483.822 222.167 483.628 222.419C483.434 222.671 483.302 222.965 483.24 223.277C483.225 223.362 483.241 223.45 483.285 223.524L487.713 230.981C487.744 231.033 487.789 231.076 487.842 231.106C487.894 231.136 487.954 231.152 488.015 231.153Z" fill="#F1A6A1"/>
<path d="M483.12 229.055C483.19 229.056 483.258 229.036 483.317 228.998C483.375 228.96 483.421 228.906 483.449 228.842C483.477 228.778 483.486 228.707 483.474 228.639C483.462 228.57 483.431 228.506 483.383 228.455L475.46 219.832C475.42 219.795 475.166 219.582 475.195 219.332C475.224 219.082 475.53 218.793 476.056 218.532C476.079 218.521 478.071 217.613 481.529 222.109L484.328 225.934C484.384 226.011 484.469 226.062 484.562 226.077C484.656 226.091 484.751 226.068 484.828 226.012C484.905 225.956 484.956 225.872 484.97 225.778C484.985 225.685 484.961 225.589 484.905 225.512L482.106 221.681C478.223 216.634 475.833 217.845 475.732 217.899C474.969 218.281 474.547 218.74 474.492 219.26C474.48 219.469 474.518 219.678 474.603 219.869C474.687 220.061 474.817 220.229 474.979 220.36L482.863 228.945C482.897 228.98 482.937 229.008 482.981 229.027C483.025 229.046 483.072 229.055 483.12 229.055Z" fill="#F1A6A1"/>
<path d="M513.116 233.553C513.186 233.553 513.255 233.534 513.313 233.496C513.372 233.458 513.418 233.404 513.447 233.34C513.475 233.276 513.484 233.205 513.472 233.137C513.46 233.068 513.429 233.004 513.381 232.953C511.275 230.633 508.681 228.246 505.436 228.135C504.214 228.149 502.999 228.325 501.823 228.66C500.033 229.08 498.347 229.476 496.835 228.749C496.793 228.727 496.747 228.714 496.699 228.711C496.652 228.707 496.604 228.713 496.559 228.729C496.514 228.744 496.473 228.768 496.437 228.799C496.401 228.831 496.372 228.869 496.352 228.912C496.331 228.955 496.319 229.001 496.317 229.049C496.314 229.096 496.322 229.144 496.338 229.188C496.354 229.233 496.379 229.274 496.411 229.309C496.443 229.344 496.482 229.372 496.525 229.392C498.266 230.231 500.157 229.786 501.987 229.355C503.102 229.033 504.254 228.863 505.413 228.85C508.395 228.95 510.848 231.224 512.853 233.433C512.886 233.47 512.927 233.5 512.972 233.521C513.017 233.542 513.067 233.552 513.116 233.553Z" fill="#F1A6A1"/>
<path d="M498.97 220.031H498.989C499.819 219.986 500.616 219.697 501.281 219.201C501.352 219.142 501.397 219.059 501.407 218.968C501.418 218.877 501.393 218.786 501.339 218.713C501.284 218.639 501.203 218.59 501.113 218.574C501.023 218.559 500.93 218.579 500.854 218.63C500.302 219.04 499.642 219.28 498.954 219.319C498.863 219.325 498.777 219.367 498.716 219.435C498.654 219.503 498.621 219.592 498.623 219.684C498.625 219.775 498.663 219.863 498.728 219.928C498.793 219.992 498.881 220.03 498.972 220.032L498.97 220.031Z" fill="#F1A6A1"/>
<path d="M554.33 205.678C554.33 205.678 545.93 204.507 544.206 217.408L537.649 266.208L525.717 243.257C525.717 243.257 511.098 249.277 494.328 254.436L523.888 323.399C523.888 323.399 544.624 343.129 558.814 294.971C558.815 294.971 555.62 204.817 554.33 205.678Z" fill="white"/>
<path style="mix-blend-mode:multiply" opacity="0.46" d="M511.085 248.825C511.656 256.293 513.05 263.675 515.242 270.836C519.749 285.261 528.249 298.719 540.561 307.483C544.378 310.166 548.464 312.445 552.752 314.283C539.336 335.183 523.888 323.393 523.888 323.393L494.326 254.434C500.393 252.573 506.173 250.596 511.085 248.825Z" fill="url(#paint2_linear_332:4900)"/>
<path d="M558.427 296.444H558.458C558.584 296.436 558.702 296.378 558.785 296.283C558.868 296.188 558.91 296.063 558.902 295.937L554.619 231.953C554.611 231.827 554.553 231.71 554.458 231.627C554.363 231.544 554.239 231.501 554.113 231.51C553.987 231.518 553.869 231.576 553.786 231.671C553.703 231.766 553.661 231.89 553.669 232.016L557.952 296C557.96 296.121 558.014 296.234 558.102 296.316C558.19 296.399 558.306 296.444 558.427 296.444Z" fill="#99F2EE"/>
<path d="M547.967 288.616C548.037 288.615 548.105 288.599 548.167 288.57C548.282 288.516 548.37 288.419 548.412 288.3C548.455 288.182 548.449 288.051 548.395 287.937L538.075 266.008C538.022 265.893 537.925 265.805 537.806 265.762C537.687 265.72 537.556 265.726 537.441 265.78C537.327 265.834 537.239 265.931 537.196 266.05C537.153 266.168 537.16 266.299 537.213 266.414L547.533 288.343C547.572 288.425 547.634 288.494 547.71 288.543C547.787 288.591 547.877 288.616 547.967 288.616Z" fill="#99F2EE"/>
<path d="M567.65 309.272C567.657 309.279 567.644 309.284 567.622 309.29C567.618 309.258 567.624 309.245 567.65 309.272Z" fill="#47455A"/>
<path d="M548.526 360.869L589.636 344.945C590.212 344.637 590.674 344.15 590.95 343.558C591.227 342.965 591.305 342.299 591.171 341.659C591.038 341.019 590.7 340.439 590.21 340.007C589.719 339.574 589.101 339.312 588.45 339.26L541.936 335.523L548.526 360.869Z" fill="#99F2EE"/>
<path d="M547.004 357.828L588.115 341.9C588.691 341.591 589.152 341.104 589.428 340.512C589.704 339.919 589.782 339.253 589.648 338.614C589.515 337.974 589.178 337.394 588.688 336.962C588.197 336.529 587.581 336.267 586.929 336.215L540.414 332.477L547.004 357.828Z" fill="white"/>
<path d="M435.337 361.882H545.748C546.497 361.873 547.236 361.708 547.919 361.399C548.602 361.09 549.213 360.643 549.715 360.086C550.216 359.529 550.597 358.874 550.833 358.163C551.069 357.451 551.155 356.699 551.086 355.952L529.162 279.297C529.066 277.942 528.463 276.673 527.474 275.742C526.485 274.811 525.182 274.286 523.824 274.272H413.415C412.665 274.282 411.926 274.447 411.243 274.756C410.56 275.065 409.949 275.512 409.448 276.069C408.946 276.626 408.565 277.281 408.329 277.992C408.093 278.704 408.007 279.456 408.076 280.202L430.001 356.857C430.096 358.212 430.698 359.481 431.687 360.412C432.676 361.343 433.979 361.868 435.337 361.882Z" fill="#99F2EE"/>
<path d="M431.282 361.882H541.693C542.434 361.882 543.167 361.728 543.845 361.431C544.523 361.133 545.133 360.698 545.634 360.153C546.136 359.608 546.519 358.965 546.76 358.264C547 357.563 547.093 356.82 547.031 356.082L525.106 281.121C524.995 279.782 524.385 278.533 523.396 277.622C522.407 276.712 521.113 276.206 519.768 276.206H409.356C408.616 276.206 407.883 276.36 407.205 276.658C406.526 276.955 405.917 277.39 405.415 277.935C404.914 278.48 404.531 279.124 404.29 279.824C404.05 280.525 403.957 281.268 404.018 282.006L425.943 356.967C426.054 358.307 426.665 359.556 427.654 360.467C428.643 361.377 429.938 361.882 431.282 361.882Z" fill="white"/>
<path d="M463.602 319.466C464.377 323.632 468.218 327.008 472.18 327.008C476.142 327.008 478.726 323.632 477.951 319.466C477.176 315.3 473.335 311.924 469.373 311.924C465.411 311.924 462.827 315.3 463.602 319.466Z" fill="#C2F7F5"/>
<path d="M663.403 297.238C663.499 297.238 663.592 297.209 663.671 297.155C663.75 297.101 663.811 297.024 663.846 296.935C663.881 296.845 663.887 296.747 663.866 296.654C663.844 296.561 663.794 296.476 663.724 296.411C662.554 295.364 661.165 294.589 659.66 294.143C658.154 293.697 656.567 293.591 655.016 293.832C654.891 293.853 654.78 293.922 654.706 294.025C654.633 294.128 654.603 294.256 654.624 294.38C654.644 294.505 654.714 294.616 654.816 294.69C654.919 294.763 655.047 294.793 655.172 294.772C656.581 294.552 658.022 294.648 659.39 295.053C660.758 295.458 662.018 296.162 663.081 297.114C663.169 297.194 663.284 297.239 663.403 297.238Z" fill="#99F2EE"/>
<path d="M490.306 225.786C490.566 225.786 490.825 225.745 491.072 225.665C491.117 225.65 491.158 225.627 491.194 225.597C491.229 225.566 491.258 225.529 491.28 225.487C491.301 225.445 491.313 225.4 491.317 225.353C491.321 225.306 491.315 225.259 491.3 225.215C491.27 225.126 491.206 225.052 491.122 225.009C491.038 224.967 490.941 224.959 490.851 224.987C490.501 225.099 490.125 225.099 489.775 224.987C489.685 224.958 489.587 224.966 489.502 225.009C489.418 225.053 489.355 225.128 489.326 225.218C489.297 225.309 489.305 225.407 489.348 225.491C489.392 225.575 489.467 225.639 489.557 225.668C489.799 225.745 490.052 225.785 490.306 225.786Z" fill="#F1A6A1"/>
<path d="M490.129 223.266C490.223 223.266 490.314 223.228 490.381 223.161C490.448 223.094 490.486 223.003 490.486 222.909C490.486 222.814 490.448 222.723 490.381 222.656C490.314 222.589 490.223 222.552 490.129 222.552C489.053 222.546 487.979 222.452 486.919 222.273C486.826 222.258 486.731 222.281 486.654 222.335C486.577 222.39 486.524 222.472 486.507 222.565C486.491 222.658 486.514 222.754 486.568 222.831C486.623 222.908 486.706 222.961 486.8 222.977C487.898 223.162 489.01 223.258 490.125 223.265L490.129 223.266Z" fill="#F1A6A1"/>
<path d="M483.551 223.096H483.592C483.686 223.094 483.776 223.054 483.842 222.986C483.908 222.918 483.944 222.827 483.943 222.733C483.936 222.64 483.895 222.553 483.828 222.488C483.761 222.423 483.673 222.385 483.58 222.382C483.255 222.379 482.937 222.294 482.655 222.135C482.574 222.086 482.477 222.072 482.385 222.095C482.293 222.118 482.214 222.176 482.166 222.258C482.117 222.339 482.103 222.436 482.126 222.527C482.149 222.619 482.208 222.698 482.289 222.747C482.67 222.975 483.106 223.096 483.551 223.096Z" fill="#F1A6A1"/>
<path d="M603.591 168.904L591.555 168.67C591.555 168.67 590.774 175.819 598.098 175.682C598.099 175.682 603.39 175.399 603.591 168.904Z" fill="#934745"/>
<path d="M602.551 170.305H592.178C592.178 170.305 596.477 173.591 602.551 170.305Z" fill="white"/>
<path d="M632.455 254.786C637.823 254.786 642.174 250.434 642.174 245.067C642.174 239.699 637.823 235.348 632.455 235.348C627.088 235.348 622.736 239.699 622.736 245.067C622.736 250.434 627.088 254.786 632.455 254.786Z" fill="#7F7E91"/>
<path d="M632.456 250.898C635.676 250.898 638.287 248.288 638.287 245.067C638.287 241.847 635.676 239.236 632.456 239.236C629.236 239.236 626.625 241.847 626.625 245.067C626.625 248.288 629.236 250.898 632.456 250.898Z" fill="#B2B2BD"/>
<path d="M621.055 180.866C621.055 180.866 634.138 182.641 632.455 235.348L629.838 235.722C629.838 235.722 631.613 191.986 621.147 184.322L621.055 180.866Z" fill="#47455A"/>
<path d="M591.431 183.762L591.524 186.562C591.524 186.562 579.281 198.805 578.908 225.062H575.824C575.824 225.062 576.945 194.322 591.431 183.762Z" fill="#47455A"/>
<path d="M625.73 162.143C625.806 162.143 625.881 162.118 625.943 162.073C626.019 162.016 626.069 161.932 626.082 161.838C626.096 161.744 626.071 161.649 626.015 161.573C625.248 160.472 624.907 159.131 625.055 157.797C625.215 156.438 625.67 155.13 626.388 153.965C626.842 153.186 627.273 152.797 627.743 152.743C627.898 152.727 628.054 152.749 628.199 152.806C628.343 152.862 628.472 152.953 628.575 153.07C628.605 153.106 628.642 153.135 628.684 153.157C628.726 153.178 628.771 153.191 628.818 153.195C628.865 153.198 628.912 153.193 628.957 153.179C629.001 153.164 629.043 153.141 629.078 153.111C629.114 153.08 629.143 153.043 629.165 153.001C629.186 152.96 629.199 152.914 629.203 152.867C629.207 152.82 629.201 152.773 629.187 152.729C629.172 152.684 629.149 152.643 629.119 152.607C628.941 152.4 628.715 152.239 628.461 152.139C628.207 152.039 627.932 152.003 627.661 152.034C627.246 152.134 626.861 152.328 626.533 152.6C626.205 152.873 625.945 153.217 625.771 153.606C625 154.861 624.513 156.27 624.344 157.733C624.173 159.243 624.565 160.762 625.444 162.001C625.477 162.046 625.52 162.082 625.57 162.106C625.62 162.131 625.674 162.143 625.73 162.143Z" fill="#F1A6A1"/>
<path d="M625.894 162.248C625.948 162.248 626.001 162.235 626.05 162.212C626.78 161.848 627.406 161.303 627.867 160.629C628.328 159.955 628.608 159.175 628.683 158.362C628.742 157.844 628.662 157.319 628.451 156.842C628.332 156.582 628.153 156.354 627.928 156.177C627.704 156 627.44 155.879 627.16 155.824C626.893 155.79 626.622 155.803 626.36 155.863C625.434 156.038 624.83 156.503 624.706 157.137C624.691 157.228 624.713 157.321 624.766 157.397C624.818 157.473 624.899 157.525 624.989 157.543C625.08 157.561 625.174 157.543 625.251 157.493C625.329 157.443 625.384 157.365 625.406 157.275C625.506 156.789 626.262 156.608 626.492 156.564C626.673 156.523 626.859 156.511 627.044 156.529C627.211 156.566 627.367 156.642 627.499 156.751C627.631 156.86 627.735 156.999 627.804 157.156C627.959 157.519 628.016 157.916 627.969 158.308C627.91 158.939 627.705 159.549 627.369 160.087C627.033 160.625 626.577 161.077 626.036 161.408C626.025 161.339 625.995 161.274 625.95 161.221C625.904 161.168 625.845 161.129 625.779 161.108C625.689 161.079 625.591 161.087 625.507 161.129C625.423 161.172 625.359 161.246 625.329 161.335C625.28 161.51 625.297 161.697 625.376 161.861C625.454 162.024 625.589 162.154 625.756 162.227C625.8 162.243 625.847 162.25 625.894 162.248Z" fill="#F1A6A1"/>
<path d="M590.158 265.298C590.158 265.393 590.148 265.486 590.127 265.578C590.042 265.95 587.971 274.705 580.784 275.34C580.453 275.365 580.126 275.259 579.873 275.044C579.62 274.829 579.462 274.523 579.433 274.193C579.403 273.862 579.506 273.534 579.717 273.278C579.928 273.022 580.232 272.86 580.562 272.826C585.525 272.388 587.379 266.106 587.635 265.142V246.61H590.158V265.298Z" fill="#7F7E91"/>
<path d="M563.15 241.847C563.15 231.928 569.208 223.858 576.65 223.858C584.092 223.858 590.15 231.928 590.15 241.847V246.613H587.634V241.847C587.634 233.319 582.709 226.381 576.654 226.381C570.599 226.381 565.674 233.319 565.674 241.847V246.613H563.151L563.15 241.847Z" fill="#47455A"/>
<path d="M563.151 246.61H565.674V264.928C565.674 264.973 565.674 265.028 565.665 265.073C565.636 265.337 565.07 271.573 574.144 273.026C574.457 273.077 574.74 273.243 574.936 273.493C575.132 273.742 575.227 274.056 575.201 274.373C575.176 274.689 575.033 274.984 574.8 275.199C574.567 275.415 574.261 275.534 573.944 275.534C573.877 275.534 573.81 275.529 573.744 275.518C562.914 273.778 563.081 265.911 563.15 264.885L563.151 246.61Z" fill="#7F7E91"/>
<path d="M582.029 272.473L577.543 272.146C577.237 273.771 577.433 275.45 578.105 276.959L582.263 275.09L582.029 272.473Z" fill="#47455A"/>
<path d="M571.439 272.38L575.934 272.245C576.17 273.881 575.903 275.55 575.168 277.03L571.094 274.984L571.439 272.38Z" fill="#47455A"/>
</g>
<defs>
<linearGradient id="paint0_linear_332:4900" x1="551.947" y1="259.777" x2="581.838" y2="261.137" gradientUnits="userSpaceOnUse">
<stop stop-color="white"/>
<stop offset="1" stop-color="#CCDFFF"/>
</linearGradient>
<linearGradient id="paint1_linear_332:4900" x1="685.323" y1="270.538" x2="615.678" y2="270.538" gradientUnits="userSpaceOnUse">
<stop stop-color="white"/>
<stop offset="1" stop-color="#CCDFFF"/>
</linearGradient>
<linearGradient id="paint2_linear_332:4900" x1="561.75" y1="287.766" x2="494.326" y2="287.766" gradientUnits="userSpaceOnUse">
<stop stop-color="white"/>
<stop offset="1" stop-color="#CCDFFF"/>
</linearGradient>
<clipPath id="clip0_332:4900">
<rect width="281.352" height="256.884" fill="white" transform="translate(404 105)"/>
</clipPath>
</defs>
</svg>
