<svg width="720" height="400" viewBox="0 0 720 400" fill="none" xmlns="http://www.w3.org/2000/svg">
<path d="M0 0H720V400H80C58.7827 400 38.4344 391.571 23.4315 376.569C8.42855 361.566 0 341.217 0 320L0 0Z" fill="#F58A8A"/>
<path d="M57.45 167.175H81.705V160.56H85.305V180.9H53.85V160.56H57.45V167.175ZM81.705 177.75V170.28H57.45V177.75H81.705ZM51.69 190.125V186.975H87.51V190.125H71.355V201.06H67.71V190.125H51.69ZM128.503 183.06H114.688V195.435H130.708V198.585H94.8882V195.435H111.043V183.06H97.0482V160.83H128.503V183.06ZM124.903 179.865V163.98H100.648V179.865H124.903ZM158.021 179.145H139.211V160.335H142.811V176.04H158.876C162.926 176.04 165.986 175.41 168.056 173.745V160.11H171.656V182.52H168.056V176.805C166.076 178.47 162.746 179.145 158.021 179.145ZM141.731 200.835V185.76H171.656V200.835H141.731ZM168.056 188.865H145.376V197.73H168.056V188.865ZM186.325 168.84V162.675H182.5V168.84L182.905 187.92H185.965L186.325 168.84ZM186.415 193.095H182.455V197.955H186.415V193.095ZM226.047 179.145C226.047 172.305 225.417 167.4 223.392 165.06C222.447 163.89 221.052 163.26 219.342 163.26C217.677 163.26 216.282 163.89 215.247 165.06C213.312 167.4 212.637 172.305 212.637 179.145C212.637 185.94 213.312 190.89 215.247 193.275C216.282 194.445 217.677 195.03 219.342 195.03C221.052 195.03 222.447 194.445 223.392 193.275C225.417 190.89 226.047 185.94 226.047 179.145ZM209.037 179.145C209.037 171.585 209.937 166.005 212.637 162.945C214.212 161.1 216.507 160.11 219.342 160.11C222.132 160.11 224.472 161.1 226.047 162.945C228.792 166.005 229.647 171.585 229.647 179.145C229.647 186.66 228.792 192.24 226.047 195.345C224.472 197.235 222.132 198.09 219.342 198.09C216.507 198.09 214.212 197.235 212.637 195.345C209.937 192.24 209.037 186.66 209.037 179.145ZM241.482 160.11V200.34H237.837V160.11H241.482ZM251.966 160.56H268.481V163.71H262.001V169.92C262.001 175.995 265.016 178.875 269.111 180.18V183.42C264.971 182.295 261.731 179.685 260.246 176.895C258.806 179.775 255.476 182.835 251.336 183.87V180.675C255.431 179.415 258.401 176.085 258.401 169.875V163.71H251.966V160.56ZM273.071 169.92V160.335H276.536V186.975H273.071V173.025H267.176V169.92H273.071ZM281.936 187.74V160.11H285.446V187.74H281.936ZM286.211 200.565H255.161V187.38H258.761V197.46H286.211V200.565ZM308.665 160.56H329.095V163.71H320.68V165.735C320.68 172.575 324.955 176.085 329.815 177.255V180.45C324.955 179.46 320.815 176.58 318.97 172.8C317.17 176.67 312.985 180 307.99 180.99V177.75C312.985 176.67 317.08 172.665 317.08 165.735V163.71H308.665V160.56ZM341.11 181.035H337.51V160.11H341.11V181.035ZM337.51 189.135V183.915H341.11V200.835H311.185V183.915H314.83V189.135H337.51ZM337.51 192.24H314.83V197.73H337.51V192.24ZM351.368 179.145C351.368 169.695 352.268 164.43 354.743 161.865C355.868 160.74 357.398 160.11 359.333 160.11C361.313 160.11 362.888 160.74 363.968 161.865C366.263 164.205 367.163 168.75 367.298 176.625H372.743V160.335H376.253V199.935H372.743V179.775H367.343C367.298 188.82 366.443 193.905 363.968 196.38C362.888 197.55 361.313 198.09 359.333 198.09C357.398 198.09 355.868 197.55 354.743 196.38C352.268 193.86 351.368 188.595 351.368 179.145ZM354.878 179.145C354.878 187.56 355.373 192.06 356.993 193.995C357.623 194.67 358.388 195.03 359.333 195.03C360.323 195.03 361.133 194.67 361.718 193.995C363.338 192.06 363.878 187.56 363.878 179.145C363.878 170.775 363.338 166.23 361.718 164.34C361.133 163.62 360.323 163.26 359.333 163.26C358.388 163.26 357.623 163.62 356.993 164.34C355.373 166.23 354.878 170.775 354.878 179.145ZM384.758 200.34H381.248V160.11H384.758V200.34ZM405.141 185.985C403.656 191.295 398.931 195.615 393.486 197.595V194.265C398.571 191.97 403.341 187.425 403.341 176.31V160.56H406.941V176.31C406.941 187.425 411.756 191.835 416.751 194.265V197.595C411.396 195.525 406.716 191.25 405.141 185.985ZM427.371 160.11V200.385H423.726V178.2H413.736V175.005H423.726V160.11H427.371ZM65.37 226.575V219.555H61.41V232.11H64.92C65.28 230.535 65.37 228.465 65.37 226.575ZM54.885 232.11V219.555H51.69V213.93H75V219.015H79.185V213.48H86.025V242.64H79.185V230.94H74.01V225.855H79.185V224.1H74.01V219.555H71.85V226.215C71.85 228.195 71.715 230.4 71.22 232.11C73.29 232.11 75.045 232.02 76.71 231.615V236.88C74.91 237.465 72.75 237.645 70.23 237.645H51.195V232.11H54.885ZM86.7 249.525V255.24H54.48V240.435H61.32V249.525H86.7ZM117.568 223.515H93.8082V217.71H102.268V212.265H109.108V217.71H117.568V223.515ZM102.043 239.31C102.043 242.82 102.493 245.16 103.573 246.42C104.113 247.095 104.923 247.41 105.868 247.41C106.813 247.41 107.578 247.095 108.163 246.42C109.243 245.16 109.648 242.82 109.648 239.31C109.648 235.8 109.243 233.505 108.163 232.245C107.578 231.57 106.813 231.255 105.868 231.255C104.923 231.255 104.113 231.57 103.573 232.245C102.493 233.505 102.043 235.8 102.043 239.31ZM95.3382 239.31C95.3382 234.225 96.4632 230.265 98.9832 227.925C100.648 226.305 102.943 225.45 105.868 225.45C108.793 225.45 111.043 226.305 112.753 227.925C115.273 230.265 116.398 234.225 116.398 239.31C116.398 244.44 115.273 248.355 112.753 250.74C111.043 252.315 108.793 253.17 105.868 253.17C102.943 253.17 100.648 252.315 98.9832 250.74C96.4632 248.355 95.3382 244.44 95.3382 239.31ZM121.303 213.48H128.143V229.725H134.218V235.62H128.143V255.015H121.303V213.48ZM147.941 227.835V219.915H138.536V214.2H154.466V227.43C154.466 228.06 154.466 228.69 154.421 229.275H157.886V213.705H164.231V254.655H157.886V235.125H153.881C152.306 244.305 147.491 250.29 138.041 252.855V246.555C144.476 244.35 147.941 238.455 147.941 227.835ZM173.006 213.48V255.015H166.571V213.48H173.006ZM194.962 219.69V213.93H216.922V219.69H209.272V221.535C209.272 228.645 212.332 231.525 217.687 232.605V238.455C212.827 237.78 208.417 235.665 206.032 232.515C203.512 235.71 198.922 238.365 194.152 238.905V233.055C199.462 231.975 202.522 228.78 202.522 221.535V219.69H194.962ZM228.847 213.48V242.64H222.007V213.48H228.847ZM229.522 249.525V255.24H197.302V240.435H204.142V249.525H229.522ZM272.091 230.49H245.991V235.44H272.586V241.245H266.601V247.5H274.161V253.305H237.081V247.5H244.866V241.245H239.106V224.73H265.251V219.96H239.106V214.2H272.091V230.49ZM259.806 241.245H251.661V247.5H259.806V241.245ZM286.669 223.29H310.924V214.83H314.524V238.95H300.709V249.435H316.729V252.585H280.909V249.435H297.064V238.95H283.069V214.83H286.669V223.29ZM310.924 235.755V226.485H286.669V235.755H310.924ZM332.252 241.605C330.947 245.61 327.662 249.39 323.207 251.55V248.22C327.347 245.745 330.452 241.38 330.452 232.29V214.56H334.007V232.29C334.007 241.425 337.157 245.7 341.342 248.265V251.595C336.932 249.39 333.647 245.61 332.252 241.605ZM349.037 253.935H345.527V232.425H338.642V229.32H345.527V214.335H349.037V253.935ZM358.127 254.385H354.617V214.11H358.127V254.385ZM368.565 226.26C368.565 222.705 369.96 219.915 372.39 217.89C375.36 215.55 379.77 214.38 385.215 214.38C390.705 214.38 395.115 215.55 398.04 217.89C400.47 219.915 401.865 222.705 401.865 226.26C401.865 229.86 400.47 232.65 398.04 234.585C397.095 235.35 395.97 236.025 394.71 236.565V249.435H403.125V252.585H367.305V249.435H375.99V236.655C374.64 236.115 373.425 235.44 372.39 234.585C369.96 232.65 368.565 229.86 368.565 226.26ZM391.11 237.645C389.31 238.005 387.33 238.185 385.215 238.185C383.19 238.185 381.255 238.005 379.545 237.69V249.435H391.11V237.645ZM372.165 226.26C372.165 228.78 373.2 230.76 374.955 232.2C377.205 234.09 380.805 234.99 385.215 234.99C389.625 234.99 393.27 234.09 395.52 232.2C397.32 230.76 398.265 228.78 398.265 226.26C398.265 223.785 397.32 221.805 395.52 220.32C393.27 218.43 389.625 217.575 385.215 217.575C380.805 217.575 377.205 218.43 374.955 220.32C373.2 221.805 372.165 223.785 372.165 226.26ZM415.858 246.6H411.583V251.955H415.858V246.6Z" fill="white"/>
<path d="M64.364 100.722H69.46V91.5936H71.868V117.158H69.46V102.822H64.42C64.224 108.422 61.452 111.362 57.924 111.362C54.284 111.362 51.4 108.198 51.4 102.206C51.4 96.2136 54.284 93.0776 57.924 93.0776C61.284 93.0776 63.916 95.7096 64.364 100.722ZM61.984 102.206C61.984 98.0336 60.528 95.2056 57.924 95.2056C55.32 95.2056 53.864 98.0336 53.864 102.206C53.864 106.378 55.32 109.234 57.924 109.234C60.528 109.234 61.984 106.378 61.984 102.206ZM94.4248 91.5936H96.8328V117.158H94.4248V91.5936ZM77.3168 93.7776H89.0208V95.8216H79.7808V108.338H83.5888C87.3408 108.338 90.6448 107.722 92.6048 107.302V109.346C90.4768 109.934 86.5848 110.466 83.2528 110.466H77.3168V93.7776ZM114.07 102.206C114.07 108.198 111.242 111.362 107.574 111.362C103.934 111.362 101.05 108.198 101.05 102.206C101.05 96.2136 103.934 93.0776 107.574 93.0776C111.242 93.0776 114.07 96.2136 114.07 102.206ZM124.85 103.242H120.454V117.158H118.046V91.5936H120.454V101.114H124.85V103.242ZM111.634 102.206C111.634 98.0336 110.178 95.2056 107.574 95.2056C104.97 95.2056 103.514 98.0336 103.514 102.206C103.514 106.378 104.97 109.234 107.574 109.234C110.178 109.234 111.634 106.378 111.634 102.206ZM125.623 95.7936V93.7776H140.015V95.7936H125.623ZM128.283 108.086L128.059 96.8296H130.383L130.607 108.086H133.435C134.107 108.086 134.807 108.086 135.507 108.058L135.675 96.8296H137.999L137.831 107.918C139.259 107.778 140.631 107.582 141.863 107.302V109.318C139.595 109.934 136.459 110.158 133.463 110.158H125.203V108.086H128.283ZM149.815 102.962H145.419V117.158H143.011V91.5936H145.419V100.834H149.815V102.962ZM175.581 91.5936H177.989V117.158H175.581V91.5936ZM158.277 110.186V93.5256H160.741V99.8536H167.825V93.5256H170.205V110.186H158.277ZM167.853 101.898H160.713V108.142H167.853V101.898ZM182.878 110.494V93.8056H191.838V95.8776H185.314V108.422H186.238C189.374 108.422 192.118 107.862 193.77 107.498V109.486C191.95 109.99 188.702 110.494 185.93 110.494H182.878ZM203.374 117.158H200.966V103.186H197.466V116.514H195.114V91.8736H197.466V101.114H200.966V91.5936H203.374V117.158ZM219.967 95.5136H225.511V91.5936H227.919V110.018H225.511V102.822H219.967V105.622H208.179V92.9376H219.967V95.5136ZM219.967 100.778H225.539V97.5296H219.967V100.778ZM217.671 103.55V94.9816H210.615V103.55H217.671ZM228.479 116.654H211.959V109.038H214.395V114.554H228.479V116.654ZM256.737 91.5936H259.145V110.634H256.737V91.5936ZM259.705 116.654H243.465V109.542H245.901V114.554H259.705V116.654ZM248.645 100.078C250.129 101.87 252.481 103.494 254.413 104.474L252.873 106.266C250.913 105.174 248.869 103.578 247.273 101.758C245.117 104.054 242.345 105.818 239.405 107.162L237.865 105.37C243.913 102.878 247.525 98.8456 248.309 95.1776C246.237 95.2616 244.193 95.2616 242.149 95.2616H239.741V93.1896H243.941C246.321 93.1896 248.729 93.1896 251.361 93.1336C251.025 95.8216 250.045 98.1176 248.645 100.078ZM266.75 106.742V99.0416H280.33V95.3736H266.722V93.2736H282.738V101.03H269.158V104.698H283.578V106.742H279.938V111.362H286.63V113.406H262.83V111.362H270.25V106.742H266.75ZM277.586 106.742H272.602V111.362H277.586V106.742ZM318.389 103.802H313.993V117.158H311.585V91.5936H313.993V101.674H318.389V103.802ZM294.869 111.558L293.133 110.018C297.697 106.742 301.113 101.618 300.525 93.1616H303.073C303.129 95.5976 302.905 97.8096 302.485 99.8256C303.829 103.662 306.349 106.938 309.737 109.206L308.169 110.998C305.369 109.038 303.101 106.294 301.561 102.906C300.133 106.546 297.837 109.402 294.869 111.558ZM339.378 96.4096C339.378 98.0336 338.426 99.4056 336.55 100.274V104.418H343.102V106.462H318.742V104.418H325.266V100.246C323.39 99.4056 322.466 98.0336 322.466 96.4096C322.466 93.6656 325.322 91.4256 330.922 91.4256C336.522 91.4256 339.378 93.6376 339.378 96.4096ZM334.114 101.002C333.162 101.17 332.098 101.254 330.922 101.254C329.718 101.254 328.654 101.17 327.702 100.974V104.446H334.114V101.002ZM339.714 112.65C339.714 115.338 336.774 117.382 331.062 117.382C325.322 117.382 322.354 115.338 322.354 112.65C322.354 109.99 325.322 108.086 331.062 108.086C336.774 108.086 339.714 109.99 339.714 112.65ZM337.082 112.678C337.082 111.39 335.626 110.018 331.034 110.018C326.414 110.018 324.958 111.39 324.958 112.678C324.958 113.938 326.414 115.338 331.034 115.338C335.626 115.338 337.082 113.938 337.082 112.678ZM336.83 96.5216C336.83 94.8976 334.982 93.3856 330.922 93.3856C326.834 93.3856 325.042 94.8976 325.042 96.5216C325.042 98.0056 326.834 99.3496 330.922 99.3496C334.982 99.3496 336.83 98.0056 336.83 96.5216ZM345.554 104.25V92.3496H347.99V96.1016H355.102V92.3496H357.51V97.1096H362.858V91.5936H365.266V105.258H362.858V99.2376H357.51V104.25H345.554ZM355.102 98.1176H347.99V102.178H355.102V98.1176ZM365.266 116.766H349.25V106.854H351.63V109.43H362.886V106.714H365.266V116.766ZM362.886 114.666V111.418H351.63V114.666H362.886Z" fill="white" fill-opacity="0.85"/>
<g clip-path="url(#clip0_332:4895)">
<path d="M555.081 344.85C551.829 344.88 548.575 344.773 545.376 344.657C539.565 344.449 536.034 338.948 533.325 334.367C527.24 324.065 522.584 312.985 519.483 301.43C516.403 289.88 516.969 277.657 521.105 266.431C523.578 259.479 527.426 251.678 532.769 246.437C537.305 241.992 545.511 240.197 551.676 239.736C560.428 239.082 570.805 243.929 576.832 250.05C582.674 255.983 585.38 265.68 581.152 272.859C590.365 266.471 602.227 263.553 613.107 266.237C623.988 268.922 633.473 277.622 635.877 288.55C638.611 300.977 632.028 314.063 622.207 322.191C615.549 327.704 607.877 330.936 599.809 333.761C588.357 337.774 576.594 342.602 564.526 344.237C561.393 344.638 558.238 344.842 555.081 344.85Z" fill="#FCD5D5"/>
<path d="M655.464 244.744C655.464 244.744 660.629 243.225 660.202 250.15C659.775 257.075 656.192 258.639 656.192 258.639C656.192 258.639 652.625 259.727 650.887 258.046C649.149 256.364 649.351 258.095 647.766 256.217C646.18 254.338 646.315 248.457 648.155 245.343C649.995 242.229 655.464 244.744 655.464 244.744Z" fill="#FAD7D5"/>
<path d="M588.69 269.468C587.618 270.821 585.922 271.483 584.421 272.34C582.92 273.198 581.437 274.532 581.396 276.256C581.44 276.993 581.678 277.706 582.086 278.323C582.495 278.939 583.06 279.436 583.723 279.764C586.77 281.488 590.642 280.514 593.769 278.937C594.821 278.493 595.736 277.78 596.422 276.869C596.752 276.406 596.921 275.847 596.901 275.279C596.88 274.711 596.673 274.165 596.31 273.727" fill="white"/>
<path d="M607.022 287.081C604.735 288.897 602.577 290.87 600.565 292.986C598.014 295.669 599.577 299.052 603.132 299.866C606.311 300.594 610.416 297.747 613.098 296.377C614.977 295.574 616.636 294.335 617.938 292.763C619.12 291.11 619.438 288.67 618.14 287.105" fill="white"/>
<path d="M592.608 217.875C592.608 217.875 587.654 245.442 588.247 269.337C588.247 269.337 591.537 278.136 596.643 277.087L610.824 251.382L592.608 217.875Z" fill="#D79ABC"/>
<path d="M610.825 251.385L606.287 269.861L606.422 287.966C606.422 287.966 612.834 295.225 619.619 290.809L622.621 279.575L634.191 261.841L610.825 251.385Z" fill="#D79ABC"/>
<path d="M541.176 264.25C543.686 263.87 546.237 263.839 548.756 264.157C549.979 264.208 551.151 264.66 552.091 265.442C554.045 267.399 552.364 271.013 549.809 272.077C547.254 273.141 544.359 272.594 541.595 272.444C538.352 272.267 534.09 271.974 533.326 268.823" fill="white"/>
<path d="M522.913 281.468C528.503 279.047 533.401 290.273 533.966 294.273C534.255 295.585 534.077 296.957 533.463 298.153C532.147 300.259 528.852 300.254 526.856 298.775C524.86 297.296 523.857 294.858 523.007 292.525C521.788 289.189 517.607 283.768 522.913 281.468Z" fill="white"/>
<path d="M549.59 227.463C549.59 227.463 549.392 249.223 544.42 262.659C544.156 264.445 543.489 266.147 542.469 267.639C541.45 269.13 540.104 270.371 538.534 271.268L534.395 269.032L534.037 255.738L549.59 227.463Z" fill="#A27A7F"/>
<path d="M513.352 256.449L520.725 273.938C519.056 278.65 519.084 283.796 520.803 288.49C520.803 288.49 526.836 291.146 530.482 286.666L534.963 272.46C534.963 272.46 537.976 267.841 538.245 248.74L513.352 256.449Z" fill="#A27A7F"/>
<path d="M453.788 217.511C453.788 217.511 451.562 213.788 460.867 210.906C460.867 210.906 474.368 205.857 474.566 210.535C474.567 210.537 464.352 223.819 453.788 217.511Z" fill="#BA9550"/>
<path d="M525.465 162.633C529.854 159.402 536.453 162.193 539.704 166.997C542.954 171.801 543.727 177.902 544.399 183.709C545.302 191.523 546.205 199.338 547.109 207.154C548.552 219.638 551.632 231.861 548.478 243.78C545.965 253.281 534.117 270.601 521.87 267.726C509.874 264.911 500.455 246.025 495.132 236.445C490.8 228.646 486.49 220.568 485.337 211.732C484.536 206.285 485.403 200.724 487.823 195.777C490.244 190.83 494.106 186.728 498.903 184.007L501.825 186.277" fill="#FFD586"/>
<path d="M502.707 187.763C502.707 187.763 510.486 192.668 517.886 192.889L521.073 183.329C521.073 183.329 526.258 185.537 529.821 183.849C529.821 183.849 533.345 171.18 529.81 164.736L502.707 187.763Z" fill="#FAEEE7"/>
<path d="M482.552 183.944C482.973 184.474 483.507 184.904 484.115 185.202C485.911 185.963 486.078 184.838 487.543 184.903C491.045 185.057 493.779 187.749 497.766 187.356C501.451 186.993 501.767 185.168 504.479 183.586C505.961 182.72 508.172 182.461 509.793 181.791C513.876 180.234 517.61 177.887 520.78 174.886C523.702 171.942 527.295 167.341 528.79 163.496C529.233 161.988 529.85 160.537 530.63 159.171C531.676 157.655 533.328 156.664 534.514 155.255C535.571 153.943 536.2 152.341 536.316 150.662C536.433 148.983 536.031 147.309 535.166 145.865C533.942 143.916 531.853 142.424 531.34 140.179C530.838 137.986 532.011 135.678 531.553 133.476C531.095 131.274 529.127 129.716 527.116 128.706C525.105 127.697 522.892 127.023 521.129 125.629C518.337 123.421 515.63 120.809 511.763 120.971C509.673 121.058 507.592 121.652 505.515 121.402C503.422 121.152 501.521 120.064 499.466 119.609C497.919 119.279 496.317 119.306 494.782 119.688C493.247 120.07 491.82 120.797 490.61 121.814C488.777 123.378 487.478 125.602 485.336 126.707C483.742 127.529 481.882 127.622 480.154 128.104C477.895 128.776 475.883 130.097 474.372 131.901C472.86 133.706 471.914 135.915 471.652 138.253C471.677 139.655 471.481 141.053 471.07 142.395C470.292 144.176 468.431 145.187 467.062 146.573C465.731 147.97 464.865 149.742 464.582 151.648C464.299 153.554 464.612 155.501 465.479 157.223C466.183 158.551 467.236 159.766 467.41 161.258C467.674 163.529 465.809 165.825 466.607 167.969C467.578 170.577 471.884 171.155 472.093 173.93C472.076 174.589 471.989 175.245 471.832 175.886C471.693 177.234 472.07 178.585 472.889 179.667C473.707 180.749 474.906 181.481 476.244 181.717C477.628 181.908 479.101 181.545 480.396 182.069C481.25 182.52 481.988 183.161 482.552 183.944Z" fill="white"/>
<path d="M489.118 176.674C496.111 188.895 506.041 192.264 519.763 185.48C530.094 180.373 533.827 166.812 528.706 154.128C523.435 141.076 505.389 134.352 494.458 140.573C483.528 146.794 482.125 164.454 489.118 176.674Z" fill="#FAD7D5"/>
<path d="M510.361 157.618C510.902 158.564 511.873 159.028 512.53 158.655C513.187 158.281 513.279 157.211 512.737 156.263C512.196 155.315 511.225 154.853 510.568 155.226C509.911 155.599 509.819 156.671 510.361 157.618Z" fill="#272727"/>
<path d="M498.794 164.326C499.336 165.273 500.307 165.737 500.963 165.364C501.62 164.991 501.713 163.919 501.172 162.972C500.631 162.025 499.659 161.561 499.002 161.935C498.345 162.309 498.253 163.38 498.794 164.326Z" fill="#272727"/>
<path d="M530.438 158.056C530.479 157.268 530.569 156.484 530.707 155.708C530.771 153.433 530.378 151.168 529.549 149.047C529.063 147.795 528.429 146.605 527.659 145.504C527.512 145.22 527.299 144.975 527.039 144.788C526.779 144.601 526.478 144.479 526.162 144.43C525.917 144.446 525.681 144.527 525.478 144.664C525.276 144.802 525.113 144.991 525.008 145.211C524.803 145.656 524.71 146.144 524.737 146.632C524.749 147.976 525.115 149.293 525.798 150.451L530.319 157.802" fill="#FFC6C7"/>
<path d="M488.332 171.217C487.541 170.18 486.475 169.385 485.254 168.921C484.795 168.696 484.285 168.595 483.774 168.63C483.264 168.664 482.771 168.831 482.346 169.115C482.075 169.386 481.867 169.713 481.734 170.073C481.602 170.432 481.549 170.816 481.578 171.198C481.617 173.557 483.308 175.537 485.011 177.176C487.119 179.204 489.589 181.146 492.506 181.413C492.561 181.327 492.588 181.226 492.584 181.123C492.579 181.021 492.542 180.923 492.479 180.842" fill="#FFC6C7"/>
<path d="M510.983 168.805C510.911 168.879 510.815 168.924 510.712 168.932C510.609 168.941 510.507 168.912 510.424 168.852C510.34 168.791 510.282 168.702 510.259 168.602C510.236 168.502 510.25 168.397 510.298 168.306C510.816 167.452 511.154 166.503 511.293 165.514C511.318 165.34 511.294 165.161 511.224 164.999C511.109 164.842 510.961 164.711 510.792 164.614C509.259 163.559 507.938 162.228 506.895 160.689C506.842 160.596 506.827 160.486 506.852 160.382C506.877 160.277 506.94 160.186 507.029 160.126C507.118 160.066 507.226 160.042 507.333 160.058C507.439 160.074 507.535 160.129 507.602 160.213C508.58 161.656 509.818 162.904 511.254 163.894C511.547 164.065 511.795 164.303 511.976 164.589C512.125 164.892 512.185 165.231 512.149 165.566C512.009 166.675 511.638 167.742 511.06 168.699C511.04 168.738 511.014 168.774 510.983 168.805Z" fill="#B25B62"/>
<path d="M506.36 148.393C506.303 148.38 506.249 148.361 506.197 148.336C506.024 148.251 505.891 148.102 505.829 147.92C505.766 147.737 505.778 147.538 505.863 147.365C506.018 147.005 506.253 146.684 506.55 146.427C506.847 146.17 507.198 145.983 507.577 145.879C508.702 145.716 509.847 145.997 510.766 146.664C510.912 146.779 511.008 146.946 511.034 147.129C511.06 147.313 511.016 147.5 510.908 147.651C510.801 147.803 510.64 147.907 510.458 147.944C510.276 147.981 510.086 147.947 509.929 147.849C509.355 147.427 508.647 147.227 507.936 147.286C507.763 147.34 507.605 147.432 507.473 147.555C507.34 147.678 507.238 147.83 507.172 147.998C507.101 148.146 506.982 148.265 506.835 148.337C506.687 148.408 506.52 148.428 506.36 148.393Z" fill="white"/>
<path d="M493.501 158.701C493.392 158.677 493.29 158.628 493.203 158.559C493.116 158.49 493.046 158.401 492.999 158.3C492.75 157.873 492.612 157.39 492.597 156.896C492.582 156.401 492.69 155.911 492.912 155.469C493.25 155.003 493.683 154.615 494.184 154.332C494.685 154.048 495.241 153.875 495.815 153.825C496.005 153.808 496.195 153.866 496.343 153.987C496.491 154.108 496.585 154.282 496.606 154.471C496.626 154.661 496.57 154.851 496.451 155C496.332 155.149 496.159 155.246 495.97 155.269C495.625 155.296 495.289 155.391 494.981 155.548C494.674 155.706 494.401 155.923 494.178 156.186C494.081 156.429 494.043 156.692 494.067 156.953C494.091 157.213 494.176 157.465 494.317 157.686C494.374 157.808 494.396 157.945 494.38 158.079C494.364 158.214 494.311 158.341 494.226 158.447C494.141 158.553 494.028 158.632 493.9 158.677C493.772 158.723 493.634 158.731 493.502 158.702L493.501 158.701Z" fill="white"/>
<g style="mix-blend-mode:multiply">
<g style="mix-blend-mode:multiply">
<g style="mix-blend-mode:multiply">
<path d="M520.889 163.798C523.473 162.127 524.8 159.59 523.853 158.133C522.906 156.676 520.044 156.85 517.46 158.521C514.876 160.193 513.549 162.729 514.496 164.186C515.443 165.643 518.305 165.47 520.889 163.798Z" fill="#FFC6C7"/>
</g>
</g>
</g>
<g style="mix-blend-mode:multiply">
<g style="mix-blend-mode:multiply">
<g style="mix-blend-mode:multiply">
<path d="M494.73 173.154C495.399 174.757 498.246 175.104 501.09 173.92C503.934 172.736 505.696 170.485 505.027 168.878C504.358 167.272 501.511 166.929 498.667 168.113C495.823 169.298 494.061 171.55 494.73 173.154Z" fill="#FFC6C7"/>
</g>
</g>
</g>
<path d="M528.835 155.188C528.714 155.162 528.603 155.105 528.51 155.024C528.418 154.943 528.347 154.84 528.306 154.724C527.708 153.049 526.866 151.472 525.806 150.043C525.695 149.888 525.649 149.695 525.679 149.507C525.709 149.318 525.812 149.149 525.965 149.036C526.119 148.922 526.312 148.874 526.501 148.901C526.69 148.928 526.861 149.028 526.977 149.18C528.121 150.724 529.03 152.428 529.676 154.236C529.719 154.358 529.73 154.489 529.705 154.616C529.681 154.743 529.623 154.861 529.538 154.958C529.452 155.055 529.342 155.128 529.219 155.169C529.096 155.209 528.965 155.216 528.838 155.189L528.835 155.188Z" fill="#EF8B92"/>
<path d="M489.25 179.025C489.091 178.99 488.948 178.902 488.845 178.776C487.32 176.914 486.231 174.736 485.656 172.401C485.633 172.308 485.629 172.212 485.643 172.118C485.658 172.024 485.691 171.933 485.74 171.852C485.79 171.77 485.855 171.7 485.932 171.643C486.009 171.587 486.097 171.546 486.189 171.524C486.282 171.501 486.378 171.497 486.473 171.511C486.567 171.526 486.658 171.559 486.739 171.608C486.821 171.658 486.892 171.723 486.948 171.8C487.005 171.876 487.046 171.964 487.068 172.056C487.592 174.181 488.583 176.162 489.97 177.857C490.066 177.974 490.122 178.117 490.132 178.268C490.142 178.418 490.105 178.568 490.026 178.696C489.947 178.825 489.829 178.925 489.69 178.984C489.551 179.043 489.397 179.058 489.25 179.025Z" fill="#EF8B92"/>
<path d="M514.785 139.901C516.076 142.143 517.55 144.274 519.194 146.274C519.702 146.959 520.327 147.549 521.041 148.017C522.365 148.793 524.081 148.76 525.309 149.689C524.571 145.994 523.326 142.419 521.61 139.063" fill="white"/>
<path d="M484.96 152.677C484.313 155.818 484.792 159.086 486.314 161.91C486.914 162.877 487.466 163.874 487.965 164.896C488.37 165.891 488.462 166.984 488.231 168.032C488.146 168.532 487.114 170.613 487.315 170.888C485.997 169.078 484.419 167.471 482.633 166.118" fill="white"/>
<path d="M511.207 176.834C512.045 177.375 512.99 177.728 513.978 177.868C514.966 178.009 515.973 177.934 516.929 177.649C517.327 177.389 517.664 177.045 517.914 176.64C518.165 176.236 518.323 175.782 518.378 175.309C515.617 173.632 512.819 175.399 511.207 176.834Z" fill="#FF8BA7"/>
<path d="M508.344 173.929C509.078 175.091 510.054 176.082 511.206 176.835C512.818 175.402 515.617 173.634 518.377 175.311C518.924 172.525 517.702 168.585 517.702 168.585C516.023 177.055 508.344 173.929 508.344 173.929Z" fill="#B23033"/>
<path d="M517.701 168.584C515.25 173.49 508.344 173.929 508.344 173.929C508.344 173.929 516.023 177.055 517.701 168.584Z" fill="white"/>
<path d="M496.616 167.091C496.516 167.068 496.424 167.018 496.351 166.946C496.278 166.873 496.227 166.782 496.203 166.682C496.18 166.582 496.186 166.477 496.22 166.38C496.254 166.283 496.314 166.198 496.394 166.134L497.84 164.982C497.953 164.892 498.097 164.851 498.241 164.867C498.385 164.883 498.516 164.955 498.607 165.068C498.697 165.181 498.739 165.325 498.723 165.468C498.707 165.611 498.634 165.743 498.521 165.833L497.075 166.984C497.011 167.035 496.937 167.071 496.857 167.089C496.778 167.108 496.696 167.108 496.616 167.091Z" fill="#EF8B92"/>
<path d="M513.462 156.726C513.351 156.702 513.25 156.645 513.173 156.561C513.096 156.478 513.047 156.372 513.033 156.26C513.019 156.147 513.041 156.033 513.095 155.934C513.149 155.834 513.233 155.754 513.335 155.704L514.537 155.103C514.545 155.077 514.555 155.051 514.568 155.027C514.627 154.914 514.721 154.822 514.836 154.764C514.95 154.706 515.08 154.685 515.207 154.704C515.335 154.723 515.452 154.782 515.545 154.871C515.637 154.96 515.699 155.076 515.723 155.202C515.743 155.357 515.711 155.515 515.631 155.649C515.551 155.784 515.428 155.888 515.281 155.945L513.824 156.674C513.713 156.733 513.585 156.751 513.462 156.726Z" fill="#EF8B92"/>
<path d="M507.917 179.243C507.817 179.221 507.726 179.172 507.654 179.101C507.581 179.03 507.53 178.941 507.505 178.843C506.86 176.274 506.682 173.61 506.98 170.979C506.996 170.835 507.069 170.704 507.182 170.614C507.295 170.524 507.44 170.482 507.583 170.499C507.727 170.515 507.859 170.587 507.949 170.7C508.039 170.813 508.081 170.957 508.064 171.1C507.781 173.603 507.95 176.136 508.563 178.579C508.586 178.669 508.585 178.764 508.56 178.854C508.536 178.943 508.489 179.025 508.423 179.092C508.358 179.158 508.277 179.207 508.187 179.233C508.098 179.26 508.003 179.262 507.912 179.242L507.917 179.243Z" fill="#EF8B92"/>
<path d="M521.097 169.539C521.003 169.519 520.916 169.473 520.845 169.408C519.417 168.097 517.602 167.283 515.672 167.086C515.6 167.081 515.53 167.061 515.465 167.028C515.401 166.994 515.343 166.949 515.297 166.893C515.25 166.838 515.215 166.773 515.194 166.704C515.173 166.635 515.165 166.562 515.173 166.49C515.18 166.418 515.201 166.348 515.236 166.285C515.27 166.221 515.317 166.165 515.374 166.12C515.431 166.074 515.496 166.041 515.565 166.021C515.635 166.001 515.708 165.995 515.78 166.004C517.947 166.223 519.984 167.138 521.586 168.61C521.673 168.691 521.73 168.799 521.75 168.916C521.77 169.034 521.751 169.154 521.695 169.26C521.64 169.365 521.551 169.449 521.443 169.5C521.335 169.55 521.214 169.564 521.097 169.539V169.539Z" fill="#EF8B92"/>
<path d="M464.666 207.963C470.58 210.175 475.555 206.793 478.803 201.806C480.322 199.301 481.592 196.654 482.597 193.902L485.516 186.646C486.019 185.397 486.364 183.644 485.19 182.982C484.086 182.36 482.764 183.422 482.171 184.539C481.01 186.729 480.748 189.672 478.577 190.876C478.519 184.985 478.157 178.98 477.783 173.084C477.78 172.386 477.654 171.695 477.41 171.041C477.308 170.709 477.112 170.415 476.844 170.193C476.577 169.971 476.251 169.831 475.905 169.791C475.56 169.751 475.21 169.813 474.899 169.968C474.588 170.123 474.329 170.365 474.153 170.664C473.572 171.599 473.269 172.68 473.279 173.78C472.948 178.105 472.643 182.407 472.269 186.738L469.279 171.789C469.173 171.017 468.925 170.27 468.548 169.587C468.372 169.216 468.082 168.911 467.719 168.716C467.357 168.522 466.941 168.449 466.534 168.508C466.127 168.567 465.75 168.755 465.457 169.044C465.165 169.334 464.974 169.709 464.912 170.115C464.73 170.925 464.709 171.764 464.85 172.582C465.133 175.225 465.416 177.867 465.698 180.509C465.947 182.037 466.016 183.585 466.151 185.126C466.204 185.726 466.138 186.51 465.557 186.676C464.895 186.862 464.433 186.038 464.246 185.376C463.139 181.466 463.279 175.455 460.058 172.58C459.893 172.417 459.682 172.306 459.452 172.264C459.223 172.222 458.986 172.249 458.772 172.343C458.54 172.493 458.355 172.705 458.237 172.956C457.427 174.739 457.18 176.726 457.529 178.653C457.844 181.624 458.22 184.715 458.287 187.673C457.68 187.795 457.449 187.423 457.243 186.838C456.331 184.219 455.293 181.648 454.128 179.126C453.966 178.774 453.733 178.374 453.346 178.344C453.154 178.342 452.967 178.406 452.817 178.525C451.928 179.162 451.941 180.464 452.063 181.55C452.833 188.369 453.998 195.384 457.132 201.504C458.767 204.503 461.448 206.801 464.666 207.963Z" fill="#FAD7D5"/>
<path d="M473.015 200.955C472.983 200.948 472.952 200.938 472.922 200.924C472.771 200.851 472.651 200.727 472.583 200.574C472.515 200.422 472.503 200.25 472.55 200.089C472.872 198.185 473.465 196.337 474.31 194.601C475.201 192.802 476.632 191.327 478.405 190.381C478.47 190.347 478.54 190.327 478.612 190.32C478.685 190.314 478.758 190.322 478.827 190.345C478.896 190.367 478.96 190.403 479.015 190.45C479.07 190.497 479.115 190.555 479.147 190.62C479.18 190.685 479.199 190.756 479.203 190.828C479.208 190.9 479.198 190.973 479.174 191.041C479.15 191.11 479.113 191.173 479.064 191.227C479.016 191.28 478.957 191.324 478.891 191.355C477.326 192.2 476.065 193.511 475.281 195.105C474.522 196.663 473.983 198.319 473.679 200.026C473.748 200.136 473.781 200.264 473.774 200.393C473.767 200.523 473.721 200.647 473.641 200.749C473.565 200.836 473.466 200.901 473.356 200.937C473.246 200.973 473.128 200.979 473.015 200.955ZM473.621 200.296H473.628H473.621Z" fill="#EF8B92"/>
<path d="M468.761 188.561C468.637 188.533 468.526 188.463 468.448 188.363C468.371 188.263 468.33 188.139 468.334 188.012C468.338 187.885 468.387 187.764 468.471 187.669C468.555 187.574 468.67 187.512 468.795 187.492L475.232 186.494C475.304 186.48 475.378 186.48 475.45 186.495C475.522 186.51 475.59 186.539 475.651 186.581C475.711 186.623 475.762 186.677 475.801 186.739C475.84 186.802 475.866 186.871 475.877 186.944C475.889 187.016 475.885 187.09 475.867 187.162C475.849 187.233 475.817 187.3 475.772 187.358C475.727 187.416 475.671 187.465 475.607 187.501C475.543 187.537 475.472 187.56 475.399 187.568L468.964 188.566C468.896 188.577 468.828 188.575 468.761 188.561Z" fill="#EF8B92"/>
<path d="M461.36 205.054C461.36 205.054 457.942 226.724 458.729 239.528C458.729 239.528 471.372 257.054 477.883 237.679L474.045 205.116L461.36 205.054Z" fill="#FAD7D5"/>
<path d="M473.331 218.971L486.785 198.159L492.455 222.319C492.455 222.319 478.143 253.952 471.756 245.932L473.331 218.971Z" fill="#FFD586"/>
<path d="M481.062 205.042C491.337 186.612 494.54 187.1 494.54 187.1C510.207 194.087 500.776 220.634 500.776 220.634L478.059 245.277C478.059 245.277 488.303 225.52 475.322 215.381L481.062 205.042Z" fill="#FFD586"/>
<path d="M493.166 232.713C493.142 232.708 493.117 232.701 493.094 232.692C493.027 232.667 492.965 232.629 492.912 232.58C492.86 232.532 492.818 232.473 492.788 232.408C492.758 232.343 492.741 232.273 492.739 232.202C492.736 232.13 492.748 232.059 492.773 231.992L500.209 212.041C500.234 211.974 500.272 211.913 500.32 211.86C500.369 211.808 500.428 211.766 500.493 211.736C500.559 211.706 500.629 211.689 500.701 211.687C500.772 211.684 500.844 211.696 500.911 211.721C500.978 211.746 501.04 211.784 501.093 211.833C501.145 211.881 501.187 211.94 501.217 212.005C501.247 212.07 501.264 212.14 501.266 212.212C501.269 212.283 501.257 212.355 501.232 212.422L493.796 232.372C493.75 232.496 493.661 232.598 493.545 232.661C493.43 232.724 493.295 232.742 493.166 232.713Z" fill="#EFA403"/>
<path d="M502.219 207.41C502.095 207.383 501.985 207.314 501.907 207.214C501.829 207.115 501.788 206.992 501.791 206.865C501.861 204.114 501.61 201.363 501.041 198.669C500.652 196.826 499.025 190.766 494.388 190.189C494.317 190.181 494.248 190.158 494.186 190.122C494.124 190.087 494.069 190.04 494.025 189.983C493.981 189.927 493.949 189.862 493.93 189.793C493.911 189.724 493.905 189.652 493.914 189.581C493.923 189.51 493.946 189.442 493.982 189.38C494.017 189.318 494.064 189.263 494.121 189.219C494.178 189.175 494.242 189.143 494.312 189.124C494.381 189.105 494.453 189.1 494.524 189.109C499.864 189.792 501.682 196.424 502.109 198.445C502.695 201.222 502.954 204.057 502.882 206.894C502.878 207.038 502.817 207.175 502.713 207.274C502.608 207.374 502.468 207.428 502.324 207.424C502.288 207.423 502.253 207.418 502.219 207.41Z" fill="#EFA403"/>
<path d="M474.567 210.536C474.567 210.536 461.08 220.446 453.787 217.512L458.729 239.529C458.729 239.529 467.042 252.143 475.108 246.658C475.105 246.658 476.883 215.013 474.567 210.536Z" fill="#FFD586"/>
<path d="M474.86 237.925C474.757 237.902 474.663 237.851 474.59 237.776C474.516 237.702 474.465 237.608 474.443 237.506C474.422 237.403 474.43 237.297 474.468 237.199C474.505 237.101 474.57 237.016 474.655 236.955C478.013 234.493 476.516 228.352 476.5 228.289L474.891 215.543C474.873 215.399 474.913 215.255 475.002 215.141C475.091 215.027 475.222 214.953 475.365 214.935C475.509 214.917 475.654 214.957 475.768 215.046C475.882 215.134 475.957 215.265 475.974 215.408L477.571 228.094C477.63 228.311 479.247 234.945 475.302 237.837C475.238 237.882 475.166 237.913 475.09 237.928C475.014 237.943 474.935 237.942 474.86 237.925Z" fill="#EFA403"/>
<path d="M598.774 191.293L601.298 149.913C601.298 149.913 596.313 154.099 587.664 181.354C585.34 189.272 581.421 196.633 576.147 202.987C574.572 204.989 570.127 210.952 567.925 212.968C562.773 217.684 574.174 220.738 574.174 220.738C574.174 220.738 585.024 219.375 589.796 212.116C591.24 209.915 598.515 193.167 598.774 191.293Z" fill="#9FDFCD"/>
<path d="M535.302 270.925L535.277 270.918C535.232 270.905 535.189 270.882 535.152 270.852C535.115 270.822 535.084 270.785 535.061 270.744C535.039 270.702 535.024 270.656 535.02 270.609C535.015 270.561 535.019 270.514 535.033 270.468L537.623 261.79C537.635 261.742 537.657 261.698 537.686 261.659C537.716 261.621 537.753 261.589 537.796 261.565C537.839 261.541 537.886 261.525 537.934 261.52C537.983 261.514 538.032 261.519 538.079 261.533C538.126 261.547 538.169 261.57 538.207 261.601C538.244 261.632 538.275 261.67 538.298 261.714C538.32 261.757 538.334 261.804 538.338 261.853C538.341 261.902 538.335 261.95 538.32 261.997L535.73 270.669C535.704 270.758 535.646 270.834 535.567 270.881C535.487 270.928 535.393 270.944 535.302 270.925Z" fill="#775158"/>
<path d="M603.699 146.822C615.89 136.096 647.059 154.952 657.569 161.847C671.375 170.904 687.944 186.574 679.067 204.533C671.241 220.116 662.419 235.181 652.655 249.635C649.193 254.787 645.275 260.069 639.549 262.486C631.275 265.98 621.55 262.409 614.527 256.818C602.411 247.17 591.923 229.934 590.308 214.505C589.158 203.524 590.952 192.458 593.137 181.637C594.854 173.14 596.815 164.697 599.021 156.309C599.932 152.846 601.008 149.189 603.699 146.822Z" fill="#9FDFCD"/>
<path d="M668.635 170.718C662.275 184.033 654.917 193.347 635.327 184.026C616.828 175.224 618.589 162.353 625.849 149.503C639.974 124.503 653.014 119.564 664.829 125.423C676.643 131.283 683.493 139.619 668.635 170.718Z" fill="#FAD7D5"/>
<path d="M645.26 152.05C644.751 153.072 643.763 153.618 643.053 153.266C642.344 152.914 642.182 151.8 642.691 150.776C643.2 149.753 644.19 149.209 644.899 149.561C645.608 149.913 645.769 151.027 645.26 152.05Z" fill="#272727"/>
<path d="M657.768 158.376C657.258 159.397 656.27 159.943 655.561 159.592C654.852 159.241 654.69 158.125 655.2 157.102C655.71 156.079 656.697 155.534 657.406 155.886C658.116 156.238 658.278 157.352 657.768 158.376Z" fill="#272727"/>
<path d="M629.154 144.826C629.239 145.271 629.248 145.727 629.179 146.175C629.7 146.129 630.201 145.949 630.631 145.652C631.062 145.355 631.408 144.952 631.636 144.481C632.079 143.539 632.6 142.634 633.194 141.778C634.478 140.28 636.766 139.821 637.799 138.143C638.571 136.892 638.428 135.306 638.762 133.872C639.454 130.893 642.161 128.8 644.945 127.517C655.554 122.624 675.563 132.839 674.771 143.696C674.57 146.454 672.327 148.678 671.592 151.344C671.305 152.519 671.12 153.716 671.04 154.923L670.257 163.143C670.052 165.292 675.514 162.897 676.252 162.37C686.167 155.287 691.556 143.454 692.89 131.545C693.169 129.072 693.043 126.111 690.97 124.726C689.493 123.738 687.506 123.927 685.903 123.162C683.935 122.224 682.925 120.08 681.715 118.266C678.011 112.686 671.467 109.452 664.838 108.43C658.208 107.407 651.436 108.353 644.854 109.643C639.77 110.639 634.046 112.372 631.924 117.086C630.321 120.646 631.195 124.726 630.335 128.448C629.424 132.388 627.263 134.912 627.595 139.389C627.722 141.059 628.855 143.069 629.154 144.826Z" fill="white"/>
<path d="M628.669 145.477C629.314 144.225 629.617 142.825 629.549 141.418C629.548 140.905 629.42 140.399 629.177 139.947C629.053 139.722 628.872 139.534 628.651 139.403C628.431 139.271 628.179 139.201 627.923 139.198C627.252 139.235 626.772 139.842 626.42 140.413C624.423 143.667 623.521 147.473 623.846 151.276C623.831 151.586 623.89 151.896 624.02 152.179C624.15 152.461 624.345 152.709 624.591 152.9L624.266 153.716" fill="#FFC6C7"/>
<path d="M669.129 164.959C669.895 163.828 670.962 162.932 672.211 162.373C672.678 162.11 673.206 161.974 673.743 161.979C674.279 161.984 674.804 162.129 675.266 162.401C675.567 162.669 675.805 162.998 675.966 163.367C676.126 163.735 676.205 164.134 676.197 164.536C676.299 167.007 674.648 169.178 672.966 170.997C670.882 173.247 668.414 175.427 665.378 175.882C665.315 175.795 665.28 175.691 665.279 175.583C665.278 175.476 665.31 175.371 665.372 175.283" fill="#FFC6C7"/>
<g style="mix-blend-mode:multiply">
<g style="mix-blend-mode:multiply">
<g style="mix-blend-mode:multiply">
<path d="M641.132 157.843C641.983 156.233 640.359 153.71 637.503 152.207C634.648 150.704 631.643 150.791 630.792 152.401C629.94 154.011 631.565 156.535 634.42 158.037C637.276 159.54 640.28 159.453 641.132 157.843Z" fill="#FFC6C7"/>
</g>
</g>
</g>
<g style="mix-blend-mode:multiply">
<g style="mix-blend-mode:multiply">
<g style="mix-blend-mode:multiply">
<path d="M662.719 168.288C661.868 169.898 658.863 169.985 656.008 168.482C653.153 166.978 651.528 164.456 652.378 162.846C653.229 161.236 656.235 161.149 659.09 162.652C661.945 164.155 663.57 166.679 662.719 168.288Z" fill="#FFC6C7"/>
</g>
</g>
</g>
<path d="M668.229 172.745C668.088 172.756 667.947 172.727 667.823 172.66C667.7 172.593 667.598 172.491 667.531 172.367C667.464 172.244 667.434 172.103 667.446 171.963C667.457 171.823 667.509 171.689 667.596 171.578C668.921 169.868 669.947 167.946 670.628 165.893C670.692 165.715 670.824 165.569 670.994 165.487C671.165 165.404 671.361 165.391 671.541 165.451C671.721 165.51 671.871 165.638 671.958 165.806C672.045 165.974 672.064 166.169 672.009 166.35C671.277 168.557 670.176 170.625 668.752 172.466C668.689 172.546 668.61 172.613 668.52 172.661C668.43 172.709 668.331 172.738 668.229 172.745Z" fill="#EF8B92"/>
<path d="M625.302 150.333C625.225 150.338 625.148 150.332 625.073 150.314C624.886 150.269 624.724 150.151 624.624 149.986C624.523 149.822 624.493 149.625 624.538 149.438C624.991 147.576 625.774 145.81 626.852 144.224C626.963 144.072 627.129 143.968 627.315 143.936C627.501 143.903 627.693 143.944 627.849 144.05C628.005 144.156 628.114 144.318 628.153 144.502C628.192 144.687 628.157 144.879 628.056 145.039C627.076 146.481 626.364 148.087 625.953 149.78C625.916 149.929 625.834 150.063 625.717 150.162C625.6 150.261 625.455 150.321 625.302 150.333Z" fill="#EF8B92"/>
<path d="M645.084 163.849C645.149 163.929 645.241 163.982 645.342 164C645.444 164.018 645.549 163.998 645.637 163.945C645.725 163.891 645.791 163.808 645.823 163.71C645.854 163.613 645.849 163.507 645.809 163.412C645.367 162.516 645.112 161.541 645.059 160.545C645.05 160.368 645.089 160.193 645.173 160.037C645.302 159.891 645.46 159.773 645.637 159.691C647.256 158.773 648.689 157.563 649.862 156.121C649.903 156.078 649.934 156.027 649.955 155.972C649.975 155.916 649.983 155.857 649.98 155.798C649.976 155.739 649.96 155.682 649.933 155.629C649.906 155.577 649.868 155.531 649.822 155.493C649.776 155.456 649.722 155.429 649.665 155.413C649.608 155.398 649.549 155.394 649.49 155.403C649.431 155.411 649.375 155.432 649.325 155.463C649.275 155.495 649.232 155.536 649.198 155.585C648.099 156.936 646.757 158.071 645.241 158.933C644.935 159.077 644.668 159.292 644.462 159.56C644.287 159.85 644.198 160.182 644.204 160.52C644.247 161.637 644.523 162.732 645.016 163.737C645.032 163.777 645.055 163.815 645.084 163.849Z" fill="#B25B62"/>
<path d="M648.789 143.478C648.605 143.494 648.42 143.462 648.252 143.386C647.326 142.977 646.321 142.777 645.309 142.8C644.297 142.823 643.302 143.068 642.395 143.517C642.139 143.638 641.845 143.655 641.577 143.563C641.309 143.472 641.086 143.28 640.957 143.028C640.828 142.776 640.803 142.484 640.886 142.214C640.969 141.943 641.154 141.715 641.402 141.579C642.6 140.975 643.917 140.646 645.259 140.616C646.6 140.585 647.931 140.855 649.155 141.405C649.375 141.505 649.556 141.675 649.669 141.889C649.782 142.102 649.821 142.347 649.779 142.585C649.737 142.823 649.616 143.04 649.437 143.202C649.258 143.365 649.029 143.463 648.788 143.481L648.789 143.478Z" fill="white"/>
<path d="M663.735 154.271C663.712 154.271 663.688 154.271 663.665 154.271C663.522 154.273 663.379 154.247 663.246 154.194C663.113 154.142 662.992 154.063 662.889 153.964C662.786 153.864 662.704 153.745 662.647 153.614C662.59 153.483 662.56 153.342 662.557 153.199C662.509 152.145 662.13 151.132 661.472 150.305C660.815 149.478 659.913 148.878 658.895 148.59C658.619 148.516 658.384 148.336 658.24 148.09C658.095 147.844 658.053 147.551 658.123 147.274C658.192 146.998 658.368 146.759 658.612 146.61C658.856 146.461 659.148 146.414 659.427 146.478C660.911 146.882 662.227 147.748 663.183 148.951C664.138 150.153 664.684 151.629 664.74 153.163C664.745 153.441 664.645 153.71 664.458 153.916C664.271 154.122 664.012 154.249 663.735 154.271Z" fill="white"/>
<path d="M651.237 172.442C643.978 172.169 638.445 168.182 635.68 165.696C637.443 169.159 642.164 175.819 651.237 172.442Z" fill="white"/>
<path d="M654.646 172.292C653.516 172.433 652.376 172.483 651.238 172.44C642.164 175.822 637.443 169.158 635.681 165.695C634.985 165.082 634.331 164.424 633.721 163.727C631.655 167.162 633.255 170.092 635.367 172.159C636.752 173.47 638.327 174.566 640.04 175.408C642.154 176.65 644.508 177.432 646.946 177.701C648.666 177.869 650.39 177.415 651.803 176.422C653.216 175.43 654.225 173.964 654.646 172.292Z" fill="#B23033"/>
<path d="M628.829 168.228C628.753 168.234 628.677 168.224 628.606 168.2C628.469 168.152 628.357 168.052 628.294 167.922C628.232 167.792 628.223 167.642 628.271 167.506C629.026 165.431 630.374 163.623 632.149 162.306C633.924 160.988 636.047 160.218 638.256 160.092C638.327 160.089 638.399 160.1 638.466 160.124C638.533 160.149 638.595 160.186 638.648 160.234C638.701 160.282 638.744 160.34 638.774 160.405C638.805 160.47 638.822 160.54 638.825 160.611C638.832 160.684 638.823 160.756 638.8 160.825C638.776 160.894 638.739 160.957 638.69 161.01C638.641 161.064 638.581 161.106 638.515 161.135C638.448 161.165 638.377 161.18 638.304 161.18C636.314 161.299 634.402 161.995 632.802 163.182C631.203 164.369 629.986 165.997 629.3 167.864C629.265 167.964 629.202 168.051 629.119 168.116C629.035 168.181 628.934 168.22 628.829 168.228Z" fill="#EF8B92"/>
<path d="M656.265 178.578C656.19 178.584 656.116 178.574 656.046 178.55C655.978 178.527 655.915 178.491 655.861 178.444C655.808 178.397 655.764 178.339 655.732 178.275C655.7 178.211 655.682 178.141 655.677 178.07C655.673 177.999 655.682 177.927 655.705 177.859C656.229 176.244 656.273 174.512 655.83 172.872C655.387 171.233 654.476 169.757 653.209 168.623C653.155 168.576 653.111 168.519 653.079 168.455C653.047 168.391 653.028 168.322 653.023 168.25C653.018 168.179 653.027 168.107 653.05 168.04C653.072 167.972 653.108 167.909 653.155 167.855C653.202 167.801 653.259 167.757 653.324 167.725C653.388 167.693 653.457 167.674 653.529 167.669C653.6 167.664 653.672 167.673 653.74 167.696C653.808 167.719 653.871 167.755 653.925 167.801C655.353 169.079 656.379 170.743 656.878 172.59C657.377 174.438 657.328 176.391 656.737 178.211C656.703 178.312 656.64 178.4 656.556 178.465C656.472 178.53 656.371 178.57 656.265 178.578Z" fill="#EF8B92"/>
<path d="M640.996 150.593C640.926 150.598 640.856 150.59 640.789 150.569C640.341 150.428 639.929 150.188 639.586 149.867C639.529 149.819 639.482 149.76 639.449 149.694C639.416 149.628 639.396 149.556 639.392 149.482C639.387 149.408 639.398 149.334 639.423 149.265C639.448 149.195 639.487 149.131 639.538 149.077C639.589 149.023 639.65 148.98 639.718 148.951C639.786 148.921 639.859 148.906 639.933 148.905C640.008 148.905 640.081 148.92 640.149 148.949C640.218 148.978 640.279 149.02 640.33 149.074C640.554 149.283 640.821 149.439 641.113 149.53C641.233 149.569 641.337 149.648 641.405 149.754C641.474 149.859 641.504 149.986 641.489 150.111C641.475 150.236 641.418 150.353 641.327 150.441C641.236 150.528 641.118 150.582 640.992 150.593H640.996Z" fill="#EF8B92"/>
<path d="M660.608 159.95C660.492 159.96 660.376 159.931 660.277 159.869C659.811 159.579 659.295 159.378 658.755 159.276C658.684 159.263 658.617 159.236 658.557 159.197C658.497 159.158 658.446 159.107 658.405 159.048C658.324 158.929 658.293 158.782 658.32 158.64C658.347 158.499 658.429 158.373 658.549 158.292C658.668 158.211 658.815 158.18 658.958 158.207C659.63 158.334 660.273 158.584 660.854 158.945C660.951 159.006 661.027 159.096 661.07 159.202C661.113 159.308 661.121 159.425 661.094 159.536C661.067 159.647 661.005 159.747 660.918 159.821C660.83 159.895 660.722 159.94 660.608 159.949V159.95Z" fill="#EF8B92"/>
<path d="M671.043 172.878C671.043 172.878 681.453 181.216 679.99 200.187C678.527 219.157 664.559 256.988 652.07 247.437L663.162 215.343C663.162 215.343 665.874 184.07 671.043 172.878Z" fill="#9FDFCD"/>
<path d="M658.768 207.42H658.727C658.655 207.421 658.584 207.407 658.518 207.38C658.451 207.352 658.391 207.312 658.34 207.262C658.289 207.212 658.249 207.152 658.221 207.086C658.194 207.02 658.18 206.949 658.179 206.877C658.053 202.447 658.978 198.049 660.878 194.042C662.834 189.965 666.296 186.802 670.538 185.215C670.617 185.188 670.695 185.159 670.773 185.13C670.909 185.079 671.059 185.083 671.192 185.143C671.324 185.203 671.427 185.312 671.478 185.448C671.53 185.583 671.525 185.733 671.465 185.865C671.406 185.997 671.296 186.1 671.16 186.151C671.067 186.186 670.981 186.217 670.892 186.244C666.92 187.739 663.681 190.709 661.854 194.533C660.031 198.386 659.146 202.614 659.27 206.874C659.271 207.011 659.22 207.144 659.127 207.245C659.034 207.347 658.906 207.409 658.768 207.42Z" fill="#70BAA3"/>
<path d="M601.921 175.553C601.832 175.56 601.743 175.545 601.661 175.51C601.529 175.452 601.425 175.344 601.373 175.209C601.321 175.075 601.324 174.925 601.382 174.793L605.756 164.732C605.785 164.666 605.826 164.607 605.877 164.557C605.929 164.507 605.99 164.468 606.056 164.442C606.123 164.416 606.194 164.403 606.266 164.404C606.337 164.406 606.408 164.421 606.474 164.449C606.539 164.478 606.599 164.519 606.649 164.57C606.698 164.622 606.737 164.682 606.764 164.749C606.79 164.815 606.803 164.886 606.802 164.958C606.8 165.029 606.785 165.1 606.757 165.165L602.382 175.227C602.343 175.318 602.279 175.397 602.197 175.454C602.116 175.512 602.02 175.546 601.921 175.553Z" fill="#70BAA3"/>
<path d="M572.081 217.278C572.081 217.278 578.159 221.387 576.277 225.44C575.403 227.508 574.235 229.439 572.809 231.174C572.809 231.174 569.242 232.263 567.504 230.581C565.767 228.9 565.969 230.63 564.383 228.752C562.797 226.874 562.932 220.992 564.772 217.878C566.612 214.764 572.081 217.278 572.081 217.278Z" fill="#FAD7D5"/>
<path d="M533.548 161.587C539.027 165.817 544.257 170.358 549.211 175.19C556.06 181.827 558.213 186.191 563.874 193.98C569.48 201.693 574.961 215.412 571.548 217.865L566.765 220.043L540.952 191.855C540.952 191.855 529.992 165.647 533.548 161.587Z" fill="#FFD586"/>
<path d="M544.985 185.988C544.892 185.967 544.805 185.922 544.735 185.858C544.664 185.794 544.612 185.712 544.583 185.621C543.703 182.863 542.508 180.215 541.022 177.729C540.948 177.605 540.926 177.457 540.962 177.317C540.998 177.177 541.088 177.057 541.212 176.983C541.336 176.909 541.485 176.887 541.625 176.923C541.766 176.958 541.886 177.048 541.96 177.172C543.489 179.731 544.718 182.457 545.623 185.295C545.645 185.363 545.653 185.435 545.647 185.506C545.641 185.578 545.621 185.647 545.588 185.71C545.555 185.774 545.51 185.83 545.455 185.876C545.4 185.922 545.337 185.957 545.269 185.979C545.177 186.007 545.079 186.01 544.985 185.988Z" fill="#EFA403"/>
<path d="M566.138 221.357L565.477 224.736" stroke="#EF8B92" stroke-linecap="round" stroke-linejoin="round"/>
<path d="M566.137 226.366L567.671 228.059C567.773 228.171 567.844 228.307 567.878 228.455C567.911 228.602 567.906 228.755 567.863 228.9C567.819 229.045 567.739 229.176 567.63 229.281C567.521 229.386 567.387 229.462 567.24 229.5L567.127 229.529" stroke="#EF8B92" stroke-linecap="round" stroke-linejoin="round"/>
<path d="M658.179 212.651C658.179 212.651 656.142 234.934 653.346 245.277" stroke="#70BAA3" stroke-width="1.3" stroke-linecap="round"/>
<path d="M469.577 209.189C469.449 209.189 469.321 209.189 469.193 209.178C469.121 209.174 469.051 209.155 468.986 209.124C468.922 209.093 468.864 209.049 468.817 208.996C468.769 208.942 468.733 208.88 468.709 208.812C468.686 208.744 468.676 208.673 468.681 208.601C468.684 208.53 468.702 208.46 468.733 208.395C468.764 208.33 468.808 208.272 468.861 208.225C468.915 208.177 468.978 208.141 469.046 208.118C469.114 208.095 469.186 208.086 469.258 208.091C470.146 208.134 471.034 207.979 471.855 207.637C472.676 207.295 473.41 206.774 474.004 206.113C474.101 206.01 474.235 205.949 474.376 205.942C474.518 205.935 474.656 205.984 474.763 206.077C474.869 206.171 474.935 206.302 474.947 206.443C474.958 206.584 474.914 206.724 474.824 206.833C474.162 207.568 473.353 208.158 472.45 208.564C471.546 208.97 470.568 209.183 469.577 209.189Z" fill="#EF8B92"/>
<path d="M679.868 142.122C679.781 142.122 679.696 142.089 679.63 142.031C679.565 141.973 679.522 141.893 679.511 141.806C679.5 141.719 679.52 141.631 679.569 141.558C679.617 141.485 679.691 141.433 679.775 141.409C682.77 140.441 685.269 138.345 686.739 135.567C688.208 132.789 688.533 129.549 687.645 126.535C687.617 126.445 687.625 126.347 687.668 126.263C687.711 126.179 687.785 126.114 687.875 126.084C687.965 126.053 688.063 126.059 688.149 126.1C688.234 126.14 688.301 126.213 688.334 126.301C689.286 129.504 688.944 132.951 687.381 135.906C685.818 138.86 683.158 141.086 679.97 142.108C679.937 142.118 679.903 142.122 679.868 142.122Z" fill="#BCBCBC"/>
<path d="M480.467 154.877H480.441C478.483 154.73 476.618 153.985 475.1 152.741C475.061 152.711 475.028 152.674 475.003 152.632C474.979 152.589 474.963 152.542 474.958 152.493C474.952 152.444 474.956 152.394 474.97 152.347C474.984 152.3 475.008 152.256 475.039 152.219C475.071 152.181 475.11 152.15 475.154 152.127C475.198 152.105 475.246 152.092 475.295 152.089C475.344 152.085 475.394 152.092 475.44 152.109C475.487 152.125 475.529 152.151 475.566 152.184C476.967 153.333 478.689 154.022 480.498 154.156C480.592 154.163 480.68 154.206 480.743 154.276C480.806 154.346 480.839 154.437 480.836 154.531C480.832 154.625 480.792 154.714 480.725 154.779C480.657 154.845 480.566 154.881 480.472 154.881L480.467 154.877Z" fill="#BCBCBC"/>
<path d="M488.018 140.903C487.998 140.904 487.979 140.902 487.959 140.899C487.864 140.883 487.779 140.831 487.723 140.753C487.666 140.675 487.643 140.578 487.659 140.483C487.74 139.885 487.624 139.278 487.33 138.752C487.036 138.225 486.578 137.808 486.026 137.564C485.939 137.525 485.87 137.455 485.835 137.366C485.799 137.278 485.8 137.18 485.836 137.092C485.873 137.004 485.943 136.934 486.03 136.897C486.118 136.86 486.217 136.859 486.305 136.893C487.011 137.198 487.596 137.726 487.97 138.396C488.345 139.066 488.488 139.84 488.378 140.599C488.364 140.684 488.32 140.761 488.254 140.817C488.188 140.873 488.104 140.904 488.018 140.903Z" fill="#BCBCBC"/>
</g>
<defs>
<clipPath id="clip0_332:4895">
<rect width="241" height="261" fill="white" transform="translate(452 108)"/>
</clipPath>
</defs>
</svg>
