<svg id="icn_profile_01" xmlns="http://www.w3.org/2000/svg" xmlns:xlink="http://www.w3.org/1999/xlink" width="142" height="142" viewBox="0 0 142 142">
  <defs>
    <clipPath id="clip-path">
      <circle id="타원_705" data-name="타원 705" cx="71" cy="71" r="71" fill="none"/>
    </clipPath>
  </defs>
  <g id="그룹_31705" data-name="그룹 31705" transform="translate(0 0)" clip-path="url(#clip-path)">
    <circle id="타원_731" data-name="타원 731" cx="71" cy="71" r="71" fill="#f5f5f5"/>
    <g id="그룹_31704" data-name="그룹 31704" transform="translate(34.951 17.257)">
      <g id="그룹_31698" data-name="그룹 31698" transform="translate(0.199 84.648)">
        <path id="패스_22705" data-name="패스 22705" d="M24.474,0H48.429C61.946,0,66.72,10.958,66.72,24.474A24.474,24.474,0,0,1,42.246,48.949H24.474A24.474,24.474,0,0,1,0,24.474C0,10.958,3.861-2.273,24.474,0Z" transform="translate(1.681 1.681)" fill="#00b2ff"/>
        <path id="패스_22521" data-name="패스 22521" d="M995.378,6374.7H960.421a17.582,17.582,0,0,1-17.562-17.562V6339.95a17.582,17.582,0,0,1,17.562-17.562h34.957a17.582,17.582,0,0,1,17.562,17.562v17.186A17.582,17.582,0,0,1,995.378,6374.7Zm-34.957-48.949a14.217,14.217,0,0,0-14.2,14.2v17.186a14.217,14.217,0,0,0,14.2,14.2h34.957a14.217,14.217,0,0,0,14.2-14.2V6339.95a14.217,14.217,0,0,0-14.2-14.2Z" transform="translate(-942.859 -6322.388)"/>
      </g>
      <ellipse id="타원_703" data-name="타원 703" cx="30.17" cy="5.797" rx="30.17" ry="5.797" transform="translate(5.902 39.631)" fill="#636363"/>
      <ellipse id="타원_704" data-name="타원 704" cx="28.999" cy="11.271" rx="28.999" ry="11.271" transform="translate(5.116 13.812)" fill="#ffd8ca"/>
      <path id="패스_22522" data-name="패스 22522" d="M1027.386,5807.434l-2.131,3.512-6.242-2.405-4.134-11.491H973.648l-5.494,15.879-1.726-2.9-5.163.611,1.407-10.734,6.529-6.978,9.459-6.006,7.931-3.219,13.965-.352,18.266,8.473,7.271,8.928Z" transform="translate(-958.254 -5781.057)" fill="#919191"/>
      <path id="패스_22523" data-name="패스 22523" d="M1015.67,5804.744a1.681,1.681,0,0,1-1.576-2.264,23.149,23.149,0,0,0,.955-9.653c-.838-6.786-4.95-11.745-12.224-14.74a1.677,1.677,0,0,1-.174-.083l-1.771-.98c-.047-.026-.093-.055-.138-.085a29.714,29.714,0,0,0-16.894-5.245c-7.7,0-12.836,1.645-17.706,5.675l-1.792,1.753a1.677,1.677,0,0,1-.523.348c-2.674,1.126-6.516,3.028-9,6.516-2.758,3.873-3.318,9.059-1.661,15.414a1.681,1.681,0,1,1-3.253.847c-1.919-7.363-1.186-13.49,2.176-18.211,2.885-4.051,7.1-6.235,10.137-7.537l1.615-1.58c.033-.032.066-.062.1-.092,5.476-4.552,11.429-6.494,19.907-6.494a33.063,33.063,0,0,1,18.73,5.789l1.618.9c10.55,4.38,13.55,11.949,14.206,17.535a26.182,26.182,0,0,1-1.154,11.093A1.681,1.681,0,0,1,1015.67,5804.744Z" transform="translate(-947.752 -5768.333)"/>
      <path id="패스_22524" data-name="패스 22524" d="M1054.55,5819.3" transform="translate(-1037.287 -5811.513)" fill="none" stroke="#000" stroke-linecap="round" stroke-linejoin="round" stroke-width="22"/>
      <g id="그룹_31699" data-name="그룹 31699" transform="translate(23.606 74.72)">
        <path id="패스_22525" data-name="패스 22525" d="M1127.209,6277.692a8.4,8.4,0,0,1-8.4,8.4h-3.494a8.244,8.244,0,0,1-8.243-8.244V6268.4h20.142Z" transform="translate(-1105.386 -6266.724)" fill="#ffd8ca"/>
        <path id="패스_22526" data-name="패스 22526" d="M1109.485,6278.457h-3.494a9.935,9.935,0,0,1-9.924-9.924v-9.448a1.681,1.681,0,0,1,1.681-1.68h20.142a1.681,1.681,0,0,1,1.681,1.68v9.288A10.1,10.1,0,0,1,1109.485,6278.457Zm-10.057-17.691v7.768a6.57,6.57,0,0,0,6.563,6.563h3.494a6.731,6.731,0,0,0,6.723-6.723v-7.607Z" transform="translate(-1096.067 -6257.405)"/>
      </g>
      <path id="패스_22527" data-name="패스 22527" d="M1073.975,6341.646h-.054a17.486,17.486,0,0,1-13.678-5.985,15.81,15.81,0,0,1-4.057-9.591,1.681,1.681,0,1,1,3.361,0c0,3.12,3.541,12.185,14.383,12.215h.045a15.861,15.861,0,0,0,11.028-4.375,10.578,10.578,0,0,0,3.274-7.59,1.681,1.681,0,1,1,3.361,0,13.869,13.869,0,0,1-4.262,9.97A19.294,19.294,0,0,1,1073.975,6341.646Z" transform="translate(-1038.674 -6239.434)"/>
      <g id="그룹_31700" data-name="그룹 31700" transform="translate(0 27.291)">
        <path id="패스_22528" data-name="패스 22528" d="M960.889,5973.024a5.566,5.566,0,0,1-1.84.313c-3.586,0-6.493-3.442-6.493-7.687s2.907-7.687,6.493-7.687a5.558,5.558,0,0,1,1.949.353" transform="translate(-950.875 -5956.282)" fill="#ffd8ca"/>
        <path id="패스_22529" data-name="패스 22529" d="M949.73,5965.7c-4.507,0-8.174-4.2-8.174-9.368s3.667-9.368,8.174-9.368a7.251,7.251,0,0,1,2.535.458,1.68,1.68,0,1,1-1.172,3.15,3.9,3.9,0,0,0-1.363-.247c-2.654,0-4.812,2.694-4.812,6.007s2.159,6.007,4.813,6.007a3.9,3.9,0,0,0,1.286-.219,1.681,1.681,0,0,1,1.108,3.173A7.254,7.254,0,0,1,949.73,5965.7Z" transform="translate(-941.556 -5946.962)"/>
      </g>
      <g id="그룹_31701" data-name="그룹 31701" transform="translate(60.387 27.291)">
        <path id="패스_22530" data-name="패스 22530" d="M1347.91,5958.249a5.564,5.564,0,0,1,1.76-.286c3.586,0,6.493,3.441,6.493,7.688s-2.907,7.687-6.493,7.687a5.566,5.566,0,0,1-1.855-.318" transform="translate(-1346.134 -5956.282)" fill="#ffd8ca"/>
        <path id="패스_22531" data-name="패스 22531" d="M1340.348,5965.7a7.249,7.249,0,0,1-2.414-.414,1.681,1.681,0,0,1,1.117-3.17,3.891,3.891,0,0,0,1.3.223c2.654,0,4.813-2.7,4.813-6.007s-2.159-6.007-4.813-6.007a3.9,3.9,0,0,0-1.23.2,1.681,1.681,0,1,1-1.06-3.189,7.243,7.243,0,0,1,2.29-.372c4.507,0,8.174,4.2,8.174,9.368S1344.855,5965.7,1340.348,5965.7Z" transform="translate(-1336.812 -5946.962)"/>
      </g>
      <g id="그룹_31702" data-name="그룹 31702" transform="translate(8.442 28.208)">
        <path id="패스_22532" data-name="패스 22532" d="M1059.76,5963.963v32.667a16.153,16.153,0,0,1-16.153,16.153h-19.64a16.153,16.153,0,0,1-16.153-16.153v-32.119" transform="translate(-1006.133 -5962.282)" fill="#ffd8ca"/>
        <path id="패스_22533" data-name="패스 22533" d="M1034.286,6005.144h-19.64a17.854,17.854,0,0,1-17.834-17.833v-32.119a1.681,1.681,0,0,1,3.361,0v32.119a14.489,14.489,0,0,0,14.473,14.472h19.64a14.489,14.489,0,0,0,14.472-14.472v-32.667a1.681,1.681,0,1,1,3.361,0v32.667A17.854,17.854,0,0,1,1034.286,6005.144Z" transform="translate(-996.813 -5952.962)"/>
      </g>
      <g id="그룹_31703" data-name="그룹 31703" transform="translate(8.442 27.902)">
        <path id="패스_22534" data-name="패스 22534" d="M1059.76,5961.963v32.974a16.153,16.153,0,0,1-16.153,16.152h-19.64a16.153,16.153,0,0,1-16.153-16.152v-32.119" transform="translate(-1006.133 -5960.282)" fill="#ffd8ca"/>
        <path id="패스_22535" data-name="패스 22535" d="M1034.286,6003.449h-19.64a17.854,17.854,0,0,1-17.834-17.833V5953.5a1.681,1.681,0,1,1,3.361,0v32.119a14.489,14.489,0,0,0,14.473,14.472h19.64a14.489,14.489,0,0,0,14.472-14.472v-32.974a1.681,1.681,0,1,1,3.361,0v32.974A17.853,17.853,0,0,1,1034.286,6003.449Z" transform="translate(-996.813 -5950.962)"/>
      </g>
      <path id="패스_22536" data-name="패스 22536" d="M1119.879,6181.014c-5.045,0-9.347-3.759-9.528-3.919a1.681,1.681,0,0,1,2.226-2.519c.055.048,3.558,3.076,7.3,3.076,3.2,0,6.849-2.272,7.988-3.148a1.681,1.681,0,0,1,2.049,2.665C1129.712,6177.326,1124.86,6181.014,1119.879,6181.014Z" transform="translate(-1084.083 -6112.154)"/>
      <path id="패스_22537" data-name="패스 22537" d="M1215.11,6166.812a1.675,1.675,0,0,1-1.239-.544l-5.994-6.53a1.681,1.681,0,1,1,2.476-2.273l5.994,6.53a1.681,1.681,0,0,1-1.237,2.817Z" transform="translate(-1166.814 -6097.552)"/>
      <path id="패스_22538" data-name="패스 22538" d="M1167.783,6013.534h-4.89a1.681,1.681,0,0,1-1.681-1.681v-9.99a1.681,1.681,0,1,1,3.361,0v8.309h3.209a1.681,1.681,0,0,1,0,3.361Z" transform="translate(-1127.654 -5964.761)"/>
      <path id="패스_22539" data-name="패스 22539" d="M1076.868,5991.261a1.681,1.681,0,0,1-1.681-1.68v-3.247a1.681,1.681,0,1,1,3.361,0v3.247A1.681,1.681,0,0,1,1076.868,5991.261Z" transform="translate(-1054.771 -5951.604)"/>
      <path id="패스_22540" data-name="패스 22540" d="M1260.123,5991.261a1.681,1.681,0,0,1-1.681-1.68v-3.247a1.681,1.681,0,1,1,3.361,0v3.247A1.681,1.681,0,0,1,1260.123,5991.261Z" transform="translate(-1210.028 -5951.604)"/>
      <path id="패스_22541" data-name="패스 22541" d="M998.493,5877.4a1.706,1.706,0,0,1-.465-.065,1.681,1.681,0,0,1-1.151-2.08l4.232-14.715a5.9,5.9,0,0,1,5.648-4.252h34.973a5.892,5.892,0,0,1,5.53,3.887l4.759,13.228a1.681,1.681,0,1,1-3.163,1.138l-4.759-13.228a2.522,2.522,0,0,0-2.367-1.664h-34.973a2.527,2.527,0,0,0-2.418,1.82l-4.232,14.715A1.681,1.681,0,0,1,998.493,5877.4Z" transform="translate(-988.369 -5842.846)"/>
      <path id="패스_22542" data-name="패스 22542" d="M1338.494,6057.81a1.682,1.682,0,0,1-1.568-2.284l4.913-12.779a1.681,1.681,0,0,1,3.137,1.206l-4.912,12.779A1.682,1.682,0,0,1,1338.494,6057.81Z" transform="translate(-1276.426 -5999.908)"/>
      <path id="패스_22543" data-name="패스 22543" d="M970.728,6055.889a1.681,1.681,0,0,1-1.527-.978l-5.007-10.857a1.681,1.681,0,1,1,3.052-1.407l5.007,10.857a1.682,1.682,0,0,1-1.525,2.385Z" transform="translate(-960.604 -5999.909)"/>
      <path id="패스_22544" data-name="패스 22544" d="M1222.907,6358.209a1.675,1.675,0,0,1-.982-.318l-4.587-3.31a1.681,1.681,0,0,1,1.967-2.726l4.587,3.31a1.681,1.681,0,0,1-.985,3.043Z" transform="translate(-1174.613 -6262.436)"/>
      <path id="패스_22545" data-name="패스 22545" d="M1187.247,6381.318a1.681,1.681,0,0,1-1.605-1.186l-1.8-5.836a1.681,1.681,0,1,1,3.212-.991l1.8,5.836a1.682,1.682,0,0,1-1.606,2.177Z" transform="translate(-1146.761 -6279.874)"/>
      <path id="패스_22546" data-name="패스 22546" d="M1134.482,6382.2a1.682,1.682,0,0,1-1.62-2.129l1.562-5.639a1.681,1.681,0,0,1,3.239.9l-1.562,5.639A1.681,1.681,0,0,1,1134.482,6382.2Z" transform="translate(-1103.582 -6280.786)"/>
      <path id="패스_22547" data-name="패스 22547" d="M1083.121,6360.788a1.681,1.681,0,0,1-.774-3.173l4.33-2.243a1.681,1.681,0,1,1,1.546,2.985l-4.331,2.242A1.674,1.674,0,0,1,1083.121,6360.788Z" transform="translate(-1060.067 -6265.525)"/>
    </g>
  </g>
</svg>
