<svg xmlns="http://www.w3.org/2000/svg" width="113.17" height="69.944" viewBox="0 0 113.17 69.944">
  <g id="icn_bank_03" transform="matrix(1, -0.017, 0.017, 1, -401.28, -297.088)">
    <rect id="사각형_3326" data-name="사각형 3326" width="112" height="68" transform="translate(396 306)" fill="none"/>
    <g id="그룹_22841" data-name="그룹 22841" transform="translate(21.605)">
      <path id="패스_14087" data-name="패스 14087" d="M162.454,419.415a16.2,16.2,0,0,1-22.843,0l-11.6-11.605a16.2,16.2,0,0,1,0-22.843l11.6-11.605a16.2,16.2,0,0,1,22.843,0l11.605,11.605a16.2,16.2,0,0,1,0,22.843Z" transform="translate(279.098 -57.365)" fill="#ff0001"/>
      <path id="패스_14089" data-name="패스 14089" d="M170.08,390.289a5.114,5.114,0,0,0-2.911.759c-1.662,1.1-2.534,3.381-2.456,6.413.093,3.737,1.426,11.07,5.827,14.846a9.259,9.259,0,0,0,2.28,1.452,6.815,6.815,0,0,0,3,.676,9.946,9.946,0,0,0,1.175-.074c2.524-.4,5.685-2.281,8.036-4.778a2.281,2.281,0,0,1,1.647-.607,2.684,2.684,0,0,1,1.032.2,1.451,1.451,0,0,1,.861.81.943.943,0,0,1-.25.979,19.275,19.275,0,0,1-10.5,5.933.684.684,0,0,1-.089.013,15.969,15.969,0,0,1-1.928.122,12.166,12.166,0,0,1-5.129-1.106,13.019,13.019,0,0,1-3.2-2.024c-6.195-5.315-6.619-15.28-6.647-16.4-.067-2.651.5-6.244,3.6-8.3a10.029,10.029,0,0,1,5.635-1.511h.361a10.036,10.036,0,0,1,5.641,1.511c3.1,2.056,3.672,5.649,3.606,8.3a20.215,20.215,0,0,1-5.117,12.913,2.286,2.286,0,0,1-1.671.632,2.725,2.725,0,0,1-.994-.183c-.918-.366-1.221-1.166-.672-1.781a17.193,17.193,0,0,0,4.567-11.624c.077-3.033-.8-5.31-2.458-6.413a5.1,5.1,0,0,0-2.905-.759Z" transform="translate(257.92 -63.742)" fill="#fff"/>
    </g>
  </g>
</svg>
