<svg id="icn_profile_03" xmlns="http://www.w3.org/2000/svg" xmlns:xlink="http://www.w3.org/1999/xlink" width="142" height="142" viewBox="0 0 142 142">
  <defs>
    <clipPath id="clip-path">
      <circle id="타원_707" data-name="타원 707" cx="71" cy="71" r="71" fill="none"/>
    </clipPath>
  </defs>
  <g id="그룹_31712" data-name="그룹 31712" transform="translate(0 0)" clip-path="url(#clip-path)">
    <circle id="타원_733" data-name="타원 733" cx="71" cy="71" r="71" fill="#f5f5f5"/>
    <g id="그룹_31711" data-name="그룹 31711" transform="translate(31.567 26.383)">
      <rect id="사각형_4435" data-name="사각형 4435" width="13.614" height="19.541" rx="6.807" transform="translate(6.001 37.172)" fill="#636363"/>
      <rect id="사각형_4436" data-name="사각형 4436" width="13.614" height="19.541" rx="6.807" transform="translate(57.471 37.172)" fill="#636363"/>
      <ellipse id="타원_706" data-name="타원 706" cx="29.459" cy="35.43" rx="29.459" ry="35.43" transform="translate(9.68 6.647)" fill="#ffd8ca"/>
      <path id="패스_22548" data-name="패스 22548" d="M3053.565,5864.16l-3,2.4-.33,9.8,6.12,5.429,10.464,5.258,7.891,1.984,1-5.2-5.531-9.4-5.687-5.313-6.662-3.967Z" transform="translate(-3005.116 -5858.646)" fill="#636363"/>
      <path id="패스_22549" data-name="패스 22549" d="M2789.386,5860.935l1.643,2.033,5.522,3.137,5.436,2.715,13.611-5.563-.91,5.494,15.836-8.121,1.871,5.879,5.064-10.57,5.272,10.818,2.726-2.755,2.569,4.218,5.428-12.3-9.961-15.634-18.085-6.547-14.068,1.593-13.819,7.73-5.744,10.964Z" transform="translate(-2784.12 -5832.871)" fill="#636363"/>
      <g id="그룹_31707" data-name="그룹 31707" transform="translate(3.976 79.886)">
        <path id="패스_22714" data-name="패스 22714" d="M24.474,0H42.246C63.032-.138,66.72,10.958,66.72,24.474A24.474,24.474,0,0,1,42.246,48.949H24.474A24.474,24.474,0,0,1,0,24.474C0,10.958,3.092-.094,24.474,0Z" transform="translate(1.681 1.681)" fill="#00b2ff"/>
        <path id="패스_22550" data-name="패스 22550" d="M2833.457,6403.26H2798.5a17.582,17.582,0,0,1-17.562-17.562v-17.186a17.582,17.582,0,0,1,17.562-17.562h34.958a17.582,17.582,0,0,1,17.562,17.562V6385.7A17.582,17.582,0,0,1,2833.457,6403.26Zm-34.958-48.949a14.217,14.217,0,0,0-14.2,14.2V6385.7a14.217,14.217,0,0,0,14.2,14.2h34.958a14.217,14.217,0,0,0,14.2-14.2v-17.186a14.217,14.217,0,0,0-14.2-14.2Z" transform="translate(-2780.937 -6350.95)"/>
      </g>
      <g id="그룹_31708" data-name="그룹 31708" transform="translate(26.874 76.567)">
        <path id="패스_22551" data-name="패스 22551" d="M2961.955,6329.686v7.123c0,3.494-5.706,9.393-8.528,12.1a2.24,2.24,0,0,1-3.092.006c-2.824-2.682-8.522-8.518-8.522-11.943v-7.741" transform="translate(-2940.132 -6329.228)" fill="#ffd8ca"/>
        <path id="패스_22552" data-name="패스 22552" d="M2942.558,6351.21a3.911,3.911,0,0,1-2.7-1.08,61.579,61.579,0,0,1-5.475-5.862c-2.4-3-3.57-5.391-3.57-7.3v-7.742h3.361v7.742c0,1.9,3.139,6.108,8,10.724a.558.558,0,0,0,.772,0c4.866-4.663,8.01-8.934,8.01-10.883v-7.123h3.361v7.123c0,3.837-4.919,9.356-9.045,13.311A3.91,3.91,0,0,1,2942.558,6351.21Z" transform="translate(-2930.813 -6329.228)"/>
      </g>
      <path id="패스_22553" data-name="패스 22553" d="M3205.041,6029.285" transform="translate(-3136.271 -5998.543)" fill="none" stroke="#000" stroke-linecap="round" stroke-width="22"/>
      <path id="패스_22554" data-name="패스 22554" d="M2998.279,6118.146h-6.57v-11.67a1.681,1.681,0,0,1,3.361,0v8.309h3.209a1.681,1.681,0,0,1,0,3.361Z" transform="translate(-2955.531 -6062.517)"/>
      <path id="패스_22555" data-name="패스 22555" d="M2907.365,6095.875a1.681,1.681,0,0,1-1.681-1.681v-3.247a1.681,1.681,0,0,1,3.361,0v3.247A1.681,1.681,0,0,1,2907.365,6095.875Z" transform="translate(-2882.649 -6049.361)"/>
      <path id="패스_22556" data-name="패스 22556" d="M3090.619,6095.875a1.681,1.681,0,0,1-1.68-1.681v-3.247a1.681,1.681,0,0,1,3.361,0v3.247A1.681,1.681,0,0,1,3090.619,6095.875Z" transform="translate(-3037.907 -6049.361)"/>
      <path id="패스_22557" data-name="패스 22557" d="M2936.872,6238.336a24.136,24.136,0,0,1-12.031-3.782,1.68,1.68,0,0,1,1.872-2.791c.063.042,4.884,3.212,10.159,3.212,5.372,0,10.979-3.234,11.035-3.268a1.681,1.681,0,0,1,1.694,2.9C2949.34,6234.763,2943.142,6238.336,2936.872,6238.336Z" transform="translate(-2898.25 -6169.845)"/>
      <g id="그룹_31709" data-name="그룹 31709" transform="translate(0 29.061)">
        <path id="패스_22558" data-name="패스 22558" d="M2774.447,6041.971a7.452,7.452,0,0,1-1.6.173,6.449,6.449,0,1,1,0-12.861c.358,0,1.367.146,1.711.194" transform="translate(-2764.233 -6027.602)" fill="#ffd8ca"/>
        <path id="패스_22559" data-name="패스 22559" d="M2763.525,6034.5a8.126,8.126,0,1,1,0-16.223,16.623,16.623,0,0,1,1.9.2l.047.006a1.681,1.681,0,0,1-.471,3.329l-.048-.007c-1.024-.145-1.335-.169-1.43-.17a4.774,4.774,0,1,0,0,9.5,5.785,5.785,0,0,0,1.242-.134,1.681,1.681,0,0,1,.722,3.283A9.14,9.14,0,0,1,2763.525,6034.5Z" transform="translate(-2754.914 -6018.282)"/>
      </g>
      <g id="그룹_31710" data-name="그룹 31710" transform="translate(65.35 29.061)">
        <path id="패스_22560" data-name="패스 22560" d="M3193.875,6041.971a7.448,7.448,0,0,0,1.6.173,6.449,6.449,0,1,0,0-12.861,7.454,7.454,0,0,0-1.824.225" transform="translate(-3191.973 -6027.602)" fill="#ffd8ca"/>
        <path id="패스_22561" data-name="패스 22561" d="M3186.157,6034.5a9.138,9.138,0,0,1-1.964-.212,1.681,1.681,0,0,1,.722-3.283,5.787,5.787,0,0,0,1.242.134,4.774,4.774,0,1,0,0-9.5,5.806,5.806,0,0,0-1.412.173,1.68,1.68,0,1,1-.823-3.258,9.123,9.123,0,0,1,2.235-.276,8.126,8.126,0,1,1,0,16.223Z" transform="translate(-3182.653 -6018.282)"/>
      </g>
      <path id="패스_22562" data-name="패스 22562" d="M2780.068,5860.895c-.033,0-.066,0-.1,0a1.68,1.68,0,0,1-1.58-1.776,36.342,36.342,0,0,1,3.669-12.742,31.731,31.731,0,0,1,21.581-17.135,38.34,38.34,0,0,1,19.025.006A30.265,30.265,0,0,1,2842.983,5844a39.515,39.515,0,0,1,4.809,14.2,1.681,1.681,0,0,1-3.333.43,36.012,36.012,0,0,0-4.382-12.941,26.866,26.866,0,0,0-18.2-13.177l-.151-.04a35.4,35.4,0,0,0-17.289.031,29.28,29.28,0,0,0-12.583,6.393,28.987,28.987,0,0,0-6.784,8.968,33.286,33.286,0,0,0-3.326,11.448A1.681,1.681,0,0,1,2780.068,5860.895Z" transform="translate(-2774.8 -5828.067)"/>
      <path id="패스_22563" data-name="패스 22563" d="M3271.124,6125.222" transform="translate(-3192.258 -6079.823)" fill="none" stroke="#000" stroke-linecap="round" stroke-width="22"/>
      <path id="패스_22564" data-name="패스 22564" d="M2842.448,6024.533h-3.192a28.526,28.526,0,0,1-28.493-28.494v-20.046l.175-.167a1.866,1.866,0,0,1,.981-.988c1.334-.57,2.593.487,4.1,1.93,1.028.984,2.125,2.162,2.863,2.978a.145.145,0,0,0,.131.042c3.138-.461,9.315-3.2,13.652-5.41a1.817,1.817,0,0,1,1.94.175,1.843,1.843,0,0,1,.687,1.825l-.527,2.591a41.494,41.494,0,0,0,6.585-3.2c3.043-1.761,5.6-3.537,6.316-4.04a1.832,1.832,0,0,1,2.837,1.064l.618,2.537a26.358,26.358,0,0,0,1.927-6.966,2.212,2.212,0,0,1,4.189-.6c.923,1.979,2.842,6.075,4.129,8.733l.934-1a1.833,1.833,0,0,1,2.962.4l.963,1.829,1.559-2.132a1.74,1.74,0,0,1,3.156,1.012v19.432A28.526,28.526,0,0,1,2842.448,6024.533Zm-28.324-44.919v16.425a25.161,25.161,0,0,0,25.132,25.132h3.192a25.161,25.161,0,0,0,25.132-25.132v-14.47l-.086.117a1.833,1.833,0,0,1-3.1-.228l-1.1-2.091-.974,1.043a1.833,1.833,0,0,1-2.967-.4c-.692-1.333-2.276-4.668-3.674-7.643-.779,3.135-2.054,6.312-4.135,7.942a1.834,1.834,0,0,1-2.915-1.008l-.868-3.562c-1.222.812-2.89,1.88-4.727,2.944-4.168,2.411-7.525,3.826-9.978,4.206a1.833,1.833,0,0,1-2.075-2.178l.4-1.955c-3.418,1.623-8.593,3.877-11.878,4.359a3.5,3.5,0,0,1-3.11-1.111C2815.476,5980.992,2814.726,5980.21,2814.124,5979.614Zm-1.748-1.228h0Zm.147-3.358h0Z" transform="translate(-2802.23 -5945.345)"/>
      <path id="패스_22565" data-name="패스 22565" d="M2782.22,6114.728a1.674,1.674,0,0,1-1.178-.483c-.309-.3-7.574-7.589-7.574-18.24a1.681,1.681,0,0,1,3.361,0c0,9.211,6.509,15.783,6.575,15.849a1.681,1.681,0,0,1-1.184,2.875Z" transform="translate(-2770.633 -6053.646)"/>
      <path id="패스_22566" data-name="패스 22566" d="M3176.275,6114.729a1.68,1.68,0,0,1-1.182-2.875c.072-.071,6.574-6.642,6.574-15.849a1.681,1.681,0,1,1,3.361,0c0,10.651-7.264,17.936-7.574,18.24A1.676,1.676,0,0,1,3176.275,6114.729Z" transform="translate(-3110.476 -6053.646)"/>
    </g>
  </g>
</svg>
