<svg xmlns="http://www.w3.org/2000/svg" width="113.17" height="69.944" viewBox="0 0 113.17 69.944">
  <g id="icn_bank_01" transform="matrix(1, -0.017, 0.017, 1, -244.239, -238.82)">
    <rect id="사각형_3327" data-name="사각형 3327" width="112" height="68" transform="translate(240 245)" fill="none"/>
    <path id="패스_16130" data-name="패스 16130" d="M94.08,113.354l-.611-.386C91.4,110.9,88.514,110,84.66,110.229a16.624,16.624,0,0,0-7.7,2.652c0-.03,0-.059,0-.089a31.067,31.067,0,0,1,.227-3.154,31.132,31.132,0,0,0,.227-3.207,7.46,7.46,0,0,0-.483-2.916.568.568,0,0,0-.55-.351,8.4,8.4,0,0,0-3.552,1.164l-.268.587a23.824,23.824,0,0,1-.524,4.742c.008-.014-.14.384-.14.384a58.146,58.146,0,0,0-.041,12.067c.047.345.711.865,1.227,1.054a7.73,7.73,0,0,0,3.341-.654c-.012.01.386-.055.386-.055a.578.578,0,0,0,.493-.67l.024-1c.735-2.983,3.708-6.541,7.221-7.079a4.994,4.994,0,0,1,4.795,1.549,6.561,6.561,0,0,1-.782,4.851,10.051,10.051,0,0,1-5.487,4.33,20.986,20.986,0,0,1-8.4,1.18l-3.087-2.084c-2.614-1.836-5.861-4.122-8.811-5.241a10.681,10.681,0,0,1-2-1.432l-.3-.25c-1.7-1.359-4.933-3.517-7.532-5.247,0,0-1.172-.784-1.4-.934,0-.1.008-.3.008-.3.073-.081,1.7-1.058,1.7-1.058,2.285-1.338,3.343-1.994,3.566-2.335-.045.055.3-.177.3-.177l5.664-3.2c5.432-2.989,11.6-6.379,14.829-9.727l.156-.51.073-.457a3.184,3.184,0,0,0,.049-1.9.607.607,0,0,0-.441-.431c-2.524-.252-5.782,1.263-8.746,4.045a7.981,7.981,0,0,1-1.828,1.259l-.455.252c-3.27,1.854-10.637,6.427-14.489,8.893a129.761,129.761,0,0,1,1.964-14.959l-.106-.589c-.01-.02-.4-.741-.4-.741l-.3-.534L53,87.931a2.426,2.426,0,0,0-1.858-.112l-.776.284-1.021.372a.571.571,0,0,0-.431.363,62.524,62.524,0,0,0-3.737,17.629,88.422,88.422,0,0,0-8.749-4.839l-.047-.024-.2-.045a6.181,6.181,0,0,1-2.039-.944c-.069-.047-1.4-.908-1.4-.908l-2.14-1.369c.018.014-.563-.13-.563-.13a6.669,6.669,0,0,0-3.2,2.149.613.613,0,0,0-.1.347,1.99,1.99,0,0,0,.1.5l.1.437.1.266a30.9,30.9,0,0,0,6.147,4.163l2.941,1.558,4.5,2.457c0,.02.774.609.774.609l.528.307s.057.035.091.059l-8.178,5.467-4.307,2.851a24.853,24.853,0,0,1-2.48,1.188,3.54,3.54,0,0,0-1.933,1.6l-.114.248.114.167.327.25c-.012,0,.443.286.443.286l.475.327c.01.006.449.065.449.065.755.035,1.878-.4,3.972-1.316,1.921-.853,7.15-4,9.384-5.351l.956-.571a2.1,2.1,0,0,0,1.21-.6,11.97,11.97,0,0,1,2.021-1.214c.014-.006.359-.2.672-.374,0,.1-.006.256-.006.256a91.725,91.725,0,0,0,1.243,15.635l.014.069.071.152a17.267,17.267,0,0,1,1.158,3.59l.853,2.853c.014.03.24.266.24.266a5.609,5.609,0,0,0,2.955.78l.248-.026.156-.349A6.552,6.552,0,0,0,52.068,136c0-.524-.039-1.1-.087-1.8l-.065-1.03c-.313-4.772-.628-11.663-.628-16.248,0-.128,0-.24,0-.361l4.36,2.746c6.033,3.911,15.149,9.829,20.659,11.393a.8.8,0,0,0,.8-.183c.01-.01.849-.544.849-.544l.156-.067a1.521,1.521,0,0,0,.571-1.257c4.642-.236,11.118-2.023,14.583-6.379a9.081,9.081,0,0,0,1.947-5.532,4.69,4.69,0,0,0-1.133-3.389" transform="translate(236 166.315)" fill="#ffa600"/>
  </g>
</svg>
