<svg xmlns="http://www.w3.org/2000/svg" width="90" height="90" viewBox="0 0 90 90">
  <g id="icn_id_02" transform="translate(-475 -736)">
    <rect id="사각형_2358" data-name="사각형 2358" width="90" height="90" transform="translate(475 736)" fill="none"/>
    <g id="그룹_21713" data-name="그룹 21713" transform="translate(484 745)">
      <g id="그룹_21710" data-name="그룹 21710" transform="translate(0 8.856)">
        <path id="패스_14225" data-name="패스 14225" d="M4.58,0H7.367a4.42,4.42,0,0,1,4.421,4.421V7.368H8.841L5.894,10.314v4.421H0" transform="translate(4.28 9.577) rotate(13)" fill="none" stroke="#000" stroke-linejoin="round" stroke-width="3"/>
        <path id="패스_14226" data-name="패스 14226" d="M8.347,18.934l2.725-2.725V8.841l2.947-2.947V2.947L10.848,0H3.7L0,3.7" transform="translate(3.381 40.97) rotate(-9)" fill="none" stroke="#000" stroke-linejoin="round" stroke-width="3"/>
        <path id="패스_14227" data-name="패스 14227" d="M-1068.449,920.719h-5.258V908.45l-3.505-3.505h-5.258v-7.01l5.258-5.259h7.01l8.764,8.763v12.269Z" transform="translate(1107.947 -871.496)" fill="none" stroke="#000" stroke-linejoin="round" stroke-width="3"/>
        <path id="패스_14228" data-name="패스 14228" d="M-1051.238,900.218a30.955,30.955,0,0,1-30.432,25.3,30.945,30.945,0,0,1-30.944-30.945,30.951,30.951,0,0,1,26.523-30.631" transform="translate(1112.614 -863.947)" fill="none" stroke="#000" stroke-linejoin="round" stroke-width="3"/>
      </g>
      <g id="그룹_21712" data-name="그룹 21712" transform="translate(31.688)">
        <path id="패스_14229" data-name="패스 14229" d="M-1040.76,883.259a19.582,19.582,0,0,0-7.532-26.649,19.581,19.581,0,0,0-26.649,7.531,19.585,19.585,0,0,0,2.783,22.927l.813,7.473,5.9-2.8A19.58,19.58,0,0,0-1040.76,883.259Z" transform="translate(1077.434 -854.115)" fill="#4ac6ff" stroke="#000" stroke-linecap="round" stroke-linejoin="round" stroke-width="3"/>
        <g id="그룹_21711" data-name="그룹 21711" transform="translate(11.563 11.378)">
          <line id="선_455" data-name="선 455" x2="16.044" transform="translate(0 8.022)" fill="none" stroke="#fff" stroke-linejoin="round" stroke-width="5"/>
          <line id="선_456" data-name="선 456" y1="16.044" transform="translate(8.022)" fill="none" stroke="#fff" stroke-linejoin="round" stroke-width="5"/>
        </g>
      </g>
    </g>
  </g>
</svg>
