<svg id="icn_profile_06" xmlns="http://www.w3.org/2000/svg" xmlns:xlink="http://www.w3.org/1999/xlink" width="142" height="142" viewBox="0 0 142 142">
  <defs>
    <clipPath id="clip-path">
      <circle id="타원_710" data-name="타원 710" cx="71" cy="71" r="71" fill="none"/>
    </clipPath>
  </defs>
  <g id="그룹_31735" data-name="그룹 31735" clip-path="url(#clip-path)">
    <path id="패스_22707" data-name="패스 22707" d="M71,0A71,71,0,1,1,0,71,71,71,0,0,1,71,0Z" fill="#f5f5f5"/>
    <g id="그룹_31734" data-name="그룹 31734" transform="translate(28.939 15.828)">
      <ellipse id="타원_708" data-name="타원 708" cx="21.061" cy="11.271" rx="21.061" ry="11.271" transform="translate(26.731 13.659)" fill="#ffd8ca"/>
      <path id="패스_22567" data-name="패스 22567" d="M978.4,6987.3l5.113-.247,9.619,1.1,11.223-2.919,9.124-5.954,4.7-4.515,5.734,1.949,9.83,7.955,2.674,1.553,3.9,1.082-2.317-9.521-4.255-7.391-10.165-7.551-14.988-4.185-13.047,2.413-8.325,5.744-6.66,8.158Z" transform="translate(-966.759 -6957.402)" fill="#919191"/>
      <path id="패스_22568" data-name="패스 22568" d="M938.483,7274.494l.2,7.743-5.4,4-13.094,7.372-7.825-4.5.28-17.029-4.545-8.908,9.208-12.881.531-11.314,4.48-.133,1.888,24.329,4.121,6.2,4.87,2.747Z" transform="translate(-907.199 -7194.783)" fill="#919191"/>
      <path id="패스_22569" data-name="패스 22569" d="M1236.653,7268.909l-.387,8.906,3.677,2.421,13.552,9.479,9.967-4.532,1.487-7.912L1263.3,7266l4.87-6.954-.932-5.693-8.454-8.021.007-12.342-5.753,1.624v18.713l-.819,3.99-.781,1.73A18.649,18.649,0,0,1,1236.653,7268.909Z" transform="translate(-1185.228 -7189.822)" fill="#919191"/>
      <path id="패스_22570" data-name="패스 22570" d="M919.587,7275.022q-1.064,0-2.066-.082c-5-.411-8.615-2.353-10.745-5.775-3.13-5.028-1.873-8.771-.862-11.779,1-2.974,1.721-5.123-1.2-8.518a9.541,9.541,0,0,1-1.458-10.836,24.727,24.727,0,0,1,5.126-6.752l.329-.331.089-.088a5.278,5.278,0,0,0,1.66-3.5c.135-2.006.208-6.047.212-11.687a1.681,1.681,0,0,1,1.681-1.679h0a1.68,1.68,0,0,1,1.679,1.682c0,5.795-.078,9.8-.22,11.91a8.581,8.581,0,0,1-2.654,5.665l-.055.054-.342.345a21.5,21.5,0,0,0-4.452,5.783,6.16,6.16,0,0,0,.952,7.241c4.167,4.845,2.93,8.529,1.838,11.779-.946,2.817-1.763,5.249.53,8.933,1.562,2.509,6.056,6.241,18.609,3.06a1.68,1.68,0,1,1,.826,3.258A38.961,38.961,0,0,1,919.587,7275.022Z" transform="translate(-902.204 -7173.733)"/>
      <path id="패스_22571" data-name="패스 22571" d="M1279.443,7275.022a38.96,38.96,0,0,1-9.478-1.316,1.68,1.68,0,1,1,.826-3.258c12.553,3.182,17.047-.551,18.609-3.06,2.293-3.684,1.476-6.115.53-8.933-1.092-3.25-2.33-6.935,1.838-11.779,3.871-4.5.4-9.109-3.5-13.024l-.343-.345-.055-.055a8.578,8.578,0,0,1-2.653-5.664c-.141-2.1-.215-6.112-.22-11.91a1.68,1.68,0,0,1,1.679-1.682h0a1.68,1.68,0,0,1,1.681,1.679c0,5.644.078,9.686.213,11.688a5.276,5.276,0,0,0,1.659,3.5l.089.089c.1.1.21.212.329.331a24.725,24.725,0,0,1,5.125,6.752,9.541,9.541,0,0,1-1.458,10.836c-2.921,3.4-2.2,5.544-1.2,8.518,1.01,3.007,2.268,6.751-.863,11.779-2.13,3.422-5.745,5.364-10.745,5.775Q1280.508,7275.023,1279.443,7275.022Z" transform="translate(-1212.704 -7173.733)"/>
      <path id="패스_22572" data-name="패스 22572" d="M959.093,6994.079h0a1.681,1.681,0,0,1-1.679-1.682c0-4.5-.038-8.479-.039-8.519,0-.006,0-.012,0-.018a33.406,33.406,0,1,1,66.813,0v6.644a1.681,1.681,0,1,1-3.361,0v-6.644a30.045,30.045,0,0,0-60.091-.009c0,.216.042,4.13.039,8.548A1.68,1.68,0,0,1,959.093,6994.079Z" transform="translate(-948.944 -6950.454)"/>
      <g id="그룹_31714" data-name="그룹 31714" transform="translate(29.346 74.568)">
        <path id="패스_22573" data-name="패스 22573" d="M1125.424,7458.813a8.4,8.4,0,0,1-8.4,8.4h-3.494a8.243,8.243,0,0,1-8.243-8.243v-9.448h20.142Z" transform="translate(-1103.601 -7447.845)" fill="#ffd8ca"/>
        <path id="패스_22574" data-name="패스 22574" d="M1107.7,7459.579h-3.494a9.935,9.935,0,0,1-9.924-9.923v-9.448a1.68,1.68,0,0,1,1.681-1.681H1116.1a1.68,1.68,0,0,1,1.681,1.681v9.287A10.1,10.1,0,0,1,1107.7,7459.579Zm-10.057-17.691v7.768a6.57,6.57,0,0,0,6.563,6.563h3.494a6.732,6.732,0,0,0,6.724-6.724v-7.607Z" transform="translate(-1094.282 -7438.526)"/>
      </g>
      <g id="그룹_31715" data-name="그룹 31715" transform="translate(5.739 27.138)">
        <path id="패스_22575" data-name="패스 22575" d="M959.1,7154.146a5.564,5.564,0,0,1-1.84.313c-3.586,0-6.493-3.441-6.493-7.687s2.907-7.687,6.493-7.687a5.569,5.569,0,0,1,1.949.352" transform="translate(-949.09 -7137.403)" fill="#ffd8ca"/>
        <path id="패스_22576" data-name="패스 22576" d="M947.945,7146.818c-4.507,0-8.174-4.2-8.174-9.368s3.667-9.368,8.174-9.368a7.249,7.249,0,0,1,2.535.458,1.681,1.681,0,0,1-1.172,3.15,3.89,3.89,0,0,0-1.363-.247c-2.654,0-4.813,2.695-4.813,6.007s2.159,6.007,4.813,6.007a3.9,3.9,0,0,0,1.286-.219,1.681,1.681,0,0,1,1.108,3.173A7.254,7.254,0,0,1,947.945,7146.818Z" transform="translate(-939.771 -7128.083)"/>
      </g>
      <g id="그룹_31716" data-name="그룹 31716" transform="translate(66.127 27.138)">
        <path id="패스_22577" data-name="패스 22577" d="M1346.125,7139.37a5.549,5.549,0,0,1,1.76-.286c3.586,0,6.493,3.441,6.493,7.687s-2.907,7.687-6.493,7.687a5.553,5.553,0,0,1-1.855-.318" transform="translate(-1344.349 -7137.403)" fill="#ffd8ca"/>
        <path id="패스_22578" data-name="패스 22578" d="M1338.563,7146.818a7.237,7.237,0,0,1-2.414-.414,1.681,1.681,0,0,1,1.117-3.17,3.877,3.877,0,0,0,1.3.223c2.654,0,4.813-2.695,4.813-6.007s-2.159-6.007-4.812-6.007a3.893,3.893,0,0,0-1.229.2,1.68,1.68,0,1,1-1.061-3.189,7.245,7.245,0,0,1,2.291-.372c4.507,0,8.174,4.2,8.174,9.368S1343.07,7146.818,1338.563,7146.818Z" transform="translate(-1335.027 -7128.083)"/>
      </g>
      <g id="그룹_31717" data-name="그룹 31717" transform="translate(5.939 89.574)">
        <rect id="사각형_4438" data-name="사각형 4438" width="66.72" height="48.949" rx="24.474" transform="translate(1.681 1.681)" fill="#00b2ff"/>
        <path id="패스_22579" data-name="패스 22579" d="M993.593,7589.057H958.636a17.582,17.582,0,0,1-17.562-17.562v-17.187a17.582,17.582,0,0,1,17.562-17.562h34.957a17.582,17.582,0,0,1,17.562,17.562V7571.5A17.582,17.582,0,0,1,993.593,7589.057Zm-34.957-48.948a14.217,14.217,0,0,0-14.2,14.2V7571.5a14.217,14.217,0,0,0,14.2,14.2h34.957a14.217,14.217,0,0,0,14.2-14.2v-17.187a14.217,14.217,0,0,0-14.2-14.2Z" transform="translate(-941.074 -7536.747)"/>
      </g>
      <g id="그룹_31718" data-name="그룹 31718" transform="translate(26.317 84.679)">
        <rect id="사각형_4439" data-name="사각형 4439" width="26.199" height="11.985" rx="5.992" transform="translate(1.681 1.681)" fill="#00b2ff"/>
        <path id="패스_22580" data-name="패스 22580" d="M1098.936,7520.053h-19.392a5.089,5.089,0,0,1-5.084-5.084v-5.178a5.089,5.089,0,0,1,5.084-5.084h19.392a5.089,5.089,0,0,1,5.084,5.084v5.178A5.089,5.089,0,0,1,1098.936,7520.053Zm-19.392-11.984a1.724,1.724,0,0,0-1.722,1.723v5.178a1.725,1.725,0,0,0,1.722,1.723h19.392a1.725,1.725,0,0,0,1.723-1.723v-5.178a1.724,1.724,0,0,0-1.723-1.723Z" transform="translate(-1074.46 -7504.707)"/>
      </g>
      <g id="그룹_31719" data-name="그룹 31719" transform="translate(32.802 84.679)">
        <line id="선_763" data-name="선 763" y2="11.985" transform="translate(1.681 1.681)" fill="#fff"/>
        <path id="패스_22581" data-name="패스 22581" d="M1118.587,7520.053a1.68,1.68,0,0,1-1.681-1.68v-11.985a1.681,1.681,0,1,1,3.361,0v11.985A1.68,1.68,0,0,1,1118.587,7520.053Z" transform="translate(-1116.906 -7504.707)"/>
      </g>
      <g id="그룹_31720" data-name="그룹 31720" transform="translate(39.534 84.679)">
        <line id="선_764" data-name="선 764" y2="11.985" transform="translate(1.681 1.681)" fill="#fff"/>
        <path id="패스_22582" data-name="패스 22582" d="M1162.651,7520.053a1.68,1.68,0,0,1-1.681-1.68v-11.985a1.681,1.681,0,1,1,3.361,0v11.985A1.68,1.68,0,0,1,1162.651,7520.053Z" transform="translate(-1160.97 -7504.707)"/>
      </g>
      <g id="그룹_31723" data-name="그룹 31723" transform="translate(14.182 27.749)">
        <g id="그룹_31721" data-name="그룹 31721" transform="translate(0 0.306)">
          <path id="패스_22583" data-name="패스 22583" d="M1057.974,7145.084v32.668a16.152,16.152,0,0,1-16.153,16.152h-19.64a16.152,16.152,0,0,1-16.153-16.152v-32.119" transform="translate(-1004.349 -7143.403)" fill="#ffd8ca"/>
          <path id="패스_22584" data-name="패스 22584" d="M1032.5,7186.265h-19.64a17.854,17.854,0,0,1-17.833-17.833v-32.119a1.681,1.681,0,1,1,3.361,0v32.119a14.489,14.489,0,0,0,14.472,14.472h19.64a14.489,14.489,0,0,0,14.472-14.472v-32.668a1.681,1.681,0,1,1,3.361,0v32.668A17.853,17.853,0,0,1,1032.5,7186.265Z" transform="translate(-995.029 -7134.083)"/>
        </g>
        <g id="그룹_31722" data-name="그룹 31722">
          <path id="패스_22585" data-name="패스 22585" d="M1057.974,7143.084v32.973a16.153,16.153,0,0,1-16.153,16.153h-19.64a16.153,16.153,0,0,1-16.153-16.153v-32.119" transform="translate(-1004.349 -7141.403)" fill="#ffd8ca"/>
          <path id="패스_22586" data-name="패스 22586" d="M1032.5,7184.57h-19.64a17.854,17.854,0,0,1-17.833-17.833v-32.12a1.681,1.681,0,0,1,3.361,0v32.12a14.489,14.489,0,0,0,14.472,14.472h19.64a14.489,14.489,0,0,0,14.472-14.472v-32.973a1.681,1.681,0,1,1,3.361,0v32.973A17.854,17.854,0,0,1,1032.5,7184.57Z" transform="translate(-995.029 -7132.083)"/>
        </g>
        <path id="패스_22587" data-name="패스 22587" d="M1118.094,7362.135c-5.046,0-9.348-3.759-9.528-3.919a1.68,1.68,0,0,1,2.226-2.518c.055.048,3.558,3.076,7.3,3.076,3.2,0,6.849-2.272,7.988-3.148a1.681,1.681,0,1,1,2.049,2.665C1127.927,7358.447,1123.075,7362.135,1118.094,7362.135Z" transform="translate(-1090.74 -7321.178)"/>
        <path id="패스_22588" data-name="패스 22588" d="M1213.325,7347.934a1.678,1.678,0,0,1-1.238-.544l-5.994-6.53a1.681,1.681,0,1,1,2.476-2.273l5.994,6.53a1.681,1.681,0,0,1-1.238,2.817Z" transform="translate(-1173.471 -7306.576)"/>
        <path id="패스_22589" data-name="패스 22589" d="M1166,7194.654h-4.89a1.68,1.68,0,0,1-1.681-1.68v-9.99a1.681,1.681,0,1,1,3.361,0v8.309H1166a1.68,1.68,0,1,1,0,3.361Z" transform="translate(-1134.31 -7173.784)"/>
        <path id="패스_22590" data-name="패스 22590" d="M1075.083,7172.382a1.681,1.681,0,0,1-1.681-1.68v-3.247a1.681,1.681,0,1,1,3.361,0v3.247A1.681,1.681,0,0,1,1075.083,7172.382Z" transform="translate(-1061.429 -7160.627)"/>
        <path id="패스_22591" data-name="패스 22591" d="M1258.339,7172.382a1.681,1.681,0,0,1-1.681-1.68v-3.247a1.681,1.681,0,1,1,3.361,0v3.247A1.681,1.681,0,0,1,1258.339,7172.382Z" transform="translate(-1216.686 -7160.627)"/>
      </g>
      <path id="패스_22592" data-name="패스 22592" d="M1005.32,7005.008a27.74,27.74,0,0,1-9.171-1.5,1.681,1.681,0,0,1,1.116-3.171c6.716,2.363,15.1,1.477,22.425-2.372,8.346-4.384,14.173-11.945,15.207-19.733a1.681,1.681,0,1,1,3.332.442c-1.176,8.852-7.681,17.384-16.976,22.267a34.919,34.919,0,0,1-12.933,3.922C1007.314,7004.96,1006.313,7005.008,1005.32,7005.008Z" transform="translate(-980.845 -6972.75)"/>
      <path id="패스_22593" data-name="패스 22593" d="M1243.72,7070.857a1.68,1.68,0,0,1-1.681-1.681c0-4.587-2.525-8.452-7.5-11.488a30.529,30.529,0,0,0-7.961-3.337,1.68,1.68,0,0,1,.75-3.276,33.39,33.39,0,0,1,8.881,3.7c6.016,3.64,9.2,8.622,9.2,14.406A1.68,1.68,0,0,1,1243.72,7070.857Z" transform="translate(-1175.912 -7035.667)"/>
      <ellipse id="타원_709" data-name="타원 709" cx="21.061" cy="11.271" rx="21.061" ry="11.271" transform="translate(26.731 13.659)" fill="#ffd8ca"/>
      <path id="패스_22594" data-name="패스 22594" d="M978.4,6987.3l5.113-.247,9.619,1.1,11.223-2.919,9.124-5.954,4.7-4.515,5.734,1.949,9.83,7.955,2.674,1.553,3.9,1.082-2.317-9.521-4.255-7.391-10.165-7.551-14.988-4.185-13.047,2.413-8.325,5.744-6.66,8.158Z" transform="translate(-966.759 -6957.402)" fill="#919191"/>
      <path id="패스_22595" data-name="패스 22595" d="M938.483,7274.494l.2,7.743-5.4,4-13.094,7.372-7.825-4.5.28-17.029-4.545-8.908,9.208-12.881.531-11.314,4.48-.133,1.888,24.329,4.121,6.2,4.87,2.747Z" transform="translate(-907.199 -7194.783)" fill="#919191"/>
      <path id="패스_22596" data-name="패스 22596" d="M1236.653,7268.909l-.387,8.906,3.677,2.421,13.552,9.479,9.967-4.532,1.487-7.912L1263.3,7266l4.87-6.954-.932-5.693-8.454-8.021.007-12.342-5.753,1.624v18.713l-.819,3.99-.781,1.73A18.649,18.649,0,0,1,1236.653,7268.909Z" transform="translate(-1185.228 -7189.822)" fill="#919191"/>
      <path id="패스_22597" data-name="패스 22597" d="M919.587,7275.022q-1.064,0-2.066-.082c-5-.411-8.615-2.353-10.745-5.775-3.13-5.028-1.873-8.771-.862-11.779,1-2.974,1.721-5.123-1.2-8.518a9.541,9.541,0,0,1-1.458-10.836,24.727,24.727,0,0,1,5.126-6.752l.329-.331.089-.088a5.278,5.278,0,0,0,1.66-3.5c.135-2.006.208-6.047.212-11.687a1.681,1.681,0,0,1,1.681-1.679h0a1.68,1.68,0,0,1,1.679,1.682c0,5.795-.078,9.8-.22,11.91a8.581,8.581,0,0,1-2.654,5.665l-.055.054-.342.345a21.5,21.5,0,0,0-4.452,5.783,6.16,6.16,0,0,0,.952,7.241c4.167,4.845,2.93,8.529,1.838,11.779-.946,2.817-1.763,5.249.53,8.933,1.562,2.509,6.056,6.241,18.609,3.06a1.68,1.68,0,1,1,.826,3.258A38.961,38.961,0,0,1,919.587,7275.022Z" transform="translate(-902.204 -7173.733)"/>
      <path id="패스_22598" data-name="패스 22598" d="M1279.443,7275.022a38.96,38.96,0,0,1-9.478-1.316,1.68,1.68,0,1,1,.826-3.258c12.553,3.182,17.047-.551,18.609-3.06,2.293-3.684,1.476-6.115.53-8.933-1.092-3.25-2.33-6.935,1.838-11.779,3.871-4.5.4-9.109-3.5-13.024l-.343-.345-.055-.055a8.578,8.578,0,0,1-2.653-5.664c-.141-2.1-.215-6.112-.22-11.91a1.68,1.68,0,0,1,1.679-1.682h0a1.68,1.68,0,0,1,1.681,1.679c0,5.644.078,9.686.213,11.688a5.276,5.276,0,0,0,1.659,3.5l.089.089c.1.1.21.212.329.331a24.725,24.725,0,0,1,5.125,6.752,9.541,9.541,0,0,1-1.458,10.836c-2.921,3.4-2.2,5.544-1.2,8.518,1.01,3.007,2.268,6.751-.863,11.779-2.13,3.422-5.745,5.364-10.745,5.775Q1280.508,7275.023,1279.443,7275.022Z" transform="translate(-1212.704 -7173.733)"/>
      <path id="패스_22599" data-name="패스 22599" d="M959.093,6994.079h0a1.681,1.681,0,0,1-1.679-1.682c0-4.5-.038-8.479-.039-8.519,0-.006,0-.012,0-.018a33.406,33.406,0,1,1,66.813,0v6.644a1.681,1.681,0,1,1-3.361,0v-6.644a30.045,30.045,0,0,0-60.091-.009c0,.216.042,4.13.039,8.548A1.68,1.68,0,0,1,959.093,6994.079Z" transform="translate(-948.944 -6950.454)"/>
      <g id="그룹_31724" data-name="그룹 31724" transform="translate(29.346 74.568)">
        <path id="패스_22600" data-name="패스 22600" d="M1125.424,7458.813a8.4,8.4,0,0,1-8.4,8.4h-3.494a8.243,8.243,0,0,1-8.243-8.243v-9.448h20.142Z" transform="translate(-1103.601 -7447.845)" fill="#ffd8ca"/>
        <path id="패스_22601" data-name="패스 22601" d="M1107.7,7459.579h-3.494a9.935,9.935,0,0,1-9.924-9.923v-9.448a1.68,1.68,0,0,1,1.681-1.681H1116.1a1.68,1.68,0,0,1,1.681,1.681v9.287A10.1,10.1,0,0,1,1107.7,7459.579Zm-10.057-17.691v7.768a6.57,6.57,0,0,0,6.563,6.563h3.494a6.732,6.732,0,0,0,6.724-6.724v-7.607Z" transform="translate(-1094.282 -7438.526)"/>
      </g>
      <g id="그룹_31725" data-name="그룹 31725" transform="translate(5.739 27.138)">
        <path id="패스_22602" data-name="패스 22602" d="M959.1,7154.146a5.564,5.564,0,0,1-1.84.313c-3.586,0-6.493-3.441-6.493-7.687s2.907-7.687,6.493-7.687a5.569,5.569,0,0,1,1.949.352" transform="translate(-949.09 -7137.403)" fill="#ffd8ca"/>
        <path id="패스_22603" data-name="패스 22603" d="M947.945,7146.818c-4.507,0-8.174-4.2-8.174-9.368s3.667-9.368,8.174-9.368a7.249,7.249,0,0,1,2.535.458,1.681,1.681,0,0,1-1.172,3.15,3.89,3.89,0,0,0-1.363-.247c-2.654,0-4.813,2.695-4.813,6.007s2.159,6.007,4.813,6.007a3.9,3.9,0,0,0,1.286-.219,1.681,1.681,0,0,1,1.108,3.173A7.254,7.254,0,0,1,947.945,7146.818Z" transform="translate(-939.771 -7128.083)"/>
      </g>
      <g id="그룹_31726" data-name="그룹 31726" transform="translate(66.127 27.138)">
        <path id="패스_22604" data-name="패스 22604" d="M1346.125,7139.37a5.549,5.549,0,0,1,1.76-.286c3.586,0,6.493,3.441,6.493,7.687s-2.907,7.687-6.493,7.687a5.553,5.553,0,0,1-1.855-.318" transform="translate(-1344.349 -7137.403)" fill="#ffd8ca"/>
        <path id="패스_22605" data-name="패스 22605" d="M1338.563,7146.818a7.237,7.237,0,0,1-2.414-.414,1.681,1.681,0,0,1,1.117-3.17,3.877,3.877,0,0,0,1.3.223c2.654,0,4.813-2.695,4.813-6.007s-2.159-6.007-4.812-6.007a3.893,3.893,0,0,0-1.229.2,1.68,1.68,0,1,1-1.061-3.189,7.245,7.245,0,0,1,2.291-.372c4.507,0,8.174,4.2,8.174,9.368S1343.07,7146.818,1338.563,7146.818Z" transform="translate(-1335.027 -7128.083)"/>
      </g>
      <g id="그룹_31727" data-name="그룹 31727" transform="translate(5.939 89.574)">
        <path id="패스_22706" data-name="패스 22706" d="M17.771,0H48.257C61.774,0,66.72,10.958,66.72,24.474A24.474,24.474,0,0,1,42.246,48.949H24.474A24.474,24.474,0,0,1,0,24.474C0,10.958,4.254,0,17.771,0Z" transform="translate(1.681 1.681)" fill="#00b2ff"/>
        <path id="패스_22606" data-name="패스 22606" d="M993.593,7589.057H958.636a17.582,17.582,0,0,1-17.562-17.562v-17.187a17.582,17.582,0,0,1,17.562-17.562h34.957a17.582,17.582,0,0,1,17.562,17.562V7571.5A17.582,17.582,0,0,1,993.593,7589.057Zm-34.957-48.948a14.217,14.217,0,0,0-14.2,14.2V7571.5a14.217,14.217,0,0,0,14.2,14.2h34.957a14.217,14.217,0,0,0,14.2-14.2v-17.187a14.217,14.217,0,0,0-14.2-14.2Z" transform="translate(-941.074 -7536.747)"/>
      </g>
      <g id="그룹_31728" data-name="그룹 31728" transform="translate(26.317 84.679)">
        <rect id="사각형_4441" data-name="사각형 4441" width="26.199" height="11.985" rx="5.992" transform="translate(1.681 1.681)" fill="#00b2ff"/>
        <path id="패스_22607" data-name="패스 22607" d="M1098.936,7520.053h-19.392a5.089,5.089,0,0,1-5.084-5.084v-5.178a5.089,5.089,0,0,1,5.084-5.084h19.392a5.089,5.089,0,0,1,5.084,5.084v5.178A5.089,5.089,0,0,1,1098.936,7520.053Zm-19.392-11.984a1.724,1.724,0,0,0-1.722,1.723v5.178a1.725,1.725,0,0,0,1.722,1.723h19.392a1.725,1.725,0,0,0,1.723-1.723v-5.178a1.724,1.724,0,0,0-1.723-1.723Z" transform="translate(-1074.46 -7504.707)"/>
      </g>
      <g id="그룹_31729" data-name="그룹 31729" transform="translate(32.802 84.679)">
        <line id="선_765" data-name="선 765" y2="11.985" transform="translate(1.681 1.681)" fill="#fff"/>
        <path id="패스_22608" data-name="패스 22608" d="M1118.587,7520.053a1.68,1.68,0,0,1-1.681-1.68v-11.985a1.681,1.681,0,1,1,3.361,0v11.985A1.68,1.68,0,0,1,1118.587,7520.053Z" transform="translate(-1116.906 -7504.707)"/>
      </g>
      <g id="그룹_31730" data-name="그룹 31730" transform="translate(39.534 84.679)">
        <line id="선_766" data-name="선 766" y2="11.985" transform="translate(1.681 1.681)" fill="#fff"/>
        <path id="패스_22609" data-name="패스 22609" d="M1162.651,7520.053a1.68,1.68,0,0,1-1.681-1.68v-11.985a1.681,1.681,0,1,1,3.361,0v11.985A1.68,1.68,0,0,1,1162.651,7520.053Z" transform="translate(-1160.97 -7504.707)"/>
      </g>
      <g id="그룹_31733" data-name="그룹 31733" transform="translate(14.182 27.749)">
        <g id="그룹_31731" data-name="그룹 31731" transform="translate(0 0.306)">
          <path id="패스_22610" data-name="패스 22610" d="M1057.974,7145.084v32.668a16.152,16.152,0,0,1-16.153,16.152h-19.64a16.152,16.152,0,0,1-16.153-16.152v-32.119" transform="translate(-1004.349 -7143.403)" fill="#ffd8ca"/>
          <path id="패스_22611" data-name="패스 22611" d="M1032.5,7186.265h-19.64a17.854,17.854,0,0,1-17.833-17.833v-32.119a1.681,1.681,0,1,1,3.361,0v32.119a14.489,14.489,0,0,0,14.472,14.472h19.64a14.489,14.489,0,0,0,14.472-14.472v-32.668a1.681,1.681,0,1,1,3.361,0v32.668A17.853,17.853,0,0,1,1032.5,7186.265Z" transform="translate(-995.029 -7134.083)"/>
        </g>
        <g id="그룹_31732" data-name="그룹 31732">
          <path id="패스_22612" data-name="패스 22612" d="M1057.974,7143.084v32.973a16.153,16.153,0,0,1-16.153,16.153h-19.64a16.153,16.153,0,0,1-16.153-16.153v-32.119" transform="translate(-1004.349 -7141.403)" fill="#ffd8ca"/>
          <path id="패스_22613" data-name="패스 22613" d="M1032.5,7184.57h-19.64a17.854,17.854,0,0,1-17.833-17.833v-32.12a1.681,1.681,0,0,1,3.361,0v32.12a14.489,14.489,0,0,0,14.472,14.472h19.64a14.489,14.489,0,0,0,14.472-14.472v-32.973a1.681,1.681,0,1,1,3.361,0v32.973A17.854,17.854,0,0,1,1032.5,7184.57Z" transform="translate(-995.029 -7132.083)"/>
        </g>
        <path id="패스_22614" data-name="패스 22614" d="M1118.094,7362.135c-5.046,0-9.348-3.759-9.528-3.919a1.68,1.68,0,0,1,2.226-2.518c.055.048,3.558,3.076,7.3,3.076,3.2,0,6.849-2.272,7.988-3.148a1.681,1.681,0,1,1,2.049,2.665C1127.927,7358.447,1123.075,7362.135,1118.094,7362.135Z" transform="translate(-1090.74 -7321.178)"/>
        <path id="패스_22615" data-name="패스 22615" d="M1213.325,7347.934a1.678,1.678,0,0,1-1.238-.544l-5.994-6.53a1.681,1.681,0,1,1,2.476-2.273l5.994,6.53a1.681,1.681,0,0,1-1.238,2.817Z" transform="translate(-1173.471 -7306.576)"/>
        <path id="패스_22616" data-name="패스 22616" d="M1166,7194.654h-4.89a1.68,1.68,0,0,1-1.681-1.68v-9.99a1.681,1.681,0,1,1,3.361,0v8.309H1166a1.68,1.68,0,1,1,0,3.361Z" transform="translate(-1134.31 -7173.784)"/>
        <path id="패스_22617" data-name="패스 22617" d="M1075.083,7172.382a1.681,1.681,0,0,1-1.681-1.68v-3.247a1.681,1.681,0,1,1,3.361,0v3.247A1.681,1.681,0,0,1,1075.083,7172.382Z" transform="translate(-1061.429 -7160.627)"/>
        <path id="패스_22618" data-name="패스 22618" d="M1258.339,7172.382a1.681,1.681,0,0,1-1.681-1.68v-3.247a1.681,1.681,0,1,1,3.361,0v3.247A1.681,1.681,0,0,1,1258.339,7172.382Z" transform="translate(-1216.686 -7160.627)"/>
      </g>
      <path id="패스_22619" data-name="패스 22619" d="M1005.32,7005.008a27.74,27.74,0,0,1-9.171-1.5,1.681,1.681,0,0,1,1.116-3.171c6.716,2.363,15.1,1.477,22.425-2.372,8.346-4.384,14.173-11.945,15.207-19.733a1.681,1.681,0,1,1,3.332.442c-1.176,8.852-7.681,17.384-16.976,22.267a34.919,34.919,0,0,1-12.933,3.922C1007.314,7004.96,1006.313,7005.008,1005.32,7005.008Z" transform="translate(-980.845 -6972.75)"/>
      <path id="패스_22620" data-name="패스 22620" d="M1243.72,7070.857a1.68,1.68,0,0,1-1.681-1.681c0-4.587-2.525-8.452-7.5-11.488a30.529,30.529,0,0,0-7.961-3.337,1.68,1.68,0,0,1,.75-3.276,33.39,33.39,0,0,1,8.881,3.7c6.016,3.64,9.2,8.622,9.2,14.406A1.68,1.68,0,0,1,1243.72,7070.857Z" transform="translate(-1175.912 -7035.667)"/>
    </g>
  </g>
</svg>
