<svg xmlns="http://www.w3.org/2000/svg" width="40" height="40" viewBox="0 0 40 40">
  <g id="icn_check_off" transform="translate(-542 -760)">
    <g id="그룹_20298" data-name="그룹 20298" transform="translate(542 760)">
      <g id="Path" fill="none">
        <path d="M20,40A20,20,0,1,1,40,20,19.995,19.995,0,0,1,20,40Z" stroke="none"/>
        <path d="M 20 38.00006103515625 C 24.81006050109863 38.00006103515625 29.33082962036133 36.12830352783203 32.72954177856445 32.72959136962891 C 36.12825012207031 29.33087158203125 38 24.81010246276855 38 20.00003242492676 C 38 15.18996238708496 36.12825012207031 10.66919231414795 32.72954177856445 7.270472526550293 C 29.33082962036133 3.87176251411438 24.81006050109863 2.000002384185791 20 2.000002384185791 C 15.18994045257568 2.000002384185791 10.66917037963867 3.87176251411438 7.27046012878418 7.270472526550293 C 3.871750116348267 10.66919231414795 2 15.18996238708496 2 20.00003242492676 C 2 24.81010246276855 3.871750116348267 29.33087158203125 7.27046012878418 32.72959136962891 C 10.66917037963867 36.12830352783203 15.18994045257568 38.00006103515625 20 38.00006103515625 M 20 40.00006103515625 C 8.949999809265137 40.00006103515625 0 31.05005264282227 0 20.00003242492676 C 0 8.95001220703125 8.949999809265137 2.424926833555219e-06 20 2.424926833555219e-06 C 31.04999923706055 2.424926833555219e-06 40 8.95001220703125 40 20.00003242492676 C 40 31.05005264282227 31.04999923706055 40.00006103515625 20 40.00006103515625 Z" stroke="none" fill="#d8d8d8"/>
      </g>
    </g>
    <path id="빼기_1" data-name="빼기 1" d="M18911.99,16662.234v0l-9.664-10.084,2.121-2.215,7.543,7.877,10.469-10.926,2.117,2.213-12.586,13.135Z" transform="translate(-18351.453 -15873.852)" fill="#d8d8d8"/>
  </g>
</svg>
