<svg xmlns="http://www.w3.org/2000/svg" xmlns:xlink="http://www.w3.org/1999/xlink" width="85.488" height="105.408" viewBox="0 0 85.488 105.408">
  <defs>
    <filter id="Shape" x="0" y="0" width="85.488" height="105.408" filterUnits="userSpaceOnUse">
      <feOffset dy="3" input="SourceAlpha"/>
      <feGaussianBlur stdDeviation="2.5" result="blur"/>
      <feFlood flood-opacity="0.235"/>
      <feComposite operator="in" in2="blur"/>
      <feComposite in="SourceGraphic"/>
    </filter>
  </defs>
  <g id="icn_location_80x100_off" transform="translate(-404.5 -3544.5)">
    <rect id="사각형_5918" data-name="사각형 5918" width="80" height="100" transform="translate(407 3546)" fill="none"/>
    <g id="그룹_21291" data-name="그룹 21291" transform="translate(61.203 2951.723)">
      <g id="그룹_21288" data-name="그룹 21288">
        <ellipse id="타원_406" data-name="타원 406" cx="6.05" cy="3.355" rx="6.05" ry="3.355" transform="translate(379.855 684.331)" opacity="0.168" style="mix-blend-mode: multiply;isolation: isolate"/>
        <g transform="matrix(1, 0, 0, 1, 343.3, 592.78)" filter="url(#Shape)">
          <g id="Shape-2" data-name="Shape" transform="translate(7.5 4.5)" fill="#cbcbcb">
            <path d="M 35.28777313232422 87.94245147705078 C 31.80732536315918 80.47158050537109 25.69821929931641 74.95529174804688 19.77355003356934 69.60519409179688 C 15.14257526397705 65.42331695556641 10.35392570495605 61.09906768798828 6.830187797546387 55.86461639404297 C 4.94838809967041 53.06924057006836 3.566700458526611 50.24314117431641 2.606175422668457 47.22482681274414 C 1.52538800239563 43.82862854003906 1.000000476837158 40.27415466308594 1.000000476837158 36.35829162597656 C 1.000000476837158 31.58070373535156 1.90668797492981 26.94681549072266 3.69488787651062 22.58535385131836 C 5.421475410461426 18.37415313720703 7.89296293258667 14.59239101409912 11.04068756103516 11.34511661529541 C 14.18631267547607 8.100016593933105 17.8484001159668 5.552653789520264 21.92522621154785 3.773766279220581 C 26.14335060119629 1.933228731155396 30.62434959411621 1.000003695487976 35.2437629699707 1.000003695487976 C 39.86317443847656 1.000003695487976 44.34418869018555 1.933228731155396 48.56230163574219 3.773766279220581 C 52.63913726806641 5.552653789520264 56.30122375488281 8.100016593933105 59.44683837890625 11.34511661529541 C 62.59457397460938 14.59239101409912 65.06604766845703 18.37415313720703 66.79264831542969 22.58535385131836 C 68.58084106445312 26.94681549072266 69.48752593994141 31.58070373535156 69.48752593994141 36.35829162597656 C 69.48752593994141 40.31729125976562 68.97407531738281 43.89442825317383 67.9178466796875 47.2940788269043 C 66.97785186767578 50.31962966918945 65.62355041503906 53.14162826538086 63.77754974365234 55.92132949829102 C 60.31634902954102 61.13321685791016 55.56128692626953 65.44875335693359 50.96278762817383 69.62221527099609 C 45.116943359375 74.92771148681641 39.0883903503418 80.3990478515625 35.28777313232422 87.94245147705078 Z" stroke="none"/>
            <path d="M 35.2437629699707 2 C 30.7628173828125 2 26.41636276245117 2.905143737792969 22.32514953613281 4.6903076171875 C 18.3682975769043 6.416839599609375 14.81322860717773 8.8900146484375 11.75870895385742 12.04113006591797 C 8.699989318847656 15.19658660888672 6.2982177734375 18.87181091308594 4.620140075683594 22.96470642089844 C 2.881546020507812 27.2052001953125 2 31.71145248413086 2 36.35829162597656 C 2 40.1696662902832 2.509986877441406 43.62494659423828 3.55908203125 46.92157363891602 C 4.490402221679688 49.84809112548828 5.831733703613281 52.59071731567383 7.659736633300781 55.30617141723633 C 11.11505508422852 60.43899917602539 15.85748291015625 64.72150421142578 20.44376373291016 68.86301422119141 C 25.97848129272461 73.86097717285156 31.67201232910156 79.00214385986328 35.31707763671875 85.77107238769531 C 39.20058822631836 78.94651031494141 44.82439804077148 73.84278106689453 50.29073715209961 68.88170623779297 C 59.64861679077148 60.38878631591797 68.48752593994141 52.36687850952148 68.48752593994141 36.35829162597656 C 68.48752593994141 31.7114372253418 67.60597991943359 27.2052001953125 65.86738586425781 22.96470642089844 C 64.18930816650391 18.87181091308594 61.78755187988281 15.19658660888672 58.72881698608398 12.04113006591797 C 55.67429733276367 8.8900146484375 52.11923217773438 6.416839599609375 48.16237640380859 4.6903076171875 C 44.07116317749023 2.905143737792969 39.72470855712891 2 35.2437629699707 2 M 35.2437629699707 0 C 54.7083625793457 0 70.48752593994141 16.27816009521484 70.48752593994141 36.35829162597656 C 70.48752593994141 64.636962890625 44.18540191650391 69.45217132568359 35.2437629699707 90.40815734863281 C 27.49768447875977 69.97109222412109 0 64.636962890625 0 36.35829162597656 C 0 16.27816009521484 15.7791748046875 0 35.2437629699707 0 Z" stroke="none" fill="#fff"/>
          </g>
        </g>
      </g>
      <path id="패스_14135" data-name="패스 14135" d="M-115.9,508.615h-10.3v-10.3h-10.621v10.3h-10.3v10.621h10.3v10.3H-126.2v-10.3h10.3Z" transform="translate(517.167 119.027)" fill="#fff"/>
    </g>
  </g>
</svg>
