<svg width="164" height="194" viewBox="0 0 164 194" fill="none" xmlns="http://www.w3.org/2000/svg">
<mask id="mask0_270:3663" style="mask-type:alpha" maskUnits="userSpaceOnUse" x="41" y="15" width="104" height="179">
<rect x="41" y="15" width="104" height="179" fill="#C4C4C4"/>
</mask>
<g mask="url(#mask0_270:3663)">
<path d="M112.317 90.9414C113.489 93.7793 119.576 105.288 119.576 105.288L104.587 119.794L85.8717 99.1209L112.317 90.9414Z" fill="#FFE4DA" stroke="black" stroke-width="3" stroke-miterlimit="10"/>
<path fill-rule="evenodd" clip-rule="evenodd" d="M71.1587 62.9425C72.2647 69.995 73.884 94.1407 97.0055 98.6683C98.5384 99.0427 100.131 99.1025 101.688 98.8441C108.063 97.4946 127.318 92.328 128.207 61.8226C128.224 61.2661 128.217 59.5228 128.16 58.8634C127.735 53.9402 124.98 34.5541 106.659 30.1276C106.659 30.1276 73.6108 21.6052 70.9875 58.8668C70.891 60.2275 70.9484 61.5947 71.1587 62.9425Z" fill="#FFE4DA" stroke="black" stroke-width="3" stroke-miterlimit="10"/>
<path d="M70.512 63.7982C69.4486 63.1601 68.1795 62.9578 66.9705 63.2337C66.9705 63.2337 63.097 63.4509 65.3951 69.5803C65.3951 69.5803 67.7568 77.7564 72.542 74.9335C72.542 74.9335 70.0425 66.8031 70.512 63.7982Z" fill="#FFE4DA" stroke="black" stroke-width="3" stroke-miterlimit="10"/>
<path d="M128.581 63.7981C129.644 63.1601 130.913 62.9578 132.122 63.2337C132.122 63.2337 135.995 63.4508 133.697 69.5802C133.697 69.5802 131.336 77.7563 126.551 74.9334C126.551 74.9343 129.049 66.8031 128.581 63.7981Z" fill="#FFE4DA" stroke="black" stroke-width="3" stroke-miterlimit="10"/>
<path d="M99.2759 71.3252L99.4613 73.8959C99.4613 73.8959 96.6768 75.1663 96.9995 76.769C96.9995 76.769 97.0698 78.8789 100.279 78.5747" stroke="black" stroke-width="3" stroke-miterlimit="10" stroke-linecap="round"/>
<path d="M90.91 58.1606C89.7281 59.2191 88.3417 60.0241 86.8367 60.5261C85.3316 61.0281 83.7396 61.2165 82.1589 61.0795" stroke="black" stroke-width="3" stroke-miterlimit="10" stroke-linecap="round"/>
<path d="M116.115 60.3858C114.549 60.6453 112.946 60.5819 111.405 60.1992C109.864 59.8166 108.417 59.1228 107.154 58.1606" stroke="black" stroke-width="3" stroke-miterlimit="10" stroke-linecap="round"/>
<path d="M92.9258 88.5029C94.8395 86.9011 97.2464 86.0071 99.7418 85.9709C102.237 85.9347 104.669 86.7587 106.628 88.3044" stroke="black" stroke-width="3" stroke-miterlimit="10" stroke-linecap="round"/>
<path d="M104.247 86.3361C104.316 86.8541 104.274 87.3809 104.123 87.8811C103.972 88.3813 103.715 88.8434 103.371 89.2365C103.027 89.6296 102.603 89.9447 102.127 90.1605C101.651 90.3763 101.134 90.488 100.612 90.488C100.089 90.488 99.5728 90.3763 99.0969 90.1605C98.621 89.9447 98.1967 89.6296 97.8524 89.2365C97.5082 88.8434 97.2519 88.3813 97.1008 87.8811C96.9496 87.3809 96.9069 86.8541 96.9758 86.3361C96.9758 84.0433 100.612 78.5996 100.612 78.5996C100.612 78.5996 104.247 84.0433 104.247 86.3361Z" fill="#34B1FB"/>
<path opacity="0.3" d="M99.5459 79.5768C105.449 79.5768 110.234 77.7297 110.234 75.451C110.234 73.1724 105.449 71.3252 99.5459 71.3252C93.6432 71.3252 88.8581 73.1724 88.8581 75.451C88.8581 77.7297 93.6432 79.5768 99.5459 79.5768Z" fill="#D02C25"/>
<path fill-rule="evenodd" clip-rule="evenodd" d="M71.4817 61.1217C71.4817 61.1217 84.1899 63.4522 92.9023 45.6293C92.9023 45.6293 96.3925 37.6019 100.555 36.7052C101.316 36.5434 102.087 36.4306 102.862 36.3676C105.846 36.2911 110.233 39.0859 114.249 46.0856C114.249 46.0856 119.543 55.9321 128.219 57.9146C128.219 57.9146 129.31 60.3067 129.01 61.1225C128.71 61.9384 129.77 63.1067 130.488 63.1128C131.207 63.119 134.457 63.7045 134.426 63.1128C134.395 62.5212 138.91 21.2006 101.861 21.3949C101.861 21.3949 67.0851 14.01 65.0912 63.1128L69.8792 63.8514L71.2482 63.5322" fill="black"/>
<path d="M130.242 195.584H62.6949L63.2539 189.254L71.1662 118.474L76.5741 102.437L120.121 103.507L130.175 111.719L130.242 195.584Z" fill="#ECF2FF"/>
<path d="M60.4007 104.705C60.4007 104.705 56.0199 98.9847 56.6661 94.7059C57.3123 90.4271 59.9488 86.3541 58.4999 82.5333C57.0511 78.7126 71.9113 81.5857 75.7162 78.7021C79.5212 75.8185 84.9472 74.4328 87.6576 77.5811C90.3681 80.7293 110.126 98.6129 110.126 98.6129C110.126 98.6129 114.389 100.857 110.126 103.766C106.984 105.799 103.673 107.559 100.23 109.024" fill="white"/>
<path d="M60.4007 104.705C60.4007 104.705 56.0199 98.9847 56.6661 94.7059C57.3123 90.4271 59.9488 86.3541 58.4999 82.5333C57.0511 78.7126 71.9113 81.5857 75.7162 78.7021C79.5212 75.8185 84.9472 74.4328 87.6576 77.5811C90.3681 80.7293 110.126 98.6129 110.126 98.6129C110.126 98.6129 114.389 100.857 110.126 103.766C106.984 105.799 103.673 107.559 100.23 109.024" stroke="black" stroke-width="3" stroke-linecap="round" stroke-linejoin="round"/>
<path d="M73.0249 85.6924L77.6306 86.4994L78.887 95.7409L80.0658 106.131L77.4013 111.717L75.0013 114.706L73.3447 115.887L69.0168 116.591L64.8636 114.168L63.2522 108.689L64.3125 101.898L64.7645 97.5353L66.3107 92.0239L70.2072 87.3391L73.0249 85.6924Z" fill="#FFE4DA"/>
<path d="M97.648 105.669C96.7416 103.245 96.4474 98.0287 96.4474 98.0287C96.05 86.4943 93.7553 90.8294 93.0291 91.5151C92.3029 92.2009 92.6466 96.4859 92.6466 96.4859L92.4277 98.3223C92.2097 100.159 92.0821 99.7923 92.0821 99.7923C91.356 99.1312 88.8126 94.5922 87.2829 88.1877C85.7927 81.9457 82.949 83.6318 82.949 83.6318C82.949 83.6318 81.6636 84.1391 82.1278 85.966C81.9634 85.3849 81.776 84.816 81.5474 84.2208C80.1742 80.6945 78.1944 82.9021 78.1944 82.9021C78.1944 82.9021 76.9567 83.8753 78.0047 89.0254L76.8465 85.0403C76.8465 85.0403 74.531 86.0794 75.0989 91.1775L74.6323 91.5231C74.6323 91.5231 71.5048 95.2453 74.995 105.603C78.2575 115.285 80.7975 116.918 80.7975 116.918L88.3758 120.37C88.3758 120.37 92.9569 117.947 95.066 116.918C97.175 115.889 98.5544 108.098 97.648 105.669Z" fill="#FFE4DA" stroke="black" stroke-width="3" stroke-miterlimit="10"/>
<path d="M76.659 85.6924C76.659 85.6924 73.5276 86.2497 75.8679 95.0992C78.1229 103.622 78.8887 104.221 78.8887 104.221" stroke="black" stroke-width="3" stroke-linecap="round" stroke-linejoin="round"/>
<path d="M82.4122 102.221L81.1759 98.9155C75.5749 84.9565 78.1942 82.9001 78.1942 82.9001C78.1942 82.9001 80.1741 80.6961 81.5464 84.2188C82.9187 87.7416 82.6293 90.3166 86.4105 100.087" stroke="black" stroke-width="3" stroke-linecap="round" stroke-linejoin="round"/>
<path d="M82.1275 85.9659C81.6633 84.139 82.9487 83.632 82.9487 83.632C82.9487 83.632 85.7924 81.943 87.2826 88.1876C88.8132 94.5957 91.3556 99.1346 92.0818 99.7922C92.0818 99.7922 92.2093 100.16 92.4274 98.3224L92.6463 96.4858C92.6463 96.4858 92.3008 92.2026 93.0288 91.5151C93.7567 90.8276 96.0497 86.4944 96.447 98.0288C96.447 98.0288 96.7413 103.245 97.6477 105.669C98.5541 108.094 97.1721 115.882 95.0648 116.911C92.9575 117.941 88.3746 120.363 88.3746 120.363L80.7963 116.911C80.7963 116.911 78.2572 115.279 74.9939 105.596C71.5037 95.2374 74.6307 91.5151 74.6307 91.5151" stroke="black" stroke-width="3" stroke-linecap="round" stroke-linejoin="round"/>
<path d="M69.9045 112.873C69.9045 112.873 74.8365 110.905 73.6795 100.538" stroke="black" stroke-width="3" stroke-linecap="round" stroke-linejoin="round"/>
<path d="M77.1615 111.194C77.1615 111.194 75.579 117.061 69.36 116.62C63.1409 116.18 63.2523 108.685 63.2523 108.685L64.4693 97.7477C64.7551 94.9961 65.8196 92.3832 67.5381 90.2153C69.3448 87.9744 72.2064 84.6653 75.6157 85.6913" stroke="black" stroke-width="3" stroke-linecap="round" stroke-linejoin="round"/>
<path d="M75.1352 87.9672C75.1352 87.9672 70.9224 87.4529 68.7412 98.3261" stroke="black" stroke-width="3" stroke-linecap="round" stroke-linejoin="round"/>
<path d="M92.8228 92.021L88.4271 83.2593C88.4271 83.2593 85.9313 78.978 83.6077 78.978" stroke="black" stroke-width="3" stroke-linecap="round" stroke-linejoin="round"/>
<path d="M96.7034 99.7065C96.7034 99.7065 99.4569 104.661 106.429 101.218" stroke="black" stroke-width="3" stroke-linecap="round" stroke-linejoin="round"/>
<path d="M116.391 99.2422C118.431 104.861 108.711 106.343 105.373 106.683" stroke="black" stroke-width="3" stroke-linecap="round" stroke-linejoin="round"/>
<path d="M115.896 97.5322C115.896 97.5322 126.805 104.311 132.487 107.587C138.713 111.177 137.738 121.9 137.849 128.612C137.849 128.612 136.489 144.612 136.369 148.007L129.93 195.191" fill="#ECF2FF"/>
<path d="M115.896 97.5322C115.896 97.5322 126.805 104.311 132.487 107.587C138.713 111.177 137.738 121.9 137.849 128.612C137.849 128.612 136.489 144.612 136.369 148.007L129.93 195.191" stroke="black" stroke-width="3" stroke-linecap="round" stroke-linejoin="round"/>
<path d="M68.7405 138.342L62.692 194.435" stroke="black" stroke-width="3" stroke-linecap="round" stroke-linejoin="round"/>
<path d="M117.123 114.048L112.468 138.561L98.8416 111.717L80.9694 118.693L97.1159 155.715L99.1915 160.475C99.1915 160.475 104.143 171.557 116.121 171.18C128.1 170.803 130.188 160.475 130.188 160.475H130.183C130.183 160.461 130.191 160.45 130.193 160.437L137.96 129.534" fill="#ECF2FF"/>
<path d="M117.123 114.048L112.468 138.561L98.8416 111.717L80.9694 118.693L97.1159 155.715L99.1915 160.475C99.1915 160.475 104.143 171.557 116.121 171.18C128.1 170.803 130.188 160.475 130.188 160.475H130.183C130.183 160.461 130.191 160.45 130.193 160.437L137.96 129.534" stroke="black" stroke-width="3" stroke-linecap="round" stroke-linejoin="round"/>
<path d="M78.3848 118.567L59.9511 113.162L48.1474 154.644C47.3924 156.124 46.999 157.762 47 159.424C47.0734 162.16 48.1587 164.772 50.0457 166.755C51.9326 168.738 54.4874 169.951 57.2166 170.16C59.9459 170.369 62.6557 169.559 64.8224 167.886C66.9892 166.213 68.4591 163.797 68.9481 161.104L78.3848 118.567Z" fill="#ECF2FF" stroke="black" stroke-width="3" stroke-linecap="round" stroke-linejoin="round"/>
<path d="M132.486 107.59C141.875 113.211 139.49 121.603 139.49 121.603C139.49 121.603 137.556 131.14 136.864 133.897" fill="#ECF2FF"/>
<path d="M132.486 107.59C141.875 113.211 139.49 121.603 139.49 121.603C139.49 121.603 137.556 131.14 136.864 133.897" stroke="black" stroke-width="3" stroke-linecap="round" stroke-linejoin="round"/>
<path d="M112.467 138.56L115.897 146.431" stroke="black" stroke-width="3" stroke-linecap="round" stroke-linejoin="round"/>
<path d="M99.6246 102.048L105.371 106.681C108.712 106.342 118.361 104.527 116.321 98.9097" stroke="black" stroke-width="3" stroke-miterlimit="10"/>
<path d="M86.7632 72.2227C88.1174 72.2227 89.2151 71.0785 89.2151 69.667C89.2151 68.2555 88.1174 67.1113 86.7632 67.1113C85.409 67.1113 84.3113 68.2555 84.3113 69.667C84.3113 71.0785 85.409 72.2227 86.7632 72.2227Z" fill="black"/>
<path d="M111.592 72.2227C112.946 72.2227 114.044 71.0785 114.044 69.667C114.044 68.2555 112.946 67.1113 111.592 67.1113C110.238 67.1113 109.14 68.2555 109.14 69.667C109.14 71.0785 110.238 72.2227 111.592 72.2227Z" fill="black"/>
</g>
</svg>
