<svg xmlns="http://www.w3.org/2000/svg" xmlns:xlink="http://www.w3.org/1999/xlink" width="113.17" height="69.944" viewBox="0 0 113.17 69.944">
  <defs>
    <radialGradient id="radial-gradient" cx="0.604" cy="0.376" r="0.475" gradientUnits="objectBoundingBox">
      <stop offset="0" stop-color="#fff"/>
      <stop offset="1" stop-color="#cb8c2d"/>
    </radialGradient>
    <radialGradient id="radial-gradient-2" cx="0.583" cy="0.373" r="1.047" gradientUnits="objectBoundingBox">
      <stop offset="0" stop-color="#4dbdd7"/>
      <stop offset="0.219" stop-color="#3787bc"/>
      <stop offset="0.251" stop-color="#2e79b5"/>
      <stop offset="0.323" stop-color="#1f60a9"/>
      <stop offset="0.399" stop-color="#144fa0"/>
      <stop offset="0.48" stop-color="#0e449b"/>
      <stop offset="0.573" stop-color="#0c419a"/>
    </radialGradient>
  </defs>
  <g id="icn_bank_02" transform="matrix(1, -0.017, 0.017, 1, -67.331, -302.917)">
    <rect id="사각형_3319" data-name="사각형 3319" width="112" height="68" transform="translate(62 306)" fill="none"/>
    <g id="그룹_21972" data-name="그룹 21972" transform="translate(7.691)">
      <path id="패스_14085" data-name="패스 14085" d="M164,266.86A27.3,27.3,0,1,0,192.507,292.9,27.294,27.294,0,0,0,164,266.86Z" transform="translate(-55.186 46.601)" fill="url(#radial-gradient)"/>
      <path id="패스_14086" data-name="패스 14086" d="M163.979,266.424a27.739,27.739,0,1,0,28.961,26.456,27.741,27.741,0,0,0-28.961-26.456Zm3.249,26.918c4.931,4.543,7.632,6.994,7.632,6.994,8.689,7.237,5.723,13.852,2.4,16.155a16.581,16.581,0,0,1-9.019,2.774.836.836,0,0,1-.964-.731c-.025-.627.892-.785.892-.785,8.2-1.615,5.807-7,2.9-9.741C169.856,306.852,158.432,297,158.432,297c-10.888-9.378-10.017-16.7-10.017-16.7.525-9.007,8.413-11.241,14.379-10.726.7.06,1.086.488.96,1.069-.131.633-1.053.68-1.053.68a9.744,9.744,0,0,0-4.889,1.175c-4.807,3.236-3.388,8.737,3.024,14.86.8.773,1.661,1.583,2.541,2.407C163.378,289.769,164.667,290.9,167.229,293.342ZM163.5,316.626c.049.878-2.087,1.262-4.525,1.023a17.439,17.439,0,0,1-9.912-4.022,19.219,19.219,0,0,1-5.627-9.078c-.9-3.135-1.281-6.8.209-6.512.457.092,1.249,2.106,2.112,3.571a9.426,9.426,0,0,0,2.292,2.862c.31.232,1.354-2.094,2.874-3.416.885-.73,1.854-.981,2.009,1.2.19,2.674-.289,5.85.488,5.85.731,0,2.375-.549,5.986-.855,1.355-.117,2.129.14.834,1.968a13.689,13.689,0,0,1-3.557,3.664C159.756,315.752,163.44,315.408,163.5,316.626Zm2.421-27.956a9.229,9.229,0,0,1-.1-3.482c.386-3.028,1.2-4.451,2.126-6.8,1.255-3.153-1.791-5-1.288-6.158.69-1.571,2.866.425,5.289.572,2.089.117,3.347.012,4.972.228,2.157.287,4.739,1.019,5.888,2.37,1.053,1.234-.556,2.739-2.493,1.8-1.413-.689-3.2-.265-2.152,1.209a4.771,4.771,0,0,0,3.145,1.779c3.533.931,3.6,4.312,1.217,6.065-2.723,1.99-5.473,1.169-6.58-2.738-.556-1.947-1.933-2.941-3.341-2.387s-.574,3.116.495,5.494c2.135,5.446-3.17,5.264-3.786,5.194A4.415,4.415,0,0,1,165.925,288.67Z" transform="translate(-55.186 46.602)" fill="url(#radial-gradient-2)"/>
    </g>
  </g>
</svg>
