<svg width="50" height="50" viewBox="0 0 50 50" fill="none" xmlns="http://www.w3.org/2000/svg">
<path d="M20.5442 19.9802C20.4313 20.109 20.2305 19.9802 20.2305 19.8268V17.3237C21.4624 16.4467 22.942 15.9644 24.4658 15.9434C27.6971 15.9434 29.4853 17.4771 29.4853 19.9373C29.4853 21.7287 28.1175 23.3115 27.0446 24.3177C26.1285 25.2195 25.545 25.7226 25.545 26.9251C25.532 27.5823 25.6382 28.2366 25.8587 28.8576H23.2987C23.1 28.2027 23.0027 27.5224 23.0101 26.8392C23.0101 25.2196 23.7693 24.2318 24.8234 23.1582C25.8148 22.2563 26.6618 21.4035 26.6618 20.2195C26.6618 18.8391 25.7457 18.201 24.152 18.201C23.4553 18.227 22.7724 18.3993 22.1499 18.7063C21.5273 19.0133 20.9797 19.4478 20.5442 19.9802ZM24.4218 30.3669C24.9258 30.3536 25.415 30.5346 25.7836 30.8709C26.1522 31.2072 26.3708 31.6719 26.392 32.1644C26.3832 32.4078 26.325 32.647 26.2209 32.8682C26.1168 33.0895 25.9689 33.2883 25.7856 33.4532C25.6023 33.6181 25.3875 33.7459 25.1534 33.829C24.9193 33.9121 24.6706 33.949 24.4218 33.9375C24.1788 33.9432 23.9371 33.9017 23.7106 33.8155C23.4841 33.7292 23.2773 33.5999 23.1023 33.435C22.9272 33.2701 22.7874 33.0729 22.6907 32.8548C22.5941 32.6367 22.5427 32.4021 22.5395 32.1644C22.5621 31.6913 22.7703 31.245 23.1209 30.9182C23.4715 30.5914 23.9375 30.4093 24.4218 30.4098V30.3669Z" fill="black"/>
<path d="M24.7437 41.3442C33.8055 41.3442 41.1515 34.1614 41.1515 25.301C41.1515 16.4406 33.8055 9.25781 24.7437 9.25781C15.682 9.25781 8.33594 16.4406 8.33594 25.301C8.33594 34.1614 15.682 41.3442 24.7437 41.3442Z" stroke="black" stroke-width="3" stroke-miterlimit="10"/>
</svg>
