<svg width="164" height="194" viewBox="0 0 164 194" fill="none" xmlns="http://www.w3.org/2000/svg">
<path d="M22 47.1218C48.088 46.7968 78.9339 50.7368 122.348 74.0598" stroke="#231815" stroke-width="3" stroke-miterlimit="10"/>
<path d="M28.156 119.282C47.584 120.213 62.463 124.745 89.501 139.766" stroke="#231815" stroke-width="3" stroke-miterlimit="10"/>
<path d="M104.618 142.897C124.887 142.897 141.318 126.465 141.318 106.197C141.318 85.9277 124.887 69.4966 104.618 69.4966C84.3491 69.4966 67.918 85.9277 67.918 106.197C67.918 126.465 84.3491 142.897 104.618 142.897Z" fill="white" stroke="#231815" stroke-width="3" stroke-miterlimit="10"/>
<path d="M104.618 134.647C120.33 134.647 133.067 121.909 133.067 106.197C133.067 90.4841 120.33 77.7466 104.618 77.7466C88.906 77.7466 76.1689 90.4841 76.1689 106.197C76.1689 121.909 88.906 134.647 104.618 134.647Z" fill="#FADF85" stroke="#231815" stroke-width="3" stroke-miterlimit="10"/>
<path d="M122.888 97.0706C127.446 107.589 123.36 117.842 115.581 122.88C115.403 122.992 115.201 123.061 114.992 123.08C114.783 123.099 114.572 123.068 114.377 122.99C114.182 122.912 114.008 122.789 113.869 122.631C113.731 122.472 113.632 122.284 113.581 122.08C111.983 116.35 108.458 111.347 103.601 107.914C97.9769 103.814 90.8118 105.862 86.6368 107.682C86.4312 107.772 86.2063 107.809 85.9825 107.789C85.7588 107.77 85.5436 107.694 85.3569 107.569C85.1703 107.444 85.0182 107.274 84.9147 107.075C84.8112 106.876 84.7597 106.653 84.7649 106.428C85.2949 91.3285 100.252 81.2768 114.374 88.0938C118.195 89.9711 121.215 93.156 122.888 97.0706Z" fill="white" stroke="#231815" stroke-width="3" stroke-miterlimit="10"/>
<mask id="mask0_270:3435" style="mask-type:alpha" maskUnits="userSpaceOnUse" x="0" y="0" width="164" height="194">
<path d="M164 0H0V194H164V0Z" fill="white"/>
</mask>
<g mask="url(#mask0_270:3435)">
</g>
</svg>
