<svg id="icn_profile_08" xmlns="http://www.w3.org/2000/svg" xmlns:xlink="http://www.w3.org/1999/xlink" width="142" height="142" viewBox="0 0 142 142">
  <defs>
    <clipPath id="clip-path">
      <circle id="타원_713" data-name="타원 713" cx="71" cy="71" r="71" fill="none"/>
    </clipPath>
  </defs>
  <g id="그룹_31746" data-name="그룹 31746" clip-path="url(#clip-path)">
    <path id="패스_22713" data-name="패스 22713" d="M71,0A71,71,0,1,1,0,71,71,71,0,0,1,71,0Z" fill="#f5f5f5"/>
    <g id="그룹_31745" data-name="그룹 31745" transform="translate(23.145 27.423)">
      <path id="패스_22621" data-name="패스 22621" d="M2723.028,7284.551l-2.794,2.863-7.808,16.815-1.148,7.892,3.926,8.325,5.074,1.283,3.361-2.146-2.857-4.8,4.653.374,7.865-.562,2.276-3.519-6.054-9.779-.711-13.886Z" transform="translate(-2709.522 -7245.102)" fill="#636363"/>
      <path id="패스_22622" data-name="패스 22622" d="M3147.833,7311.455l8.691-1.412,2.7-.347-1.39,3.42-2.663,1.843,3.171,1.063,5.841-.561,3.914-4.416.579-7.765-10.419-22.678-7.074,4.7-2.911,18.4-5.518,6.12Z" transform="translate(-3075.074 -7241.757)" fill="#636363"/>
      <ellipse id="타원_711" data-name="타원 711" cx="29.459" cy="35.43" rx="29.459" ry="35.43" transform="translate(18.754 4.126)" fill="#ffd8ca"/>
      <path id="패스_22623" data-name="패스 22623" d="M3057.834,7045.935l-3,2.4-.33,9.8,6.12,5.429,10.464,5.259,7.892,1.983,1-5.2-5.531-9.4-5.687-5.313-6.662-3.967Z" transform="translate(-3000.312 -7042.942)" fill="#636363"/>
      <path id="패스_22624" data-name="패스 22624" d="M2793.656,7059.653l1.643,2.034,5.522,3.137,10.381,1.629,10.461-3.1,8-7.3,4.176-11.128v-5.421l-4.159-3.995-14.068,1.592-13.819,7.731-5.744,7.908Z" transform="translate(-2779.315 -7034.111)" fill="#636363"/>
      <g id="그룹_31737" data-name="그룹 31737" transform="translate(12.973 77.288)">
        <rect id="사각형_4442" data-name="사각형 4442" width="66.72" height="48.949" rx="24.474" transform="translate(1.757 1.757)" fill="#00b2ff"/>
        <path id="패스_22625" data-name="패스 22625" d="M2837.3,7584.688h-34.958a17.659,17.659,0,0,1-17.638-17.639v-17.186a17.658,17.658,0,0,1,17.638-17.638H2837.3a17.658,17.658,0,0,1,17.638,17.638v17.186A17.659,17.659,0,0,1,2837.3,7584.688Zm-34.958-48.949a14.14,14.14,0,0,0-14.124,14.125v17.186a14.14,14.14,0,0,0,14.124,14.124H2837.3a14.14,14.14,0,0,0,14.125-14.124v-17.186a14.141,14.141,0,0,0-14.125-14.125Z" transform="translate(-2784.706 -7532.226)"/>
      </g>
      <g id="그룹_31738" data-name="그룹 31738" transform="translate(35.871 74.046)">
        <path id="패스_22626" data-name="패스 22626" d="M2966.224,7511.459v7.123c0,3.494-5.706,9.393-8.527,12.1a2.241,2.241,0,0,1-3.092.007c-2.824-2.683-8.522-8.519-8.522-11.943V7511" transform="translate(-2944.325 -7511.001)" fill="#ffd8ca"/>
        <path id="패스_22627" data-name="패스 22627" d="M2946.4,7533.06a3.984,3.984,0,0,1-2.752-1.1c-6.018-5.715-9.069-10.162-9.069-13.217V7511h3.514v7.741c0,1.428,2.088,5.079,7.975,10.669a.482.482,0,0,0,.667,0c4.852-4.649,7.986-8.9,7.986-10.829v-7.123h3.514v7.123c0,1.953-1.173,4.385-3.584,7.434a61.475,61.475,0,0,1-5.485,5.931A3.984,3.984,0,0,1,2946.4,7533.06Z" transform="translate(-2934.582 -7511.001)"/>
      </g>
      <path id="패스_22628" data-name="패스 22628" d="M3070.242,7120.116h-.075a33.646,33.646,0,0,1-11.63-2.705c-8.244-4.147-10.284-7.55-13.181-13.209a1.757,1.757,0,0,1,3.128-1.6c2.71,5.294,4.336,8,11.632,11.672a30.5,30.5,0,0,0,10.2,2.333,1.757,1.757,0,0,1-.072,3.512Z" transform="translate(-2992.396 -7090.138)"/>
      <path id="패스_22629" data-name="패스 22629" d="M3002.125,7299.573h-6.646v-11.746a1.757,1.757,0,1,1,3.514,0v8.232h3.133a1.757,1.757,0,1,1,0,3.514Z" transform="translate(-2950.303 -7246.389)"/>
      <path id="패스_22630" data-name="패스 22630" d="M2911.21,7277.3a1.757,1.757,0,0,1-1.757-1.758V7272.3a1.757,1.757,0,0,1,3.514,0v3.246A1.757,1.757,0,0,1,2911.21,7277.3Z" transform="translate(-2877.421 -7233.233)"/>
      <path id="패스_22631" data-name="패스 22631" d="M3094.465,7277.3a1.757,1.757,0,0,1-1.757-1.758V7272.3a1.757,1.757,0,0,1,3.514,0v3.246A1.757,1.757,0,0,1,3094.465,7277.3Z" transform="translate(-3032.678 -7233.233)"/>
      <path id="패스_22632" data-name="패스 22632" d="M2940.717,7419.763a24.214,24.214,0,0,1-12.073-3.795,1.757,1.757,0,0,1,1.957-2.918h0c.048.032,4.858,3.2,10.116,3.2,5.327,0,10.943-3.225,11-3.258a1.757,1.757,0,0,1,1.769,3.036C2953.223,7416.18,2947.008,7419.763,2940.717,7419.763Z" transform="translate(-2893.021 -7353.718)"/>
      <g id="그룹_31739" data-name="그룹 31739" transform="translate(8.997 26.463)">
        <path id="패스_22633" data-name="패스 22633" d="M2778.716,7223.745a7.452,7.452,0,0,1-1.6.173,6.449,6.449,0,1,1,0-12.861c.358,0,1.367.146,1.711.194" transform="translate(-2768.426 -7209.3)" fill="#ffd8ca"/>
        <path id="패스_22634" data-name="패스 22634" d="M2767.371,7215.932a8.2,8.2,0,1,1,0-16.375,16.672,16.672,0,0,1,1.9.2l.054.008a1.757,1.757,0,1,1-.491,3.479l-.056-.007c-1.011-.144-1.32-.167-1.414-.169a4.7,4.7,0,1,0,0,9.347,5.734,5.734,0,0,0,1.226-.132,1.757,1.757,0,1,1,.753,3.432A9.255,9.255,0,0,1,2767.371,7215.932Z" transform="translate(-2758.684 -7199.556)"/>
      </g>
      <g id="그룹_31740" data-name="그룹 31740" transform="translate(74.347 26.463)">
        <path id="패스_22635" data-name="패스 22635" d="M3198.145,7223.745a7.448,7.448,0,0,0,1.6.173,6.449,6.449,0,1,0,0-12.861,7.454,7.454,0,0,0-1.824.225" transform="translate(-3196.167 -7209.3)" fill="#ffd8ca"/>
        <path id="패스_22636" data-name="패스 22636" d="M3190,7215.932a9.26,9.26,0,0,1-1.98-.214,1.757,1.757,0,0,1,.753-3.432,5.738,5.738,0,0,0,1.226.132,4.7,4.7,0,1,0,0-9.347,5.716,5.716,0,0,0-1.393.171,1.757,1.757,0,1,1-.861-3.406,9.193,9.193,0,0,1,2.254-.279,8.2,8.2,0,1,1,0,16.375Z" transform="translate(-3186.421 -7199.556)"/>
      </g>
      <path id="패스_22637" data-name="패스 22637" d="M2783.914,7056.725c-.04,0-.081,0-.121,0a1.755,1.755,0,0,1-1.633-1.867,30.331,30.331,0,0,1,3.712-11.527c3.056-5.549,9.283-12.8,21.6-15.809a38.45,38.45,0,0,1,19.063.006c8.96,1.977,15.8,6.49,20.318,13.417a32.155,32.155,0,0,1,4.866,13.007,1.757,1.757,0,0,1-3.485.449,28.513,28.513,0,0,0-4.324-11.536c-4.012-6.146-10.135-10.156-18.2-11.92l-.157-.042a35.331,35.331,0,0,0-17.247.033c-8.833,2.161-15.32,6.857-19.28,13.958a27.365,27.365,0,0,0-3.357,10.2A1.759,1.759,0,0,1,2783.914,7056.725Z" transform="translate(-2769.572 -7026.345)"/>
      <path id="패스_22638" data-name="패스 22638" d="M2710.647,7313.021h-.068c-3.094-.026-6.019-1.878-8.69-5.5-5.5-7.463,1.077-19.609,5.432-27.646a45.422,45.422,0,0,0,2.783-5.613,1.757,1.757,0,0,1,3.342,1.087,45.153,45.153,0,0,1-3.034,6.2,78.762,78.762,0,0,0-6.018,12.979c-1.561,4.927-1.455,8.5.324,10.908,2.963,4.019,5.42,4.393,7.2,3.884-.159-.148-.317-.306-.472-.475a6.871,6.871,0,0,1-1.834-5.487,1.909,1.909,0,0,1,2.788-1.492,18.954,18.954,0,0,0,5.658,1.888c3.11.453,5.334-.287,6.8-2.264a1.757,1.757,0,0,1,2.823,2.092c-2.242,3.026-5.745,4.288-10.129,3.648a20.229,20.229,0,0,1-3.656-.913,5.58,5.58,0,0,0,1.954,1.449,1.909,1.909,0,0,1,.258,3.332l-.1.063A9.606,9.606,0,0,1,2710.647,7313.021Zm3.527-4.861,0,0Z" transform="translate(-2699.793 -7235.355)"/>
      <path id="패스_22639" data-name="패스 22639" d="M3150.792,7314.958a14.234,14.234,0,0,1-5.846-1.3,1.909,1.909,0,0,1,.028-3.453,5.669,5.669,0,0,0,1.84-1.331c-3.631,1.324-9.47,2.52-14.705-.579a1.757,1.757,0,0,1,1.789-3.024,12.126,12.126,0,0,0,8.876,1.115,21.1,21.1,0,0,0,5.6-2.049,1.909,1.909,0,0,1,2.822,1.475,6.872,6.872,0,0,1-1.809,5.452l-.067.072a7.635,7.635,0,0,0,4.17-.409c1.683-.735,2.9-2.31,3.626-4.679,1.791-5.862-2.719-13.248-6.344-19.183-1.857-3.042-3.461-5.668-4.065-7.812a1.757,1.757,0,1,1,3.382-.953c.473,1.677,2.032,4.23,3.682,6.933,3.99,6.535,8.957,14.668,6.705,22.041-1.037,3.395-2.914,5.707-5.578,6.873A10.222,10.222,0,0,1,3150.792,7314.958Z" transform="translate(-3065.329 -7238.726)"/>
      <path id="패스_22640" data-name="패스 22640" d="M3275.394,7307" transform="translate(-3187.454 -7264.118)" fill="none" stroke="#000" stroke-linecap="round" stroke-width="23"/>
      <path id="패스_22641" data-name="패스 22641" d="M2846.294,7109.942H2843.1a28.6,28.6,0,0,1-28.57-28.57V7062.02a2.056,2.056,0,0,1,2.823-1.908l.031.013s.106.046.158.071c.543.267,1.108.557,1.654.838,2.674,1.375,5.44,2.8,8.193,2.8a22.55,22.55,0,0,0,22.027-27.271,1.757,1.757,0,0,1,3.436-.736,26.062,26.062,0,0,1-25.463,31.521c-3.417,0-6.553-1.521-9.345-2.952v16.979a25.084,25.084,0,0,0,25.056,25.056h3.191a25.084,25.084,0,0,0,25.056-25.056v-19.631a1.757,1.757,0,0,1,3.514,0v19.631A28.6,28.6,0,0,1,2846.294,7109.942Z" transform="translate(-2797.003 -7033.199)"/>
      <path id="패스_22642" data-name="패스 22642" d="M2723.028,7284.551l-2.794,2.863-7.808,16.815-1.148,7.892,3.926,8.325,5.074,1.283,3.361-2.146-2.857-4.8,4.653.374,7.865-.562,2.276-3.519-6.054-9.779-.711-13.886Z" transform="translate(-2709.522 -7245.102)" fill="#636363"/>
      <path id="패스_22643" data-name="패스 22643" d="M3147.833,7311.455l8.691-1.412,2.7-.347-1.39,3.42-2.663,1.843,3.171,1.063,5.841-.561,3.914-4.416.579-7.765-10.419-22.678-7.074,4.7-2.911,18.4-5.518,6.12Z" transform="translate(-3075.074 -7241.757)" fill="#636363"/>
      <ellipse id="타원_712" data-name="타원 712" cx="29.459" cy="35.43" rx="29.459" ry="35.43" transform="translate(18.754 4.126)" fill="#ffd8ca"/>
      <path id="패스_22644" data-name="패스 22644" d="M3057.834,7045.935l-3,2.4-.33,9.8,6.12,5.429,10.464,5.259,7.892,1.983,1-5.2-5.531-9.4-5.687-5.313-6.662-3.967Z" transform="translate(-3000.312 -7042.942)" fill="#636363"/>
      <path id="패스_22645" data-name="패스 22645" d="M2793.656,7059.653l1.643,2.034,5.522,3.137,10.381,1.629,10.461-3.1,8-7.3,4.176-11.128v-5.421l-4.159-3.995-14.068,1.592-13.819,7.731-5.744,7.908Z" transform="translate(-2779.315 -7034.111)" fill="#636363"/>
      <g id="그룹_31741" data-name="그룹 31741" transform="translate(12.973 77.288)">
        <path id="패스_22712" data-name="패스 22712" d="M24.474,0H42.246C64.154.192,66.72,10.958,66.72,24.474A24.474,24.474,0,0,1,42.246,48.949H24.474A24.474,24.474,0,0,1,0,24.474C0,10.958,4.1-.4,24.474,0Z" transform="translate(1.757 1.757)" fill="#00b2ff"/>
        <path id="패스_22646" data-name="패스 22646" d="M2837.3,7584.688h-34.958a17.659,17.659,0,0,1-17.638-17.639v-17.186a17.658,17.658,0,0,1,17.638-17.638H2837.3a17.658,17.658,0,0,1,17.638,17.638v17.186A17.659,17.659,0,0,1,2837.3,7584.688Zm-34.958-48.949a14.14,14.14,0,0,0-14.124,14.125v17.186a14.14,14.14,0,0,0,14.124,14.124H2837.3a14.14,14.14,0,0,0,14.125-14.124v-17.186a14.141,14.141,0,0,0-14.125-14.125Z" transform="translate(-2784.706 -7532.226)"/>
      </g>
      <g id="그룹_31742" data-name="그룹 31742" transform="translate(35.871 74.046)">
        <path id="패스_22647" data-name="패스 22647" d="M2966.224,7511.459v7.123c0,3.494-5.706,9.393-8.527,12.1a2.241,2.241,0,0,1-3.092.007c-2.824-2.683-8.522-8.519-8.522-11.943V7511" transform="translate(-2944.325 -7511.001)" fill="#ffd8ca"/>
        <path id="패스_22648" data-name="패스 22648" d="M2946.4,7533.06a3.984,3.984,0,0,1-2.752-1.1c-6.018-5.715-9.069-10.162-9.069-13.217V7511h3.514v7.741c0,1.428,2.088,5.079,7.975,10.669a.482.482,0,0,0,.667,0c4.852-4.649,7.986-8.9,7.986-10.829v-7.123h3.514v7.123c0,1.953-1.173,4.385-3.584,7.434a61.475,61.475,0,0,1-5.485,5.931A3.984,3.984,0,0,1,2946.4,7533.06Z" transform="translate(-2934.582 -7511.001)"/>
      </g>
      <path id="패스_22649" data-name="패스 22649" d="M3070.242,7120.116h-.075a33.646,33.646,0,0,1-11.63-2.705c-8.244-4.147-10.284-7.55-13.181-13.209a1.757,1.757,0,0,1,3.128-1.6c2.71,5.294,4.336,8,11.632,11.672a30.5,30.5,0,0,0,10.2,2.333,1.757,1.757,0,0,1-.072,3.512Z" transform="translate(-2992.396 -7090.138)"/>
      <path id="패스_22650" data-name="패스 22650" d="M3002.125,7299.573h-6.646v-11.746a1.757,1.757,0,1,1,3.514,0v8.232h3.133a1.757,1.757,0,1,1,0,3.514Z" transform="translate(-2950.303 -7246.389)"/>
      <path id="패스_22651" data-name="패스 22651" d="M2911.21,7277.3a1.757,1.757,0,0,1-1.757-1.758V7272.3a1.757,1.757,0,0,1,3.514,0v3.246A1.757,1.757,0,0,1,2911.21,7277.3Z" transform="translate(-2877.421 -7233.233)"/>
      <path id="패스_22652" data-name="패스 22652" d="M3094.465,7277.3a1.757,1.757,0,0,1-1.757-1.758V7272.3a1.757,1.757,0,0,1,3.514,0v3.246A1.757,1.757,0,0,1,3094.465,7277.3Z" transform="translate(-3032.678 -7233.233)"/>
      <path id="패스_22653" data-name="패스 22653" d="M2940.717,7419.763a24.214,24.214,0,0,1-12.073-3.795,1.757,1.757,0,0,1,1.957-2.918h0c.048.032,4.858,3.2,10.116,3.2,5.327,0,10.943-3.225,11-3.258a1.757,1.757,0,0,1,1.769,3.036C2953.223,7416.18,2947.008,7419.763,2940.717,7419.763Z" transform="translate(-2893.021 -7353.718)"/>
      <g id="그룹_31743" data-name="그룹 31743" transform="translate(8.997 26.463)">
        <path id="패스_22654" data-name="패스 22654" d="M2778.716,7223.745a7.452,7.452,0,0,1-1.6.173,6.449,6.449,0,1,1,0-12.861c.358,0,1.367.146,1.711.194" transform="translate(-2768.426 -7209.3)" fill="#ffd8ca"/>
        <path id="패스_22655" data-name="패스 22655" d="M2767.371,7215.932a8.2,8.2,0,1,1,0-16.375,16.672,16.672,0,0,1,1.9.2l.054.008a1.757,1.757,0,1,1-.491,3.479l-.056-.007c-1.011-.144-1.32-.167-1.414-.169a4.7,4.7,0,1,0,0,9.347,5.734,5.734,0,0,0,1.226-.132,1.757,1.757,0,1,1,.753,3.432A9.255,9.255,0,0,1,2767.371,7215.932Z" transform="translate(-2758.684 -7199.556)"/>
      </g>
      <g id="그룹_31744" data-name="그룹 31744" transform="translate(74.347 26.463)">
        <path id="패스_22656" data-name="패스 22656" d="M3198.145,7223.745a7.448,7.448,0,0,0,1.6.173,6.449,6.449,0,1,0,0-12.861,7.454,7.454,0,0,0-1.824.225" transform="translate(-3196.167 -7209.3)" fill="#ffd8ca"/>
        <path id="패스_22657" data-name="패스 22657" d="M3190,7215.932a9.26,9.26,0,0,1-1.98-.214,1.757,1.757,0,0,1,.753-3.432,5.738,5.738,0,0,0,1.226.132,4.7,4.7,0,1,0,0-9.347,5.716,5.716,0,0,0-1.393.171,1.757,1.757,0,1,1-.861-3.406,9.193,9.193,0,0,1,2.254-.279,8.2,8.2,0,1,1,0,16.375Z" transform="translate(-3186.421 -7199.556)"/>
      </g>
      <path id="패스_22658" data-name="패스 22658" d="M2783.914,7056.725c-.04,0-.081,0-.121,0a1.755,1.755,0,0,1-1.633-1.867,30.331,30.331,0,0,1,3.712-11.527c3.056-5.549,9.283-12.8,21.6-15.809a38.45,38.45,0,0,1,19.063.006c8.96,1.977,15.8,6.49,20.318,13.417a32.155,32.155,0,0,1,4.866,13.007,1.757,1.757,0,0,1-3.485.449,28.513,28.513,0,0,0-4.324-11.536c-4.012-6.146-10.135-10.156-18.2-11.92l-.157-.042a35.331,35.331,0,0,0-17.247.033c-8.833,2.161-15.32,6.857-19.28,13.958a27.365,27.365,0,0,0-3.357,10.2A1.759,1.759,0,0,1,2783.914,7056.725Z" transform="translate(-2769.572 -7026.345)"/>
      <path id="패스_22659" data-name="패스 22659" d="M2710.647,7313.021h-.068c-3.094-.026-6.019-1.878-8.69-5.5-5.5-7.463,1.077-19.609,5.432-27.646a45.422,45.422,0,0,0,2.783-5.613,1.757,1.757,0,0,1,3.342,1.087,45.153,45.153,0,0,1-3.034,6.2,78.762,78.762,0,0,0-6.018,12.979c-1.561,4.927-1.455,8.5.324,10.908,2.963,4.019,5.42,4.393,7.2,3.884-.159-.148-.317-.306-.472-.475a6.871,6.871,0,0,1-1.834-5.487,1.909,1.909,0,0,1,2.788-1.492,18.954,18.954,0,0,0,5.658,1.888c3.11.453,5.334-.287,6.8-2.264a1.757,1.757,0,0,1,2.823,2.092c-2.242,3.026-5.745,4.288-10.129,3.648a20.229,20.229,0,0,1-3.656-.913,5.58,5.58,0,0,0,1.954,1.449,1.909,1.909,0,0,1,.258,3.332l-.1.063A9.606,9.606,0,0,1,2710.647,7313.021Zm3.527-4.861,0,0Z" transform="translate(-2699.793 -7235.355)"/>
      <path id="패스_22660" data-name="패스 22660" d="M3150.792,7314.958a14.234,14.234,0,0,1-5.846-1.3,1.909,1.909,0,0,1,.028-3.453,5.669,5.669,0,0,0,1.84-1.331c-3.631,1.324-9.47,2.52-14.705-.579a1.757,1.757,0,0,1,1.789-3.024,12.126,12.126,0,0,0,8.876,1.115,21.1,21.1,0,0,0,5.6-2.049,1.909,1.909,0,0,1,2.822,1.475,6.872,6.872,0,0,1-1.809,5.452l-.067.072a7.635,7.635,0,0,0,4.17-.409c1.683-.735,2.9-2.31,3.626-4.679,1.791-5.862-2.719-13.248-6.344-19.183-1.857-3.042-3.461-5.668-4.065-7.812a1.757,1.757,0,1,1,3.382-.953c.473,1.677,2.032,4.23,3.682,6.933,3.99,6.535,8.957,14.668,6.705,22.041-1.037,3.395-2.914,5.707-5.578,6.873A10.222,10.222,0,0,1,3150.792,7314.958Z" transform="translate(-3065.329 -7238.726)"/>
      <path id="패스_22661" data-name="패스 22661" d="M3275.394,7307" transform="translate(-3187.454 -7264.118)" fill="none" stroke="#000" stroke-linecap="round" stroke-width="23"/>
      <path id="패스_22662" data-name="패스 22662" d="M2846.294,7109.942H2843.1a28.6,28.6,0,0,1-28.57-28.57V7062.02a2.056,2.056,0,0,1,2.823-1.908l.031.013s.106.046.158.071c.543.267,1.108.557,1.654.838,2.674,1.375,5.44,2.8,8.193,2.8a22.55,22.55,0,0,0,22.027-27.271,1.757,1.757,0,0,1,3.436-.736,26.062,26.062,0,0,1-25.463,31.521c-3.417,0-6.553-1.521-9.345-2.952v16.979a25.084,25.084,0,0,0,25.056,25.056h3.191a25.084,25.084,0,0,0,25.056-25.056v-19.631a1.757,1.757,0,0,1,3.514,0v19.631A28.6,28.6,0,0,1,2846.294,7109.942Z" transform="translate(-2797.003 -7033.199)"/>
    </g>
  </g>
</svg>
