<svg width="164" height="194" viewBox="0 0 164 194" fill="none" xmlns="http://www.w3.org/2000/svg">
<mask id="mask0_270:3531" style="mask-type:alpha" maskUnits="userSpaceOnUse" x="0" y="0" width="164" height="194">
<path d="M164 0H0V194H164V0Z" fill="white"/>
</mask>
<g mask="url(#mask0_270:3531)">
<path d="M101.316 90.8794H80.8127V103.971H101.316V90.8794Z" fill="#4AC6FD" stroke="black" stroke-width="3" stroke-miterlimit="10"/>
<path d="M101.316 125.412H80.8127V138.504H101.316V125.412Z" fill="white" stroke="black" stroke-width="3" stroke-miterlimit="10"/>
<path d="M107.747 152.106V142.552C107.792 141.527 107.43 140.526 106.74 139.767C106.049 139.008 105.086 138.554 104.062 138.503H78.0617C77.037 138.554 76.074 139.008 75.3835 139.767C74.6929 140.526 74.331 141.527 74.3767 142.552V152.106C74.3767 157.187 78.1247 161.306 82.7487 161.306H99.3696C103.998 161.306 107.747 157.188 107.747 152.106Z" fill="white" stroke="black" stroke-width="3" stroke-linecap="round" stroke-linejoin="round"/>
<path d="M107.747 82.9409V73.3872C107.792 72.3623 107.43 71.3608 106.74 70.6021C106.049 69.8433 105.086 69.3887 104.062 69.3379H78.0617C77.037 69.3887 76.074 69.8433 75.3835 70.6021C74.6929 71.3608 74.331 72.3623 74.3767 73.3872V82.9409C74.3767 88.0219 78.1247 92.1411 82.7487 92.1411H99.3696C103.998 92.1421 107.747 88.0219 107.747 82.9409Z" fill="white" stroke="black" stroke-width="3" stroke-linecap="round" stroke-linejoin="round"/>
<path d="M107.747 117.573V108.021C107.793 106.996 107.431 105.994 106.741 105.235C106.05 104.476 105.087 104.022 104.062 103.971H78.0618C77.0368 104.022 76.0735 104.476 75.3828 105.235C74.6922 105.994 74.3305 106.996 74.3767 108.021V117.573C74.3767 122.654 78.1248 126.773 82.7488 126.773H99.3697C103.998 126.775 107.747 122.654 107.747 117.573Z" fill="white" stroke="black" stroke-width="3" stroke-linecap="round" stroke-linejoin="round"/>
<path d="M117.765 34.63C117.359 32.911 116.553 32.014 116.69 33.307C116.974 35.7726 116.992 38.2616 116.745 40.7311C116.529 42.7081 116.039 44.9852 114.503 46.3832C112.403 48.2972 101.619 37.7921 98.2368 40.2191C96.4478 41.5041 95.3368 43.8271 94.6228 45.8471C93.9828 47.6471 92.0036 51.798 90.8906 51.837C89.7776 51.798 87.7987 47.6471 87.1597 45.8471C86.4417 43.8271 85.3347 41.5041 83.5457 40.2191C80.1637 37.7921 69.3808 48.2972 67.2788 46.3832C65.7408 44.9832 65.2529 42.7071 65.0369 40.7311C64.7895 38.2616 64.8073 35.7727 65.0899 33.307C65.2279 32.014 64.4216 32.907 64.0156 34.63C58.3426 58.63 66.7348 61.6203 70.4558 76.7953C70.8378 78.3583 73.6559 77.1521 75.0799 76.4091C78.7639 74.4921 80.2627 73.1319 90.7517 73.3339V73.3392H90.7769H90.8897H91.0017H91.0279V73.3339C101.517 73.1339 103.015 74.4931 106.7 76.4091C108.127 77.1521 110.941 78.3583 111.324 76.7953C115.043 61.6203 123.433 58.633 117.765 34.63Z" fill="white" stroke="black" stroke-width="3" stroke-miterlimit="10"/>
<path d="M87.3846 69.4912V69.7012C87.3979 69.6318 87.3979 69.5606 87.3846 69.4912Z" fill="#EBE2CE"/>
<path d="M123.165 57.0644C114.992 56.0534 106.314 61.2711 101.665 80.7011C101.198 80.468 100.691 80.329 100.171 80.2915C97.6096 80.1195 95.1917 82.5401 93.6547 86.3261C93.1341 86.028 92.5531 85.8514 91.9548 85.8086C91.8418 85.8026 91.7318 85.8002 91.6198 85.8032C91.5078 85.8062 91.3966 85.8036 91.2836 85.8086C90.6853 85.8518 90.1044 86.0284 89.5837 86.3261C88.0487 82.5401 85.6288 80.1195 83.0678 80.2915C82.5458 80.3287 82.0362 80.4677 81.5678 80.7011C76.9228 61.2711 68.2456 56.0534 60.0736 57.0644C50.1196 58.2964 44.6887 72.3122 47.9447 98.6142C51.2007 124.916 61.9026 145.243 71.8566 144.014C76.7156 143.414 80.4958 137.782 82.7138 129.114C83.3537 129.734 84.1697 130.14 85.0497 130.277C87.0957 130.56 89.7148 129.162 91.3818 126.701C91.4489 126.75 91.5299 126.777 91.6132 126.777C91.6965 126.777 91.7775 126.75 91.8446 126.701C93.5116 129.162 96.1317 130.56 98.1747 130.277C99.055 130.141 99.8711 129.734 100.511 129.114C102.729 137.78 106.511 143.414 111.368 144.014C121.321 145.244 132.028 124.919 135.281 98.6142C138.534 72.3092 133.117 58.2964 123.165 57.0644Z" fill="#DB5F58" stroke="black" stroke-width="3" stroke-miterlimit="10"/>
</g>
</svg>
