<svg xmlns="http://www.w3.org/2000/svg" width="60" height="60" viewBox="0 0 60 60">
  <g id="icn_inform_02" transform="translate(-1 -1.328)">
    <rect id="bounds" width="60" height="60" transform="translate(1 1.328)" fill="rgba(28,143,248,0.34)" opacity="0"/>
    <g id="calendar" transform="translate(14.215 12.342)">
      <path id="Shape" d="M0,0H34.186" transform="translate(0 14.145)" fill="none" stroke="#4ac6ff" stroke-linecap="round" stroke-linejoin="round" stroke-width="3"/>
      <path id="Rectangle-path" d="M2.6,0H31.586a2.6,2.6,0,0,1,2.6,2.6V28.787a2.6,2.6,0,0,1-2.6,2.6H2.6a2.6,2.6,0,0,1-2.6-2.6V2.6A2.6,2.6,0,0,1,2.6,0Z" transform="translate(0 4.683)" fill="none" stroke="#000" stroke-linecap="round" stroke-width="3"/>
      <path id="Shape-2" data-name="Shape" d="M0,0V9.48" transform="translate(24.69 0)" fill="none" stroke="#000" stroke-linejoin="round" stroke-width="3"/>
      <path id="Shape-3" data-name="Shape" d="M0,0V9.48" transform="translate(9.496 0)" fill="none" stroke="#000" stroke-linejoin="round" stroke-width="3"/>
    </g>
  </g>
</svg>
