<svg id="icn_profile_04" xmlns="http://www.w3.org/2000/svg" xmlns:xlink="http://www.w3.org/1999/xlink" width="142" height="142" viewBox="0 0 142 142">
  <defs>
    <clipPath id="clip-path">
      <circle id="타원_730" data-name="타원 730" cx="71" cy="71" r="71" fill="none"/>
    </clipPath>
  </defs>
  <g id="마스크_그룹_47" data-name="마스크 그룹 47" transform="translate(0 0)" clip-path="url(#clip-path)">
    <circle id="타원_734" data-name="타원 734" cx="71" cy="71" r="71" fill="#f5f5f5"/>
    <g id="그룹_31759" data-name="그룹 31759" transform="translate(30.746 26.985)">
      <rect id="사각형_4473" data-name="사각형 4473" width="68" height="50" rx="19" transform="translate(7.622 76.016)" fill="#fff"/>
      <path id="패스_22687" data-name="패스 22687" d="M3695.628,6369.159h-34.958a17.582,17.582,0,0,1-17.562-17.562v-17.186a17.582,17.582,0,0,1,17.562-17.562h34.958a17.582,17.582,0,0,1,17.562,17.563V6351.6A17.582,17.582,0,0,1,3695.628,6369.159Zm-34.958-48.949a14.217,14.217,0,0,0-14.2,14.2V6351.6a14.217,14.217,0,0,0,14.2,14.2h34.958a14.217,14.217,0,0,0,14.2-14.2v-17.186a14.217,14.217,0,0,0-14.2-14.2Z" transform="translate(-3637.29 -6242.774)"/>
      <g id="그룹_31757" data-name="그룹 31757" transform="translate(23.609 74.074)">
        <path id="패스_22688" data-name="패스 22688" d="M3770.553,6327.85c0,7.868,7.127,13.8,15.57,13.8s15-5.933,15-13.8Z" transform="translate(-3768.873 -6326.169)" fill="#00b2ff"/>
        <path id="패스_22689" data-name="패스 22689" d="M3776.8,6334.012a18.314,18.314,0,0,1-12.054-4.362,14.607,14.607,0,0,1-5.2-11.12,1.681,1.681,0,0,1,1.681-1.681h30.572a1.681,1.681,0,0,1,1.681,1.681,14.871,14.871,0,0,1-4.882,11.092A17.365,17.365,0,0,1,3776.8,6334.012Zm-13.761-13.8a11.446,11.446,0,0,0,3.913,6.9,14.95,14.95,0,0,0,9.848,3.538c6.966,0,12.36-4.383,13.206-10.44Z" transform="translate(-3759.552 -6316.849)"/>
      </g>
      <g id="그룹_31758" data-name="그룹 31758" transform="translate(28.974 69.282)">
        <path id="패스_22690" data-name="패스 22690" d="M3825.812,6285.483v6.153a8.4,8.4,0,0,1-8.4,8.4h-3.494a8.243,8.243,0,0,1-8.243-8.244v-6.313" transform="translate(-3803.989 -6285.483)" fill="#ffd8ca"/>
        <path id="패스_22691" data-name="패스 22691" d="M3808.088,6301.72h-3.494a9.935,9.935,0,0,1-9.924-9.924v-6.313h3.361v6.313a6.57,6.57,0,0,0,6.563,6.563h3.494a6.731,6.731,0,0,0,6.724-6.724v-6.153h3.361v6.153A10.1,10.1,0,0,1,3808.088,6301.72Z" transform="translate(-3794.67 -6285.483)"/>
      </g>
      <circle id="타원_727" data-name="타원 727" cx="6.205" cy="6.205" r="6.205" transform="translate(2.388 32.235)" fill="#ffd8ca"/>
      <path id="패스_22692" data-name="패스 22692" d="M3613.015,6047.782a7.361,7.361,0,0,1-5.808-3.285,10.836,10.836,0,0,1-2.185-6.235,7.993,7.993,0,0,1,15.986,0,10.835,10.835,0,0,1-2.185,6.235A7.361,7.361,0,0,1,3613.015,6047.782Zm0-14.152a4.637,4.637,0,0,0-4.631,4.631c0,2.689,2.246,6.16,4.631,6.16s4.632-3.47,4.632-6.16A4.637,4.637,0,0,0,3613.015,6033.63Z" transform="translate(-3605.022 -5999.979)"/>
      <circle id="타원_728" data-name="타원 728" cx="6.205" cy="6.205" r="6.205" transform="translate(65.451 33.955)" fill="#ffd8ca"/>
      <circle id="타원_729" data-name="타원 729" cx="31.913" cy="31.913" r="31.913" transform="translate(8.314 6.068)" fill="#ffd8ca"/>
      <path id="패스_22693" data-name="패스 22693" d="M3639.064,5869.08l.446,1.485,4.87.017,10.2.258,2.227-3.058,3.168,4.25h23.1l3.2-2.125,1.3,2.125h3l2.451-3.039,2.044,3.039h12.691l2.948-.554-4.222-12.6-8.264-9.084-9.142-5.646-11.258-2.961h-9.771l-9.193,3.566-8.088,5.282-5.2,5.5Z" transform="translate(-3633.864 -5839.785)" fill="#636363"/>
      <path id="패스_22694" data-name="패스 22694" d="M3696.883,5867.085a1.68,1.68,0,0,1-1.664-1.458,34.942,34.942,0,0,0-69.042-1.361,1.681,1.681,0,1,1-3.311-.577,38.3,38.3,0,0,1,75.685,1.493,1.681,1.681,0,0,1-1.443,1.889A1.759,1.759,0,0,1,3696.883,5867.085Z" transform="translate(-3620.119 -5832.006)"/>
      <path id="패스_22695" data-name="패스 22695" d="M3684.018,6043.328a33.718,33.718,0,0,1-33.534-33.53,33.932,33.932,0,0,1,.364-4.958,2.945,2.945,0,0,1,2.9-2.494h8.579l2.855-5.676,1.025-.013h.026c1.016,0,1.386.66,2,1.748.269.479.633,1.145,1.083,1.978.384.711.768,1.426,1.054,1.963h21.112l2.019-3.563.948-.031c.95-.03,1.391.605,1.861,1.277.216.308.505.734.86,1.267.247.37.491.741.7,1.05h.9l1.589-4.46a1.843,1.843,0,0,1,1.694-1.218h.033a1.842,1.842,0,0,1,1.7,1.155l1.8,4.522h9.43a1.918,1.918,0,0,1,2.015,1.579,33.829,33.829,0,0,1,.513,5.874,33.53,33.53,0,0,1-33.009,33.525C3684.362,6043.327,3684.189,6043.328,3684.018,6043.328Zm-29.9-37.621a30.57,30.57,0,0,0-.275,4.091,30.168,30.168,0,1,0,60.337,0,30.594,30.594,0,0,0-.275-4.092h-10.6l-1.146-2.876-1.025,2.876h-5.094l-.5-.765c-.29-.445-.6-.92-.9-1.368l-1.208,2.133h-25.091l-.474-.893c-.52-.98-1.072-2.011-1.56-2.912l-1.914,3.8Z" transform="translate(-3643.538 -5971.502)"/>
      <path id="패스_22696" data-name="패스 22696" d="M3854.362,6091.5h-6.57v-9.1a1.681,1.681,0,0,1,3.361,0v5.738h3.209a1.681,1.681,0,1,1,0,3.361Z" transform="translate(-3810.702 -6042.724)"/>
      <path id="패스_22697" data-name="패스 22697" d="M3858.792,6091.723" transform="translate(-3820.021 -6052.043)" fill="none" stroke="#000" stroke-linecap="round" stroke-width="22"/>
      <path id="패스_22698" data-name="패스 22698" d="M3858.792,6051.892" transform="translate(-3820.021 -6018.298)" fill="none" stroke="#000" stroke-linecap="round" stroke-width="22"/>
      <path id="패스_22699" data-name="패스 22699" d="M3769,6089.444a1.681,1.681,0,0,1-1.681-1.681v-3.247a1.681,1.681,0,0,1,3.361,0v3.247A1.681,1.681,0,0,1,3769,6089.444Z" transform="translate(-3742.524 -6044.514)"/>
      <path id="패스_22700" data-name="패스 22700" d="M3952.256,6089.444a1.681,1.681,0,0,1-1.68-1.681v-3.247a1.681,1.681,0,1,1,3.361,0v3.247A1.681,1.681,0,0,1,3952.256,6089.444Z" transform="translate(-3897.782 -6044.514)"/>
      <path id="패스_22701" data-name="패스 22701" d="M3810.385,6199.758c-5.046,0-9.348-3.759-9.528-3.918a1.681,1.681,0,0,1,2.226-2.518c.054.048,3.558,3.076,7.3,3.076,3.2,0,6.849-2.272,7.988-3.148a1.68,1.68,0,1,1,2.049,2.664C3820.218,6196.07,3815.366,6199.758,3810.385,6199.758Z" transform="translate(-3770.457 -6137.763)"/>
      <path id="패스_22702" data-name="패스 22702" d="M4066.764,6051.423a5.9,5.9,0,0,1-.9-.07,1.681,1.681,0,0,1,.514-3.322,2.552,2.552,0,0,0,.389.03c2.385,0,4.632-3.47,4.632-6.159a4.637,4.637,0,0,0-4.632-4.632q-.121,0-.24.006a1.68,1.68,0,0,1-.172-3.356c.137-.007.276-.011.412-.011a8,8,0,0,1,7.993,7.993,10.834,10.834,0,0,1-2.184,6.234A7.361,7.361,0,0,1,4066.764,6051.423Z" transform="translate(-3994.248 -6003.063)"/>
    </g>
  </g>
</svg>
