<svg width="60" height="61" viewBox="0 0 60 61" fill="none" xmlns="http://www.w3.org/2000/svg">
<path d="M29.6989 24.689C28.5555 24.689 27.4378 25.028 26.4871 25.6633C25.5364 26.2986 24.7954 27.2015 24.3579 28.2579C23.9204 29.3143 23.806 30.4767 24.0291 31.5981C24.2522 32.7196 24.8029 33.7497 25.6115 34.5581C26.4201 35.3666 27.4503 35.917 28.5717 36.14C29.6932 36.3629 30.8556 36.2483 31.9119 35.8106C32.9682 35.3729 33.8711 34.6318 34.5062 33.681C35.1413 32.7302 35.4801 31.6124 35.4799 30.469C35.4781 28.9364 34.8684 27.4672 33.7846 26.3836C32.7008 25.3 31.2315 24.6906 29.6989 24.689V24.689Z" fill="#999999"/>
<path d="M48.444 29.991C46.8147 28.1203 44.9873 26.4317 42.9939 24.955C41.1627 23.5663 39.1715 22.4023 37.0629 21.488C34.7501 20.4369 32.239 19.8931 29.6985 19.8931C27.1579 19.8931 24.6468 20.4369 22.334 21.488C20.2257 22.4023 18.2348 23.5663 16.4039 24.955C14.4106 26.4318 12.5833 28.1203 10.9539 29.991L10.554 30.47L10.9539 30.949C12.5834 32.8196 14.4107 34.5082 16.4039 35.985C18.2349 37.3738 20.2258 38.5381 22.334 39.453C24.6468 40.5041 27.1579 41.0479 29.6985 41.0479C32.239 41.0479 34.7501 40.5041 37.0629 39.453C39.1714 38.5382 41.1627 37.3739 42.9939 35.985C44.9873 34.5082 46.8146 32.8197 48.444 30.949L48.8439 30.47L48.444 29.991ZM29.6989 38.391C28.1318 38.3908 26.5999 37.9259 25.2969 37.0551C23.9939 36.1843 22.9784 34.9467 22.3788 33.4987C21.7792 32.0508 21.6225 30.4575 21.9283 28.9205C22.2342 27.3835 22.989 25.9716 24.0972 24.8636C25.2054 23.7555 26.6173 23.0009 28.1544 22.6952C29.6915 22.3895 31.2847 22.5465 32.7326 23.1463C34.1804 23.7461 35.4179 24.7617 36.2886 26.0648C37.1592 27.3679 37.6239 28.8998 37.6239 30.467C37.6224 32.5684 36.7871 34.5833 35.3015 36.0694C33.8159 37.5556 31.8013 38.3916 29.7 38.394L29.6989 38.391Z" fill="#999999"/>
</svg>
