<svg xmlns="http://www.w3.org/2000/svg" width="90" height="90" viewBox="0 0 90 90">
  <g id="icn_id_01" transform="translate(-157 -734)">
    <g id="그룹_21907" data-name="그룹 21907" transform="translate(5)">
      <rect id="사각형_2358" data-name="사각형 2358" width="90" height="90" transform="translate(152 734)" fill="none"/>
      <g id="그룹_18272" data-name="그룹 18272" transform="translate(171.237 742.798)">
        <g id="그룹_18266" data-name="그룹 18266">
          <path id="패스_13947" data-name="패스 13947" d="M-917.473,907.266v15.87A3.526,3.526,0,0,1-921,926.662h-36.459a3.526,3.526,0,0,1-3.526-3.526v-65.5a3.525,3.525,0,0,1,3.526-3.526H-921c1.948,0,3.526,1.578,3.526,4.773v3.8" transform="translate(960.983 -854.115)" fill="#fff" stroke="#000" stroke-linejoin="round" stroke-width="3"/>
          <line id="선_198" data-name="선 198" x2="43.511" transform="translate(0 59.159)" fill="none" stroke="#000" stroke-linecap="round" stroke-linejoin="round" stroke-width="3"/>
          <line id="선_199" data-name="선 199" x2="3.347" transform="translate(20.082 65.853)" fill="none" stroke="#000" stroke-linecap="round" stroke-linejoin="round" stroke-width="3"/>
        </g>
        <path id="패스_13948" data-name="패스 13948" d="M-906.223,896.779a17.989,17.989,0,0,0-6.918-24.482,17.988,17.988,0,0,0-24.48,6.919,17.99,17.99,0,0,0,2.557,21.06l-1.076,8.538,7.245-4.242A17.986,17.986,0,0,0-906.223,896.779Z" transform="translate(961.936 -858.004)" fill="#4ac6ff" stroke="#000" stroke-linecap="round" stroke-linejoin="round" stroke-width="3"/>
        <g id="그룹_18267" data-name="그룹 18267" transform="translate(32.646 22.454)">
          <line id="선_200" data-name="선 200" x2="14.738" transform="translate(0 7.369)" fill="none" stroke="#fff" stroke-linejoin="round" stroke-width="4"/>
          <line id="선_201" data-name="선 201" y1="14.738" transform="translate(7.369 0)" fill="none" stroke="#fff" stroke-linejoin="round" stroke-width="4"/>
        </g>
      </g>
    </g>
  </g>
</svg>
