<svg width="164" height="194" viewBox="0 0 164 194" fill="none" xmlns="http://www.w3.org/2000/svg">
<mask id="mask0_270:3864" style="mask-type:alpha" maskUnits="userSpaceOnUse" x="14" y="39" width="150" height="155">
<rect x="14" y="39" width="150" height="155" fill="#C4C4C4"/>
</mask>
<g mask="url(#mask0_270:3864)">
<path d="M126.925 101.654C128.289 100.813 129.929 100.544 131.49 100.907C131.49 100.907 136.485 101.195 133.523 109.297C133.523 109.297 130.478 120.111 124.31 116.375C124.303 116.375 127.526 105.627 126.925 101.654Z" fill="#FFE4DA" stroke="black" stroke-width="3" stroke-miterlimit="10"/>
<path d="M54.6818 101.654C53.3182 100.813 51.6772 100.544 50.1165 100.907C50.1165 100.907 45.1238 101.195 48.085 109.297C48.085 109.297 51.1293 120.111 57.2977 116.375C57.2977 116.375 54.0778 105.627 54.6818 101.654Z" fill="#FFE4DA" stroke="black" stroke-width="3" stroke-miterlimit="10"/>
<path fill-rule="evenodd" clip-rule="evenodd" d="M53.6674 100.523C55.0933 109.846 57.182 141.764 86.9975 147.749C88.9712 148.245 91.0266 148.325 93.033 147.985C101.251 146.2 126.075 139.371 127.221 99.0449C127.242 98.3089 127.233 96.0058 127.16 95.1324C126.617 88.6295 123.06 62.9968 99.4409 57.1458C99.4409 57.1458 56.8329 45.8804 53.4513 95.1386C53.3256 96.9359 53.3981 98.7416 53.6674 100.523Z" fill="#FFE4DA" stroke="black" stroke-width="3" stroke-miterlimit="10"/>
<path opacity="0.27" d="M118.874 108.322C119.836 108.322 120.616 107.521 120.616 106.534C120.616 105.547 119.836 104.747 118.874 104.747C117.911 104.747 117.131 105.547 117.131 106.534C117.131 107.521 117.911 108.322 118.874 108.322Z" fill="#EA3223"/>
<path opacity="0.27" d="M87.794 97.5629C88.7563 97.5629 89.5364 96.7626 89.5364 95.7754C89.5364 94.7881 88.7563 93.9878 87.794 93.9878C86.8317 93.9878 86.0516 94.7881 86.0516 95.7754C86.0516 96.7626 86.8317 97.5629 87.794 97.5629Z" fill="#EA3223"/>
<path opacity="0.27" d="M67.8476 120.734C68.8099 120.734 69.59 119.934 69.59 118.947C69.59 117.96 68.8099 117.159 67.8476 117.159C66.8853 117.159 66.1052 117.96 66.1052 118.947C66.1052 119.934 66.8853 120.734 67.8476 120.734Z" fill="#EA3223"/>
<path opacity="0.27" d="M77.3875 126.026C78.3498 126.026 79.1298 125.226 79.1298 124.238C79.1298 123.251 78.3498 122.451 77.3875 122.451C76.4252 122.451 75.6451 123.251 75.6451 124.238C75.6451 125.226 76.4252 126.026 77.3875 126.026Z" fill="#EA3223"/>
<path opacity="0.27" d="M102.536 119.99C103.498 119.99 104.278 119.189 104.278 118.202C104.278 117.215 103.498 116.415 102.536 116.415C101.573 116.415 100.793 117.215 100.793 118.202C100.793 119.189 101.573 119.99 102.536 119.99Z" fill="#EA3223"/>
<path opacity="0.27" d="M112.645 126.887C113.607 126.887 114.387 126.086 114.387 125.099C114.387 124.112 113.607 123.312 112.645 123.312C111.682 123.312 110.902 124.112 110.902 125.099C110.902 126.086 111.682 126.887 112.645 126.887Z" fill="#EA3223"/>
<path d="M90.0868 111.604L90.1546 115.002C90.1546 115.002 86.5651 116.681 86.9846 118.8C86.9846 118.8 87.0751 121.588 91.2126 121.188" stroke="black" stroke-width="3" stroke-miterlimit="10" stroke-linecap="round"/>
<path d="M79.1312 94.2021C77.6232 95.5959 75.8404 96.659 73.8975 97.3235C71.9545 97.9881 69.8944 98.2395 67.8487 98.0613" stroke="black" stroke-width="3" stroke-miterlimit="10" stroke-linecap="round"/>
<path d="M111.625 97.1434C109.6 97.4849 107.527 97.3996 105.537 96.8931C103.548 96.3866 101.686 95.4701 100.071 94.2021" stroke="black" stroke-width="3" stroke-miterlimit="10" stroke-linecap="round"/>
<path d="M110.901 105.083L100.792 107.319L110.656 109.892" stroke="black" stroke-width="3" stroke-linecap="round" stroke-linejoin="round"/>
<path d="M69.5953 105.934L79.8541 107.339L70.2328 110.709" stroke="black" stroke-width="3" stroke-linecap="round" stroke-linejoin="round"/>
<path d="M81.7285 134.312C81.7285 134.312 89.8662 126.852 99.3954 134.048" stroke="black" stroke-width="3" stroke-miterlimit="10" stroke-linecap="round"/>
<path fill-rule="evenodd" clip-rule="evenodd" d="M53.5579 95.1286C53.5579 95.1286 62.5338 91.5445 66.0628 89.464L64.7906 93.6801C64.7906 93.6801 74.7185 90.2443 76.0323 88.7018C75.6977 89.379 76.0686 94.8991 83.9567 87.6927C87.8112 84.1727 84.5786 65.7138 90.3103 68.2527C90.3103 68.2527 89.2064 89.2389 95.7102 90.0481V85.3066C95.7102 85.3066 98.797 88.775 106.733 89.5852L105.08 86.1168C105.08 86.1168 117.316 91.6677 126.356 91.6677L129.663 92.3618C129.663 92.3618 137.382 42.1173 92.21 45.7567C92.21 45.7567 50.1817 36.3893 49.0804 83.5716C49.0804 83.5716 48.2106 94.8828 50.4095 95.1251C51.4482 95.337 52.5187 95.3381 53.5579 95.1286Z" fill="black"/>
<path fill-rule="evenodd" clip-rule="evenodd" d="M20.7197 195.126C20.7197 195.126 34.3087 134.22 89.5979 139.953C89.5979 139.953 147.945 135.018 161.158 195.126H20.7197Z" fill="#FCC8C8"/>
<path fill-rule="evenodd" clip-rule="evenodd" d="M122.73 146.432L122.015 155.074L119.116 164.576L119.495 175.842L123.772 184.167L103.789 193.336L98.8984 189.242L92.0746 176.979L81.3663 191.898L78.3889 193.336C78.3889 193.336 61.7816 187.153 59.5654 183.127C59.5654 183.127 64.1189 177.921 64.4336 176.034C64.7483 174.147 62.0349 166.026 62.0566 164.072C62.0783 162.119 58.3594 154.695 58.1758 153.685C57.9923 152.675 57.6332 140.022 64.4608 137.966C64.997 138.205 65.4447 138.607 65.7404 139.114C66.0362 139.622 66.1651 140.209 66.1091 140.794C66.1091 140.794 79.1366 127.167 80.454 127.754C80.9615 127.934 81.3956 128.276 81.6897 128.727C81.9838 129.178 82.1216 129.713 82.0816 130.25C81.9378 130.988 86.2298 126.495 87.559 126.397C88.6292 126.284 89.7065 126.532 90.6188 127.103C91.3358 127.575 91.8593 127.026 92.6369 126.97C93.4145 126.913 96.6669 127.331 96.6669 127.331L99.0602 129.761L101.107 127.8L106.424 130.99L113.934 141.509L117.22 137.471" fill="#FAE5DB"/>
<path d="M116.237 138.413C115.481 139.09 114.845 140.695 115.472 144.453C115.472 144.453 108.658 130.267 102.599 127.941C102.014 127.7 101.362 127.676 100.761 127.874C100.16 128.072 99.6504 128.479 99.3237 129.021C99.1036 129.457 98.9982 129.943 99.0173 130.431C99.0365 130.92 99.1797 131.395 99.4332 131.814C99.4332 131.814 97.7234 127.137 93.4132 126.909C92.9852 126.878 92.5553 126.941 92.1549 127.095C91.7545 127.25 91.3934 127.491 91.0975 127.802C90.3688 128.616 90.4871 130.225 91.9112 133.212C91.7942 133.14 91.6872 133.052 91.5929 132.952C91.0793 131.913 85.1778 131.215 87.5667 137.536L88.4889 140.61C88.4889 140.61 85.4906 138.689 83.9534 139.689C82.4163 140.688 82.7239 144.3 85.4907 149.833C88.2575 155.367 87.9501 155.675 87.9501 156.828C87.9501 157.981 88.4112 164.129 88.8724 166.743C89.3335 169.357 91.5632 180.885 102.938 193.336L123.614 184.42C123.614 184.42 118.617 176.273 118.388 170.816C118.158 165.358 120.309 161.362 121.078 159.363C121.838 157.386 123.293 149.38 121.439 143.918C121.403 143.813 121.355 143.713 121.295 143.619L118.221 138.714C118.121 138.551 117.987 138.412 117.828 138.307C117.668 138.201 117.488 138.132 117.299 138.103C117.11 138.074 116.917 138.087 116.734 138.141C116.551 138.194 116.381 138.287 116.237 138.413V138.413Z" stroke="black" stroke-width="3" stroke-miterlimit="10"/>
<path d="M91.0905 127.801C90.9096 126.807 88.8834 126.296 88.8834 126.296C85.8806 125.775 81.9365 130.984 81.9365 130.984C82.8027 127.518 80.4564 127.751 80.4564 127.751C77.0747 127.57 66.9234 141.446 65.9053 142.851C65.8854 142.877 65.8484 142.851 65.8556 142.816C66.7444 138.712 65.0527 138.056 65.0527 138.056C63.8945 137.285 61.1049 140.655 61.1049 140.655C61.1049 140.655 55.8399 146.255 58.7857 155.683V155.69C58.8562 155.812 62.7235 165.8 63.3971 168.586C64.1051 171.497 67.5563 175.367 59.5678 183.026C59.5532 183.037 59.5436 183.054 59.5409 183.072C59.5382 183.089 59.5427 183.108 59.5535 183.122V183.127C65.1917 188.585 72.3893 192.152 80.1471 193.332C80.1598 193.333 80.1726 193.331 80.1846 193.327C80.1966 193.323 80.2077 193.316 80.2168 193.307C80.8163 192.584 91.35 179.798 91.5869 175.864" stroke="black" stroke-width="3" stroke-miterlimit="10"/>
<path d="M20 195.99C20 195.99 30.1269 154.243 58.6992 145.446" stroke="black" stroke-width="3" stroke-miterlimit="10"/>
<path d="M160.705 195.99C160.705 195.99 150.573 154.243 122.006 145.446" stroke="black" stroke-width="3" stroke-miterlimit="10"/>
<path d="M102.927 193.336L104.655 195.99" stroke="black" stroke-width="3" stroke-miterlimit="10"/>
<path d="M80.1175 193.336L78.3896 195.99" stroke="black" stroke-width="3" stroke-miterlimit="10"/>
<path d="M123.403 184.168L131.455 195.129" stroke="black" stroke-width="3" stroke-miterlimit="10"/>
<path d="M59.5184 183.076L51.1167 194.093" stroke="black" stroke-width="3" stroke-miterlimit="10"/>
<path d="M99.4253 131.812L109.851 152.39" stroke="black" stroke-width="3" stroke-miterlimit="10"/>
<path d="M91.7231 132.86L103.035 155.074" stroke="black" stroke-width="3" stroke-miterlimit="10"/>
<path d="M88.3203 140.522L96.9354 157.529" stroke="black" stroke-width="3" stroke-miterlimit="10"/>
<path d="M81.932 130.984L69.2236 150.598" stroke="black" stroke-width="3" stroke-miterlimit="10"/>
<path d="M83.3337 145.25L76.9004 154.712" stroke="black" stroke-width="3" stroke-miterlimit="10"/>
<path d="M87.0659 153.177L83.3325 159.121" stroke="black" stroke-width="3" stroke-miterlimit="10"/>
<path d="M66.7445 141.501L63.7236 146.431" stroke="black" stroke-width="3" stroke-miterlimit="10"/>
<path opacity="0.27" d="M104.857 171.948C105.862 171.948 106.678 171.112 106.678 170.08C106.678 169.049 105.862 168.212 104.857 168.212C103.851 168.212 103.036 169.049 103.036 170.08C103.036 171.112 103.851 171.948 104.857 171.948Z" fill="#EA3223"/>
<path opacity="0.27" d="M114.902 158.81C115.907 158.81 116.723 157.973 116.723 156.942C116.723 155.91 115.907 155.074 114.902 155.074C113.896 155.074 113.081 155.91 113.081 156.942C113.081 157.973 113.896 158.81 114.902 158.81Z" fill="#EA3223"/>
<path opacity="0.27" d="M67.0544 159.794C68.0602 159.794 68.8755 158.958 68.8755 157.926C68.8755 156.894 68.0602 156.058 67.0544 156.058C66.0487 156.058 65.2334 156.894 65.2334 157.926C65.2334 158.958 66.0487 159.794 67.0544 159.794Z" fill="#EA3223"/>
<path opacity="0.27" d="M78.2956 180.655C79.3014 180.655 80.1167 179.819 80.1167 178.787C80.1167 177.755 79.3014 176.919 78.2956 176.919C77.2899 176.919 76.4746 177.755 76.4746 178.787C76.4746 179.819 77.2899 180.655 78.2956 180.655Z" fill="#EA3223"/>
<path opacity="0.27" d="M78.2956 165.203C79.3014 165.203 80.1167 164.367 80.1167 163.335C80.1167 162.304 79.3014 161.467 78.2956 161.467C77.2899 161.467 76.4746 162.304 76.4746 163.335C76.4746 164.367 77.2899 165.203 78.2956 165.203Z" fill="#EA3223"/>
</g>
</svg>
