<svg id="icn_profile_07" xmlns="http://www.w3.org/2000/svg" xmlns:xlink="http://www.w3.org/1999/xlink" width="142" height="142" viewBox="0 0 142 142">
  <defs>
    <clipPath id="clip-path">
      <circle id="타원_702" data-name="타원 702" cx="71" cy="71" r="71" fill="none"/>
    </clipPath>
  </defs>
  <g id="그룹_31696" data-name="그룹 31696" clip-path="url(#clip-path)">
    <path id="패스_22709" data-name="패스 22709" d="M71,0A71,71,0,1,1,0,71,71,71,0,0,1,71,0Z" fill="#f5f5f5"/>
    <ellipse id="타원_700" data-name="타원 700" cx="29.459" cy="35.43" rx="29.459" ry="35.43" transform="translate(43.755 32.077)" fill="#ffd8ca"/>
    <path id="패스_22473" data-name="패스 22473" d="M2277.257,7303.776l5.806-.943-.854,7.538-2.049,5.948-3.991.376Z" transform="translate(-2175.745 -7233.168)" fill="#636363"/>
    <path id="패스_22474" data-name="패스 22474" d="M1878.263,7302.833h-4.36l-.923,4.537.923,5.453,4.36,5.885h2.357Z" transform="translate(-1834.154 -7233.168)" fill="#636363"/>
    <path id="패스_22475" data-name="패스 22475" d="M1872.979,7070.591l5.034-.548,3.3,1.623,10.94.749,11.144-4.518,9.56-12.417,2.771-.7,8.776,10.738,7.682,2.072,3.485.6,4.377,1.036v-5.248l-6.214-13.609-10.122-5.583-12.323-3.244h-7.273l-17.856,3.708-5.634,7.577-5.926,11.151Z" transform="translate(-1834.154 -7011.797)" fill="#636363"/>
    <path id="패스_22476" data-name="패스 22476" d="M2034.353,6946.762l3.59,4.453,3.185,5.2-1.066,3.412-2.321,3.372-18.007,1.312-3.414-8.876,6.453-8.076" transform="translate(-1955.596 -6931.498)" fill="#636363"/>
    <g id="그룹_31682" data-name="그룹 31682" transform="translate(37.299 106.939)">
      <rect id="사각형_4432" data-name="사각형 4432" width="66.72" height="48.949" rx="24.474" transform="translate(1.681 1.681)" fill="#00b2ff"/>
      <path id="패스_22477" data-name="패스 22477" d="M1915.511,7599.115h-34.957a17.582,17.582,0,0,1-17.562-17.562v-17.186a17.582,17.582,0,0,1,17.562-17.562h34.957a17.582,17.582,0,0,1,17.562,17.562v17.186A17.582,17.582,0,0,1,1915.511,7599.115Zm-34.957-48.949a14.217,14.217,0,0,0-14.2,14.2v17.186a14.217,14.217,0,0,0,14.2,14.2h34.957a14.217,14.217,0,0,0,14.2-14.2v-17.186a14.217,14.217,0,0,0-14.2-14.2Z" transform="translate(-1862.992 -7546.805)"/>
    </g>
    <path id="패스_22478" data-name="패스 22478" d="M2013.977,6947.253a1.681,1.681,0,0,1-1.544-1.016,13.535,13.535,0,1,1,25.1-.548,1.681,1.681,0,0,1-3.143-1.192,10.174,10.174,0,1,0-18.866.412,1.681,1.681,0,0,1-1.543,2.345Z" transform="translate(-1951.372 -6915.055)"/>
    <g id="그룹_31683" data-name="그룹 31683" transform="translate(61.352 101.673)">
      <path id="패스_22479" data-name="패스 22479" d="M2051.571,7512.89v6.907a8.4,8.4,0,0,1-8.4,8.4h-3.494a8.243,8.243,0,0,1-8.243-8.243v-7.62" transform="translate(-2029.748 -7512.338)" fill="#ffd8ca"/>
      <path id="패스_22480" data-name="패스 22480" d="M2033.847,7529.882h-3.494a9.935,9.935,0,0,1-9.924-9.924v-7.62h3.361v7.62a6.57,6.57,0,0,0,6.563,6.563h3.494a6.731,6.731,0,0,0,6.724-6.724v-6.907h3.361v6.907A10.1,10.1,0,0,1,2033.847,7529.882Z" transform="translate(-2020.429 -7512.338)"/>
    </g>
    <path id="패스_22481" data-name="패스 22481" d="M1864.7,7061.664a1.683,1.683,0,0,1-1.607-2.176l.558-1.812a31.768,31.768,0,0,1,3.709-11.564c3.07-5.641,9.324-12.931,21.676-15.646a43.643,43.643,0,0,1,19.112-.161c12.6,2.785,18.768,10.091,21.724,15.73a29.728,29.728,0,0,1,3.412,11.756,1.681,1.681,0,0,1-3.36.108h0a26.875,26.875,0,0,0-3.1-10.43c-3.829-7.212-10.359-11.883-19.406-13.883a40.858,40.858,0,0,0-17.544.132l-.084.021a30.489,30.489,0,0,0-12.683,5.818,26.736,26.736,0,0,0-6.8,8.16,28.1,28.1,0,0,0-3.325,10.387,1.669,1.669,0,0,1-.071.385l-.611,1.986A1.682,1.682,0,0,1,1864.7,7061.664Z" transform="translate(-1825.717 -7001.45)"/>
    <path id="패스_22482" data-name="패스 22482" d="M1869.392,7297.218a1.672,1.672,0,0,1-.675-.142c-4.277-1.878-7.118-6.271-8.216-12.7a37.38,37.38,0,0,1-.4-8.88,1.68,1.68,0,0,1,3.346.319,34.554,34.554,0,0,0,.379,8.063c.918,5.3,3.018,8.708,6.242,10.123a1.681,1.681,0,0,1-.677,3.22Z" transform="translate(-1823.157 -7208.717)"/>
    <path id="패스_22483" data-name="패스 22483" d="M2261.489,7297.218a1.681,1.681,0,0,1-.677-3.22c3.224-1.415,5.324-4.821,6.242-10.123a34.541,34.541,0,0,0,.379-8.064,1.681,1.681,0,0,1,3.346-.318c.067.7,1.515,17.133-8.616,21.583A1.674,1.674,0,0,1,2261.489,7297.218Z" transform="translate(-2161.882 -7208.718)"/>
    <g id="그룹_31684" data-name="그룹 31684" transform="translate(34.481 55.748)">
      <path id="패스_22484" data-name="패스 22484" d="M1864.083,7235.435a7.452,7.452,0,0,1-1.6.173,6.449,6.449,0,1,1,0-12.861,7.455,7.455,0,0,1,1.824.225" transform="translate(-1853.87 -7221.065)" fill="#ffd8ca"/>
      <path id="패스_22485" data-name="패스 22485" d="M1853.161,7227.969a8.126,8.126,0,1,1,0-16.223,9.143,9.143,0,0,1,2.235.276l-.823,3.259a5.756,5.756,0,0,0-1.412-.174,4.774,4.774,0,1,0,0,9.5,5.787,5.787,0,0,0,1.242-.134l.722,3.283A9.169,9.169,0,0,1,1853.161,7227.969Z" transform="translate(-1844.55 -7211.746)"/>
    </g>
    <g id="그룹_31685" data-name="그룹 31685" transform="translate(101.101 55.748)">
      <path id="패스_22486" data-name="패스 22486" d="M2283.512,7235.435a7.448,7.448,0,0,0,1.6.173,6.449,6.449,0,1,0,0-12.861,7.456,7.456,0,0,0-1.824.225" transform="translate(-2282.88 -7221.065)" fill="#ffd8ca"/>
      <path id="패스_22487" data-name="패스 22487" d="M2282.835,7227.969a9.171,9.171,0,0,1-1.964-.212l.721-3.283a5.789,5.789,0,0,0,1.242.134,4.774,4.774,0,1,0,0-9.5,5.764,5.764,0,0,0-1.413.174l-.822-3.259a9.144,9.144,0,0,1,2.235-.276,8.126,8.126,0,1,1,0,16.223Z" transform="translate(-2280.6 -7211.746)"/>
    </g>
    <path id="패스_22488" data-name="패스 22488" d="M1932.086,7111.994h-3.192A28.526,28.526,0,0,1,1900.4,7083.5v-18.288a1.68,1.68,0,0,1,1.856-1.671l.445.047a1.68,1.68,0,0,1,.563.161,22.38,22.38,0,0,0,9.918,2.286,22.626,22.626,0,0,0,22.082-27.457,1.681,1.681,0,0,1,3.284-.718,26.176,26.176,0,0,1,.237,9.91l.027.052c4.812,9.4,9.434,12.287,12.923,13.754a20.027,20.027,0,0,0,7.166,1.955,1.681,1.681,0,0,1,1.678,1.681V7083.5A28.526,28.526,0,0,1,1932.086,7111.994Zm-28.324-44.357V7083.5a25.16,25.16,0,0,0,25.132,25.132h3.192a25.16,25.16,0,0,0,25.132-25.132v-16.727a27.624,27.624,0,0,1-6.785-2.1c-6.23-2.619-10.159-7.528-12.909-12.2a26.008,26.008,0,0,1-24.342,16.924A25.747,25.747,0,0,1,1903.762,7067.637Z" transform="translate(-1857.387 -7007.559)"/>
    <path id="패스_22489" data-name="패스 22489" d="M2079.147,7301.54h-4.89a1.681,1.681,0,0,1-1.681-1.681v-9.989a1.681,1.681,0,1,1,3.361,0v8.309h3.209a1.681,1.681,0,0,1,0,3.361Z" transform="translate(-2003.258 -7220.762)"/>
    <path id="패스_22490" data-name="패스 22490" d="M1997,7279.912a1.681,1.681,0,0,1-1.681-1.681v-3.247a1.681,1.681,0,0,1,3.361,0v3.247A1.681,1.681,0,0,1,1997,7279.912Z" transform="translate(-1937.805 -7208.151)"/>
    <path id="패스_22491" data-name="패스 22491" d="M2180.255,7279.912a1.681,1.681,0,0,1-1.681-1.681v-3.247a1.681,1.681,0,0,1,3.361,0v3.247A1.68,1.68,0,0,1,2180.255,7279.912Z" transform="translate(-2093.061 -7208.151)"/>
    <path id="패스_22492" data-name="패스 22492" d="M2024.65,7423.192a24.137,24.137,0,0,1-12.031-3.782,1.681,1.681,0,0,1,1.872-2.792c.063.042,4.884,3.212,10.158,3.212,5.348,0,10.981-3.236,11.037-3.269a1.681,1.681,0,0,1,1.692,2.9C2037.119,7419.619,2030.921,7423.192,2024.65,7423.192Z" transform="translate(-1951.831 -7329.329)"/>
    <g id="그룹_31688" data-name="그룹 31688" transform="translate(53.754 106.939)">
      <g id="그룹_31686" data-name="그룹 31686">
        <path id="패스_22493" data-name="패스 22493" d="M1998.941,7566.723l-8.656,11.445-8.587-20.362h7.115Z" transform="translate(-1980.017 -7556.125)" fill="#fff"/>
        <path id="패스_22494" data-name="패스 22494" d="M1980.965,7570.528a1.663,1.663,0,0,1-.208-.013,1.682,1.682,0,0,1-1.34-1.015l-8.587-20.362a1.681,1.681,0,0,1,1.549-2.333h7.115a1.681,1.681,0,0,1,1.11.419l10.128,8.917a1.68,1.68,0,0,1,.23,2.275l-8.656,11.445A1.682,1.682,0,0,1,1980.965,7570.528Zm-6.055-20.362,6.471,15.345,5.958-7.877-8.481-7.467Z" transform="translate(-1970.697 -7546.805)"/>
      </g>
      <g id="그룹_31687" data-name="그룹 31687" transform="translate(17.623)">
        <path id="패스_22495" data-name="패스 22495" d="M2097.046,7566.723l8.656,11.445,8.587-20.362h-7.115Z" transform="translate(-2095.365 -7556.125)" fill="#fff"/>
        <path id="패스_22496" data-name="패스 22496" d="M2096.382,7570.528a1.681,1.681,0,0,1-1.34-.667l-8.656-11.445a1.68,1.68,0,0,1,.23-2.275l10.128-8.917a1.68,1.68,0,0,1,1.11-.419h7.115a1.681,1.681,0,0,1,1.549,2.333l-8.587,20.362a1.684,1.684,0,0,1-1.34,1.015A1.662,1.662,0,0,1,2096.382,7570.528Zm-6.374-12.9,5.958,7.877,6.471-15.345h-3.948Z" transform="translate(-2086.046 -7546.805)"/>
      </g>
    </g>
    <ellipse id="타원_701" data-name="타원 701" cx="29.459" cy="35.43" rx="29.459" ry="35.43" transform="translate(43.755 32.077)" fill="#ffd8ca"/>
    <path id="패스_22497" data-name="패스 22497" d="M2277.257,7303.776l5.806-.943-.854,7.538-2.049,5.948-3.991.376Z" transform="translate(-2175.745 -7233.168)" fill="#636363"/>
    <path id="패스_22498" data-name="패스 22498" d="M1878.263,7302.833h-4.36l-.923,4.537.923,5.453,4.36,5.885h2.357Z" transform="translate(-1834.154 -7233.168)" fill="#636363"/>
    <path id="패스_22499" data-name="패스 22499" d="M1872.979,7070.591l5.034-.548,3.3,1.623,10.94.749,11.144-4.518,9.56-12.417,2.771-.7,8.776,10.738,7.682,2.072,3.485.6,4.377,1.036v-5.248l-6.214-13.609-10.122-5.583-12.323-3.244h-7.273l-17.856,3.708-5.634,7.577-5.926,11.151Z" transform="translate(-1834.154 -7011.797)" fill="#636363"/>
    <path id="패스_22500" data-name="패스 22500" d="M2034.353,6946.762l3.59,4.453,3.185,5.2-1.066,3.412-2.321,3.372-18.007,1.312-3.414-8.876,6.453-8.076" transform="translate(-1955.596 -6931.498)" fill="#636363"/>
    <g id="그룹_31689" data-name="그룹 31689" transform="translate(37.299 106.939)">
      <path id="패스_22708" data-name="패스 22708" d="M24.474,0H47.66C61.177,0,66.72,10.958,66.72,24.474A24.474,24.474,0,0,1,42.246,48.949H24.474A24.474,24.474,0,0,1,0,24.474C0,10.958,2.714.309,24.474,0Z" transform="translate(1.681 1.681)" fill="#00b2ff"/>
      <path id="패스_22501" data-name="패스 22501" d="M1915.511,7599.115h-34.957a17.582,17.582,0,0,1-17.562-17.562v-17.186a17.582,17.582,0,0,1,17.562-17.562h34.957a17.582,17.582,0,0,1,17.562,17.562v17.186A17.582,17.582,0,0,1,1915.511,7599.115Zm-34.957-48.949a14.217,14.217,0,0,0-14.2,14.2v17.186a14.217,14.217,0,0,0,14.2,14.2h34.957a14.217,14.217,0,0,0,14.2-14.2v-17.186a14.217,14.217,0,0,0-14.2-14.2Z" transform="translate(-1862.992 -7546.805)"/>
    </g>
    <path id="패스_22502" data-name="패스 22502" d="M2013.977,6947.253a1.681,1.681,0,0,1-1.544-1.016,13.535,13.535,0,1,1,25.1-.548,1.681,1.681,0,0,1-3.143-1.192,10.174,10.174,0,1,0-18.866.412,1.681,1.681,0,0,1-1.543,2.345Z" transform="translate(-1951.372 -6915.055)"/>
    <g id="그룹_31690" data-name="그룹 31690" transform="translate(61.352 101.673)">
      <path id="패스_22503" data-name="패스 22503" d="M2051.571,7512.89v6.907a8.4,8.4,0,0,1-8.4,8.4h-3.494a8.243,8.243,0,0,1-8.243-8.243v-7.62" transform="translate(-2029.748 -7512.338)" fill="#ffd8ca"/>
      <path id="패스_22504" data-name="패스 22504" d="M2033.847,7529.882h-3.494a9.935,9.935,0,0,1-9.924-9.924v-7.62h3.361v7.62a6.57,6.57,0,0,0,6.563,6.563h3.494a6.731,6.731,0,0,0,6.724-6.724v-6.907h3.361v6.907A10.1,10.1,0,0,1,2033.847,7529.882Z" transform="translate(-2020.429 -7512.338)"/>
    </g>
    <path id="패스_22505" data-name="패스 22505" d="M1864.7,7061.664a1.683,1.683,0,0,1-1.607-2.176l.558-1.812a31.768,31.768,0,0,1,3.709-11.564c3.07-5.641,9.324-12.931,21.676-15.646a43.643,43.643,0,0,1,19.112-.161c12.6,2.785,18.768,10.091,21.724,15.73a29.728,29.728,0,0,1,3.412,11.756,1.681,1.681,0,0,1-3.36.108h0a26.875,26.875,0,0,0-3.1-10.43c-3.829-7.212-10.359-11.883-19.406-13.883a40.858,40.858,0,0,0-17.544.132l-.084.021a30.489,30.489,0,0,0-12.683,5.818,26.736,26.736,0,0,0-6.8,8.16,28.1,28.1,0,0,0-3.325,10.387,1.669,1.669,0,0,1-.071.385l-.611,1.986A1.682,1.682,0,0,1,1864.7,7061.664Z" transform="translate(-1825.717 -7001.45)"/>
    <path id="패스_22506" data-name="패스 22506" d="M1869.392,7297.218a1.672,1.672,0,0,1-.675-.142c-4.277-1.878-7.118-6.271-8.216-12.7a37.38,37.38,0,0,1-.4-8.88,1.68,1.68,0,0,1,3.346.319,34.554,34.554,0,0,0,.379,8.063c.918,5.3,3.018,8.708,6.242,10.123a1.681,1.681,0,0,1-.677,3.22Z" transform="translate(-1823.157 -7208.717)"/>
    <path id="패스_22507" data-name="패스 22507" d="M2261.489,7297.218a1.681,1.681,0,0,1-.677-3.22c3.224-1.415,5.324-4.821,6.242-10.123a34.541,34.541,0,0,0,.379-8.064,1.681,1.681,0,0,1,3.346-.318c.067.7,1.515,17.133-8.616,21.583A1.674,1.674,0,0,1,2261.489,7297.218Z" transform="translate(-2161.882 -7208.718)"/>
    <g id="그룹_31691" data-name="그룹 31691" transform="translate(34.481 55.748)">
      <path id="패스_22508" data-name="패스 22508" d="M1864.083,7235.435a7.452,7.452,0,0,1-1.6.173,6.449,6.449,0,1,1,0-12.861,7.455,7.455,0,0,1,1.824.225" transform="translate(-1853.87 -7221.065)" fill="#ffd8ca"/>
      <path id="패스_22509" data-name="패스 22509" d="M1853.161,7227.969a8.126,8.126,0,1,1,0-16.223,9.143,9.143,0,0,1,2.235.276l-.823,3.259a5.756,5.756,0,0,0-1.412-.174,4.774,4.774,0,1,0,0,9.5,5.787,5.787,0,0,0,1.242-.134l.722,3.283A9.169,9.169,0,0,1,1853.161,7227.969Z" transform="translate(-1844.55 -7211.746)"/>
    </g>
    <g id="그룹_31692" data-name="그룹 31692" transform="translate(101.101 55.748)">
      <path id="패스_22510" data-name="패스 22510" d="M2283.512,7235.435a7.448,7.448,0,0,0,1.6.173,6.449,6.449,0,1,0,0-12.861,7.456,7.456,0,0,0-1.824.225" transform="translate(-2282.88 -7221.065)" fill="#ffd8ca"/>
      <path id="패스_22511" data-name="패스 22511" d="M2282.835,7227.969a9.171,9.171,0,0,1-1.964-.212l.721-3.283a5.789,5.789,0,0,0,1.242.134,4.774,4.774,0,1,0,0-9.5,5.764,5.764,0,0,0-1.413.174l-.822-3.259a9.144,9.144,0,0,1,2.235-.276,8.126,8.126,0,1,1,0,16.223Z" transform="translate(-2280.6 -7211.746)"/>
    </g>
    <path id="패스_22512" data-name="패스 22512" d="M1932.086,7111.994h-3.192A28.526,28.526,0,0,1,1900.4,7083.5v-18.288a1.68,1.68,0,0,1,1.856-1.671l.445.047a1.68,1.68,0,0,1,.563.161,22.38,22.38,0,0,0,9.918,2.286,22.626,22.626,0,0,0,22.082-27.457,1.681,1.681,0,0,1,3.284-.718,26.176,26.176,0,0,1,.237,9.91l.027.052c4.812,9.4,9.434,12.287,12.923,13.754a20.027,20.027,0,0,0,7.166,1.955,1.681,1.681,0,0,1,1.678,1.681V7083.5A28.526,28.526,0,0,1,1932.086,7111.994Zm-28.324-44.357V7083.5a25.16,25.16,0,0,0,25.132,25.132h3.192a25.16,25.16,0,0,0,25.132-25.132v-16.727a27.624,27.624,0,0,1-6.785-2.1c-6.23-2.619-10.159-7.528-12.909-12.2a26.008,26.008,0,0,1-24.342,16.924A25.747,25.747,0,0,1,1903.762,7067.637Z" transform="translate(-1857.387 -7007.559)"/>
    <path id="패스_22513" data-name="패스 22513" d="M2079.147,7301.54h-4.89a1.681,1.681,0,0,1-1.681-1.681v-9.989a1.681,1.681,0,1,1,3.361,0v8.309h3.209a1.681,1.681,0,0,1,0,3.361Z" transform="translate(-2003.258 -7220.762)"/>
    <path id="패스_22514" data-name="패스 22514" d="M1997,7279.912a1.681,1.681,0,0,1-1.681-1.681v-3.247a1.681,1.681,0,0,1,3.361,0v3.247A1.681,1.681,0,0,1,1997,7279.912Z" transform="translate(-1937.805 -7208.151)"/>
    <path id="패스_22515" data-name="패스 22515" d="M2180.255,7279.912a1.681,1.681,0,0,1-1.681-1.681v-3.247a1.681,1.681,0,0,1,3.361,0v3.247A1.68,1.68,0,0,1,2180.255,7279.912Z" transform="translate(-2093.061 -7208.151)"/>
    <path id="패스_22516" data-name="패스 22516" d="M2024.65,7423.192a24.137,24.137,0,0,1-12.031-3.782,1.681,1.681,0,0,1,1.872-2.792c.063.042,4.884,3.212,10.158,3.212,5.348,0,10.981-3.236,11.037-3.269a1.681,1.681,0,0,1,1.692,2.9C2037.119,7419.619,2030.921,7423.192,2024.65,7423.192Z" transform="translate(-1951.831 -7329.329)"/>
    <g id="그룹_31695" data-name="그룹 31695" transform="translate(53.754 106.939)">
      <g id="그룹_31693" data-name="그룹 31693">
        <path id="패스_22517" data-name="패스 22517" d="M1998.941,7566.723l-8.656,11.445-8.587-20.362h7.115Z" transform="translate(-1980.017 -7556.125)" fill="#fff"/>
        <path id="패스_22518" data-name="패스 22518" d="M1980.965,7570.528a1.663,1.663,0,0,1-.208-.013,1.682,1.682,0,0,1-1.34-1.015l-8.587-20.362a1.681,1.681,0,0,1,1.549-2.333h7.115a1.681,1.681,0,0,1,1.11.419l10.128,8.917a1.68,1.68,0,0,1,.23,2.275l-8.656,11.445A1.682,1.682,0,0,1,1980.965,7570.528Zm-6.055-20.362,6.471,15.345,5.958-7.877-8.481-7.467Z" transform="translate(-1970.697 -7546.805)"/>
      </g>
      <g id="그룹_31694" data-name="그룹 31694" transform="translate(17.623)">
        <path id="패스_22519" data-name="패스 22519" d="M2097.046,7566.723l8.656,11.445,8.587-20.362h-7.115Z" transform="translate(-2095.365 -7556.125)" fill="#fff"/>
        <path id="패스_22520" data-name="패스 22520" d="M2096.382,7570.528a1.681,1.681,0,0,1-1.34-.667l-8.656-11.445a1.68,1.68,0,0,1,.23-2.275l10.128-8.917a1.68,1.68,0,0,1,1.11-.419h7.115a1.681,1.681,0,0,1,1.549,2.333l-8.587,20.362a1.684,1.684,0,0,1-1.34,1.015A1.662,1.662,0,0,1,2096.382,7570.528Zm-6.374-12.9,5.958,7.877,6.471-15.345h-3.948Z" transform="translate(-2086.046 -7546.805)"/>
      </g>
    </g>
  </g>
</svg>
