<svg width="50" height="50" viewBox="0 0 50 50" fill="none" xmlns="http://www.w3.org/2000/svg">
<path d="M7.7511 16.3516H15.5185V33.3116H7.7511C7.66068 33.3116 7.57396 33.2759 7.51002 33.2123C7.44608 33.1487 7.41016 33.0624 7.41016 32.9724V16.6908C7.41016 16.6462 7.41898 16.6021 7.43611 16.561C7.45324 16.5198 7.47836 16.4824 7.51002 16.4509C7.54168 16.4194 7.57926 16.3944 7.62063 16.3774C7.66199 16.3603 7.70633 16.3516 7.7511 16.3516V16.3516Z" stroke="black" stroke-width="3" stroke-miterlimit="10"/>
<path d="M15.7656 33.1587L31.2632 39.0115C31.4682 39.1214 31.6983 39.1766 31.931 39.1715C32.1638 39.1665 32.3913 39.1014 32.5912 38.9827C32.7911 38.864 32.9566 38.6957 33.0716 38.4943C33.1865 38.2928 33.2469 38.0651 33.2469 37.8335V11.5239C33.2469 11.2923 33.1865 11.0646 33.0716 10.8631C32.9566 10.6617 32.7911 10.4934 32.5912 10.3747C32.3913 10.256 32.1638 10.1909 31.931 10.1859C31.6983 10.1808 31.4682 10.236 31.2632 10.3459L15.7656 16.1987V33.1587Z" stroke="black" stroke-width="3" stroke-miterlimit="10"/>
<path d="M39.2578 18.7707C40.1167 18.7441 40.9723 18.8895 41.7737 19.1981C42.5751 19.5068 43.3059 19.9725 43.923 20.5675C44.54 21.1626 45.0306 21.875 45.3656 22.6623C45.7006 23.4496 45.8732 24.2958 45.8732 25.1507C45.8732 26.0057 45.7006 26.8519 45.3656 27.6392C45.0306 28.4265 44.54 29.1388 43.923 29.7339C43.3059 30.3289 42.5751 30.7946 41.7737 31.1033C40.9723 31.412 40.1167 31.5573 39.2578 31.5308" stroke="black" stroke-width="3" stroke-miterlimit="10"/>
</svg>
