<svg width="164" height="194" viewBox="0 0 164 194" fill="none" xmlns="http://www.w3.org/2000/svg">
<mask id="mask0_270:3555" style="mask-type:alpha" maskUnits="userSpaceOnUse" x="0" y="0" width="164" height="194">
<path d="M164 0H0V194H164V0Z" fill="white"/>
</mask>
<g mask="url(#mask0_270:3555)">
<path d="M125.796 34.7158H58C49.7157 34.7158 43 41.4315 43 49.7158V145.791C43 154.075 49.7157 160.791 58 160.791H125.796C134.08 160.791 140.796 154.075 140.796 145.791V49.7158C140.796 41.4315 134.08 34.7158 125.796 34.7158Z" fill="white" stroke="#231815" stroke-width="3" stroke-miterlimit="10"/>
<path d="M120.969 44.543H62.826C57.3031 44.543 52.826 49.0201 52.826 54.543V125.437C52.826 130.96 57.3031 135.437 62.826 135.437H120.969C126.492 135.437 130.969 130.96 130.969 125.437V54.543C130.969 49.0201 126.492 44.543 120.969 44.543Z" fill="#4AC6FD" stroke="#231815" stroke-width="3" stroke-miterlimit="10"/>
<path d="M72.218 59.4798V62.3938L70.182 64.3258H67.982V62.8008L71.405 59.4798H72.218ZM75.982 56.3628V67.4778L75.236 68.2228L73.167 66.1558V57.7178L75.234 55.7178L75.982 56.3628ZM75.234 81.3368L73.167 79.3368V70.8998L75.234 68.7998L75.98 69.5458V80.6928L75.234 81.3368ZM80.114 56.0918L82.181 58.0918V66.1568L80.114 68.2238L79.368 67.4788V56.7358L80.114 56.0918ZM94.177 56.3918V67.4728L93.431 68.2178L91.364 66.1508V57.7508L93.431 55.7508L94.177 56.3918ZM93.431 81.3318L91.364 79.3318V70.8998L93.431 68.7998L94.177 69.5458V80.6928L93.431 81.3318ZM92.516 68.5228L91.126 69.8838H82.452L81.029 68.5288L82.452 67.1398H91.127L92.516 68.5228ZM98.344 56.6698L100.411 58.6698V66.1588L98.344 68.2258L97.598 67.4808V57.3118L98.344 56.6698ZM97.565 81.0318L99.7 78.9988H108.917L111.082 81.0318L110.37 81.6758H98.243L97.565 81.0318ZM111.665 80.4558L109.598 78.4558V70.8998L111.665 68.7998L112.411 69.5458V79.8118L111.665 80.4558ZM99.632 55.4478H111.357L112.069 56.0918L109.9 58.1248H101.09L98.955 56.0918L99.632 55.4478ZM100.649 67.1388H109.324L110.747 68.5278L109.324 69.8838H100.649L99.26 68.5288L100.649 67.1388Z" fill="black"/>
<path d="M75.007 94.6619L77.074 96.6619V104.151L75.007 106.215L74.261 105.47V95.3039L75.007 94.6619ZM89.07 95.3059V105.472L88.324 106.217L86.261 104.148V96.6619L88.328 94.6619L89.07 95.3059ZM87.036 119.668H76.294L75.582 119.024L77.751 116.991H85.579L87.714 119.024L87.036 119.668ZM74.261 117.804V107.537L75.007 106.791L77.074 108.891V116.449L75.007 118.449L74.261 117.804ZM88.324 118.448L86.257 116.448V108.892L88.324 106.792L89.07 107.538V117.804L88.324 118.448ZM87.714 94.0839L85.579 96.1169H77.751L75.583 94.0839L76.295 93.4399H87.036L87.714 94.0839ZM87.414 106.52L86.02 107.876H77.345L75.921 106.52L77.344 105.131H86.019L87.414 106.52ZM106.928 95.3039V105.47L106.183 106.215L104.116 104.148V96.6619L106.183 94.6619L106.928 95.3039ZM106.284 119.668H94.491L93.779 119.024L95.948 116.991H104.826L106.961 119.024L106.284 119.668ZM92.461 117.804V107.537L93.207 106.791L95.274 108.891V116.449L93.207 118.449L92.461 117.804ZM105.572 94.0839L103.437 96.1169H94.961L92.792 94.0839L93.504 93.4399H104.894L105.572 94.0839ZM105.272 106.52L103.878 107.876H95.542L94.119 106.521L95.542 105.132H103.878L105.272 106.52Z" fill="black"/>
</g>
</svg>
