<svg xmlns="http://www.w3.org/2000/svg" width="60" height="60" viewBox="0 0 60 60">
  <g id="icn_inform_04" transform="translate(-50 -1194)">
    <g id="그룹_22076" data-name="그룹 22076" transform="translate(443.119 372.057)">
      <path id="사각형_3335" data-name="사각형 3335" d="M1.563,0h12.8a1.563,1.563,0,0,1,1.563,1.563v4.03a0,0,0,0,1,0,0H0a0,0,0,0,1,0,0V1.563A1.563,1.563,0,0,1,1.563,0Z" transform="translate(-371.083 830.504)" fill="none" stroke="#4ac6ff" stroke-width="3"/>
      <path id="패스_15984" data-name="패스 15984" d="M-351,832.067h1.606a2.121,2.121,0,0,1,2.121,2.121v34.905a2.121,2.121,0,0,1-2.121,2.121h-27.447a2.123,2.123,0,0,1-2.123-2.121V834.188a2.123,2.123,0,0,1,2.123-2.121h1.606" transform="translate(0 2.166)" fill="none" stroke="#000" stroke-width="3"/>
    </g>
    <rect id="사각형_3336" data-name="사각형 3336" width="60" height="60" transform="translate(50 1194)" fill="none"/>
  </g>
</svg>
