<svg id="icn_profile_09" xmlns="http://www.w3.org/2000/svg" xmlns:xlink="http://www.w3.org/1999/xlink" width="142" height="142" viewBox="0 0 142 142">
  <defs>
    <clipPath id="clip-path">
      <path id="패스_22715" data-name="패스 22715" d="M71,0A71,71,0,1,1,0,71,71,71,0,0,1,71,0Z" fill="none"/>
    </clipPath>
  </defs>
  <g id="마스크_그룹_46" data-name="마스크 그룹 46" transform="translate(0)" clip-path="url(#clip-path)">
    <path id="패스_22716" data-name="패스 22716" d="M71,0A71,71,0,1,1,0,71,71,71,0,0,1,71,0Z" fill="#f5f5f5"/>
    <g id="패스_22717" data-name="패스 22717" transform="translate(41.061 103)" fill="#fff">
      <path d="M 53 48.5 L 14 48.5 C 10.39402008056641 48.5 7.003870010375977 47.09576034545898 4.454060077667236 44.54594039916992 C 1.904240012168884 41.99613189697266 0.5 38.60597991943359 0.5 35 L 0.5 14 C 0.5 10.39402008056641 1.904240012168884 7.003870010375977 4.454060077667236 4.454060077667236 C 7.003870010375977 1.904240012168884 10.39402008056641 0.5 14 0.5 L 53 0.5 C 56.60597991943359 0.5 59.99613189697266 1.904240012168884 62.54594039916992 4.454060077667236 C 65.09575653076172 7.003870010375977 66.5 10.39402008056641 66.5 14 L 66.5 35 C 66.5 38.60597991943359 65.09575653076172 41.99613189697266 62.54594039916992 44.54594039916992 C 59.99613189697266 47.09576034545898 56.60597991943359 48.5 53 48.5 Z" stroke="none"/>
      <path d="M 14 1 C 10.52756881713867 1 7.262989044189453 2.352241516113281 4.807609558105469 4.807609558105469 C 2.352241516113281 7.262989044189453 1 10.52756881713867 1 14 L 1 35 C 1 38.47243118286133 2.352241516113281 41.73701095581055 4.807609558105469 44.19239044189453 C 7.262989044189453 46.64775848388672 10.52756881713867 48 14 48 L 53 48 C 56.47243118286133 48 59.73701095581055 46.64775848388672 62.19239044189453 44.19239044189453 C 64.64775848388672 41.73701095581055 66 38.47243118286133 66 35 L 66 14 C 66 10.52756881713867 64.64775848388672 7.262989044189453 62.19239044189453 4.807609558105469 C 59.73701095581055 2.352241516113281 56.47243118286133 1 53 1 L 14 1 M 14 0 L 53 0 C 60.73199081420898 0 67 6.268009185791016 67 14 L 67 35 C 67 42.73199081420898 60.73199081420898 49 53 49 L 14 49 C 6.268009185791016 49 0 42.73199081420898 0 35 L 0 14 C 0 6.268009185791016 6.268009185791016 0 14 0 Z" stroke="none" fill="#707070"/>
    </g>
    <path id="패스_22369" data-name="패스 22369" d="M3755.787,7559.785h-34.958a17.659,17.659,0,0,1-17.638-17.639V7524.96a17.658,17.658,0,0,1,17.638-17.638h34.958a17.658,17.658,0,0,1,17.638,17.638v17.186A17.659,17.659,0,0,1,3755.787,7559.785Zm-34.958-48.949a14.14,14.14,0,0,0-14.124,14.125v17.186a14.14,14.14,0,0,0,14.124,14.124h34.958a14.14,14.14,0,0,0,14.125-14.124V7524.96a14.14,14.14,0,0,0-14.125-14.125Z" transform="translate(-3663.738 -7406.416)"/>
    <g id="그룹_31658" data-name="그룹 31658" transform="translate(57.243 100.906)">
      <path id="패스_22370" data-name="패스 22370" d="M3831.134,7518.822c0,7.868,7.127,13.8,15.57,13.8s15-5.933,15-13.8Z" transform="translate(-3829.377 -7517.065)" fill="#00b2ff"/>
      <path id="패스_22371" data-name="패스 22371" d="M3836.961,7524.638a18.386,18.386,0,0,1-12.1-4.381,14.68,14.68,0,0,1-5.223-11.177,1.756,1.756,0,0,1,1.757-1.757h30.572a1.757,1.757,0,0,1,1.757,1.757,14.944,14.944,0,0,1-4.906,11.147A17.438,17.438,0,0,1,3836.961,7524.638Zm-13.671-13.8a11.379,11.379,0,0,0,3.874,6.769,14.874,14.874,0,0,0,9.8,3.519c6.892,0,12.238-4.314,13.118-10.288Z" transform="translate(-3819.634 -7507.322)"/>
    </g>
    <path id="패스_22372" data-name="패스 22372" d="M4116.137,7311.819l4.242,9.258v8.444l-1.753,6.321.443,5.473-5.61-.187-6.305-5.285-1.876-8.394.552-5.647,2.977-7.749,4.652-4.586Z" transform="translate(-4004.393 -7238.788)" fill="#636363"/>
    <path id="패스_22373" data-name="패스 22373" d="M3656.921,7315.112l-5.046,8.069-.7,9.05,1.836,8.394-.093,2.628L3650,7346.9l5.182.1,5.9-2.542,4.733-7.245v-10.607l-3.572-9.027Z" transform="translate(-3618.671 -7243.572)" fill="#636363"/>
    <path id="패스_22374" data-name="패스 22374" d="M3644.27,7318.828c-.579,0-1.056-.023-1.4-.049a1.909,1.909,0,0,1-.781-3.577c2.866-1.576,1.213-6.324,1.2-6.372l-.023-.068c-1.865-5.937-2.978-14.554,2.308-21.887a20.1,20.1,0,0,1,7.358-6.3l1.768-.784,4.991,14.961.021.1c1.774,8.406.831,14.781-2.8,18.945C3653.066,7318.189,3647.291,7318.828,3644.27,7318.828Zm2.336-11.146a13.525,13.525,0,0,1,.68,3.9,8.552,8.552,0,0,1-.661,3.587,11.976,11.976,0,0,0,7.631-3.687c2.857-3.273,3.541-8.593,2.034-15.812l-3.629-10.879a17.5,17.5,0,0,0-4.333,4.268C3644.854,7293.977,3644.275,7300.241,3646.606,7307.682Z" transform="translate(-3611.132 -7213.645)"/>
    <path id="패스_22375" data-name="패스 22375" d="M4110.089,7318.828c-3.021,0-8.8-.638-12.634-5.034-3.635-4.165-4.578-10.539-2.8-18.945l.021-.1.032-.095,4.959-14.866,1.768.784a20.1,20.1,0,0,1,7.358,6.3c5.286,7.333,4.173,15.949,2.308,21.887l-.025.074c-.015.042-1.667,4.79,1.2,6.366a1.909,1.909,0,0,1-.78,3.577C4111.146,7318.8,4110.667,7318.828,4110.089,7318.828Zm-12.02-23.157c-1.508,7.219-.824,12.539,2.033,15.812a11.974,11.974,0,0,0,7.631,3.687,8.556,8.556,0,0,1-.661-3.587,13.511,13.511,0,0,1,.681-3.9c2.331-7.44,1.751-13.7-1.722-18.622a17.508,17.508,0,0,0-4.333-4.268Z" transform="translate(-3994.654 -7213.645)"/>
    <circle id="타원_688" data-name="타원 688" cx="6.205" cy="6.205" r="6.205" transform="translate(36.098 59.143)" fill="#ffd8ca"/>
    <circle id="타원_689" data-name="타원 689" cx="6.205" cy="6.205" r="6.205" transform="translate(99.207 59.143)" fill="#ffd8ca"/>
    <path id="패스_22376" data-name="패스 22376" d="M3673.173,7238.408a7.435,7.435,0,0,1-5.87-3.316,10.914,10.914,0,0,1-2.2-6.281,8.069,8.069,0,1,1,16.138,0C3681.242,7233.249,3677.718,7238.408,3673.173,7238.408Zm0-14.152a4.561,4.561,0,0,0-4.555,4.556c0,2.656,2.209,6.083,4.555,6.083s4.555-3.427,4.555-6.083A4.561,4.561,0,0,0,3673.173,7224.256Z" transform="translate(-3631.47 -7163.62)"/>
    <path id="패스_22377" data-name="패스 22377" d="M4095.173,7238.408a7.435,7.435,0,0,1-5.87-3.316,10.914,10.914,0,0,1-2.2-6.281,8.069,8.069,0,1,1,16.138,0C4103.242,7233.249,4099.718,7238.408,4095.173,7238.408Zm0-14.152a4.561,4.561,0,0,0-4.555,4.556c0,2.656,2.209,6.083,4.555,6.083s4.555-3.427,4.555-6.083A4.561,4.561,0,0,0,4095.173,7224.256Z" transform="translate(-3988.997 -7163.62)"/>
    <circle id="타원_690" data-name="타원 690" cx="31.913" cy="31.913" r="31.913" transform="translate(42.024 32.976)" fill="#ffd8ca"/>
    <g id="그룹_31659" data-name="그룹 31659" transform="translate(62.608 96.802)">
      <path id="패스_22378" data-name="패스 22378" d="M3886.394,7480.455V7486a8.4,8.4,0,0,1-8.4,8.4H3874.5a8.243,8.243,0,0,1-8.243-8.243v-5.7" transform="translate(-3864.495 -7480.455)" fill="#ffd8ca"/>
      <path id="패스_22379" data-name="패스 22379" d="M3868.246,7496.159h-3.494a10.012,10.012,0,0,1-10-10v-5.7h3.514v5.7a6.494,6.494,0,0,0,6.486,6.486h3.494a6.655,6.655,0,0,0,6.647-6.647v-5.541h3.514V7486A10.173,10.173,0,0,1,3868.246,7496.159Z" transform="translate(-3854.752 -7480.456)"/>
    </g>
    <path id="패스_22380" data-name="패스 22380" d="M3914.52,7282.128h-6.646v-9.175a1.757,1.757,0,1,1,3.514,0v5.661h3.133a1.757,1.757,0,1,1,0,3.514Z" transform="translate(-3837.149 -7206.365)"/>
    <path id="패스_22381" data-name="패스 22381" d="M3919.373,7282.695" transform="translate(-3846.892 -7216.107)" fill="none" stroke="#000" stroke-linecap="round" stroke-width="23"/>
    <path id="패스_22382" data-name="패스 22382" d="M3919.373,7242.865" transform="translate(-3846.892 -7182.362)" fill="none" stroke="#000" stroke-linecap="round" stroke-width="23"/>
    <path id="패스_22383" data-name="패스 22383" d="M3829.158,7280.068a1.757,1.757,0,0,1-1.757-1.757v-3.247a1.757,1.757,0,0,1,3.514,0v3.247A1.757,1.757,0,0,1,3829.158,7280.068Z" transform="translate(-3768.971 -7208.154)"/>
    <path id="패스_22384" data-name="패스 22384" d="M4012.413,7280.068a1.757,1.757,0,0,1-1.757-1.757v-3.247a1.757,1.757,0,0,1,3.514,0v3.247A1.757,1.757,0,0,1,4012.413,7280.068Z" transform="translate(-3924.229 -7208.154)"/>
    <g id="그룹_31660" data-name="그룹 31660" transform="translate(69.243 80.532)">
      <circle id="타원_691" data-name="타원 691" cx="3.185" cy="3.185" r="3.185" transform="translate(1.757 1.757)" fill="#da2700"/>
      <path id="패스_22385" data-name="패스 22385" d="M3903.122,7383.851a4.942,4.942,0,1,1,4.942-4.942A4.947,4.947,0,0,1,3903.122,7383.851Zm0-6.371a1.429,1.429,0,1,0,1.429,1.429A1.43,1.43,0,0,0,3903.122,7377.479Z" transform="translate(-3898.18 -7373.966)"/>
    </g>
    <path id="패스_22386" data-name="패스 22386" d="M3712.792,7140.024h-.045a1.757,1.757,0,0,1-1.712-1.8,32.488,32.488,0,0,1,8.436-21.335,1.757,1.757,0,0,1,2.465,2.5,29.488,29.488,0,0,0-7.388,18.919A1.757,1.757,0,0,1,3712.792,7140.024Z" transform="translate(-3670.384 -7075.205)"/>
    <path id="패스_22387" data-name="패스 22387" d="M3699.646,7060.053l.447,1.485,4.87.017,10.2.258,2.227-3.058,3.168,4.25h23.1l3.2-2.125,1.3,2.125h3l2.451-3.038,2.044,3.038h12.691l2.948-.553-4.222-12.6-8.264-9.084-9.142-5.646-11.258-2.961h-9.771l-9.193,3.566-8.088,5.281-5.2,5.5Z" transform="translate(-3660.735 -7003.849)" fill="#636363"/>
    <path id="패스_22388" data-name="패스 22388" d="M3757.042,7057.71a1.757,1.757,0,0,1-1.739-1.524,34.866,34.866,0,0,0-68.891-1.359,1.757,1.757,0,1,1-3.462-.6,38.379,38.379,0,0,1,75.835,1.5,1.757,1.757,0,0,1-1.509,1.974A1.738,1.738,0,0,1,3757.042,7057.71Z" transform="translate(-3646.568 -6995.646)"/>
    <path id="패스_22389" data-name="패스 22389" d="M4125.734,7227.879h-5.453a1.757,1.757,0,0,1,0-3.514h5.453a1.757,1.757,0,0,1,0,3.514Z" transform="translate(-4015.617 -7166.689)"/>
    <path id="패스_22390" data-name="패스 22390" d="M3744.176,7233.5a33.794,33.794,0,0,1-33.61-33.606,34.011,34.011,0,0,1,.365-4.969,3.022,3.022,0,0,1,2.976-2.559h8.532l2.374-4.72a1.91,1.91,0,0,1,3.412,0l2.374,4.719h20.994l1.531-2.7a1.91,1.91,0,0,1,3.292-.053l1.682,2.756h.772l1.571-4.41a1.918,1.918,0,0,1,1.764-1.269h.034a1.919,1.919,0,0,1,1.775,1.2l1.782,4.474h9.375a1.994,1.994,0,0,1,2.094,1.642,33.923,33.923,0,0,1,.514,5.887,33.606,33.606,0,0,1-33.085,33.6C3744.521,7233.495,3744.348,7233.5,3744.176,7233.5Zm-29.832-37.621a30.584,30.584,0,0,0-.265,4.015,30.092,30.092,0,0,0,60.184,0,30.435,30.435,0,0,0-.266-4.015h-10.586l-1.09-2.736-.975,2.736h-5.222l-1.289-2.112-1.2,2.112h-25.208l-1.914-3.8-1.914,3.8Zm-.438,0h0Z" transform="translate(-3669.987 -7134.685)"/>
    <path id="패스_22391" data-name="패스 22391" d="M3755.787,7559.785h-34.958a17.659,17.659,0,0,1-17.638-17.639V7524.96a17.658,17.658,0,0,1,17.638-17.638h34.958a17.658,17.658,0,0,1,17.638,17.638v17.186A17.659,17.659,0,0,1,3755.787,7559.785Zm-34.958-48.949a14.14,14.14,0,0,0-14.124,14.125v17.186a14.14,14.14,0,0,0,14.124,14.124h34.958a14.14,14.14,0,0,0,14.125-14.124V7524.96a14.14,14.14,0,0,0-14.125-14.125Z" transform="translate(-3663.738 -7406.416)"/>
    <g id="그룹_31661" data-name="그룹 31661" transform="translate(57.243 100.906)">
      <path id="패스_22392" data-name="패스 22392" d="M3831.134,7518.822c0,7.868,7.127,13.8,15.57,13.8s15-5.933,15-13.8Z" transform="translate(-3829.377 -7517.065)" fill="#00b2ff"/>
      <path id="패스_22393" data-name="패스 22393" d="M3836.961,7524.638a18.386,18.386,0,0,1-12.1-4.381,14.68,14.68,0,0,1-5.223-11.177,1.756,1.756,0,0,1,1.757-1.757h30.572a1.757,1.757,0,0,1,1.757,1.757,14.944,14.944,0,0,1-4.906,11.147A17.438,17.438,0,0,1,3836.961,7524.638Zm-13.671-13.8a11.379,11.379,0,0,0,3.874,6.769,14.874,14.874,0,0,0,9.8,3.519c6.892,0,12.238-4.314,13.118-10.288Z" transform="translate(-3819.634 -7507.322)"/>
    </g>
    <path id="패스_22394" data-name="패스 22394" d="M4116.137,7311.819l4.242,9.258v8.444l-1.753,6.321.443,5.473-5.61-.187-6.305-5.285-1.876-8.394.552-5.647,2.977-7.749,4.652-4.586Z" transform="translate(-4004.393 -7238.788)" fill="#636363"/>
    <path id="패스_22395" data-name="패스 22395" d="M3656.921,7315.112l-5.046,8.069-.7,9.05,1.836,8.394-.093,2.628L3650,7346.9l5.182.1,5.9-2.542,4.733-7.245v-10.607l-3.572-9.027Z" transform="translate(-3618.671 -7243.572)" fill="#636363"/>
    <path id="패스_22396" data-name="패스 22396" d="M3644.27,7318.828c-.579,0-1.056-.023-1.4-.049a1.909,1.909,0,0,1-.781-3.577c2.866-1.576,1.213-6.324,1.2-6.372l-.023-.068c-1.865-5.937-2.978-14.554,2.308-21.887a20.1,20.1,0,0,1,7.358-6.3l1.768-.784,4.991,14.961.021.1c1.774,8.406.831,14.781-2.8,18.945C3653.066,7318.189,3647.291,7318.828,3644.27,7318.828Zm2.336-11.146a13.525,13.525,0,0,1,.68,3.9,8.552,8.552,0,0,1-.661,3.587,11.976,11.976,0,0,0,7.631-3.687c2.857-3.273,3.541-8.593,2.034-15.812l-3.629-10.879a17.5,17.5,0,0,0-4.333,4.268C3644.854,7293.977,3644.275,7300.241,3646.606,7307.682Z" transform="translate(-3611.132 -7213.645)"/>
    <path id="패스_22397" data-name="패스 22397" d="M4110.089,7318.828c-3.021,0-8.8-.638-12.634-5.034-3.635-4.165-4.578-10.539-2.8-18.945l.021-.1.032-.095,4.959-14.866,1.768.784a20.1,20.1,0,0,1,7.358,6.3c5.286,7.333,4.173,15.949,2.308,21.887l-.025.074c-.015.042-1.667,4.79,1.2,6.366a1.909,1.909,0,0,1-.78,3.577C4111.146,7318.8,4110.667,7318.828,4110.089,7318.828Zm-12.02-23.157c-1.508,7.219-.824,12.539,2.033,15.812a11.974,11.974,0,0,0,7.631,3.687,8.556,8.556,0,0,1-.661-3.587,13.511,13.511,0,0,1,.681-3.9c2.331-7.44,1.751-13.7-1.722-18.622a17.508,17.508,0,0,0-4.333-4.268Z" transform="translate(-3994.654 -7213.645)"/>
    <circle id="타원_692" data-name="타원 692" cx="6.205" cy="6.205" r="6.205" transform="translate(36.098 59.143)" fill="#ffd8ca"/>
    <circle id="타원_693" data-name="타원 693" cx="6.205" cy="6.205" r="6.205" transform="translate(99.207 59.143)" fill="#ffd8ca"/>
    <path id="패스_22398" data-name="패스 22398" d="M3673.173,7238.408a7.435,7.435,0,0,1-5.87-3.316,10.914,10.914,0,0,1-2.2-6.281,8.069,8.069,0,1,1,16.138,0C3681.242,7233.249,3677.718,7238.408,3673.173,7238.408Zm0-14.152a4.561,4.561,0,0,0-4.555,4.556c0,2.656,2.209,6.083,4.555,6.083s4.555-3.427,4.555-6.083A4.561,4.561,0,0,0,3673.173,7224.256Z" transform="translate(-3631.47 -7163.62)"/>
    <path id="패스_22399" data-name="패스 22399" d="M4095.173,7238.408a7.435,7.435,0,0,1-5.87-3.316,10.914,10.914,0,0,1-2.2-6.281,8.069,8.069,0,1,1,16.138,0C4103.242,7233.249,4099.718,7238.408,4095.173,7238.408Zm0-14.152a4.561,4.561,0,0,0-4.555,4.556c0,2.656,2.209,6.083,4.555,6.083s4.555-3.427,4.555-6.083A4.561,4.561,0,0,0,4095.173,7224.256Z" transform="translate(-3988.997 -7163.62)"/>
    <circle id="타원_694" data-name="타원 694" cx="31.913" cy="31.913" r="31.913" transform="translate(42.024 32.976)" fill="#ffd8ca"/>
    <g id="그룹_31662" data-name="그룹 31662" transform="translate(62.608 96.802)">
      <path id="패스_22400" data-name="패스 22400" d="M3886.394,7480.455V7486a8.4,8.4,0,0,1-8.4,8.4H3874.5a8.243,8.243,0,0,1-8.243-8.243v-5.7" transform="translate(-3864.495 -7480.455)" fill="#ffd8ca"/>
      <path id="패스_22401" data-name="패스 22401" d="M3868.246,7496.159h-3.494a10.012,10.012,0,0,1-10-10v-5.7h3.514v5.7a6.494,6.494,0,0,0,6.486,6.486h3.494a6.655,6.655,0,0,0,6.647-6.647v-5.541h3.514V7486A10.173,10.173,0,0,1,3868.246,7496.159Z" transform="translate(-3854.752 -7480.456)"/>
    </g>
    <path id="패스_22402" data-name="패스 22402" d="M3914.52,7282.128h-6.646v-9.175a1.757,1.757,0,1,1,3.514,0v5.661h3.133a1.757,1.757,0,1,1,0,3.514Z" transform="translate(-3837.149 -7206.365)"/>
    <path id="패스_22403" data-name="패스 22403" d="M3919.373,7282.695" transform="translate(-3846.892 -7216.107)" fill="none" stroke="#000" stroke-linecap="round" stroke-width="23"/>
    <path id="패스_22404" data-name="패스 22404" d="M3919.373,7242.865" transform="translate(-3846.892 -7182.362)" fill="none" stroke="#000" stroke-linecap="round" stroke-width="23"/>
    <path id="패스_22405" data-name="패스 22405" d="M3829.158,7280.068a1.757,1.757,0,0,1-1.757-1.757v-3.247a1.757,1.757,0,0,1,3.514,0v3.247A1.757,1.757,0,0,1,3829.158,7280.068Z" transform="translate(-3768.971 -7208.154)"/>
    <path id="패스_22406" data-name="패스 22406" d="M4012.413,7280.068a1.757,1.757,0,0,1-1.757-1.757v-3.247a1.757,1.757,0,0,1,3.514,0v3.247A1.757,1.757,0,0,1,4012.413,7280.068Z" transform="translate(-3924.229 -7208.154)"/>
    <g id="그룹_31663" data-name="그룹 31663" transform="translate(69.243 80.532)">
      <circle id="타원_695" data-name="타원 695" cx="3.185" cy="3.185" r="3.185" transform="translate(1.757 1.757)" fill="#da2700"/>
      <path id="패스_22407" data-name="패스 22407" d="M3903.122,7383.851a4.942,4.942,0,1,1,4.942-4.942A4.947,4.947,0,0,1,3903.122,7383.851Zm0-6.371a1.429,1.429,0,1,0,1.429,1.429A1.43,1.43,0,0,0,3903.122,7377.479Z" transform="translate(-3898.18 -7373.966)"/>
    </g>
    <path id="패스_22408" data-name="패스 22408" d="M3712.792,7140.024h-.045a1.757,1.757,0,0,1-1.712-1.8,32.488,32.488,0,0,1,8.436-21.335,1.757,1.757,0,0,1,2.465,2.5,29.488,29.488,0,0,0-7.388,18.919A1.757,1.757,0,0,1,3712.792,7140.024Z" transform="translate(-3670.384 -7075.205)"/>
    <path id="패스_22409" data-name="패스 22409" d="M3699.646,7060.053l.447,1.485,4.87.017,10.2.258,2.227-3.058,3.168,4.25h23.1l3.2-2.125,1.3,2.125h3l2.451-3.038,2.044,3.038h12.691l2.948-.553-4.222-12.6-8.264-9.084-9.142-5.646-11.258-2.961h-9.771l-9.193,3.566-8.088,5.281-5.2,5.5Z" transform="translate(-3660.735 -7003.849)" fill="#636363"/>
    <path id="패스_22410" data-name="패스 22410" d="M3757.042,7057.71a1.757,1.757,0,0,1-1.739-1.524,34.866,34.866,0,0,0-68.891-1.359,1.757,1.757,0,1,1-3.462-.6,38.379,38.379,0,0,1,75.835,1.5,1.757,1.757,0,0,1-1.509,1.974A1.738,1.738,0,0,1,3757.042,7057.71Z" transform="translate(-3646.568 -6995.646)"/>
    <path id="패스_22411" data-name="패스 22411" d="M4125.734,7227.879h-5.453a1.757,1.757,0,0,1,0-3.514h5.453a1.757,1.757,0,0,1,0,3.514Z" transform="translate(-4015.617 -7166.689)"/>
    <path id="패스_22412" data-name="패스 22412" d="M3744.176,7233.5a33.794,33.794,0,0,1-33.61-33.606,34.011,34.011,0,0,1,.365-4.969,3.022,3.022,0,0,1,2.976-2.559h8.532l2.374-4.72a1.91,1.91,0,0,1,3.412,0l2.374,4.719h20.994l1.531-2.7a1.91,1.91,0,0,1,3.292-.053l1.682,2.756h.772l1.571-4.41a1.918,1.918,0,0,1,1.764-1.269h.034a1.919,1.919,0,0,1,1.775,1.2l1.782,4.474h9.375a1.994,1.994,0,0,1,2.094,1.642,33.923,33.923,0,0,1,.514,5.887,33.606,33.606,0,0,1-33.085,33.6C3744.521,7233.495,3744.348,7233.5,3744.176,7233.5Zm-29.832-37.621a30.584,30.584,0,0,0-.265,4.015,30.092,30.092,0,0,0,60.184,0,30.435,30.435,0,0,0-.266-4.015h-10.586l-1.09-2.736-.975,2.736h-5.222l-1.289-2.112-1.2,2.112h-25.208l-1.914-3.8-1.914,3.8Zm-.438,0h0Z" transform="translate(-3669.987 -7134.685)"/>
  </g>
</svg>
