<svg width="164" height="194" viewBox="0 0 164 194" fill="none" xmlns="http://www.w3.org/2000/svg">
<path d="M143.584 54.3179L114.108 56.8323L99.8234 97.851L96.3948 118.597L67.4134 136.393L28.2565 134.293C30.536 142.006 39.9387 156.629 63.7314 159.108C63.8765 159.123 60.8252 174.538 63.6405 177.535C66.7451 180.838 81.9195 184.52 98.3252 176.479C109.757 170.876 105.199 159.855 107.202 146.09C107.202 146.09 122.017 133.282 122.263 117.463C122.263 117.463 137.068 111.668 140.755 84.7627C144.192 59.6923 143.584 54.3179 143.584 54.3179Z" fill="white" stroke="black" stroke-width="3" stroke-miterlimit="10"/>
<path d="M119.685 58.8556C123.167 60.1061 128.597 60.3584 138.282 56.5652C146.482 53.3533 146.771 50.4935 147.02 45.8773C147.332 40.0647 145.086 37.4109 130.626 34.3799C121.564 32.4795 107.42 29.375 97.1529 28.3218L119.685 58.8556Z" fill="white" stroke="black" stroke-width="3" stroke-miterlimit="10"/>
<path d="M116.581 49.0351C119.107 49.9413 124.187 51.7539 133.087 48.9385C140.046 46.7353 146.6 44.1868 146.702 42.3057" fill="white"/>
<path d="M116.581 49.0351C119.107 49.9413 124.187 51.7539 133.087 48.9385C140.046 46.7353 146.6 44.1868 146.702 42.3057" stroke="black" stroke-width="3" stroke-miterlimit="10"/>
<path d="M105.623 104.459C110.147 105.778 118.474 97.7206 122.894 84.7289C127.314 71.7372 127.965 49.0345 113.706 33.4586C101.176 19.7764 78.051 20.6554 66.7876 37.9441C62.0631 45.1977 60.3841 54.3856 60.8058 63.6044C61.5099 79.0266 68.603 94.0067 76.9678 96.7292L105.623 104.459Z" fill="white" stroke="black" stroke-width="3" stroke-miterlimit="10"/>
<path d="M23.1201 123.109C24.9915 137.591 44.2909 147.816 69.7897 145.902C97.4936 143.825 112.188 133.441 111.617 118.956C111.094 105.655 99.5672 97.0156 67.1988 96.6693C39.5993 96.3947 21.3357 109.301 23.1201 123.109Z" fill="white" stroke="black" stroke-width="3" stroke-miterlimit="10"/>
<path d="M67.1975 130.226C81.0895 130.226 92.3511 125.181 92.3511 118.957C92.3511 112.733 81.0895 107.688 67.1975 107.688C53.3056 107.688 42.044 112.733 42.044 118.957C42.044 125.181 53.3056 130.226 67.1975 130.226Z" fill="white" stroke="black" stroke-width="3" stroke-miterlimit="10"/>
<path d="M70.9395 117.547C79.0539 117.547 86.7929 119.955 90.41 122.856C86.348 127.242 79.2724 130.226 68.6396 130.226C60.5252 130.226 52.672 129.176 49.0549 126.276C50.6981 121.848 60.3077 117.547 70.9395 117.547Z" fill="#66BEE7" stroke="black" stroke-width="3" stroke-miterlimit="10"/>
<path d="M82.7398 158.723C82.7398 158.723 73.9147 160.729 60.7305 158.723H82.7398Z" fill="white"/>
<path d="M82.7398 158.723C82.7398 158.723 73.9147 160.729 60.7305 158.723" stroke="black" stroke-width="3" stroke-miterlimit="10" stroke-linecap="round"/>
</svg>
