<svg width="164" height="194" viewBox="0 0 164 194" fill="none" xmlns="http://www.w3.org/2000/svg">
<mask id="mask0_270:3577" style="mask-type:alpha" maskUnits="userSpaceOnUse" x="0" y="0" width="164" height="194">
<path d="M164 0H0V194H164V0Z" fill="white"/>
</mask>
<g mask="url(#mask0_270:3577)">
<path d="M122.529 41.584H61C53.268 41.584 47 47.852 47 55.584V143C47 150.732 53.268 157 61 157H122.529C130.261 157 136.529 150.732 136.529 143V55.584C136.529 47.852 130.261 41.584 122.529 41.584Z" fill="white" stroke="#231815" stroke-width="3" stroke-miterlimit="10"/>
<path d="M65.075 53.6763H117.543C118.406 53.6899 119.258 53.8735 120.05 54.2165C120.842 54.5594 121.559 55.0551 122.16 55.6751C122.761 56.2951 123.233 57.0274 123.551 57.8301C123.868 58.6328 124.025 59.4901 124.011 60.3533V107.953C124.039 109.696 123.374 111.378 122.161 112.63C120.949 113.882 119.289 114.602 117.547 114.63H65.075C63.3324 114.602 61.6725 113.882 60.4603 112.63C59.2481 111.377 58.5829 109.695 58.611 107.952V60.3533C58.5832 58.6108 59.2485 56.9286 60.4607 55.6765C61.6728 54.4244 63.3326 53.7049 65.075 53.6763V53.6763Z" fill="#4AC6FD" stroke="#231815" stroke-width="3"/>
<path d="M102.554 140.211C105.446 140.211 107.791 137.867 107.791 134.974C107.791 132.082 105.446 129.737 102.554 129.737C99.6617 129.737 97.317 132.082 97.317 134.974C97.317 137.867 99.6617 140.211 102.554 140.211Z" fill="white" stroke="#231815" stroke-width="3" stroke-miterlimit="10"/>
<path d="M80.062 140.211C82.9543 140.211 85.299 137.867 85.299 134.974C85.299 132.082 82.9543 129.737 80.062 129.737C77.1697 129.737 74.825 132.082 74.825 134.974C74.825 137.867 77.1697 140.211 80.062 140.211Z" fill="white" stroke="#231815" stroke-width="3" stroke-miterlimit="10"/>
<path d="M91.236 67.3921C91.236 67.3921 67.036 96.2392 89.376 100.741C90.738 101.063 92.1521 101.097 93.528 100.841C99.164 99.5321 112.245 93.4541 91.236 67.3921Z" fill="#E30010" stroke="black" stroke-width="3" stroke-linejoin="round"/>
<path d="M86.064 41.584V21.8611C86.064 20.2311 87.864 18.9111 90.08 18.9111H92.545C94.764 18.9111 96.562 20.2321 96.562 21.8611V41.584" stroke="#231815" stroke-width="3" stroke-miterlimit="10"/>
</g>
</svg>
