<svg id="icn_profile_02" xmlns="http://www.w3.org/2000/svg" xmlns:xlink="http://www.w3.org/1999/xlink" width="142" height="142" viewBox="0 0 142 142">
  <defs>
    <clipPath id="clip-path">
      <path id="패스_22711" data-name="패스 22711" d="M71,0A71,71,0,1,1,0,71,71,71,0,0,1,71,0Z" fill="none"/>
    </clipPath>
  </defs>
  <g id="마스크_그룹_45" data-name="마스크 그룹 45" transform="translate(0 0)" clip-path="url(#clip-path)">
    <circle id="타원_732" data-name="타원 732" cx="71" cy="71" r="71" transform="translate(0.001)" fill="#f5f5f5"/>
    <ellipse id="타원_697" data-name="타원 697" cx="29.459" cy="35.43" rx="29.459" ry="35.43" transform="translate(42.415 29.389)" fill="#ffd8ca"/>
    <path id="패스_22413" data-name="패스 22413" d="M2291.86,6094.711l5.806-.942-2.009,6.931-1.895,3.971-2.99,2.961Z" transform="translate(-2191.688 -6026.792)" fill="#636363"/>
    <path id="패스_22414" data-name="패스 22414" d="M1894.141,6093.769h-4.36l-.693,3.406,2.9,5.188,2.151,7.279h2.357Z" transform="translate(-1851.373 -6026.792)" fill="#636363"/>
    <g id="그룹_31666" data-name="그룹 31666" transform="translate(35.959 104.251)">
      <rect id="사각형_4430" data-name="사각형 4430" width="66.72" height="48.949" rx="24.474" transform="translate(1.68 1.681)" fill="#00b2ff"/>
      <path id="패스_22415" data-name="패스 22415" d="M1930.115,6390.051h-34.957a17.582,17.582,0,0,1-17.562-17.562V6355.3a17.582,17.582,0,0,1,17.562-17.562h34.957a17.582,17.582,0,0,1,17.562,17.562v17.187A17.582,17.582,0,0,1,1930.115,6390.051Zm-34.957-48.948a14.217,14.217,0,0,0-14.2,14.2v17.187a14.217,14.217,0,0,0,14.2,14.2h34.957a14.217,14.217,0,0,0,14.2-14.2V6355.3a14.217,14.217,0,0,0-14.2-14.2Z" transform="translate(-1877.596 -6337.741)"/>
    </g>
    <g id="그룹_31667" data-name="그룹 31667" transform="translate(60.013 98.985)">
      <path id="패스_22416" data-name="패스 22416" d="M2066.174,6303.824v6.908a8.4,8.4,0,0,1-8.4,8.4h-3.494a8.243,8.243,0,0,1-8.243-8.243v-7.621" transform="translate(-2044.351 -6303.273)" fill="#ffd8ca"/>
      <path id="패스_22417" data-name="패스 22417" d="M2048.45,6320.817h-3.494a9.935,9.935,0,0,1-9.924-9.923v-7.621h3.361v7.621a6.57,6.57,0,0,0,6.563,6.563h3.494a6.732,6.732,0,0,0,6.724-6.724v-6.908h3.361v6.908A10.1,10.1,0,0,1,2048.45,6320.817Z" transform="translate(-2035.032 -6303.273)"/>
    </g>
    <path id="패스_22418" data-name="패스 22418" d="M1885.463,6088.551a1.675,1.675,0,0,1-1.25-.557c-2.818-3.131-5.185-7.646-7.034-13.423a59.147,59.147,0,0,1-1.933-7.712,1.681,1.681,0,0,1,3.317-.542c.027.165,2.16,12.776,8.148,19.429a1.681,1.681,0,0,1-1.249,2.8Z" transform="translate(-1839.627 -6002.34)"/>
    <path id="패스_22419" data-name="패스 22419" d="M2271.141,6088.939a1.681,1.681,0,0,1-1.3-2.749c5.878-7.134,6.917-19.607,6.927-19.732a1.681,1.681,0,0,1,3.351.263c-.043.554-1.138,13.664-7.684,21.607A1.677,1.677,0,0,1,2271.141,6088.939Z" transform="translate(-2173.633 -6002.341)"/>
    <path id="패스_22420" data-name="패스 22420" d="M2093.751,6092.475h-4.89a1.68,1.68,0,0,1-1.681-1.681V6080.8a1.681,1.681,0,1,1,3.361,0v8.309h3.209a1.68,1.68,0,1,1,0,3.361Z" transform="translate(-2019.201 -6014.385)"/>
    <path id="패스_22421" data-name="패스 22421" d="M2011.6,6076.545a1.68,1.68,0,0,1-1.681-1.681v-.415a1.681,1.681,0,1,1,3.361,0v.415A1.68,1.68,0,0,1,2011.6,6076.545Z" transform="translate(-1953.747 -6009)"/>
    <path id="패스_22422" data-name="패스 22422" d="M2194.86,6076.545a1.68,1.68,0,0,1-1.681-1.681v-.415a1.681,1.681,0,1,1,3.361,0v.415A1.68,1.68,0,0,1,2194.86,6076.545Z" transform="translate(-2109.005 -6009)"/>
    <path id="패스_22423" data-name="패스 22423" d="M2039.254,6214.127a24.132,24.132,0,0,1-12.031-3.782,1.681,1.681,0,0,1,1.872-2.792c.064.042,4.884,3.212,10.158,3.212,5.348,0,10.981-3.236,11.037-3.269a1.681,1.681,0,0,1,1.692,2.9C2051.722,6210.554,2045.525,6214.127,2039.254,6214.127Z" transform="translate(-1967.774 -6122.952)"/>
    <g id="그룹_31668" data-name="그룹 31668" transform="translate(52.415 104.251)">
      <path id="패스_22424" data-name="패스 22424" d="M2013.544,6357.658l-8.656,11.445-8.587-20.362h7.115Z" transform="translate(-1994.621 -6347.06)" fill="#fff"/>
      <path id="패스_22425" data-name="패스 22425" d="M1995.57,6361.464a1.678,1.678,0,0,1-1.549-1.027l-8.587-20.361a1.68,1.68,0,0,1,1.548-2.334h7.115a1.683,1.683,0,0,1,1.111.419l10.128,8.917a1.681,1.681,0,0,1,.23,2.275l-8.656,11.445A1.679,1.679,0,0,1,1995.57,6361.464Zm-6.055-20.361,6.471,15.344,5.958-7.877-8.481-7.467Z" transform="translate(-1985.301 -6337.741)"/>
    </g>
    <g id="그룹_31669" data-name="그룹 31669" transform="translate(70.037 104.251)">
      <path id="패스_22426" data-name="패스 22426" d="M2111.649,6357.658l8.656,11.445,8.587-20.362h-7.115Z" transform="translate(-2109.968 -6347.06)" fill="#fff"/>
      <path id="패스_22427" data-name="패스 22427" d="M2110.985,6361.464a1.679,1.679,0,0,1-1.34-.667l-8.656-11.445a1.68,1.68,0,0,1,.23-2.275l10.128-8.917a1.683,1.683,0,0,1,1.11-.419h7.115a1.681,1.681,0,0,1,1.549,2.334l-8.587,20.361a1.677,1.677,0,0,1-1.549,1.027Zm-6.374-12.895,5.958,7.877,6.471-15.344h-3.948Z" transform="translate(-2100.649 -6337.741)"/>
    </g>
    <g id="그룹_31670" data-name="그룹 31670" transform="translate(64.211 113.168)">
      <path id="패스_22428" data-name="패스 22428" d="M2073.512,6414.308l5.752,6.154,4.962-6.894-5.194-6.463Z" transform="translate(-2071.831 -6405.425)" fill="#fff"/>
      <path id="패스_22429" data-name="패스 22429" d="M2069.945,6412.822a1.681,1.681,0,0,1-1.228-.533l-5.752-6.155a1.68,1.68,0,0,1-.106-2.17l5.521-7.2a1.68,1.68,0,0,1,2.644-.03l5.193,6.463a1.681,1.681,0,0,1,.054,2.035l-4.962,6.894a1.679,1.679,0,0,1-1.257.7C2070.016,6412.821,2069.98,6412.822,2069.945,6412.822Zm-3.552-7.943,3.384,3.62,3.02-4.2-3.051-3.8Z" transform="translate(-2062.512 -6396.104)"/>
    </g>
    <path id="패스_22430" data-name="패스 22430" d="M2080.672,6079.394h-.017l-10.076-.1a1.68,1.68,0,0,1,.017-3.361h.017l10.077.1a1.681,1.681,0,0,1-.017,3.361Z" transform="translate(-2003.725 -6011.679)"/>
    <path id="패스_22431" data-name="패스 22431" d="M1970.671,6057.838h-15.734a1.681,1.681,0,0,1-1.68-1.681v-12.448a1.681,1.681,0,0,1,1.68-1.681h15.734a1.681,1.681,0,0,1,1.681,1.681v12.448A1.681,1.681,0,0,1,1970.671,6057.838Zm-14.053-3.361h12.372v-9.087h-12.372Z" transform="translate(-1905.738 -5982.957)"/>
    <path id="패스_22432" data-name="패스 22432" d="M2162.474,6057.838h-15.733a1.681,1.681,0,0,1-1.681-1.681v-12.448a1.681,1.681,0,0,1,1.681-1.681h15.733a1.68,1.68,0,0,1,1.68,1.681v12.448A1.68,1.68,0,0,1,2162.474,6057.838Zm-14.053-3.361h12.372v-9.087h-12.372Z" transform="translate(-2068.238 -5982.957)"/>
    <path id="패스_22433" data-name="패스 22433" d="M1946.775,5814.187l-.8,5.228-4.377,1.15-2.663,3.292-7.326-13.8-18.309-2.689-8.812,4.891.531,12.119-10.733-3.236-7.025-7.377-3.42,6.054-6.495-.629,4.537-22.353,9.406-10.359,11.267-1,23.862-1.629,12.857,8.389,3.484,9.66Z" transform="translate(-1841.421 -5764.22)" fill="#636363"/>
    <g id="그룹_31671" data-name="그룹 31671" transform="translate(33.142 53.06)">
      <path id="패스_22434" data-name="패스 22434" d="M1878.687,6026.37a7.478,7.478,0,0,1-1.6.172,6.449,6.449,0,1,1,0-12.861,7.455,7.455,0,0,1,1.824.225" transform="translate(-1868.473 -6012)" fill="#ffd8ca"/>
      <path id="패스_22435" data-name="패스 22435" d="M1867.764,6018.9a8.126,8.126,0,1,1,0-16.223,9.166,9.166,0,0,1,2.235.276l-.823,3.259a5.759,5.759,0,0,0-1.412-.174,4.774,4.774,0,1,0,0,9.5,5.79,5.79,0,0,0,1.242-.134l.721,3.283A9.135,9.135,0,0,1,1867.764,6018.9Z" transform="translate(-1859.153 -6002.68)"/>
    </g>
    <g id="그룹_31672" data-name="그룹 31672" transform="translate(99.761 53.06)">
      <path id="패스_22436" data-name="패스 22436" d="M2298.116,6026.37a7.481,7.481,0,0,0,1.6.172,6.449,6.449,0,1,0,0-12.861,7.455,7.455,0,0,0-1.824.225" transform="translate(-2297.484 -6012)" fill="#ffd8ca"/>
      <path id="패스_22437" data-name="패스 22437" d="M2297.438,6018.9a9.137,9.137,0,0,1-1.964-.212l.722-3.283a5.789,5.789,0,0,0,1.242.134,4.774,4.774,0,1,0,0-9.5,5.738,5.738,0,0,0-1.413.174l-.823-3.26a9.168,9.168,0,0,1,2.235-.276,8.126,8.126,0,1,1,0,16.223Z" transform="translate(-2295.203 -6002.68)"/>
    </g>
    <path id="패스_22438" data-name="패스 22438" d="M1946.689,6052.615H1943.5A28.525,28.525,0,0,1,1915,6024.121v-18.288a1.681,1.681,0,1,1,3.361,0v18.288a25.161,25.161,0,0,0,25.132,25.133h3.192a25.161,25.161,0,0,0,25.132-25.133v-18.288a1.681,1.681,0,1,1,3.361,0v18.288A28.526,28.526,0,0,1,1946.689,6052.615Z" transform="translate(-1873.329 -5950.867)"/>
    <path id="패스_22439" data-name="패스 22439" d="M1916.686,5971.034h-.079a1.68,1.68,0,0,1-1.6-1.756,14.237,14.237,0,0,1,4.342-10.022,1.681,1.681,0,0,1,2.319,2.433,10.845,10.845,0,0,0-3.3,7.743A1.68,1.68,0,0,1,1916.686,5971.034Z" transform="translate(-1873.329 -5912.436)"/>
    <path id="패스_22440" data-name="패스 22440" d="M2149.268,5947.288c-1.68,0-8.406-.891-11.262-14.77a114.094,114.094,0,0,0-13.834-2.391,1.681,1.681,0,0,1,.359-3.342,112.433,112.433,0,0,1,15.354,2.737,1.681,1.681,0,0,1,1.221,1.322c2.446,13.39,8.081,13.1,8.136,13.089a1.68,1.68,0,1,1,.4,3.337A3.244,3.244,0,0,1,2149.268,5947.288Z" transform="translate(-2049.269 -5885.312)"/>
    <path id="패스_22441" data-name="패스 22441" d="M1868.46,5818.313a1.68,1.68,0,0,1-1.669-1.5,50.507,50.507,0,0,1,1.339-16.151c2.883-11.32,9.695-18.785,19.7-21.587a19.973,19.973,0,0,1,11.142-.377,8.93,8.93,0,0,0,4.344.23c9.42-2.135,17.292-.873,23.4,3.751,4.6,3.481,8.105,8.8,10.426,15.814a62.679,62.679,0,0,1,2.866,15.821,1.681,1.681,0,0,1-3.357.174,59.224,59.224,0,0,0-2.7-14.939c-2.1-6.354-5.22-11.129-9.264-14.191-5.278-4-12.218-5.058-20.626-3.152a12.17,12.17,0,0,1-5.811-.227,16.665,16.665,0,0,0-9.512.331c-8.877,2.487-14.706,8.911-17.324,19.091a47.977,47.977,0,0,0-1.277,15.055,1.682,1.682,0,0,1-1.494,1.848C1868.579,5818.311,1868.519,5818.313,1868.46,5818.313Z" transform="translate(-1832.348 -5759.199)"/>
    <path id="패스_22442" data-name="패스 22442" d="M1958.873,5946.473h-.048a29.958,29.958,0,0,1-8.625-1.751c-6.031-2.24-9.546-6.231-10.166-11.541a1.681,1.681,0,1,1,3.338-.39c.468,4.008,3.134,6.953,7.925,8.752a25.961,25.961,0,0,0,5.042,1.294c-1.8-5.446-1.534-9.719.813-12.725a11.269,11.269,0,0,1,6.969-3.869,18.353,18.353,0,0,1,5.745-.169,1.681,1.681,0,1,1-.515,3.321c-1.706-.265-7.123-.321-9.549,2.785-1.9,2.439-1.7,6.462.62,11.959a1.681,1.681,0,0,1-1.549,2.333Z" transform="translate(-1894.525 -5884.59)"/>
    <ellipse id="타원_698" data-name="타원 698" cx="29.459" cy="35.43" rx="29.459" ry="35.43" transform="translate(42.415 29.389)" fill="#ffd8ca"/>
    <path id="패스_22443" data-name="패스 22443" d="M2291.86,6094.711l5.806-.942-2.009,6.931-1.895,3.971-2.99,2.961Z" transform="translate(-2191.688 -6026.792)" fill="#636363"/>
    <path id="패스_22444" data-name="패스 22444" d="M1894.141,6093.769h-4.36l-.693,3.406,2.9,5.188,2.151,7.279h2.357Z" transform="translate(-1851.373 -6026.792)" fill="#636363"/>
    <g id="그룹_31673" data-name="그룹 31673" transform="translate(35.959 104.251)">
      <path id="패스_22710" data-name="패스 22710" d="M24.474,0H42.246C63.387.1,66.72,10.958,66.72,24.474A24.474,24.474,0,0,1,42.246,48.949H24.474A24.474,24.474,0,0,1,0,24.474C0,10.958,4.646-.642,24.474,0Z" transform="translate(1.68 1.681)" fill="#00b2ff"/>
      <path id="패스_22445" data-name="패스 22445" d="M1930.115,6390.051h-34.957a17.582,17.582,0,0,1-17.562-17.562V6355.3a17.582,17.582,0,0,1,17.562-17.562h34.957a17.582,17.582,0,0,1,17.562,17.562v17.187A17.582,17.582,0,0,1,1930.115,6390.051Zm-34.957-48.948a14.217,14.217,0,0,0-14.2,14.2v17.187a14.217,14.217,0,0,0,14.2,14.2h34.957a14.217,14.217,0,0,0,14.2-14.2V6355.3a14.217,14.217,0,0,0-14.2-14.2Z" transform="translate(-1877.596 -6337.741)"/>
    </g>
    <g id="그룹_31674" data-name="그룹 31674" transform="translate(60.013 98.985)">
      <path id="패스_22446" data-name="패스 22446" d="M2066.174,6303.824v6.908a8.4,8.4,0,0,1-8.4,8.4h-3.494a8.243,8.243,0,0,1-8.243-8.243v-7.621" transform="translate(-2044.351 -6303.273)" fill="#ffd8ca"/>
      <path id="패스_22447" data-name="패스 22447" d="M2048.45,6320.817h-3.494a9.935,9.935,0,0,1-9.924-9.923v-7.621h3.361v7.621a6.57,6.57,0,0,0,6.563,6.563h3.494a6.732,6.732,0,0,0,6.724-6.724v-6.908h3.361v6.908A10.1,10.1,0,0,1,2048.45,6320.817Z" transform="translate(-2035.032 -6303.273)"/>
    </g>
    <path id="패스_22448" data-name="패스 22448" d="M1885.463,6088.551a1.675,1.675,0,0,1-1.25-.557c-2.818-3.131-5.185-7.646-7.034-13.423a59.147,59.147,0,0,1-1.933-7.712,1.681,1.681,0,0,1,3.317-.542c.027.165,2.16,12.776,8.148,19.429a1.681,1.681,0,0,1-1.249,2.8Z" transform="translate(-1839.627 -6002.34)"/>
    <path id="패스_22449" data-name="패스 22449" d="M2271.141,6088.939a1.681,1.681,0,0,1-1.3-2.749c5.878-7.134,6.917-19.607,6.927-19.732a1.681,1.681,0,0,1,3.351.263c-.043.554-1.138,13.664-7.684,21.607A1.677,1.677,0,0,1,2271.141,6088.939Z" transform="translate(-2173.633 -6002.341)"/>
    <path id="패스_22450" data-name="패스 22450" d="M2093.751,6092.475h-4.89a1.68,1.68,0,0,1-1.681-1.681V6080.8a1.681,1.681,0,1,1,3.361,0v8.309h3.209a1.68,1.68,0,1,1,0,3.361Z" transform="translate(-2019.201 -6014.385)"/>
    <path id="패스_22451" data-name="패스 22451" d="M2011.6,6076.545a1.68,1.68,0,0,1-1.681-1.681v-.415a1.681,1.681,0,1,1,3.361,0v.415A1.68,1.68,0,0,1,2011.6,6076.545Z" transform="translate(-1953.747 -6009)"/>
    <path id="패스_22452" data-name="패스 22452" d="M2194.86,6076.545a1.68,1.68,0,0,1-1.681-1.681v-.415a1.681,1.681,0,1,1,3.361,0v.415A1.68,1.68,0,0,1,2194.86,6076.545Z" transform="translate(-2109.005 -6009)"/>
    <path id="패스_22453" data-name="패스 22453" d="M2039.254,6214.127a24.132,24.132,0,0,1-12.031-3.782,1.681,1.681,0,0,1,1.872-2.792c.064.042,4.884,3.212,10.158,3.212,5.348,0,10.981-3.236,11.037-3.269a1.681,1.681,0,0,1,1.692,2.9C2051.722,6210.554,2045.525,6214.127,2039.254,6214.127Z" transform="translate(-1967.774 -6122.952)"/>
    <g id="그룹_31675" data-name="그룹 31675" transform="translate(52.415 104.251)">
      <path id="패스_22454" data-name="패스 22454" d="M2013.544,6357.658l-8.656,11.445-8.587-20.362h7.115Z" transform="translate(-1994.621 -6347.06)" fill="#fff"/>
      <path id="패스_22455" data-name="패스 22455" d="M1995.57,6361.464a1.678,1.678,0,0,1-1.549-1.027l-8.587-20.361a1.68,1.68,0,0,1,1.548-2.334h7.115a1.683,1.683,0,0,1,1.111.419l10.128,8.917a1.681,1.681,0,0,1,.23,2.275l-8.656,11.445A1.679,1.679,0,0,1,1995.57,6361.464Zm-6.055-20.361,6.471,15.344,5.958-7.877-8.481-7.467Z" transform="translate(-1985.301 -6337.741)"/>
    </g>
    <g id="그룹_31676" data-name="그룹 31676" transform="translate(70.037 104.251)">
      <path id="패스_22456" data-name="패스 22456" d="M2111.649,6357.658l8.656,11.445,8.587-20.362h-7.115Z" transform="translate(-2109.968 -6347.06)" fill="#fff"/>
      <path id="패스_22457" data-name="패스 22457" d="M2110.985,6361.464a1.679,1.679,0,0,1-1.34-.667l-8.656-11.445a1.68,1.68,0,0,1,.23-2.275l10.128-8.917a1.683,1.683,0,0,1,1.11-.419h7.115a1.681,1.681,0,0,1,1.549,2.334l-8.587,20.361a1.677,1.677,0,0,1-1.549,1.027Zm-6.374-12.895,5.958,7.877,6.471-15.344h-3.948Z" transform="translate(-2100.649 -6337.741)"/>
    </g>
    <g id="그룹_31677" data-name="그룹 31677" transform="translate(64.211 113.168)">
      <path id="패스_22458" data-name="패스 22458" d="M2073.512,6414.308l5.752,6.154,4.962-6.894-5.194-6.463Z" transform="translate(-2071.831 -6405.425)" fill="#fff"/>
      <path id="패스_22459" data-name="패스 22459" d="M2069.945,6412.822a1.681,1.681,0,0,1-1.228-.533l-5.752-6.155a1.68,1.68,0,0,1-.106-2.17l5.521-7.2a1.68,1.68,0,0,1,2.644-.03l5.193,6.463a1.681,1.681,0,0,1,.054,2.035l-4.962,6.894a1.679,1.679,0,0,1-1.257.7C2070.016,6412.821,2069.98,6412.822,2069.945,6412.822Zm-3.552-7.943,3.384,3.62,3.02-4.2-3.051-3.8Z" transform="translate(-2062.512 -6396.104)"/>
    </g>
    <path id="패스_22460" data-name="패스 22460" d="M2080.672,6079.394h-.017l-10.076-.1a1.68,1.68,0,0,1,.017-3.361h.017l10.077.1a1.681,1.681,0,0,1-.017,3.361Z" transform="translate(-2003.725 -6011.679)"/>
    <path id="패스_22461" data-name="패스 22461" d="M1970.671,6057.838h-15.734a1.681,1.681,0,0,1-1.68-1.681v-12.448a1.681,1.681,0,0,1,1.68-1.681h15.734a1.681,1.681,0,0,1,1.681,1.681v12.448A1.681,1.681,0,0,1,1970.671,6057.838Zm-14.053-3.361h12.372v-9.087h-12.372Z" transform="translate(-1905.738 -5982.957)"/>
    <path id="패스_22462" data-name="패스 22462" d="M2162.474,6057.838h-15.733a1.681,1.681,0,0,1-1.681-1.681v-12.448a1.681,1.681,0,0,1,1.681-1.681h15.733a1.68,1.68,0,0,1,1.68,1.681v12.448A1.68,1.68,0,0,1,2162.474,6057.838Zm-14.053-3.361h12.372v-9.087h-12.372Z" transform="translate(-2068.238 -5982.957)"/>
    <path id="패스_22463" data-name="패스 22463" d="M1946.775,5814.187l-.8,5.228-4.377,1.15-2.663,3.292-7.326-13.8-18.309-2.689-8.812,4.891.531,12.119-10.733-3.236-7.025-7.377-3.42,6.054-6.495-.629,4.537-22.353,9.406-10.359,11.267-1,23.862-1.629,12.857,8.389,3.484,9.66Z" transform="translate(-1841.421 -5764.22)" fill="#636363"/>
    <g id="그룹_31678" data-name="그룹 31678" transform="translate(33.142 53.06)">
      <path id="패스_22464" data-name="패스 22464" d="M1878.687,6026.37a7.478,7.478,0,0,1-1.6.172,6.449,6.449,0,1,1,0-12.861,7.455,7.455,0,0,1,1.824.225" transform="translate(-1868.473 -6012)" fill="#ffd8ca"/>
      <path id="패스_22465" data-name="패스 22465" d="M1867.764,6018.9a8.126,8.126,0,1,1,0-16.223,9.166,9.166,0,0,1,2.235.276l-.823,3.259a5.759,5.759,0,0,0-1.412-.174,4.774,4.774,0,1,0,0,9.5,5.79,5.79,0,0,0,1.242-.134l.721,3.283A9.135,9.135,0,0,1,1867.764,6018.9Z" transform="translate(-1859.153 -6002.68)"/>
    </g>
    <g id="그룹_31679" data-name="그룹 31679" transform="translate(99.761 53.06)">
      <path id="패스_22466" data-name="패스 22466" d="M2298.116,6026.37a7.481,7.481,0,0,0,1.6.172,6.449,6.449,0,1,0,0-12.861,7.455,7.455,0,0,0-1.824.225" transform="translate(-2297.484 -6012)" fill="#ffd8ca"/>
      <path id="패스_22467" data-name="패스 22467" d="M2297.438,6018.9a9.137,9.137,0,0,1-1.964-.212l.722-3.283a5.789,5.789,0,0,0,1.242.134,4.774,4.774,0,1,0,0-9.5,5.738,5.738,0,0,0-1.413.174l-.823-3.26a9.168,9.168,0,0,1,2.235-.276,8.126,8.126,0,1,1,0,16.223Z" transform="translate(-2295.203 -6002.68)"/>
    </g>
    <path id="패스_22468" data-name="패스 22468" d="M1946.689,6052.615H1943.5A28.525,28.525,0,0,1,1915,6024.121v-18.288a1.681,1.681,0,1,1,3.361,0v18.288a25.161,25.161,0,0,0,25.132,25.133h3.192a25.161,25.161,0,0,0,25.132-25.133v-18.288a1.681,1.681,0,1,1,3.361,0v18.288A28.526,28.526,0,0,1,1946.689,6052.615Z" transform="translate(-1873.329 -5950.867)"/>
    <path id="패스_22469" data-name="패스 22469" d="M1916.686,5971.034h-.079a1.68,1.68,0,0,1-1.6-1.756,14.237,14.237,0,0,1,4.342-10.022,1.681,1.681,0,0,1,2.319,2.433,10.845,10.845,0,0,0-3.3,7.743A1.68,1.68,0,0,1,1916.686,5971.034Z" transform="translate(-1873.329 -5912.436)"/>
    <path id="패스_22470" data-name="패스 22470" d="M2149.268,5947.288c-1.68,0-8.406-.891-11.262-14.77a114.094,114.094,0,0,0-13.834-2.391,1.681,1.681,0,0,1,.359-3.342,112.433,112.433,0,0,1,15.354,2.737,1.681,1.681,0,0,1,1.221,1.322c2.446,13.39,8.081,13.1,8.136,13.089a1.68,1.68,0,1,1,.4,3.337A3.244,3.244,0,0,1,2149.268,5947.288Z" transform="translate(-2049.269 -5885.312)"/>
    <path id="패스_22471" data-name="패스 22471" d="M1868.46,5818.313a1.68,1.68,0,0,1-1.669-1.5,50.507,50.507,0,0,1,1.339-16.151c2.883-11.32,9.695-18.785,19.7-21.587a19.973,19.973,0,0,1,11.142-.377,8.93,8.93,0,0,0,4.344.23c9.42-2.135,17.292-.873,23.4,3.751,4.6,3.481,8.105,8.8,10.426,15.814a62.679,62.679,0,0,1,2.866,15.821,1.681,1.681,0,0,1-3.357.174,59.224,59.224,0,0,0-2.7-14.939c-2.1-6.354-5.22-11.129-9.264-14.191-5.278-4-12.218-5.058-20.626-3.152a12.17,12.17,0,0,1-5.811-.227,16.665,16.665,0,0,0-9.512.331c-8.877,2.487-14.706,8.911-17.324,19.091a47.977,47.977,0,0,0-1.277,15.055,1.682,1.682,0,0,1-1.494,1.848C1868.579,5818.311,1868.519,5818.313,1868.46,5818.313Z" transform="translate(-1832.348 -5759.199)"/>
    <path id="패스_22472" data-name="패스 22472" d="M1958.873,5946.473h-.048a29.958,29.958,0,0,1-8.625-1.751c-6.031-2.24-9.546-6.231-10.166-11.541a1.681,1.681,0,1,1,3.338-.39c.468,4.008,3.134,6.953,7.925,8.752a25.961,25.961,0,0,0,5.042,1.294c-1.8-5.446-1.534-9.719.813-12.725a11.269,11.269,0,0,1,6.969-3.869,18.353,18.353,0,0,1,5.745-.169,1.681,1.681,0,1,1-.515,3.321c-1.706-.265-7.123-.321-9.549,2.785-1.9,2.439-1.7,6.462.62,11.959a1.681,1.681,0,0,1-1.549,2.333Z" transform="translate(-1894.525 -5884.59)"/>
  </g>
</svg>
