<svg xmlns="http://www.w3.org/2000/svg" width="44" height="44" viewBox="0 0 44 44">
  <g id="icn_clock" transform="translate(12682 12308)">
    <rect id="사각형_2705" data-name="사각형 2705" width="44" height="44" transform="translate(-12682 -12308)" fill="none"/>
    <g id="그룹_21103" data-name="그룹 21103" transform="translate(-223 -83.3)">
      <g id="패스_14188" data-name="패스 14188" transform="translate(-12458 -12223.7)" fill="none">
        <path d="M21,0A21,21,0,1,1,0,21,21,21,0,0,1,21,0Z" stroke="none"/>
        <path d="M 21 2 C 15.92491912841797 2 11.15360069274902 3.976341247558594 7.564968109130859 7.564968109130859 C 3.976341247558594 11.15360069274902 2 15.92491912841797 2 21 C 2 26.07508087158203 3.976341247558594 30.84640121459961 7.564968109130859 34.43502807617188 C 11.15360069274902 38.02365875244141 15.92491912841797 40 21 40 C 26.07508087158203 40 30.84640121459961 38.02365875244141 34.43502807617188 34.43502807617188 C 38.02365875244141 30.84640121459961 40 26.07508087158203 40 21 C 40 15.92491912841797 38.02365875244141 11.15360069274902 34.43502807617188 7.564968109130859 C 30.84640121459961 3.976341247558594 26.07508087158203 2 21 2 M 21 0 C 32.59798049926758 0 42 9.402019500732422 42 21 C 42 32.59798049926758 32.59798049926758 42 21 42 C 9.402019500732422 42 0 32.59798049926758 0 21 C 0 9.402019500732422 9.402019500732422 0 21 0 Z" stroke="none" fill="#000"/>
      </g>
      <path id="패스_14189" data-name="패스 14189" d="M-12971,8638.524V8648.8l9.125,9.047" transform="translate(534 -20851)" fill="none" stroke="#000" stroke-width="2"/>
    </g>
  </g>
</svg>
