<svg xmlns="http://www.w3.org/2000/svg" width="60" height="60" viewBox="0 0 60 60">
  <g id="icn_phone" transform="translate(-0.287 -0.353)">
    <path id="Shape" d="M-1120.434,1296.092v5.22a3.529,3.529,0,0,1-1.094,2.579,3.319,3.319,0,0,1-2.588.9,32.806,32.806,0,0,1-14.577-5.342,33.457,33.457,0,0,1-10.135-10.441,35.114,35.114,0,0,1-5.186-15.087,3.547,3.547,0,0,1,.87-2.659,3.337,3.337,0,0,1,2.491-1.134h5.067a3.492,3.492,0,0,1,3.378,2.993c.4,1.824.711,3.15,1.183,4.89a3.334,3.334,0,0,1-.76,3.672l-2.145,2.209a27.444,27.444,0,0,0,10.135,10.441l2.145-2.209a3.357,3.357,0,0,1,3.564-.783c1.471.4,2.945.755,4.747,1.218A3.482,3.482,0,0,1-1120.434,1296.092Z" transform="translate(1167.584 -1257.162)" fill="none" stroke="#000" stroke-linejoin="round" stroke-width="3"/>
    <rect id="사각형_3205" data-name="사각형 3205" width="60" height="60" transform="translate(0.287 0.353)" fill="none"/>
  </g>
</svg>
