<svg xmlns="http://www.w3.org/2000/svg" width="40" height="40" viewBox="0 0 40 40">
  <g id="icn_check_on" transform="translate(-542 -760)">
    <g id="그룹_20298" data-name="그룹 20298" transform="translate(542 760)">
      <g id="Path" fill="#4ac6ff">
        <path d="M 20 39.00006103515625 C 17.43339920043945 39.00006103515625 14.944580078125 38.49803161621094 12.60270023345947 37.50790405273438 C 10.34016036987305 36.55133056640625 8.308239936828613 35.18158340454102 6.563360214233398 33.43670272827148 C 4.818480014801025 31.69182205200195 3.448729991912842 29.65988159179688 2.492160081863403 27.39735221862793 C 1.50203001499176 25.05546188354492 1 22.56664276123047 1 20.00003242492676 C 1 17.43342208862305 1.50203001499176 14.94460201263428 2.492160081863403 12.60271263122559 C 3.448729991912842 10.34018230438232 4.818480014801025 8.308242797851562 6.563360214233398 6.563362598419189 C 8.308239936828613 4.818482398986816 10.34016036987305 3.448732376098633 12.60270023345947 2.492162466049194 C 14.944580078125 1.502032399177551 17.43339920043945 1.000002384185791 20 1.000002384185791 C 22.56660079956055 1.000002384185791 25.055419921875 1.502032399177551 27.39730072021484 2.492162466049194 C 29.65983963012695 3.448732376098633 31.69175910949707 4.818482398986816 33.43664169311523 6.563362598419189 C 35.1815185546875 8.308242797851562 36.55126953125 10.34018230438232 37.50783920288086 12.60271263122559 C 38.49797058105469 14.94460201263428 39 17.43342208862305 39 20.00003242492676 C 39 22.56664276123047 38.49797058105469 25.05546188354492 37.50783920288086 27.39735221862793 C 36.55126953125 29.65988159179688 35.1815185546875 31.69182205200195 33.43664169311523 33.43670272827148 C 31.69175910949707 35.18158340454102 29.65983963012695 36.55133056640625 27.39730072021484 37.50790405273438 C 25.055419921875 38.49803161621094 22.56660079956055 39.00006103515625 20 39.00006103515625 Z" stroke="none"/>
        <path d="M 20 38.00006103515625 C 24.81006050109863 38.00006103515625 29.33082962036133 36.12830352783203 32.72954177856445 32.72959136962891 C 36.12825012207031 29.33087158203125 38 24.81010246276855 38 20.00003242492676 C 38 15.18996238708496 36.12825012207031 10.66919231414795 32.72954177856445 7.270472526550293 C 29.33082962036133 3.87176251411438 24.81006050109863 2.000002384185791 20 2.000002384185791 C 15.18994045257568 2.000002384185791 10.66917037963867 3.87176251411438 7.27046012878418 7.270472526550293 C 3.871750116348267 10.66919231414795 2 15.18996238708496 2 20.00003242492676 C 2 24.81010246276855 3.871750116348267 29.33087158203125 7.27046012878418 32.72959136962891 C 10.66917037963867 36.12830352783203 15.18994045257568 38.00006103515625 20 38.00006103515625 M 20 40.00006103515625 C 8.949999809265137 40.00006103515625 0 31.05005264282227 0 20.00003242492676 C 0 8.95001220703125 8.949999809265137 2.424926833555219e-06 20 2.424926833555219e-06 C 31.04999923706055 2.424926833555219e-06 40 8.95001220703125 40 20.00003242492676 C 40 31.05005264282227 31.04999923706055 40.00006103515625 20 40.00006103515625 Z" stroke="none" fill="#4ac6ff"/>
      </g>
    </g>
    <path id="빼기_1" data-name="빼기 1" d="M18911.99,16662.234v0l-9.664-10.084,2.121-2.215,7.543,7.877,10.469-10.926,2.117,2.213-12.586,13.135Z" transform="translate(-18351.453 -15873.852)" fill="#fff"/>
  </g>
</svg>
