<svg id="icn_profile_05" xmlns="http://www.w3.org/2000/svg" xmlns:xlink="http://www.w3.org/1999/xlink" width="142" height="142" viewBox="0 0 142 142">
  <defs>
    <clipPath id="clip-path">
      <path id="패스_22718" data-name="패스 22718" d="M71,0A71,71,0,1,1,0,71,71,71,0,0,1,71,0Z" fill="none"/>
    </clipPath>
  </defs>
  <g id="마스크_그룹_48" data-name="마스크 그룹 48" transform="translate(0)" clip-path="url(#clip-path)">
    <path id="패스_22719" data-name="패스 22719" d="M71,0A71,71,0,1,1,0,71,71,71,0,0,1,71,0Z" fill="#f5f5f5"/>
    <g id="그룹_31754" data-name="그룹 31754" transform="translate(31.189 36.509)">
      <circle id="타원_714" data-name="타원 714" cx="6.205" cy="6.205" r="6.205" transform="translate(1.757 27.401)" fill="#ffd8ca"/>
      <circle id="타원_715" data-name="타원 715" cx="6.205" cy="6.205" r="6.205" transform="translate(65.523 27.401)" fill="#ffd8ca"/>
      <g id="그룹_31748" data-name="그룹 31748" transform="translate(4.694 62.056)">
        <rect id="사각형_4444" data-name="사각형 4444" width="66.72" height="48.949" rx="24.474" transform="translate(1.757 1.757)" fill="#00b2ff"/>
        <path id="패스_22663" data-name="패스 22663" d="M4748.079,6880.7h-17.771a26.231,26.231,0,0,1,0-52.463h17.771a26.231,26.231,0,0,1,0,52.463Zm-17.771-48.948a22.717,22.717,0,1,0,0,45.435h17.771a22.717,22.717,0,1,0,0-45.435Z" transform="translate(-4704.076 -6828.235)"/>
      </g>
      <g id="그룹_31749" data-name="그룹 31749" transform="translate(17.005 56.071)">
        <circle id="타원_716" data-name="타원 716" cx="21.718" cy="21.718" r="21.718" transform="translate(1.757 1.757)" fill="#fff"/>
        <path id="패스_22664" data-name="패스 22664" d="M4808.129,6836.008a23.474,23.474,0,1,1,23.475-23.474A23.5,23.5,0,0,1,4808.129,6836.008Zm0-43.435a19.96,19.96,0,1,0,19.961,19.96A19.983,19.983,0,0,0,4808.129,6792.573Z" transform="translate(-4784.655 -6789.059)"/>
      </g>
      <ellipse id="타원_717" data-name="타원 717" cx="10.071" cy="7.992" rx="10.071" ry="7.992" transform="translate(30.408 58.474)" fill="#ffd8ca"/>
      <path id="패스_22665" data-name="패스 22665" d="M4874.382,6812.786h-3.494a10.012,10.012,0,0,1-10-10v-7.741a1.757,1.757,0,0,1,3.514,0v7.741a6.494,6.494,0,0,0,6.486,6.487h3.494a6.655,6.655,0,0,0,6.647-6.647V6795.5a1.757,1.757,0,1,1,3.514,0v7.123A10.173,10.173,0,0,1,4874.382,6812.786Z" transform="translate(-4832.236 -6736.57)"/>
      <path id="패스_22666" data-name="패스 22666" d="M4681.315,6605.829a7.962,7.962,0,1,1,7.962-7.961A7.971,7.971,0,0,1,4681.315,6605.829Zm0-12.41a4.448,4.448,0,1,0,4.448,4.448A4.453,4.453,0,0,0,4681.315,6593.419Z" transform="translate(-4673.354 -6564.261)"/>
      <path id="패스_22667" data-name="패스 22667" d="M5098.242,6605.829a7.962,7.962,0,1,1,7.962-7.961A7.971,7.971,0,0,1,5098.242,6605.829Zm0-12.41a4.448,4.448,0,1,0,4.448,4.448A4.453,4.453,0,0,0,5098.242,6593.419Z" transform="translate(-5026.583 -6564.261)"/>
      <path id="패스_22668" data-name="패스 22668" d="M4903.334,6472.451a1.757,1.757,0,0,1-.484-3.446c1.334-.383,2.992-1.1,3.313-2.334.5-1.9-1.791-4.741-2.63-5.587a1.757,1.757,0,0,1,2.487-2.482c.477.476,4.623,4.776,3.546,8.945-.589,2.282-2.523,3.909-5.746,4.836A1.766,1.766,0,0,1,4903.334,6472.451Z" transform="translate(-4866.709 -6452.583)"/>
      <circle id="타원_718" data-name="타원 718" cx="31.913" cy="31.913" r="31.913" transform="translate(7.683 1.234)" fill="#ffd8ca"/>
      <path id="패스_22669" data-name="패스 22669" d="M4905.337,6464.443c.151,2.014,1.708,4.054-1.233,7.617-.867,1.051.339,2.617,1.674,2.342,2.516-.518,5.312-2.3,5.506-7.606.195-5.341-2.089-6.45-4.342-5.59A3.125,3.125,0,0,0,4905.337,6464.443Z" transform="translate(-4868.602 -6455.003)"/>
      <path id="패스_22670" data-name="패스 22670" d="M4747.572,6489.267a33.605,33.605,0,1,1,23.763-9.843A33.385,33.385,0,0,1,4747.572,6489.267Zm0-63.7a30.092,30.092,0,1,0,30.092,30.091A30.126,30.126,0,0,0,4747.572,6425.569Z" transform="translate(-4707.761 -6422.055)"/>
      <path id="패스_22671" data-name="패스 22671" d="M4832.559,6606.713a1.758,1.758,0,0,1-1.757-1.757v-3.247a1.757,1.757,0,0,1,3.514,0v3.247A1.757,1.757,0,0,1,4832.559,6606.713Z" transform="translate(-4806.747 -6572.773)"/>
      <path id="패스_22672" data-name="패스 22672" d="M5015.814,6606.713a1.757,1.757,0,0,1-1.757-1.757v-3.247a1.757,1.757,0,0,1,3.514,0v3.247A1.758,1.758,0,0,1,5015.814,6606.713Z" transform="translate(-4962.004 -6572.773)"/>
      <g id="그룹_31750" data-name="그룹 31750" transform="translate(34.868 42.557)">
        <circle id="타원_719" data-name="타원 719" cx="3.185" cy="3.185" r="3.185" transform="translate(1.757 1.757)" fill="#da2700"/>
        <path id="패스_22673" data-name="패스 22673" d="M4906.523,6710.494a4.942,4.942,0,1,1,4.942-4.942A4.948,4.948,0,0,1,4906.523,6710.494Zm0-6.371a1.428,1.428,0,1,0,1.428,1.429A1.43,1.43,0,0,0,4906.523,6704.123Z" transform="translate(-4901.581 -6700.609)"/>
      </g>
      <path id="패스_22674" data-name="패스 22674" d="M4914.356,6635.052h-6.775v-5.782a1.757,1.757,0,0,1,3.514,0v2.268h3.262a1.757,1.757,0,0,1,0,3.514Z" transform="translate(-4871.796 -6596.124)"/>
      <circle id="타원_720" data-name="타원 720" cx="6.205" cy="6.205" r="6.205" transform="translate(1.757 27.401)" fill="#ffd8ca"/>
      <circle id="타원_721" data-name="타원 721" cx="6.205" cy="6.205" r="6.205" transform="translate(65.523 27.401)" fill="#ffd8ca"/>
      <g id="그룹_31751" data-name="그룹 31751" transform="translate(4.694 62.056)">
        <rect id="사각형_4445" data-name="사각형 4445" width="66.72" height="48.949" rx="24.474" transform="translate(1.757 1.757)" fill="#00b2ff"/>
        <path id="패스_22675" data-name="패스 22675" d="M4748.079,6880.7h-17.771a26.231,26.231,0,0,1,0-52.463h17.771a26.231,26.231,0,0,1,0,52.463Zm-17.771-48.948a22.717,22.717,0,1,0,0,45.435h17.771a22.717,22.717,0,1,0,0-45.435Z" transform="translate(-4704.076 -6828.235)"/>
      </g>
      <g id="그룹_31752" data-name="그룹 31752" transform="translate(17.005 56.071)">
        <circle id="타원_722" data-name="타원 722" cx="21.718" cy="21.718" r="21.718" transform="translate(1.757 1.757)" fill="#fff"/>
        <path id="패스_22676" data-name="패스 22676" d="M4808.129,6836.008a23.474,23.474,0,1,1,23.475-23.474A23.5,23.5,0,0,1,4808.129,6836.008Zm0-43.435a19.96,19.96,0,1,0,19.961,19.96A19.983,19.983,0,0,0,4808.129,6792.573Z" transform="translate(-4784.655 -6789.059)"/>
      </g>
      <ellipse id="타원_723" data-name="타원 723" cx="10.071" cy="7.992" rx="10.071" ry="7.992" transform="translate(30.408 58.474)" fill="#ffd8ca"/>
      <path id="패스_22677" data-name="패스 22677" d="M4874.382,6812.786h-3.494a10.012,10.012,0,0,1-10-10v-7.741a1.757,1.757,0,0,1,3.514,0v7.741a6.494,6.494,0,0,0,6.486,6.487h3.494a6.655,6.655,0,0,0,6.647-6.647V6795.5a1.757,1.757,0,1,1,3.514,0v7.123A10.173,10.173,0,0,1,4874.382,6812.786Z" transform="translate(-4832.236 -6736.57)"/>
      <path id="패스_22678" data-name="패스 22678" d="M4681.315,6605.829a7.962,7.962,0,1,1,7.962-7.961A7.971,7.971,0,0,1,4681.315,6605.829Zm0-12.41a4.448,4.448,0,1,0,4.448,4.448A4.453,4.453,0,0,0,4681.315,6593.419Z" transform="translate(-4673.354 -6564.261)"/>
      <path id="패스_22679" data-name="패스 22679" d="M5098.242,6605.829a7.962,7.962,0,1,1,7.962-7.961A7.971,7.971,0,0,1,5098.242,6605.829Zm0-12.41a4.448,4.448,0,1,0,4.448,4.448A4.453,4.453,0,0,0,5098.242,6593.419Z" transform="translate(-5026.583 -6564.261)"/>
      <path id="패스_22680" data-name="패스 22680" d="M4903.334,6472.451a1.757,1.757,0,0,1-.484-3.446c1.334-.383,2.992-1.1,3.313-2.334.5-1.9-1.791-4.741-2.63-5.587a1.757,1.757,0,0,1,2.487-2.482c.477.476,4.623,4.776,3.546,8.945-.589,2.282-2.523,3.909-5.746,4.836A1.766,1.766,0,0,1,4903.334,6472.451Z" transform="translate(-4866.709 -6452.583)"/>
      <circle id="타원_724" data-name="타원 724" cx="31.913" cy="31.913" r="31.913" transform="translate(7.683 1.234)" fill="#ffd8ca"/>
      <path id="패스_22681" data-name="패스 22681" d="M4905.337,6464.443c.151,2.014,1.708,4.054-1.233,7.617-.867,1.051.339,2.617,1.674,2.342,2.516-.518,5.312-2.3,5.506-7.606.195-5.341-2.089-6.45-4.342-5.59A3.125,3.125,0,0,0,4905.337,6464.443Z" transform="translate(-4868.602 -6455.003)"/>
      <path id="패스_22682" data-name="패스 22682" d="M4747.572,6489.267a33.605,33.605,0,1,1,23.763-9.843A33.385,33.385,0,0,1,4747.572,6489.267Zm0-63.7a30.092,30.092,0,1,0,30.092,30.091A30.126,30.126,0,0,0,4747.572,6425.569Z" transform="translate(-4707.761 -6422.055)"/>
      <path id="패스_22683" data-name="패스 22683" d="M4832.559,6606.713a1.758,1.758,0,0,1-1.757-1.757v-3.247a1.757,1.757,0,0,1,3.514,0v3.247A1.757,1.757,0,0,1,4832.559,6606.713Z" transform="translate(-4806.747 -6572.773)"/>
      <path id="패스_22684" data-name="패스 22684" d="M5015.814,6606.713a1.757,1.757,0,0,1-1.757-1.757v-3.247a1.757,1.757,0,0,1,3.514,0v3.247A1.758,1.758,0,0,1,5015.814,6606.713Z" transform="translate(-4962.004 -6572.773)"/>
      <g id="그룹_31753" data-name="그룹 31753" transform="translate(34.868 42.557)">
        <circle id="타원_725" data-name="타원 725" cx="3.185" cy="3.185" r="3.185" transform="translate(1.757 1.757)" fill="#da2700"/>
        <path id="패스_22685" data-name="패스 22685" d="M4906.523,6710.494a4.942,4.942,0,1,1,4.942-4.942A4.948,4.948,0,0,1,4906.523,6710.494Zm0-6.371a1.428,1.428,0,1,0,1.428,1.429A1.43,1.43,0,0,0,4906.523,6704.123Z" transform="translate(-4901.581 -6700.609)"/>
      </g>
      <path id="패스_22686" data-name="패스 22686" d="M4914.356,6635.052h-6.775v-5.782a1.757,1.757,0,0,1,3.514,0v2.268h3.262a1.757,1.757,0,0,1,0,3.514Z" transform="translate(-4871.796 -6596.124)"/>
    </g>
  </g>
</svg>
