<svg width="50" height="50" viewBox="0 0 50 50" fill="none" xmlns="http://www.w3.org/2000/svg">
<path d="M43.9593 9.25992H5.92113C5.38571 9.25992 4.87223 9.47187 4.49363 9.84915C4.11504 10.2264 3.90234 10.7381 3.90234 11.2717V33.3822C3.904 33.9147 4.11742 34.4247 4.49583 34.8007C4.87425 35.1766 5.38679 35.3877 5.92113 35.3877H10.9212C11.2075 35.3893 11.4815 35.5034 11.684 35.7051C11.8864 35.9068 12.0008 36.1799 12.0025 36.4652V41.3856C12.0052 41.5066 12.0386 41.6251 12.0997 41.7297C12.1608 41.8344 12.2476 41.9219 12.3518 41.9841C12.4561 42.0463 12.5745 42.0812 12.6959 42.0855C12.8173 42.0897 12.9379 42.0632 13.0463 42.0084L25.859 35.3752H43.9843C44.5186 35.3752 45.0312 35.1641 45.4096 34.7882C45.788 34.4123 46.0014 33.9022 46.0031 33.3697V11.2717C46.0031 11.0054 45.95 10.7417 45.847 10.496C45.744 10.2503 45.5931 10.0274 45.403 9.84025C45.2128 9.65311 44.9873 9.50544 44.7395 9.40582C44.4917 9.3062 44.2265 9.25662 43.9593 9.25992Z" stroke="black" stroke-width="3" stroke-miterlimit="10"/>
<path d="M18.5626 26.8511L17.9292 26.1051C17.342 26.413 16.6819 26.5692 16.0134 26.5587C13.4956 26.5587 12.0352 24.608 12.0352 22.0929C12.0352 19.5777 13.4956 17.5918 16.0134 17.5918C18.5312 17.5918 20.0178 19.6079 20.0178 22.0929C20.0554 23.2605 19.6664 24.4039 18.9185 25.3238L20.3685 26.8359L18.5626 26.8511ZM17.0812 25.1423L15.9506 23.852H17.5209L17.9816 24.356C18.3468 23.6573 18.5164 22.879 18.4736 22.0979C18.4736 20.1624 17.6256 18.8115 16.0029 18.8115C14.3802 18.8115 13.5532 20.1624 13.5532 22.0979C13.5532 24.0334 14.3907 25.3742 16.0029 25.3742C16.3761 25.3777 16.7451 25.2984 17.0812 25.1423Z" fill="black"/>
<path d="M25.0492 21.6039L26.8322 23.6614C27.0234 23.0451 26.9868 22.3808 26.7291 21.7891C26.6982 21.6965 26.7291 21.64 26.8115 21.64H28.1307C28.3281 22.6571 28.2113 23.71 27.7958 24.6594L29.6302 26.614H27.7751L27.0331 25.7087H27.0074C26.6915 26.0718 26.3001 26.3615 25.8604 26.5579C25.4208 26.7542 24.9434 26.8524 24.4618 26.8455C23.6807 26.8889 22.9067 26.6777 22.2563 26.2436C21.9506 26.0298 21.703 25.7434 21.5357 25.4103C21.3684 25.0772 21.2867 24.7078 21.2979 24.3353C21.2979 23.3065 21.9781 22.4372 23.2199 21.4445C22.6679 20.9371 22.3321 20.2373 22.2821 19.4898C22.2821 18.3582 22.9984 17.5918 24.2969 17.5918C25.6985 17.5918 26.4766 18.2862 26.4766 19.2841C26.4766 20.3694 25.6624 21.0844 25.0286 21.6091L25.0492 21.6039ZM24.0496 22.2623C23.2766 22.9259 22.8129 23.4094 22.8129 24.253C22.8146 24.4502 22.8565 24.645 22.9362 24.8255C23.0159 25.006 23.1316 25.1684 23.2763 25.3027C23.421 25.437 23.5916 25.5405 23.7778 25.6067C23.9639 25.673 24.1616 25.7007 24.3587 25.6881C24.723 25.6897 25.0826 25.6059 25.4084 25.4432C25.7342 25.2806 26.0171 25.0438 26.2344 24.7519L24.0702 22.2881L24.0496 22.2623ZM24.2145 20.7603C24.771 20.318 25.1162 19.9476 25.1162 19.315C25.1162 18.888 24.9101 18.6411 24.3433 18.6411C23.9259 18.6411 23.6579 18.9086 23.6579 19.4076C23.662 19.9113 23.8572 20.3946 24.2042 20.7603H24.2145Z" fill="black"/>
<path d="M35.5944 17.5918L38.888 26.8511H37.278L36.4107 24.3151H33.0433L32.1647 26.8511H30.5547L33.8313 17.5918H35.5944ZM34.727 18.945L34.4719 19.8347L33.3778 23.1164H36.0819L34.9821 19.8347L34.727 18.945Z" fill="black"/>
</svg>
