<svg width="50" height="50" viewBox="0 0 50 50" fill="none" xmlns="http://www.w3.org/2000/svg">
<path d="M18.651 5.55666H30.8374C31.0941 5.56326 31.3381 5.67009 31.5173 5.85437C31.6965 6.03865 31.7967 6.28579 31.7966 6.54308V10.5393H17.6602V6.54308C17.6602 6.41301 17.6858 6.28422 17.7357 6.16413C17.7856 6.04404 17.8586 5.93501 17.9507 5.84333C18.0428 5.75165 18.1521 5.67912 18.2723 5.62992C18.3925 5.58073 18.5212 5.55583 18.651 5.55666V5.55666Z" stroke="black" stroke-width="3" stroke-miterlimit="10"/>
<path d="M35.5198 8.875H36.9461C37.4482 8.875 37.9298 9.07485 38.2848 9.4306C38.6399 9.78634 38.8394 10.2689 38.8394 10.772V41.8694C38.8394 42.3725 38.6399 42.855 38.2848 43.2108C37.9298 43.5665 37.4482 43.7664 36.9461 43.7664H12.5417C12.0396 43.7664 11.5581 43.5665 11.203 43.2108C10.8479 42.855 10.6484 42.3725 10.6484 41.8694V10.772C10.6484 10.2689 10.8479 9.78634 11.203 9.4306C11.5581 9.07485 12.0396 8.875 12.5417 8.875H13.968" stroke="black" stroke-width="3" stroke-miterlimit="10"/>
<path d="M17.5938 21.2969H31.4826" stroke="black" stroke-width="3" stroke-miterlimit="10"/>
<path d="M17.5938 28.7051H31.4826" stroke="black" stroke-width="3" stroke-miterlimit="10"/>
</svg>
