<svg width="164" height="194" viewBox="0 0 164 194" fill="none" xmlns="http://www.w3.org/2000/svg">
<mask id="mask0_270:3760" style="mask-type:alpha" maskUnits="userSpaceOnUse" x="10" y="13" width="144" height="181">
<rect x="10" y="13" width="144" height="181" fill="#C4C4C4"/>
</mask>
<g mask="url(#mask0_270:3760)">
<path d="M144.403 27.9374L133.647 37.916C133.644 37.9183 133.642 37.9212 133.641 37.9245C133.64 37.9277 133.64 37.9311 133.64 37.9345C133.641 37.9379 133.642 37.941 133.644 37.9437C133.646 37.9465 133.649 37.9485 133.652 37.9499L138.22 39.8899C138.223 39.8912 138.226 39.8932 138.228 39.8959C138.23 39.8986 138.232 39.9018 138.232 39.9051C138.233 39.9085 138.233 39.9121 138.232 39.9154C138.231 39.9186 138.229 39.9215 138.226 39.9238L129.113 48.7475C129.109 48.751 129.107 48.7557 129.107 48.7606C129.107 48.7655 129.108 48.7704 129.111 48.7743C129.114 48.7782 129.118 48.781 129.123 48.782C129.128 48.7831 129.133 48.7822 129.137 48.7799L144.319 39.4743C144.323 39.4726 144.326 39.47 144.328 39.4668C144.33 39.4636 144.33 39.4599 144.33 39.4562C144.33 39.4525 144.33 39.4488 144.328 39.4456C144.326 39.4424 144.323 39.4398 144.319 39.4381L139.367 37.3363C139.364 37.3351 139.362 37.3334 139.36 37.3313C139.358 37.3292 139.357 37.3265 139.356 37.3238C139.355 37.321 139.354 37.3182 139.354 37.3153C139.355 37.3124 139.355 37.3096 139.357 37.307L144.438 27.9634C144.44 27.9611 144.441 27.9587 144.442 27.9559C144.442 27.9531 144.443 27.9502 144.442 27.9474C144.442 27.9446 144.441 27.9418 144.439 27.9393C144.438 27.9369 144.436 27.9349 144.434 27.9331C144.431 27.9314 144.429 27.9302 144.426 27.9295C144.423 27.9288 144.42 27.9285 144.417 27.9289C144.415 27.9293 144.412 27.9303 144.41 27.9318C144.407 27.9332 144.405 27.9351 144.403 27.9374Z" fill="#F90026" stroke="#231815" stroke-width="3" stroke-miterlimit="10"/>
<path d="M25.61 26.0095L41.9678 41.1823C41.9716 41.1858 41.9745 41.1901 41.9763 41.195C41.978 41.1999 41.9783 41.2051 41.9774 41.2103C41.9765 41.2154 41.9745 41.2203 41.9712 41.2244C41.968 41.2284 41.9637 41.2316 41.9589 41.2336L35.0127 44.1829C35.008 44.1849 35.004 44.188 35.0008 44.192C34.9976 44.196 34.9954 44.2007 34.9944 44.2057C34.9935 44.2107 34.9938 44.2159 34.9954 44.2207C34.9969 44.2256 34.9996 44.2301 35.0033 44.2336L48.8624 57.652C48.8678 57.6574 48.871 57.6646 48.8715 57.6722C48.872 57.6798 48.8697 57.6874 48.8651 57.6934C48.8605 57.6995 48.8539 57.7036 48.8464 57.7052C48.839 57.7067 48.8313 57.7054 48.8246 57.7017L25.738 43.5512C25.7332 43.5481 25.7294 43.5437 25.7268 43.5386C25.7243 43.5336 25.7231 43.5279 25.7235 43.5223C25.724 43.5166 25.7259 43.5113 25.7291 43.5066C25.7324 43.502 25.7367 43.4982 25.7419 43.4958L33.2727 40.2991C33.2768 40.2973 33.2804 40.2948 33.2833 40.2916C33.2863 40.2883 33.2885 40.2846 33.2899 40.2804C33.2913 40.2762 33.2918 40.2718 33.2914 40.2675C33.291 40.2631 33.2899 40.2588 33.2878 40.2549L25.5619 26.0473C25.5578 26.0409 25.5562 26.0333 25.5575 26.0257C25.5588 26.0182 25.5627 26.0114 25.5687 26.0066C25.5747 26.0019 25.5823 25.9995 25.5899 26.0001C25.5975 26.0006 25.6047 26.004 25.61 26.0095Z" fill="#F90026" stroke="#231815" stroke-width="3" stroke-miterlimit="10"/>
<path d="M149.386 44.7959L137.602 48.5312C137.599 48.532 137.596 48.5336 137.593 48.5361C137.591 48.5385 137.589 48.5416 137.588 48.5449C137.587 48.5483 137.587 48.5519 137.588 48.5553C137.589 48.5588 137.591 48.5619 137.593 48.5644L140.375 51.6836C140.377 51.6862 140.379 51.6892 140.38 51.6925C140.38 51.6958 140.38 51.6992 140.38 51.7025C140.379 51.7058 140.377 51.7089 140.375 51.7114C140.372 51.7139 140.369 51.7157 140.366 51.7168L130.261 55.1582C130.257 55.1601 130.253 55.1634 130.251 55.1677C130.249 55.172 130.248 55.1771 130.249 55.1818C130.25 55.1865 130.253 55.1906 130.257 55.1935C130.26 55.1965 130.265 55.198 130.27 55.1978L145.177 53.5675C145.181 53.567 145.185 53.5656 145.187 53.5633C145.19 53.5609 145.193 53.5577 145.194 53.5542C145.195 53.5507 145.196 53.5471 145.195 53.5434C145.194 53.5397 145.192 53.5363 145.19 53.5336L142.173 50.1513C142.171 50.1493 142.17 50.1468 142.169 50.1442C142.167 50.1415 142.167 50.1388 142.167 50.1359C142.167 50.133 142.167 50.13 142.169 50.1274C142.17 50.1247 142.171 50.1224 142.173 50.1205L149.399 44.8283C149.401 44.8255 149.403 44.8221 149.403 44.8187C149.403 44.8152 149.403 44.8115 149.402 44.8082C149.4 44.805 149.398 44.8021 149.395 44.7999C149.393 44.7978 149.389 44.7964 149.386 44.7959Z" fill="#F90026" stroke="#231815" stroke-width="3" stroke-miterlimit="10"/>
<path d="M18.0359 51.644L35.9552 57.3232C35.9602 57.3246 35.9647 57.3273 35.9685 57.3311C35.9722 57.3348 35.9749 57.3395 35.9764 57.3446C35.9778 57.3496 35.9778 57.3549 35.9766 57.36C35.9753 57.3651 35.9728 57.3698 35.9692 57.3737L31.7387 62.113C31.7355 62.1169 31.7332 62.1215 31.7321 62.1265C31.7311 62.1314 31.7312 62.1364 31.7325 62.1413C31.7338 62.1462 31.7364 62.1507 31.7398 62.1544C31.7432 62.1582 31.7474 62.161 31.7522 62.1627L47.1176 67.3965C47.1245 67.3993 47.1303 67.4045 47.1338 67.4111C47.1373 67.4177 47.1383 67.4254 47.1367 67.4327C47.1351 67.44 47.1309 67.4463 47.1249 67.4508C47.119 67.4554 47.1118 67.4577 47.1043 67.4574L24.4348 64.9771C24.4291 64.9765 24.4237 64.9743 24.4192 64.9709C24.4146 64.9674 24.411 64.9629 24.409 64.9576C24.4069 64.9523 24.4066 64.9464 24.4076 64.9408C24.4087 64.9352 24.4111 64.93 24.4149 64.9258L29.0019 59.7836C29.0046 59.7803 29.0066 59.7766 29.0078 59.7725C29.0091 59.7683 29.0095 59.7638 29.009 59.7595C29.0085 59.7552 29.0071 59.7511 29.005 59.7474C29.0028 59.7436 28.9998 59.7405 28.9963 59.7379L18.0083 51.6953C18.004 51.6906 18.0011 51.6847 18.0002 51.6783C17.9994 51.6719 18.0007 51.6655 18.0037 51.6598C18.0068 51.6541 18.0114 51.6495 18.0172 51.6467C18.023 51.6438 18.0296 51.6429 18.0359 51.644Z" fill="#F90026" stroke="#231815" stroke-width="3" stroke-miterlimit="10"/>
<path fill-rule="evenodd" clip-rule="evenodd" d="M145.395 139.316C145.395 139.316 146.593 118.327 126.82 113.487C112.017 109.862 111.592 102.208 111.592 95.1035L94.5424 95.5775C94.3631 102.317 92.7739 110.19 79.3365 113.484C77.1415 114.207 75.0401 115.188 73.0766 116.407V116.402L72.9045 116.509L72.8555 116.54L57.0579 126.533L64.418 95.9304L50.2791 91.2378L32.0542 144.687C31.7459 145.968 31.693 147.297 31.8985 148.599C32.1041 149.9 32.564 151.148 33.252 152.272C33.94 153.396 34.8427 154.373 35.9085 155.147C36.9742 155.922 38.1821 156.48 39.4633 156.787V156.787C40.3019 156.986 41.1626 157.075 42.0241 157.054C44.0588 157.121 46.0626 156.542 47.7491 155.402L74.1438 139.57V202.828H133.78H145.41V140.95L145.395 139.316Z" stroke="black" stroke-width="3" stroke-miterlimit="10"/>
<path fill-rule="evenodd" clip-rule="evenodd" d="M145.395 139.316C145.395 139.316 146.593 118.327 126.82 113.487C112.017 109.862 111.592 102.208 111.592 95.1035L94.5424 95.5775C94.3631 102.317 92.7739 110.19 79.3365 113.484C77.1415 114.207 75.0401 115.188 73.0766 116.407V116.402L72.9045 116.509L72.8555 116.54L57.0579 126.533L64.418 95.9304L50.2791 91.2378L32.0542 144.687C31.7459 145.968 31.693 147.297 31.8985 148.599C32.1041 149.9 32.564 151.148 33.252 152.272C33.94 153.396 34.8427 154.373 35.9085 155.147C36.9742 155.922 38.1821 156.48 39.4633 156.787C40.3019 156.986 41.1626 157.075 42.0241 157.054C44.0588 157.121 46.0626 156.542 47.7491 155.402L74.1438 139.57V202.828H133.78H145.41V140.95L145.395 139.316Z" fill="#FFE7DD" stroke="black" stroke-width="3" stroke-miterlimit="10"/>
<path d="M69.5747 87.4441C69.5747 87.4441 74.7318 97.8373 69.9191 100.229L83.2167 97.1747L83.6188 85.7158L69.5747 87.4441Z" fill="black" stroke="black" stroke-width="3" stroke-linecap="round" stroke-linejoin="round"/>
<path d="M70.7996 77.0481C70.7996 77.0481 68.3621 76.5671 66.7175 77.6714C66.7175 77.6714 63.3448 79.0615 67.4048 84.9461C67.4048 84.9461 72.945 92.837 76.2688 88.3774C76.2688 88.3774 71.8778 80.1958 70.7996 77.0481Z" fill="#FFE7DD" stroke="black" stroke-width="3" stroke-miterlimit="10"/>
<path fill-rule="evenodd" clip-rule="evenodd" d="M58.2525 59.5631C58.2525 59.5631 51.5638 66.0235 53.6539 79.6734C54.6729 86.6778 53.6055 93.8271 50.5852 100.228H59.078L64.4183 91.2389C66.0038 89.4758 67.0412 87.289 67.4041 84.9459C67.6497 83.3092 66.7169 77.6711 66.7169 77.6711C66.7169 77.6711 60.8923 62.6822 63.6861 52.3442L58.2525 59.5631Z" fill="#FFE7DD" stroke="black" stroke-width="3" stroke-miterlimit="10"/>
<path d="M64.4188 67.1929C64.4188 67.1929 61.1803 67.1605 62.1472 77.9282C62.1432 79.4936 61.9228 81.0511 61.4923 82.5562" stroke="black" stroke-width="3" stroke-linecap="round" stroke-linejoin="round"/>
<path d="M56.9987 74.8741C57.4165 63.6396 64.4196 59.7725 64.4196 59.7725" stroke="black" stroke-width="3" stroke-linecap="round" stroke-linejoin="round"/>
<path d="M145.395 139.316C145.395 139.316 146.593 118.326 126.82 113.487C124.538 112.955 122.318 112.184 120.198 111.186C119.451 114.519 112.039 116.505 103 116.505C93.9249 116.505 86.4914 114.504 85.7931 111.146C83.7416 112.181 81.5738 112.966 79.3359 113.487C77.141 114.21 75.0397 115.191 73.0761 116.409V116.405L72.9039 116.512L72.8549 116.544L57.0573 126.535L64.4174 95.9332L50.2786 91.2412L32.0537 144.69C31.7455 145.971 31.6927 147.3 31.8982 148.602C32.1038 149.903 32.5637 151.151 33.2518 152.275C33.9398 153.398 34.8424 154.376 35.9081 155.151C36.9738 155.925 38.1817 156.483 39.4628 156.79C40.3013 156.99 41.162 157.079 42.0235 157.057C44.0581 157.124 46.0618 156.546 47.7486 155.406L74.1432 139.575V202.832H145.408V140.955L145.395 139.316Z" fill="#D7C7EA"/>
<path fill-rule="evenodd" clip-rule="evenodd" d="M145.395 139.316C145.395 139.316 146.593 118.327 126.82 113.487C112.017 109.862 111.592 102.208 111.592 95.1035L94.5424 95.5775C94.3631 102.317 92.7739 110.19 79.3365 113.484C77.1415 114.207 75.0401 115.188 73.0766 116.407V116.402L72.9045 116.509L72.8555 116.54L57.0579 126.533L64.418 95.9304L50.2791 91.2378L32.0542 144.687C31.7459 145.968 31.693 147.297 31.8985 148.599C32.1041 149.9 32.564 151.148 33.252 152.272C33.94 153.396 34.8427 154.373 35.9085 155.147C36.9742 155.922 38.1821 156.48 39.4633 156.787V156.787C40.3019 156.986 41.1626 157.075 42.0241 157.054C44.0588 157.121 46.0626 156.542 47.7491 155.402L74.1438 139.57V202.828H133.78H145.41V140.95L145.395 139.316Z" stroke="black" stroke-width="3" stroke-linecap="round" stroke-linejoin="round"/>
<path d="M120.527 110.858C120.527 114.529 112.798 116.737 103.263 116.737C93.7284 116.737 85.9971 114.525 85.9971 110.858" stroke="black" stroke-width="2.893" stroke-miterlimit="10"/>
<path d="M127.59 74.1162C127.59 74.1162 127.486 85.7171 132.86 85.7693L119.562 88.8244L114.199 78.6904L127.59 74.1162Z" fill="black" stroke="black" stroke-width="3" stroke-linecap="round" stroke-linejoin="round"/>
<path d="M121.955 65.2995C121.955 65.2995 123.938 63.8035 125.9 64.08C125.9 64.08 129.542 63.8588 128.457 70.9251C128.457 70.9251 126.917 80.4431 121.98 77.8815C121.979 77.8775 122.359 68.5988 121.955 65.2995Z" fill="#FFE7DD" stroke="black" stroke-width="3" stroke-miterlimit="10"/>
<path fill-rule="evenodd" clip-rule="evenodd" d="M70.0777 75.4862C72.5777 81.7886 79.1787 103.818 101.033 103.211C102.495 103.239 103.948 102.965 105.298 102.404C110.769 99.8294 127.064 91.0482 121.376 62.6086C121.272 62.0888 120.895 60.4759 120.703 59.8772C119.273 55.4088 112.658 38.0205 95.1667 37.722C95.1667 37.722 63.4988 36.6864 69.0572 71.746C69.2588 73.0264 69.6011 74.2808 70.0777 75.4862Z" fill="#FFE7DD" stroke="black" stroke-width="3" stroke-miterlimit="10"/>
<path d="M97.5972 77.3389L98.2354 79.4304C98.2354 79.4304 96.2315 80.9975 96.7986 82.2621C96.7986 82.2621 97.2567 83.9936 99.7867 83.1469" stroke="black" stroke-width="3" stroke-miterlimit="10" stroke-linecap="round"/>
<path d="M87.1176 68.5928C86.3742 69.6814 85.4116 70.6025 84.2915 71.2976C83.1713 71.9926 81.9184 72.4461 80.6129 72.629" stroke="black" stroke-width="3" stroke-miterlimit="10" stroke-linecap="round"/>
<path d="M110.381 65.4389C109.164 65.9437 107.854 66.1886 106.536 66.1576C105.219 66.1266 103.922 65.8203 102.73 65.2588" stroke="black" stroke-width="3" stroke-miterlimit="10" stroke-linecap="round"/>
<path d="M110.538 70.2656L104.535 73.1172L111.078 73.3098" stroke="black" stroke-width="3" stroke-linecap="round" stroke-linejoin="round"/>
<path d="M82.2402 76.7793L88.8609 76.1836L83.3247 79.6758" stroke="black" stroke-width="3" stroke-linecap="round" stroke-linejoin="round"/>
<path d="M96.2447 93.0529C97.4707 91.38 99.2465 90.1922 101.261 89.6978C103.275 89.2034 105.399 89.4341 107.26 90.3493" stroke="black" stroke-width="3" stroke-miterlimit="10" stroke-linecap="round"/>
<path d="M109.055 34.9856C98.4131 29.9012 86.9859 29.7479 76.471 36.9524C56.6214 41.7983 60.8883 80.1384 68.5533 77.012C73.7065 74.9086 76.565 62.1401 77.8857 53.9917C79.7862 58.2839 83.8193 63.238 92.3003 62.7712L89.8611 58.7563C89.8611 58.7563 105.524 61.592 114.435 60.5454L113.561 56.743C113.561 56.743 120.686 58.4869 121.377 62.6062L121.955 65.2919C121.955 65.2919 124.81 63.0288 126.965 64.3581C126.965 64.3629 123.363 41.826 109.055 34.9856Z" fill="black" stroke="black" stroke-width="3" stroke-linecap="round" stroke-linejoin="round"/>
<path d="M57.3028 125.696L53.0177 141.707" stroke="black" stroke-width="3" stroke-linecap="round" stroke-linejoin="round"/>
</g>
</svg>
