<svg width="60" height="61" viewBox="0 0 60 61" fill="none" xmlns="http://www.w3.org/2000/svg">
<path d="M31.65 25.0819C30.6642 24.8 29.6209 24.7869 28.6283 25.0439C27.6357 25.301 26.73 25.8189 26.005 26.5439C25.2799 27.2689 24.7621 28.1747 24.505 29.1673C24.2479 30.1599 24.2611 31.2031 24.543 32.1889L31.65 25.0819Z" fill="#999999"/>
<path d="M28.522 36.1671C29.5078 36.4487 30.5509 36.4615 31.5433 36.2043C32.5358 35.9472 33.4413 35.4293 34.1663 34.7043C34.8912 33.9794 35.4091 33.0738 35.6663 32.0814C35.9235 31.089 35.9106 30.0458 35.629 29.0601L28.522 36.1671Z" fill="#999999"/>
<path d="M40.368 18.2759L17.7378 40.9062C17.1668 41.4771 17.1668 42.4028 17.7378 42.9737C18.3087 43.5447 19.2344 43.5447 19.8054 42.9737L42.4356 20.3435C43.0066 19.7725 43.0066 18.8469 42.4356 18.2759C41.8647 17.705 40.939 17.705 40.368 18.2759Z" fill="#999999"/>
<path d="M43.344 25.1253C42.6007 24.57 41.853 24.0583 41.101 23.5903L37.296 27.3904C37.9498 28.8511 38.1445 30.4759 37.8544 32.0497C37.5643 33.6235 36.803 35.0721 35.6714 36.2037C34.5398 37.3353 33.0912 38.0966 31.5174 38.3867C29.9435 38.6768 28.3187 38.4821 26.858 37.8283L24.465 40.2213C26.2769 40.8331 28.1747 41.1524 30.087 41.1673C32.617 41.136 35.1147 40.5953 37.431 39.5773C39.5334 38.6651 41.5189 37.5042 43.345 36.1193C45.3325 34.6467 47.1545 32.9629 48.779 31.0974L49.179 30.6193L48.779 30.1413C47.1538 28.2779 45.3315 26.5961 43.344 25.1253V25.1253Z" fill="#999999"/>
<path d="M16.83 36.1241C17.5733 36.6795 18.321 37.1911 19.073 37.6591L22.878 33.8542C22.2242 32.3934 22.0295 30.7686 22.3196 29.1948C22.6097 27.621 23.371 26.1724 24.5026 25.0407C25.6342 23.9091 27.0828 23.1479 28.6566 22.8578C30.2305 22.5677 31.8553 22.7624 33.316 23.4161L35.709 21.0232C33.8968 20.4111 31.9987 20.0917 30.086 20.0771C27.5563 20.1086 25.0589 20.6497 22.743 21.6682C20.6405 22.5798 18.655 23.7404 16.829 25.1252C14.8416 26.598 13.0196 28.2818 11.395 30.1472L10.995 30.6252L11.395 31.1031C13.02 32.9682 14.8423 34.6517 16.83 36.1241Z" fill="#999999"/>
</svg>
