<svg xmlns="http://www.w3.org/2000/svg" width="102" height="102.04" viewBox="0 0 102 102.04">
  <g id="icn_google" transform="translate(1 1.037)">
    <path id="패스_8779-4" data-name="패스 8779-4" d="M347.044,683.838a50,50,0,1,1-16.279-10.884A50,50,0,0,1,347.044,683.838Z" transform="translate(-261.652 -669.154)" fill="none" stroke="#d6d6d6" stroke-width="2"/>
    <g id="그룹_15798" data-name="그룹 15798" transform="translate(21.451 22.311)">
      <path id="패스_13931" data-name="패스 13931" d="M329.831,711.856a32.6,32.6,0,0,0-.517-5.806H302.578v10.98h15.278a13.059,13.059,0,0,1-5.665,8.568v7.124h9.174c5.368-4.943,8.465-12.221,8.465-20.866Z" transform="translate(-274.191 -682.824)" fill="#3e82f1"/>
      <path id="패스_13932" data-name="패스 13932" d="M304.668,738.73c7.665,0,14.091-2.542,18.787-6.877l-9.174-7.124a17.126,17.126,0,0,1-25.5-8.994H279.3v7.356a28.376,28.376,0,0,0,25.368,15.639Z" transform="translate(-276.28 -681.954)" fill="#32a753"/>
      <path id="패스_13933" data-name="패스 13933" d="M289.032,717.229a16.779,16.779,0,0,1,0-10.786v-7.355h-9.483a28.421,28.421,0,0,0,0,25.5l9.483-7.356Z" transform="translate(-276.529 -683.449)" fill="#f9bb00"/>
      <path id="패스_13934" data-name="패스 13934" d="M304.668,696.027a15.335,15.335,0,0,1,10.852,4.246l8.143-8.143a27.284,27.284,0,0,0-18.995-7.393A28.374,28.374,0,0,0,279.3,700.376l9.483,7.355a16.919,16.919,0,0,1,15.884-11.7Z" transform="translate(-276.28 -684.737)" fill="#e74133"/>
    </g>
  </g>
</svg>
