<svg xmlns="http://www.w3.org/2000/svg" width="120" height="120" viewBox="0 0 120 120">
  <g id="icon_sp_08" transform="translate(-130 -1425)">
    <rect id="사각형_3378" data-name="사각형 3378" width="120" height="120" transform="translate(130 1425)" fill="none"/>
    <g id="그룹_22043" data-name="그룹 22043" transform="translate(-1701.699 -1356.481)">
      <path id="패스_14170" data-name="패스 14170" d="M1845.7,2850.455h10.77l3.076-5.07,7.693,13.938,9.231-19.007,4.615,10.139h6.554" fill="none" stroke="#4ac6fd" stroke-linejoin="round" stroke-width="3"/>
      <g id="그룹_22042" data-name="그룹 22042">
        <path id="패스_14167" data-name="패스 14167" d="M1877.4,2830.817a27.89,27.89,0,1,1,55.776-.447c-.039,13.108-11.655,33.341-17.245,42.152-3.114,4.909-8.213,8.545-14.441,8.545a16.477,16.477,0,0,1-16.477-16.477h0" fill="none" stroke="#000" stroke-linejoin="round" stroke-width="3"/>
        <path id="패스_14168" data-name="패스 14168" d="M1904.452,2837.419c0-6.724-4.471-12.374-10.383-13.122l-1.3-.082" fill="none" stroke="#000" stroke-linejoin="round" stroke-width="3"/>
        <path id="패스_16021" data-name="패스 16021" d="M1919.219,2845.658s8.8-26.228-14.767-26.791c-3.651-.087-14.393,1.218-13.668,12.439.316,4.89,2.753,6.635,5.111,9.3,4.9,5.544-2.7,15.574-3.1,16.733-.427,1.248-1.132,5.387,6.062,7.571" fill="none" stroke="#000" stroke-width="3"/>
      </g>
    </g>
  </g>
</svg>
