<svg xmlns="http://www.w3.org/2000/svg" width="120" height="120" viewBox="0 0 120 120">
  <g id="icon_sp_07" transform="translate(-470 -1425)">
    <rect id="사각형_3379" data-name="사각형 3379" width="120" height="120" transform="translate(470 1425)" fill="none" opacity="0.192"/>
    <g id="그룹_22044" data-name="그룹 22044" transform="translate(179.777 -1351.807)">
      <path id="패스_16022" data-name="패스 16022" d="M315.333,2838.346c0,3.827,3.006,7.023,2.428,7.928-3.248,5.082,4.4,15.621,13.9,8.473,1.215,4.028,2.8,8.061,10.684,6.392,2.638,4.69,9.189,5,12.944,1.887a28.951,28.951,0,0,1,10.73,10.46l3.368,5.357,9.018-3.22-9.018-11.545s8.354,5.31,13.043-3.22c0,0,7.074-.064,8.449-10.1,8.8-5.51,7.55-20.889-1.483-25.19a8.584,8.584,0,0,0-8.041-10.416c-3.485-7.047-24.488-10.235-30.945-4.036-5.577-3.612-11.878-.984-16.184,2.519" fill="none" stroke="#000" stroke-linejoin="round" stroke-width="3"/>
      <path id="패스_16023" data-name="패스 16023" d="M390.879,2850.754s-12,4.915-16.931-3.442a10.642,10.642,0,0,1-1.439-5.268c-.032-2.576.628-6.363,4.374-8.244" fill="none" stroke="#000" stroke-linejoin="round" stroke-width="3"/>
      <path id="패스_16024" data-name="패스 16024" d="M376.372,2850.228s-4.486,4.665-11.873.791" fill="none" stroke="#000" stroke-linejoin="round" stroke-width="3"/>
      <path id="패스_16025" data-name="패스 16025" d="M331.661,2854.747s-.4-9.774,8.748-11.487a13.311,13.311,0,0,1,6.353.481c3.391,1.045,10.436,2.183,11.464-5.939" fill="none" stroke="#000" stroke-linejoin="round" stroke-width="3"/>
      <path id="패스_16026" data-name="패스 16026" d="M304.222,2826.416h14.926l4.378-8.317,7.688,15.258,4.206-6.941h17.827" fill="none" stroke="#4ac6fd" stroke-width="3"/>
    </g>
  </g>
</svg>
