<svg xmlns="http://www.w3.org/2000/svg" width="120" height="120" viewBox="0 0 120 120">
  <g id="icon_sp_05" transform="translate(-470 -835)">
    <rect id="사각형_3374" data-name="사각형 3374" width="120" height="120" transform="translate(470 835)" fill="none" opacity="0.192"/>
    <g id="그룹_22037" data-name="그룹 22037" transform="translate(1371.893 -2184.671)">
      <path id="패스_16004" data-name="패스 16004" d="M-815.158,3124.95a145.5,145.5,0,0,1,1.2-22.054c1.766-11.627,6.823-14.026,10.113-24.023,3.208-9.75,5.03-28.908-15.986-40.134,0,0-23.7-12.245-41.822,4.372a24.017,24.017,0,0,0-7.045,11.358,38.361,38.361,0,0,0-.84,12.913c.365,4.5.475,5.832-1.221,8.335-.868,1.281-3.5,4.708-5.618,7.427a3.85,3.85,0,0,0,1.342,5.818l5.4,2.658,1.422,10.4a6.348,6.348,0,0,0,7.085,5.438l8.536-1.027a5.528,5.528,0,0,1,6.188,5.488v12.853" fill="none" stroke="#000" stroke-linejoin="round" stroke-width="3"/>
      <path id="패스_16005" data-name="패스 16005" d="M-847.315,3077.572s10.807.019,10.807-12.481c0,0,.082,12.481,10.97,12.481,0,0-10.97.019-10.97,11.589C-836.508,3089.161-836.426,3077.572-847.315,3077.572Z" fill="#4ac6fd" stroke="#000" stroke-linejoin="round" stroke-width="3"/>
      <path id="패스_16006" data-name="패스 16006" d="M-886.557,3111.794s7.407.012,7.407-8.555c0,0,.056,8.555,7.519,8.555,0,0-7.519.012-7.519,7.942C-879.15,3119.736-879.094,3111.794-886.557,3111.794Z" fill="#4ac6fd" stroke="#000" stroke-linejoin="round" stroke-width="3"/>
    </g>
  </g>
</svg>
