<svg xmlns="http://www.w3.org/2000/svg" width="120" height="120" viewBox="0 0 120 120">
  <g id="icon_sp_01" transform="translate(0 -0.413)">
    <rect id="사각형_3375" data-name="사각형 3375" width="120" height="120" transform="translate(0 0.413)" fill="none"/>
    <g id="그룹_22036" data-name="그룹 22036" transform="translate(27 10.461)">
      <path id="패스_16001" data-name="패스 16001" d="M685.408,2841.827c-3.5,3.742-11,10.107-19.993,7.941a1.851,1.851,0,0,0-2.309,1.85l.037.971a1.841,1.841,0,0,0,.906,1.52l6.28,3.706a1.84,1.84,0,0,0,1.219.234l7.458-1.159a1.842,1.842,0,0,0,.872-.385l6.548-5.269a1.842,1.842,0,0,0,.584-.828l1.269-3.628a1.807,1.807,0,0,0,.1-.482l.211-3.082a1.826,1.826,0,0,0-.075-.659h0A1.84,1.84,0,0,0,685.408,2841.827Z" transform="translate(-641.421 -2792.343)" fill="#4ac6fd" stroke="#000" stroke-linejoin="round" stroke-width="3"/>
      <path id="패스_16002" data-name="패스 16002" d="M672.228,2795.728v14.51c-.416-7.136-2.672-12.363-8.465-12.785-10.773-.784-30.236,42.606-15.568,41.986,6.416-.272,13.059-1.65,15-2.676,4.368-2.307,7.046-4.4,8.51-14.91a30.224,30.224,0,0,0,.521-3.748s-.654,20.61,4.927,28.188c-4.167,2.557-9.193.061-12.274,5.222a7,7,0,0,0-.2,5.467c1.676,3.726,9.014,6.223,16.314,3.218,13.817-5.687,10.252-24.956.9-18.14-4.4-8.32-3.143-24.511-3.143-24.511a32.484,32.484,0,0,0,.548,4.3c1.465,10.511,4.142,12.6,8.511,14.91,1.941,1.026,8.584,2.4,15,2.676,14.669.62-4.795-42.77-15.568-41.986-5.922.431-8.149,5.92-8.492,13.261v-14.987" transform="translate(-642.922 -2795.728)" fill="#4ac6fd" stroke="#000" stroke-linejoin="round" stroke-width="3"/>
      <path id="패스_16003" data-name="패스 16003" d="M664.185,2852.813h-9.937a5.7,5.7,0,0,0-5.7,5.7h0a5.729,5.729,0,0,0,5.727,5.729H697.16a4.463,4.463,0,0,1,4.463,4.446h0a4.463,4.463,0,0,1-4.463,4.48H653.031a4.463,4.463,0,0,0-4.463,4.446h0a4.463,4.463,0,0,0,4.463,4.48h44.112a4.463,4.463,0,0,1,4.463,4.464v7.566" transform="translate(-642.503 -2791.482)" fill="none" stroke="#000" stroke-linejoin="round" stroke-width="3"/>
    </g>
  </g>
</svg>
