<svg width="120" height="120" viewBox="0 0 120 120" fill="none" xmlns="http://www.w3.org/2000/svg">
<path d="M60 120C93.1371 120 120 93.1371 120 60C120 26.8629 93.1371 0 60 0C26.8629 0 0 26.8629 0 60C0 93.1371 26.8629 120 60 120Z" fill="white"/>
<path d="M60 119.5C92.8609 119.5 119.5 92.8609 119.5 60C119.5 27.1391 92.8609 0.5 60 0.5C27.1391 0.5 0.5 27.1391 0.5 60C0.5 92.8609 27.1391 119.5 60 119.5Z" stroke="#BCB8B8"/>
<path d="M60 111C88.1665 111 111 88.1665 111 60C111 31.8335 88.1665 9 60 9C31.8335 9 9 31.8335 9 60C9 88.1665 31.8335 111 60 111Z" fill="#F4F6FA"/>
<path d="M76.7302 35.4688H78.9482C79.7253 35.4688 80.4705 35.7774 81.02 36.3269C81.5695 36.8764 81.8782 37.6216 81.8782 38.3987V86.5988C81.8782 87.3758 81.5695 88.1211 81.02 88.6705C80.4705 89.22 79.7253 89.5287 78.9482 89.5287H41.0482C40.271 89.5287 39.5256 89.2201 38.976 88.6707C38.4263 88.1212 38.1175 87.3759 38.1172 86.5988V38.3987C38.1175 37.6215 38.4263 36.8764 38.976 36.3269C39.5256 35.7775 40.271 35.4687 41.0482 35.4688H43.2662" fill="white"/>
<path d="M76.7302 35.4688H78.9482C79.7253 35.4688 80.4705 35.7774 81.02 36.3269C81.5695 36.8764 81.8782 37.6216 81.8782 38.3987V86.5988C81.8782 87.3758 81.5695 88.1211 81.02 88.6705C80.4705 89.22 79.7253 89.5287 78.9482 89.5287H41.0482C40.271 89.5287 39.5256 89.2201 38.976 88.6707C38.4263 88.1212 38.1175 87.3759 38.1172 86.5988V38.3987C38.1175 37.6215 38.4263 36.8764 38.976 36.3269C39.5256 35.7775 40.271 35.4687 41.0482 35.4688H43.2662" stroke="black" stroke-width="3" stroke-linejoin="round"/>
<path d="M47.125 67.5076L50.442 70.8246L55.417 65.8496" stroke="#4AC6FF" stroke-width="3" stroke-linejoin="round"/>
<path d="M60.3945 69.166H74.1725" stroke="black" stroke-width="3" stroke-linejoin="round"/>
<path d="M47.125 77.4587L50.442 80.7758L55.417 75.8008" stroke="#4AC6FF" stroke-width="3" stroke-linejoin="round"/>
<path d="M60.3945 79.1172H74.1725" stroke="black" stroke-width="3" stroke-linejoin="round"/>
<path d="M52.9336 50.5684H67.0586" stroke="black" stroke-width="3" stroke-miterlimit="10"/>
<path d="M59.9883 57.6309V43.5059" stroke="black" stroke-width="3" stroke-miterlimit="10"/>
<path d="M55.9001 30.3203H64.1001C65.0831 30.3203 66.0566 30.5139 66.9648 30.8902C67.8731 31.2664 68.6983 31.8178 69.3935 32.5129C70.0886 33.2081 70.64 34.0333 71.0162 34.9415C71.3924 35.8498 71.5861 36.8232 71.5861 37.8063V38.0433H48.4141V37.8063C48.4141 35.8209 49.2028 33.9168 50.6067 32.5129C52.0106 31.109 53.9147 30.3203 55.9001 30.3203V30.3203Z" fill="white" stroke="black" stroke-width="3" stroke-linejoin="round"/>
</svg>
