<svg width="120" height="120" viewBox="0 0 120 120" fill="none" xmlns="http://www.w3.org/2000/svg">
<path d="M60 120C93.1371 120 120 93.1371 120 60C120 26.8629 93.1371 0 60 0C26.8629 0 0 26.8629 0 60C0 93.1371 26.8629 120 60 120Z" fill="white"/>
<path d="M60 119.5C92.8609 119.5 119.5 92.8609 119.5 60C119.5 27.1391 92.8609 0.5 60 0.5C27.1391 0.5 0.5 27.1391 0.5 60C0.5 92.8609 27.1391 119.5 60 119.5Z" stroke="#BCB8B8"/>
<path d="M60 9C70.0868 9 79.9472 11.9911 88.3341 17.595C96.721 23.199 103.258 31.1641 107.118 40.4831C110.978 49.8022 111.988 60.0566 110.02 69.9496C108.052 79.8426 103.195 88.93 96.0624 96.0624C88.93 103.195 79.8426 108.052 69.9496 110.02C60.0566 111.988 49.8022 110.978 40.4831 107.118C31.1641 103.258 23.199 96.721 17.595 88.3341C11.9911 79.9472 9 70.0868 9 60C9 46.474 14.3732 33.5019 23.9376 23.9376C33.5019 14.3732 46.474 9 60 9Z" fill="#F4F6FA"/>
<path d="M77.8276 40.5352V42.0151C77.8448 42.992 77.4733 43.9357 76.7948 44.6387C76.1163 45.3417 75.1865 45.7465 74.2097 45.7642H72.9456C71.9688 45.7465 71.0389 45.3417 70.3605 44.6387C69.682 43.9357 69.3105 42.992 69.3276 42.0151V40.5352H50.6746V42.0151C50.6917 42.992 50.3202 43.9357 49.6418 44.6387C48.9633 45.3417 48.0335 45.7465 47.0566 45.7642H45.7927C44.816 45.7463 43.8864 45.3414 43.2081 44.6384C42.5299 43.9354 42.1585 42.9918 42.1757 42.0151V40.5352H31.3477V84.2612H88.6556V40.5352H77.8276Z" fill="white" stroke="black" stroke-width="3" stroke-linecap="round" stroke-linejoin="round"/>
<path d="M64.5352 59.248H79.2272" stroke="black" stroke-width="3" stroke-linejoin="round"/>
<path d="M64.5352 70.2656H79.2272" stroke="black" stroke-width="3" stroke-linejoin="round"/>
<path d="M49.923 63.639C52.6657 63.639 54.889 61.4157 54.889 58.673C54.889 55.9304 52.6657 53.707 49.923 53.707C47.1804 53.707 44.957 55.9304 44.957 58.673C44.957 61.4157 47.1804 63.639 49.923 63.639Z" fill="#4AC6FF"/>
<path d="M39.8493 74.0789C39.7493 69.0579 44.1793 64.9138 49.7433 64.8238C55.3073 64.7338 59.8993 68.7317 59.9993 73.7527C59.9993 73.862 59.9993 73.9709 59.9993 74.0789H39.8493Z" fill="#4AC6FF"/>
</svg>
